<?xml version="1.0" encoding="UTF-8"?>
<svg width="47px" height="30px" viewBox="0 0 47 30" version="1.1" xmlns="http://www.w3.org/2000/svg" xmlns:xlink="http://www.w3.org/1999/xlink">
    <!-- Generator: sketchtool 55 (78076) - https://sketchapp.com -->
    <title>CBC4351F-2A48-44C6-A8E3-3A725460C94D</title>
    <desc>Created with sketchtool.</desc>
    <g id="Cub-Cadet-Style-Guide" stroke="none" stroke-width="1" fill="none" fill-rule="evenodd">
        <g id="07.-Icons" transform="translate(-998.000000, -925.000000)">
            <g id="Am-Ex-Logo" transform="translate(998.000000, 925.000000)">
                <g id="am-ex-logo">
                    <rect id="bkgd-outline" stroke="#D9D9D9" fill="#FFFFFF" x="0.5" y="0.5" width="46" height="29" rx="2"></rect>
                    <path d="M32.14358,19.39514 C32.43818,19.39514 32.70398,19.31944 32.91598,19.18834 L32.91598,25.00004 L12.99998,25.00004 L12.99998,14.75614 L13.99418,14.75614 L14.18938,14.24574 L14.60748,14.24574 L14.80618,14.75614 L22.62058,14.75614 L22.62058,14.27664 L22.99068,14.75614 L25.14888,14.75614 L25.14888,14.50014 C25.44988,14.69684 25.80998,14.75614 26.12178,14.75614 L27.38598,14.75614 L27.58118,14.24574 L27.99918,14.24574 L28.19778,14.75614 L30.34588,14.75614 L30.34588,14.24574 L30.65768,14.75614 L32.12728,14.75614 L32.12728,11.28924 L30.57198,11.28924 L30.57198,11.83054 L30.23968,11.28924 L28.80768,11.28924 L28.80768,12.01744 L28.49248,11.28924 L26.15958,11.28924 C25.78518,11.28924 25.43198,11.37634 25.14888,11.56814 L25.14888,11.28924 L17.61198,11.28924 L17.39268,11.91964 L17.16998,11.28924 L15.41598,11.28924 L15.41598,12.01744 L15.10078,11.28924 L13.68248,11.28924 L12.99998,12.88104 L12.99998,5.08394 L32.91598,5.08394 L32.91598,15.92804 L20.55038,15.92804 L20.21128,16.40094 L19.87218,15.92804 L16.34008,15.92804 L16.34008,19.39514 L19.85838,19.39514 L20.19408,18.91214 L20.53668,19.39514 L22.71898,19.39514 L22.71898,18.62084 L22.80128,18.62084 C23.07118,18.62084 23.31808,18.57354 23.53098,18.48864 L23.53098,19.39514 L25.06908,19.39514 L25.06908,18.91544 L25.43908,19.39514 L32.14358,19.39514 Z M18.7628133,16.80589 L17.4156682,16.80589 L17.4156682,17.26489 L18.7319182,17.26489 L18.7319182,17.74789 L17.4156682,17.74789 L17.4156682,18.22429 L18.7628133,18.22429 L18.7628133,18.71069 L16.8487238,18.71069 L16.8487238,16.31249 L18.7628133,16.31249 L18.7628133,16.80589 Z M20.7560463,18.71069 L20.1581065,17.92609 L19.5601667,18.71069 L18.8728519,18.71069 L19.8351127,17.51159 L18.869341,16.31249 L19.5773194,16.31249 L20.1717485,17.09019 L20.7696883,16.31249 L21.4571034,16.31249 L20.4948426,17.50129 L21.4639244,18.71069 L20.7560463,18.71069 Z M21.5772731,16.31249 L22.8935231,16.31249 C23.4054985,16.31249 23.7216713,16.63789 23.7216713,17.11419 C23.7216713,17.57319 23.3986775,17.91589 22.8728596,17.91589 L22.1443179,17.91589 L22.1443179,18.71069 L21.5772731,18.71069 L21.5772731,16.31249 Z M23.1513164,17.11749 C23.1513164,16.94629 23.0480988,16.81259 22.8419645,16.81259 L22.1443179,16.81259 L22.1443179,17.41559 L22.8419645,17.41559 C23.0480988,17.41559 23.1513164,17.28219 23.1513164,17.11749 Z M24.6047886,17.83009 L24.6047886,18.71069 L24.0378441,18.71069 L24.0378441,16.31249 L25.336841,16.31249 C25.8488164,16.31249 26.1649892,16.62429 26.1649892,17.06629 C26.1649892,17.44649 25.9244491,17.73419 25.5189012,17.80959 L26.3127438,18.71069 L25.6048657,18.71069 L24.8729136,17.83009 L24.6047886,17.83009 Z M25.2851821,16.81259 L24.6047886,16.81259 L24.6047886,17.36089 L25.2851821,17.36089 C25.4914167,17.36089 25.5944336,17.23749 25.5944336,17.08679 C25.5944336,16.93609 25.4914167,16.81259 25.2851821,16.81259 Z M28.3951512,16.80589 L27.0481065,16.80589 L27.0481065,17.26489 L28.3642562,17.26489 L28.3642562,17.74789 L27.0481065,17.74789 L27.0481065,18.22429 L28.3951512,18.22429 L28.3951512,18.71069 L26.4810617,18.71069 L26.4810617,16.31249 L28.3951512,16.31249 L28.3951512,16.80589 Z M29.9416096,18.21049 C30.0825432,18.21049 30.1821497,18.12139 30.1821497,17.98769 C30.1821497,17.84389 30.0825432,17.75479 29.9416096,17.75479 L29.3952284,17.75479 C28.9415324,17.75479 28.6460231,17.50469 28.6460231,17.05929 C28.6460231,16.62779 28.9587855,16.31249 29.4742716,16.31249 L30.7079676,16.31249 L30.4845802,16.81259 L29.453608,16.81259 C29.3126744,16.81259 29.2130679,16.90189 29.2130679,17.03549 C29.2130679,17.17249 29.3126744,17.26489 29.453608,17.26489 L29.9999892,17.26489 C30.4673272,17.26489 30.7491944,17.51849 30.7491944,17.95009 C30.7491944,18.39549 30.4398426,18.71069 29.920946,18.71069 L28.7148349,18.71069 L28.7148349,18.21049 L29.9416096,18.21049 Z M32.1547191,18.21049 C32.2955525,18.21049 32.395159,18.12139 32.395159,17.98769 C32.395159,17.84389 32.2955525,17.75479 32.1547191,17.75479 L31.608338,17.75479 C31.1547423,17.75479 30.8591327,17.50469 30.8591327,17.05929 C30.8591327,16.62779 31.1718951,16.31249 31.6872809,16.31249 L32.9209769,16.31249 L32.6976898,16.81259 L31.6667176,16.81259 C31.5258843,16.81259 31.4260772,16.90189 31.4260772,17.03549 C31.4260772,17.17249 31.5258843,17.26489 31.6667176,17.26489 L32.2130988,17.26489 C32.6804367,17.26489 32.962304,17.51849 32.962304,17.95009 C32.962304,18.39549 32.6529522,18.71069 32.1340556,18.71069 L30.9278441,18.71069 L30.9278441,18.21049 L32.1547191,18.21049 Z M15.194276,14.375 L14.9862417,13.8464566 L13.7973298,13.8464566 L13.592837,14.375 L13,14.375 L14.0398678,11.875 L14.7957122,11.875 L15.8321398,14.375 L15.194276,14.375 Z M14.2132972,12.7821765 L13.9775385,13.3892196 L14.8095744,13.3892196 L14.5702743,12.7821765 L14.3899644,12.2928308 L14.2132972,12.7821765 Z M16.4872049,12.7356814 L16.4942878,14.375 L15.9533582,14.375 L15.9533582,11.875 L16.8581454,11.875 L17.2706726,13.1857252 L17.4197166,13.7464816 L17.5688618,13.1857252 L17.9811865,11.875 L18.8825335,11.875 L18.8825335,14.375 L18.3453477,14.375 L18.3522282,12.7356814 L18.3729709,12.1572026 L18.1962025,12.7356814 L17.6831997,14.375 L17.1527932,14.375 L16.6432307,12.7356814 L16.4664622,12.160747 L16.4872049,12.7356814 Z M21.277862,12.3893655 L19.9189611,12.3893655 L19.9189611,12.8678694 L21.2466974,12.8678694 L21.2466974,13.371393 L19.9189611,13.371393 L19.9189611,13.8678277 L21.277862,13.8678277 L21.277862,14.375 L19.3470692,14.375 L19.3470692,11.875 L21.277862,11.875 L21.277862,12.3893655 Z M22.2519603,13.4571901 L22.2519603,14.375 L21.6799672,14.375 L21.6799672,11.875 L22.9902998,11.875 C23.5068441,11.875 23.8256748,12.1999447 23.8256748,12.6607262 C23.8256748,13.0571859 23.5830356,13.3571108 23.1740499,13.4357147 L23.97482,14.375 L23.2606634,14.375 L22.5223239,13.4571901 L22.2519603,13.4571901 Z M22.9383924,12.3963502 L22.2519603,12.3963502 L22.2519603,12.9678443 L22.9383924,12.9678443 C23.1463255,12.9678443 23.2503427,12.8394093 23.2503427,12.6822015 C23.2503427,12.5249937 23.1463255,12.3963502 22.9383924,12.3963502 Z M24.1446068,14.375 L24.1446068,13.1250521 L24.1446068,11.875 L24.7165998,11.875 L24.7165998,13.1250521 L24.7165998,14.375 L24.1446068,14.375 Z M26.1897375,14.375 C25.4895443,14.3679111 25.0702379,13.8856543 25.0702379,13.1500719 L25.0702379,13.1000323 C25.0702379,12.3928058 25.4826638,11.875 26.2278839,11.875 L26.8970136,11.875 L26.8970136,12.4036477 L26.2730119,12.4036477 C25.8569434,12.4036477 25.6420286,12.7035726 25.6420286,13.1071213 L25.6420286,13.1428787 C25.6420286,13.5929225 25.8777873,13.850001 26.2799936,13.850001 L26.4531194,13.850001 L26.2174619,14.375 L26.1897375,14.375 Z M28.7133673,14.375 L28.5053331,13.8464566 L27.3164212,13.8464566 L27.1118272,14.375 L26.5190914,14.375 L27.5589592,11.875 L28.3146013,11.875 L29.3512312,14.375 L28.7133673,14.375 Z M27.7323886,12.7821765 L27.4966299,13.3892196 L28.3285646,13.3892196 L28.0893657,12.7821765 L27.909157,12.2928308 L27.7323886,12.7821765 Z M30.0201585,12.9856709 L30.0201585,14.375 L29.4724496,14.375 L29.4724496,11.875 L30.1693037,11.875 L30.9908165,13.210745 L31.2265752,13.6250313 L31.2092728,13.2035518 L31.2092728,11.875 L31.75,11.875 L31.75,14.375 L31.0879532,14.375 L30.2350733,12.9749333 L30.0028561,12.5678402 L30.0201585,12.9856709 Z" id="Combined-Shape" fill="#0D79BE"></path>
                </g>
            </g>
        </g>
    </g>
</svg>