<?xml version="1.0" encoding="UTF-8" standalone="no"?>
<svg
   xmlns:dc="http://purl.org/dc/elements/1.1/"
   xmlns:cc="http://creativecommons.org/ns#"
   xmlns:rdf="http://www.w3.org/1999/02/22-rdf-syntax-ns#"
   xmlns:svg="http://www.w3.org/2000/svg"
   xmlns="http://www.w3.org/2000/svg"
   viewBox="0 0 192.01407 277.63883"
   version="1.1"
   id="svg4"
   width="13.51925"
   height="20.270348">
  <defs
     id="defs6" />
  <path
     style="fill:#262626"
     d="m 3.6764706,176.00677 c 5,-5.1 13.3000004,-5.1 18.4000004,-0.1 l 60.9,60.7 v -231.3 c 0,-7.1 5.8,-12.9 13,-12.9 7.199999,0 12.999999,5.8 12.999999,12.9 v 231.3 l 60.9,-60.8 c 5.1,-5 13.3,-4.9 18.4,0.1 5,5.1 5,13.2 -0.1,18.3 l -83,82.4 c -1.2,1.1 -2.5,2 -4.1,2.7 -1.599999,0.7 -3.299999,1 -4.999999,1 -3.4,0 -6.6,-1.3 -9.1,-3.7 l -83.0000004,-82.4 c -5.2,-4.9 -5.3,-13.1 -0.3,-18.2 z"
     id="path2" />
</svg>
