<?xml version="1.0" encoding="UTF-8" standalone="no"?>
<svg
   xmlns:osb="http://www.openswatchbook.org/uri/2009/osb"
   xmlns:dc="http://purl.org/dc/elements/1.1/"
   xmlns:cc="http://creativecommons.org/ns#"
   xmlns:rdf="http://www.w3.org/1999/02/22-rdf-syntax-ns#"
   xmlns:svg="http://www.w3.org/2000/svg"
   xmlns="http://www.w3.org/2000/svg"
   height="30"
   width="30"
   id="svg4"
   version="1.1"
   viewBox="0 0 426.09036 410.9039">
  <path
     id="path2"
     fill="#262626"
     d="m 305.37574,165.80195 c -5,5.1 -13.3,5.1 -18.4,0.1 l -60.9,-60.7 v 231.3 c 0,7.1 -5.8,12.9 -13,12.9 -7.2,0 -13,-5.8 -13,-12.9 v -231.3 l -60.9,60.8 c -5.1,5 -13.3,4.9 -18.4,-0.1 -5,-5.1 -5,-13.2 0.1,-18.3 l 83,-82.399999 c 1.2,-1.1 2.5,-2 4.1,-2.7 1.6,-0.7 3.3,-1 5,-1 3.4,0 6.6,1.3 9.1,3.7 l 83,82.399999 c 5.2,4.9 5.3,13.1 0.3,18.2 z" />
  <ellipse
     ry="195"
     rx="203"
     cy="205"
     cx="213"
     id="path2289"
     style="opacity:1;fill:none;fill-opacity:1;fill-rule:nonzero;stroke:#262626;stroke-width:20;stroke-miterlimit:4;stroke-dasharray:none;stroke-opacity:1" />
</svg>
