<svg xmlns="http://www.w3.org/2000/svg" width="24" height="24" viewBox="0 0 24 24">
    <path fill="#262626" fill-rule="evenodd" d="M1.089 3.085h3.318c.144 0 .3.122.467.369L7.4 15.34h11.944v.943H7.014c-.24.003-.435-.241-.495-.53L4.022 4.027H1.09v-.471-.472zm8.296 14.613c.917 0 1.66.738 1.66 1.65 0 .91-.743 1.65-1.66 1.65-.916 0-1.66-.74-1.66-1.65 0-.912.744-1.65 1.66-1.65zm7.111 0c.917 0 1.66.738 1.66 1.65 0 .91-.743 1.65-1.66 1.65-.916 0-1.659-.74-1.659-1.65 0-.912.743-1.65 1.66-1.65zM6.304 5.118L21 6.621l-1.66 7.689H8.2L6.304 5.118z"/>
</svg>
