<svg xmlns="http://www.w3.org/2000/svg" width="24" height="24" viewBox="0 0 24 24">
    <path fill="#262626" fill-rule="evenodd" d="M3.857 6a.833.833 0 0 0-.2.028l7.955 7.389c.182.169.594.169.776 0l7.956-7.39A.833.833 0 0 0 20.143 6H3.857zm-.824.653A.93.93 0 0 0 3 6.889V17.11c0 .08.015.156.033.23l5.726-5.376-5.726-5.312zm17.934 0l-5.726 5.312 5.726 5.375a.927.927 0 0 0 .033-.229V6.89a.928.928 0 0 0-.033-.236zm-11.565 5.91L3.65 17.964c.066.017.135.035.207.035h16.286c.072 0 .14-.018.207-.035l-5.752-5.403-1.634 1.514a1.415 1.415 0 0 1-1.928 0l-1.634-1.514z"/>
</svg>
