<svg
   xmlns="http://www.w3.org/2000/svg"
   id="svg10"
   version="1.1"
   viewBox="0 0 20 20"
   height="20"
   width="20">
  <g
     style="fill:none;fill-rule:evenodd"
     id="g8">
    <circle
       style="fill:#ffc20f"
       id="circle2"
       r="10"
       cy="10"
       cx="10" />
    <g
       id="text6"
       style="fill:#000000"
       aria-label="?">
      <path
         id="path4512"
         d="m 12.989,7.846 q 0,1.288 -1.316,2.058 -0.462,0.266 -0.644,0.476 -0.182,0.196 -0.21,0.532 L 10.721,12.27 H 9.279 Q 9.153,11.22 9.153,10.884 9.153,9.96 9.587,9.414 9.825,9.12 10.483,8.728 10.931,8.462 11.001,8.392 11.239,8.168 11.239,7.846 11.239,7.37 10.903,7.09 10.581,6.81 10.021,6.81 8.733,6.81 8.733,8.084 H 7.011 q 0,-1.512 0.952,-2.296 0.812,-0.672 2.058,-0.672 1.302,0 2.114,0.686 0.854,0.742 0.854,2.044 z m -1.848,6.16 q 0,0.476 -0.336,0.812 -0.336,0.322 -0.812,0.322 -0.462,0 -0.798,-0.322 -0.336,-0.336 -0.336,-0.812 0,-0.476 0.336,-0.798 0.336,-0.336 0.798,-0.336 0.476,0 0.812,0.336 0.336,0.322 0.336,0.798 z" />
    </g>
  </g>
</svg>
