<svg xmlns="http://www.w3.org/2000/svg" width="24" height="24" viewBox="0 0 24 24">
    <path fill="#262626" fill-rule="evenodd" d="M8.29 3.055c-.96.043-1.613.196-2.185.417A4.433 4.433 0 0 0 4.51 4.511c-.501.5-.81 1.002-1.039 1.594-.223.573-.374 1.227-.417 2.185C3.01 9.25 3 9.557 3 12c0 2.446.01 2.753.055 3.712.043.958.194 1.613.417 2.185a4.383 4.383 0 0 0 1.039 1.594c.5.5 1 .808 1.594 1.038.573.223 1.225.375 2.185.418.96.044 1.265.054 3.71.054 2.445 0 2.751-.01 3.712-.054.958-.043 1.611-.195 2.185-.418a4.414 4.414 0 0 0 1.594-1.038c.5-.5.808-1.003 1.038-1.594.222-.572.375-1.227.418-2.185.043-.96.053-1.266.053-3.711 0-2.444-.01-2.75-.053-3.711-.043-.958-.196-1.612-.418-2.185a4.445 4.445 0 0 0-1.038-1.594 4.42 4.42 0 0 0-1.594-1.039c-.574-.221-1.227-.374-2.185-.417C14.752 3.012 14.445 3 12 3c-2.446 0-2.75.01-3.711.055m.074 16.273c-.878-.04-1.355-.187-1.672-.311a2.795 2.795 0 0 1-1.035-.673 2.777 2.777 0 0 1-.673-1.035c-.123-.315-.27-.794-.31-1.67-.044-.95-.052-1.235-.052-3.638 0-2.404.008-2.688.051-3.637.04-.878.188-1.353.311-1.672.163-.42.36-.72.673-1.035.315-.315.615-.51 1.035-.674.317-.124.794-.27 1.672-.308.948-.045 1.233-.053 3.637-.053 2.403 0 2.687.01 3.637.053.877.039 1.353.186 1.671.308.42.164.72.359 1.035.674.316.314.51.615.674 1.035.124.317.27.794.31 1.672.043.95.052 1.233.052 3.637 0 2.403-.009 2.688-.052 3.637-.04.877-.187 1.356-.31 1.671-.164.42-.358.72-.674 1.035-.314.314-.615.51-1.035.673-.317.124-.794.27-1.67.311-.95.043-1.235.052-3.638.052-2.404 0-2.689-.009-3.637-.052m7.36-12.133a1.081 1.081 0 1 0 2.163 0 1.081 1.081 0 0 0-2.162 0m-8.346 4.806a4.62 4.62 0 1 0 9.243 0 4.62 4.62 0 0 0-9.243 0m1.622 0A3 3 0 1 1 15.003 12 3 3 0 0 1 9 12"/>
</svg>
