<?xml version="1.0" encoding="UTF-8" standalone="no"?>
<svg xmlns="http://www.w3.org/2000/svg" viewBox="0 0 150 64" height="64" width="150">
    <g style="fill:none;fill-rule:evenodd" transform="translate(-191.34375,-3.65625)" id="g10">
    <path
       style="fill:#059353"
       id="path4"
       d="m 323.84936,66.525497 c 0.365,0 0.692,-0.027 0.692,-0.47 0,-0.357 -0.32,-0.423 -0.62,-0.423 h -0.588 v 0.893 z m -0.516,1.62 h -0.43 v -2.884 h 1.083 c 0.673,0 1.005,0.252 1.005,0.82 0,0.516 -0.32,0.741 -0.737,0.794 l 0.809,1.27 h -0.482 l -0.752,-1.25 h -0.496 z m 0.522,0.641 c 1.117,0 1.998,-0.885 1.998,-2.09 0,-1.183 -0.88,-2.076 -1.998,-2.076 -1.13,0 -2.01,0.893 -2.01,2.077 0,1.204 0.88,2.09 2.01,2.09 z m -2.506,-2.09 c 0,-1.435 1.149,-2.493 2.506,-2.493 a 2.477,2.477 0 0 1 2.494,2.494 2.48,2.48 0 0 1 -2.494,2.506 c -1.357,0 -2.506,-1.058 -2.506,-2.506 z m -127.19,-11.493 h 100.19 l -2.58,14 h -100.42 z m 8.138,10.72 h 1.629 l 0.84,-3.97 h 2.804 l 0.272,-1.284 h -2.803 l 0.47,-2.218 h 2.988 l 0.272,-1.285 h -4.617 z m 6.572,-1.914 0.414,-1.955 c 0.116,-0.552 0.235,-1.115 0.95,-1.115 0.674,0 0.555,0.563 0.438,1.115 l -0.414,1.955 c -0.152,0.718 -0.27,1.03 -0.89,1.03 -0.654,0 -0.65,-0.312 -0.498,-1.03 z m -1.176,-0.81 c -0.442,2.038 -0.326,2.911 1.452,2.88 1.735,0.031 2.21,-0.842 2.631,-2.88 0.415,-2.01 0.678,-3.3 -1.323,-3.3 -2.03,0 -2.324,1.29 -2.76,3.3 z m 6.58,-2.103 0.22,-1.04 h -1.294 l -1.242,5.867 h 1.347 l 0.717,-3.39 c 0.204,-0.865 0.814,-1.052 1.544,-0.98 l 0.34,-1.601 c -0.2,0.01 -0.454,-0.011 -0.906,0.312 -0.232,0.167 -0.449,0.406 -0.705,0.832 h -0.02 z m 5.352,1.325 1.015,-2.488 c 0.168,-0.409 0.286,-0.806 0.42,-1.214 0.053,-0.199 0.118,-0.398 0.182,-0.584 h 0.023 a 9.477,9.477 0 0 1 -0.066,0.584 c -0.04,0.408 -0.089,0.805 -0.094,1.214 l -0.085,2.488 z m -3.173,3.502 h 1.745 l 0.9,-2.218 h 1.907 l -0.04,2.218 h 1.745 l -0.122,-8.757 h -2.199 z m 9.706,-5.08 -0.264,1.25 c -0.495,2.335 -0.682,4.04 1.994,4.04 0.602,-0.046 1.274,-0.303 1.792,-1.214 h 0.023 l -0.212,1.004 h 1.221 l 0.996,-4.705 h -2.71 l -0.272,1.285 h 1.128 c -0.244,1.319 -0.757,2.31 -1.687,2.31 -1.117,0 -0.925,-1.178 -0.772,-1.902 l 0.515,-2.429 c 0.143,-0.677 0.362,-2.207 1.642,-2.207 1.094,0.047 1.005,0.747 0.84,1.635 h 1.628 c 0.063,-0.35 0.15,-0.712 0.144,-1.062 -0.05,-1.518 -0.94,-1.88 -2.333,-1.893 -2.605,0 -3.13,1.659 -3.673,3.889 z m 7.786,0.382 0.214,-1.013 h -1.261 l -1.208,5.712 h 1.31 l 0.7,-3.301 c 0.197,-0.842 0.79,-1.023 1.502,-0.953 l 0.33,-1.56 c -0.194,0.011 -0.442,-0.01 -0.881,0.305 -0.226,0.162 -0.437,0.395 -0.686,0.81 z m 2.333,2.835 0.403,-1.903 c 0.113,-0.537 0.229,-1.084 0.925,-1.084 0.656,0 0.54,0.547 0.426,1.084 l -0.402,1.903 c -0.149,0.7 -0.264,1.003 -0.868,1.003 -0.636,0 -0.632,-0.304 -0.484,-1.003 z m -1.144,-0.79 c -0.43,1.985 -0.318,2.835 1.413,2.805 1.688,0.03 2.15,-0.82 2.56,-2.804 0.404,-1.955 0.66,-3.21 -1.286,-3.21 -1.978,0 -2.264,1.255 -2.687,3.21 z m 8.288,0.446 0.106,-3.504 h -1.08 l -1.29,3.524 c -0.156,0.405 -0.282,0.81 -0.39,1.225 h -0.02 c 0.053,-0.252 0.15,-1.093 0.156,-1.266 l 0.274,-3.483 h -1.382 l -0.04,5.711 h 1.464 l 0.908,-2.39 c 0.166,-0.445 0.303,-0.9 0.42,-1.356 h 0.04 c -0.063,0.486 -0.124,0.962 -0.133,1.438 l -0.055,2.308 h 1.432 l 2.36,-5.711 h -1.322 l -1.168,3.463 a 16.535,16.535 0 0 0 -0.378,1.266 h -0.03 c 0.067,-0.415 0.113,-0.82 0.128,-1.225 z m 3.077,-4.192 h 1.311 l 0.253,-1.195 h -1.31 z m -1.355,6.4 h 1.311 l 1.21,-5.712 h -1.312 l -1.209,5.711 z m 4.664,-5.124 0.124,-0.588 h -1.31 l -1.21,5.712 h 1.312 l 0.782,-3.697 c 0.108,-0.607 0.378,-1.074 0.867,-1.052 0.491,0.02 0.474,0.384 0.357,0.94 l -0.806,3.809 h 1.31 l 0.933,-4.405 c 0.257,-1.024 -0.257,-1.458 -1.002,-1.458 -0.303,0 -0.906,0.08 -1.337,0.739 z m 5.298,0.273 c 0.616,0 0.464,0.81 0.347,1.266 l -0.362,1.711 c -0.139,0.658 -0.426,1.013 -0.85,1.013 -0.403,0 -0.452,-0.436 -0.366,-0.982 l 0.403,-1.904 c 0.16,-0.567 0.213,-1.104 0.828,-1.104 z m -1.695,5.489 h -1.312 c -0.133,0.961 0.514,1.285 1.382,1.285 1.795,0 2.315,-0.93 2.562,-2.096 l 1.172,-5.539 h -1.311 l -0.124,0.588 h -0.02 c -0.072,-0.517 -0.386,-0.75 -0.984,-0.739 -0.851,0.02 -1.43,0.465 -1.792,2.035 l -0.438,2.066 c -0.163,0.91 -0.152,1.913 0.957,1.913 0.571,-0.03 0.98,-0.203 1.359,-0.749 l 0.016,0.02 -0.14,0.659 c -0.094,0.445 -0.29,0.89 -0.844,0.89 -0.161,0 -0.298,-0.02 -0.387,-0.08 -0.08,-0.051 -0.123,-0.133 -0.096,-0.253 z m 12.37,-4.866 0.087,-4.53 h -1.348 l -1.75,4.53 c -0.349,0.876 -0.668,1.997 -1.033,3.118 h -0.023 c 0.033,-0.21 0.065,-0.42 0.086,-0.63 0.101,-0.748 0.19,-1.495 0.231,-2.242 l 0.278,-4.776 h -1.686 l -0.192,8.757 h 1.955 l 1.313,-3.456 c 0.37,-0.923 0.626,-1.857 0.94,-2.79 h 0.024 c -0.082,0.933 -0.221,1.867 -0.242,2.79 l -0.081,3.456 h 1.954 l 3.47,-8.757 h -1.686 l -1.662,4.776 a 33.345,33.345 0 0 0 -0.72,2.242 c -0.067,0.21 -0.123,0.42 -0.19,0.63 h -0.025 c 0.122,-1.12 0.279,-2.242 0.3,-3.118 z m 3.59,2.364 0.402,-1.903 c 0.114,-0.537 0.23,-1.084 0.926,-1.084 0.654,0 0.54,0.547 0.425,1.084 l -0.402,1.903 c -0.149,0.7 -0.263,1.003 -0.869,1.003 -0.635,0 -0.63,-0.304 -0.483,-1.003 z m -1.144,-0.79 c -0.431,1.985 -0.319,2.835 1.413,2.805 1.688,0.03 2.15,-0.82 2.56,-2.804 0.403,-1.955 0.66,-3.21 -1.287,-3.21 -1.977,0 -2.263,1.255 -2.686,3.21 z m 6.202,-2.045 0.214,-1.013 h -1.26 l -1.21,5.712 h 1.311 l 0.7,-3.301 c 0.198,-0.842 0.791,-1.023 1.502,-0.953 l 0.33,-1.56 c -0.194,0.011 -0.441,-0.01 -0.88,0.305 -0.227,0.162 -0.438,0.395 -0.687,0.81 z m 0.839,4.698 h 1.312 l 1.607,-7.595 h -1.311 z m 5.266,-3.584 -0.362,1.71 c -0.14,0.66 -0.427,1.014 -0.85,1.014 -0.403,0 -0.452,-0.436 -0.367,-0.982 l 0.403,-1.904 c 0.16,-0.567 0.213,-1.104 0.829,-1.104 0.616,0 0.463,0.81 0.347,1.266 z m -0.63,2.977 -0.128,0.607 h 1.311 l 1.607,-7.595 h -1.311 l -0.413,1.955 a 2.844,2.844 0 0 0 -0.067,0.506 h -0.02 c -0.147,-0.547 -0.46,-0.739 -1.016,-0.728 -0.852,0.02 -1.438,0.455 -1.8,2.025 l -0.438,2.065 c -0.162,0.912 -0.144,1.924 0.964,1.924 0.521,-0.03 0.916,-0.182 1.29,-0.759 z m 2.025,0.607 h 1.535 l 0.327,-1.541 h -1.535 z" />
    <path
       style="fill:#1a1919"
       id="path6"
       d="m 194.34936,53.203497 5.725,-30 h 12.005 l 1.78,18.708 8.92,-18.708 h 12.006 l -5.726,30 h -8.93 l 1.75,-9.167 1.017,-4.666 1.539,-5.417 h -0.085 l -9.191,19.25 h -6.908 l -1.845,-19.25 h -0.084 l -0.422,4.417 -0.68,4.666 -1.941,10.167 z m 41.94,-30 h 27.802 l -1.502,7.876 h -8.93 l -4.223,22.124 h -9.941 l 4.222,-22.124 h -8.93 z m 34.824,23 h 2.106 c 4.633,0 7.622,-2.417 8.704,-8.084 1.193,-6.249 -0.554,-7.915 -5.862,-7.915 h -1.895 z m -11.277,7 5.725,-30 h 13.311 c 9.772,0 14.98,4.5 13.095,14.375 -2.154,11.292 -9.342,15.625 -19.073,15.625 z" />
    <path
       style="fill:#059353"
       id="path8"
       d="m 304.88136,37.785497 c 1.31,6.757 -0.272,15.842 -0.272,15.842 l -2.84,15.576 h -6.592 l 2.188,-11.524 c 0,0 2.138,-9.63 1.61,-18.775 -0.473,-8.209 -4.649,-18.21 -8.313,-22.877 -4.173,-4.766 2.745,0.93 4.884,3.39 2.527,2.904 7.39,8.346 9.335,18.369 z m 17.379,-20.568 c -3.487,10.174 -4.91,19.234 -4.91,19.234 l -6.426,32.752 h -6.656 l 4.78,-25.047 c 0,0 2.903,-14.537 3.445,-16.932 0.542,-2.397 1.595,-7.838 3.917,-11.991 1.92,-3.437 3.929,-5.8999999 7.534,-7.8159999 4.383,-2.33 13.5,-2.594 10.412,-1.832 -3.197,0.79 -9.674,4.5659999 -12.096,11.6319999 z m 3.376,29.107 c -2,4.739 -4.598,17.716 -5.288,21.418 -0.064,0.342 -0.16,0.84 -0.28,1.461 h -6.649 l 1.489,-7.722 c 0,0 2.038,-9.271 3.172,-12.533 2.07,-5.946 3.637,-9.615 6.856,-13.82 3.922,-5.126 5.797,-6.443 12.453,-10.52 6.25,-3.828 5.529,-2.802 3.57,-0.736 -1.87,1.975 -3.603,4.396 -7.02,8.095 -3.595,3.89 -6.303,9.618 -8.303,14.357 z" />
  </g>
</svg>
