<svg id="Parts_Icon-white" xmlns="http://www.w3.org/2000/svg" width="34" height="24" viewBox="0 0 341.44 257.88"><defs><style>.cls-1{fill:#fff;}</style></defs><title>Parts_Icon-White</title><path class="cls-1" d="M350.89,210.15l-29.5,27.18,17.81,19.34a72.79,72.79,0,0,0-7.15,15.55l-26.28-1-1.47,40.08,26.29,1a72.55,72.55,0,0,0,5.69,15.45L317,345.56l27.17,29.5,19.34-17.81A72.79,72.79,0,0,0,379,364.4l-1,26.28,40.08,1.47,1-26.29a72.55,72.55,0,0,0,15.45-5.69l17.81,19.33,29.5-27.17L464,333a72.79,72.79,0,0,0,7.15-15.55l26.28,1,1.47-40.08-26.29-1A72.55,72.55,0,0,0,467,261.91L486.3,244.1l-27.18-29.5-19.34,17.81a72.79,72.79,0,0,0-15.55-7.15l1-26.28-40.08-1.47-1,26.29a72.55,72.55,0,0,0-15.45,5.69Zm81.79,56.06A42.23,42.23,0,1,1,373,263.77,42.24,42.24,0,0,1,432.68,266.21Z" transform="translate(-157.5 -142.58)"/><path class="cls-1" d="M224.83,142.58l-29.75,10.07,6.6,19.5A56.42,56.42,0,0,0,191.63,181l-18.51-9-13.79,28.22,18.5,9a57.39,57.39,0,0,0-.83,12.86l-19.5,6.61,10.07,29.75,19.5-6.6a57.58,57.58,0,0,0,8.86,10l-9,18.51,28.22,13.79,9-18.51a56.89,56.89,0,0,0,12.87.84l6.6,19.5L273.37,286l-6.6-19.51a57.18,57.18,0,0,0,10.06-8.85l18.5,9,13.79-28.22-18.5-9a57.47,57.47,0,0,0,.83-12.87l19.5-6.6-10.07-29.75-19.5,6.6a56.83,56.83,0,0,0-8.86-10.06l9.05-18.5-28.23-13.79-9,18.5a57.44,57.44,0,0,0-12.87-.83Zm40.72,66.12A33.07,33.07,0,1,1,223.62,188,33.07,33.07,0,0,1,265.55,208.7Z" transform="translate(-157.5 -142.58)"/><path class="cls-1" d="M320.13,324.69a3.86,3.86,0,0,0-5.13-1.88l-85.46,39.68.17.19a18.4,18.4,0,0,1,3.23,6.76l85.31-39.61A3.87,3.87,0,0,0,320.13,324.69Z" transform="translate(-157.5 -142.58)"/><path class="cls-1" d="M245.19,363.68c-1.21-2.27-2.38-4.58-3.46-6.92l-7.83,3.63a13.91,13.91,0,0,0-10.72-5.05H212.47l-8.55-58.68a3.87,3.87,0,1,0-7.66,1.11l8.39,57.57h-3.46a13.93,13.93,0,0,0-13.91,13.92v17.28a13.93,13.93,0,0,0,13.91,13.92h22a13.94,13.94,0,0,0,13.92-13.92V369.26a12.79,12.79,0,0,0-.13-1.76Zm-15.83,22.86a6.18,6.18,0,0,1-6.18,6.18h-22a6.18,6.18,0,0,1-6.17-6.18V369.26a6.18,6.18,0,0,1,6.17-6.18h22a6.18,6.18,0,0,1,6.18,6.18Z" transform="translate(-157.5 -142.58)"/></svg>
