<svg xmlns="http://www.w3.org/2000/svg" width="216" height="216" viewBox="0 0 216 216">
    <g fill="none" fill-rule="evenodd">
        <path fill="#FFF" d="M-714-942H686V456H-714z"/>
        <path fill="#FFC914" d="M108 112.825L103.056 116l1.344-5.926-4.4-3.963 5.775-.486L108 100z"/>
        <path stroke="#FFC914" d="M112.186 114.919l-1.138-5.02 3.76-3.386-4.934-.416-1.642-4.151c-.097.453-.218.9-.366 1.33-.411 1.19-.992 2.138-1.787 2.746-.668.51-1.513.798-2.488.903a9.283 9.283 0 0 1-1.95-.009l3.311 2.983-1.138 5.02L108 112.23l4.186 2.689z"/>
    </g>
</svg>
