<svg xmlns="http://www.w3.org/2000/svg" width="24" height="24" viewBox="0 0 24 24">
    <path fill="#262626" fill-rule="evenodd" d="M12.173 3h-.045l-.31.003c-.399 0-1.198.06-2.057.464-.491.23-.933.541-1.313.925A5.241 5.241 0 0 0 7.351 6.07c-.402.96-.306 2.575-.23 3.874v.002c.009.139.018.284.025.426a.669.669 0 0 1-.295.059c-.227 0-.497-.077-.802-.23a.68.68 0 0 0-.305-.066c-.182 0-.373.057-.54.16-.208.131-.343.315-.38.52-.024.135-.023.402.256.674.154.149.38.286.67.409.077.032.168.062.264.095.333.112.837.283.969.612.067.167.038.387-.085.652l-.01.022c-.03.076-.317.767-.905 1.496a5.21 5.21 0 0 1-1.094 1.03 3.884 3.884 0 0 1-1.536.637.443.443 0 0 0-.352.468.623.623 0 0 0 .043.195v.001c.087.214.286.396.61.556.396.196.988.36 1.76.489.04.079.08.277.108.413.029.144.06.293.103.45.047.17.17.375.483.375.119 0 .256-.029.414-.061a4.4 4.4 0 0 1 .944-.115c.22 0 .447.02.676.061.44.078.82.364 1.26.695.645.484 1.374 1.032 2.487 1.032.03 0 .061-.001.091-.003.037.002.083.003.13.003 1.115 0 1.843-.548 2.487-1.032.44-.331.82-.617 1.261-.695.23-.04.456-.06.676-.06.378 0 .677.05.944.106.175.037.31.054.414.054h.02c.23 0 .399-.134.463-.368.043-.154.073-.3.103-.446.027-.127.068-.33.107-.41.773-.13 1.365-.294 1.76-.49.324-.159.523-.34.61-.553a.604.604 0 0 0 .044-.198.443.443 0 0 0-.352-.467c-2.407-.422-3.49-3.052-3.536-3.164a.33.33 0 0 0-.01-.021c-.122-.266-.15-.485-.084-.653.131-.329.636-.499.97-.611.096-.033.187-.064.262-.095.329-.138.564-.288.718-.458a.75.75 0 0 0 .219-.524c-.006-.307-.227-.58-.578-.714a.98.98 0 0 0-.392-.08.832.832 0 0 0-.364.08c-.281.14-.534.216-.75.227a.645.645 0 0 1-.248-.058l.021-.371.003-.055c.077-1.3.173-2.917-.23-3.877a5.248 5.248 0 0 0-1.1-1.681 4.585 4.585 0 0 0-1.318-.926A4.97 4.97 0 0 0 12.173 3"/>
</svg>
