<svg xmlns="http://www.w3.org/2000/svg" width="24" height="24" viewBox="0 0 24 24">
    <path fill="#262626" fill-rule="evenodd" d="M15.027 4.003V4h.845l.307.066c.206.041.393.096.56.165a4.213 4.213 0 0 1 .913.52c.128.093.24.192.342.297.1.107.255.133.466.081.211-.05.437-.12.681-.212.244-.092.484-.195.723-.31.238-.113.382-.186.434-.217.05-.03.079-.048.082-.052l.003-.005.016-.007.017-.008.016-.01.017-.01.001-.005.005-.001.007-.004.003-.005.016-.005.015-.004-.003.025-.005.027-.007.024-.008.026-.008.018-.01.017-.006.026c-.005.017-.012.04-.017.069a3.34 3.34 0 0 1-.155.342 4.197 4.197 0 0 1-.365.607c-.146.206-.277.361-.393.466-.116.106-.195.18-.23.223a.706.706 0 0 1-.14.12l-.08.056-.018.009-.015.009-.003.005-.005.003-.005.004-.003.005-.016.008-.017.009-.003.005-.005.002-.005.003-.003.007-.003.005-.005.004-.005.003-.003.006h.081l.455-.104c.303-.07.591-.15.868-.249l.438-.153.05-.018.022-.008.018-.009.015-.008.016-.01.017-.008.032-.005.033-.003v.034l-.008.004-.008.005-.004.005-.005.003-.004.004-.004.005-.003.005-.005.004-.005.003-.003.005-.003.006-.005.003-.008.017-.009.018-.005.003-.204.29c-.136.192-.21.29-.221.292-.01.003-.025.02-.046.052a4.866 4.866 0 0 1-.343.381c-.21.223-.418.42-.619.594a.828.828 0 0 0-.31.644c-.003.254-.016.54-.037.86a11.545 11.545 0 0 1-.398 2.294c-.124.468-.274.925-.453 1.37-.18.444-.365.845-.561 1.199-.195.354-.373.652-.535.898a9.782 9.782 0 0 1-1.13 1.428c-.26.269-.4.417-.423.445-.026.024-.131.117-.32.281-.186.162-.385.326-.6.489a6.91 6.91 0 0 1-.587.405c-.179.11-.395.233-.645.371-.252.14-.524.272-.815.392-.293.12-.602.23-.926.334a8.222 8.222 0 0 1-.94.24c-.304.056-.647.105-1.032.145l-.576.06v.009H8.145v-.01l-.138-.008-.227-.017a19.36 19.36 0 0 1-.674-.095 9.212 9.212 0 0 1-.917-.17 11.286 11.286 0 0 1-.99-.325 9.262 9.262 0 0 1-1.124-.485l-.586-.308a4.135 4.135 0 0 1-.262-.159l-.145-.093-.003-.005-.007-.003-.005-.004-.003-.005-.015-.009-.016-.008-.004-.006-.004-.003-.005-.003-.004-.006-.003-.005-.005-.003H3v-.035l.016.004.017.005.072.008c.049.006.181.014.399.026a7.084 7.084 0 0 0 1.435-.076c.255-.041.555-.108.902-.207.345-.096.664-.212.954-.345.29-.135.494-.237.617-.302.12-.064.306-.185.554-.363l.373-.266.004-.005.005-.003.005-.004.003-.005.003-.005.005-.002.005-.003.003-.005.017-.006.016-.003.003-.019.005-.015.005-.004.003-.005-.13-.009-.253-.017a2.206 2.206 0 0 1-.38-.078 3.477 3.477 0 0 1-.56-.205c-.2-.092-.395-.2-.585-.325a3.072 3.072 0 0 1-.41-.314 7.54 7.54 0 0 1-.324-.349 3.429 3.429 0 0 1-.344-.467 4.07 4.07 0 0 1-.28-.553l-.134-.312-.008-.026-.008-.024-.005-.02-.004-.015.025.003.024.004.179.028c.12.015.306.022.56.015a3.68 3.68 0 0 0 .526-.034c.099-.016.157-.028.179-.033l.032-.009.041-.009.041-.008.004-.005.004-.004.005-.003.004-.005-.033-.009-.033-.009-.033-.008-.032-.009-.031-.009a2.138 2.138 0 0 1-.115-.034c-.054-.017-.2-.08-.438-.188a3.293 3.293 0 0 1-.568-.316 4.019 4.019 0 0 1-.403-.339 4.734 4.734 0 0 1-.417-.476 3.478 3.478 0 0 1-.406-.675 4.292 4.292 0 0 1-.267-.737c-.06-.232-.1-.472-.117-.71l-.03-.36.016.003.017.005.016.009.017.008.016.009.016.009.252.12c.167.08.377.149.624.206.25.055.399.088.446.093l.074.009h.146l-.004-.005-.004-.004-.005-.003-.004-.006-.003-.005-.005-.003-.003-.004-.003-.005-.018-.008-.015-.009-.003-.004-.005-.005-.005-.003-.003-.005-.017-.009-.016-.009-.003-.003a2.203 2.203 0 0 1-.419-.39 9.37 9.37 0 0 1-.293-.36 2.76 2.76 0 0 1-.259-.402 4.598 4.598 0 0 1-.24-.543 4.012 4.012 0 0 1-.263-1.322c-.006-.218 0-.403.016-.558a3.77 3.77 0 0 1 .098-.522c.049-.193.12-.398.21-.616l.138-.325.008-.027.009-.024.005-.004.003-.007.003-.005.005-.002.005.002.003.005.003.007.004.004.005.003.003.005.005.005.005.004.008.015.006.02.005.003.004.003.219.258c.147.17.319.362.52.573.2.21.311.32.332.33.022.008.05.034.08.077.033.043.141.143.326.304.184.16.424.345.724.556.296.212.626.42.99.627.361.203.75.39 1.166.555.418.166.71.275.877.325.169.052.455.117.861.197.406.08.712.131.918.153.205.025.345.037.42.04l.115.004-.003-.025-.005-.025-.033-.215a4.316 4.316 0 0 1-.032-.6A3.978 3.978 0 0 1 12 6.525c.075-.222.15-.4.223-.536.073-.133.17-.285.288-.456a3.668 3.668 0 0 1 1.112-1.02c.244-.142.468-.25.673-.325.206-.074.38-.122.52-.145.14-.024.211-.036.211-.04"/>
</svg>
