<svg xmlns="http://www.w3.org/2000/svg" width="47" height="30" viewBox="0 0 47 30">
    <defs>
        <linearGradient id="a" x1="0%" x2="263.387%" y1="50.001%" y2="50.001%">
            <stop offset="0%" stop-color="#231E5C"/>
            <stop offset="100%" stop-color="#044DA1"/>
        </linearGradient>
    </defs>
    <g fill="none" fill-rule="evenodd" transform="translate(0 .03)">
        <rect width="46" height="29" x=".5" y=".5" fill="#FFF" stroke="#D9D9D9" rx="2"/>
        <path fill="url(#a)" d="M15.39 9.559h2.99L13.766 20.49h-3.01l-2.27-8.724c-.138-.537-.258-.734-.677-.96-.684-.37-1.815-.716-2.809-.93l.067-.317h4.846c.617 0 1.173.407 1.313 1.114l1.2 6.326 2.963-7.44zm4.163 0h2.96L20.064 20.49h-2.96L19.553 9.56zm16.544 0h2.478l2.344 10.931h-2.685l-.351-1.633h-3.726l-.605 1.633h-3.049l4.357-10.13a1.323 1.323 0 0 1 1.237-.801zm.425 2.953l-1.529 4.105h2.409l-.88-4.105zm-8.09-3.491c1.151 0 2.076.241 2.795.493l-.525 2.362c-1.337-.593-2.518-.552-2.945-.498-.864.109-1.258.534-1.267.933-.03 1.314 4.198 1.476 4.185 4.416-.01 2.316-2.062 3.811-5.2 3.811-1.337-.013-2.626-.282-3.323-.591l.541-2.441c.695.312 1.566.726 3.068.703.86-.012 1.78-.342 1.788-1.09.005-.488-.385-.838-1.549-1.384-1.132-.534-2.635-1.428-2.616-3.032.017-2.168 2.096-3.682 5.048-3.682z"/>
    </g>
</svg>
