<svg id="Layer_2" data-name="Layer 2" xmlns="http://www.w3.org/2000/svg" viewBox="0 0 466.26 67.67"><title>CC_Script_Black</title><path d="M319.42,317l10.27-23.18H315.18l-22.6,50.6h-9.41c-1.7,0-2.35-1.76-1.53-3.56L292.92,316H277.4s-12.53,27.87-12.71,28.38h-5.6c-1.82,0-2.84-1.49-1.95-3.58,1.07-2.54,11.21-24.8,11.21-24.8H252.79l-11.86,26.68a7.46,7.46,0,0,0-.58,1.7H196.47c-6.74-.05-11.18-5.76-8.52-11.26,8.71-18,31.36-26.75,39.36-26.17,3.49.26,2.76,3.27.29,6.49a1,1,0,0,0,.7,1.61h14.84c6.1-8.95,5.46-24.21-13.51-22.55-31.78,2.79-58.45,28.24-58.2,47.95.11,9.16,9.79,18.6,21.34,18.6h47.46l2.1-4.88a10.62,10.62,0,0,0,8.65,4.88h13.39s1.73-3.68,2.43-5.08c1.16,1.66,4,5.08,8.68,5.08H301l1.37-2.85c8.94,7.19,26.8,5.33,34.87-14.64C342.59,328.36,334.78,313.65,319.42,317Zm5.79,18c-.37,4.44-7,15.42-17.09,10.22-.65-.35-.46-1.28-.21-1.83.61-1.4,5.53-12.72,6.25-14.33a6.8,6.8,0,0,1,.71-.38C318.62,327,325.76,328.32,325.21,335Z" transform="translate(-171.43 -292.42)"/><path d="M634.53,351.63c0-1.33-.78-2-2.43-2h-2.67v6.93h1.07v-3h1.15l1.88,3h1.16l-2-3.06A1.79,1.79,0,0,0,634.53,351.63Zm-2.91,1.09H630.5v-2.2h1.43c.73,0,1.52.14,1.52,1.06C633.45,352.68,632.58,352.72,631.62,352.72Z" transform="translate(-171.43 -292.42)"/><path d="M631.74,347.19a5.93,5.93,0,1,0,6,5.9A5.92,5.92,0,0,0,631.74,347.19Zm0,11a5.06,5.06,0,1,1,4.87-5.08A4.89,4.89,0,0,1,631.74,358.17Z" transform="translate(-171.43 -292.42)"/><path d="M594.06,340c.92-2.47,11.52-25.81,11.52-25.81H628.4a1.64,1.64,0,0,0,1.6-1c.09-.21,5.07-10.9,5.07-10.9h-25l3.38-8.54h-15.1s-3.2,7.19-3.28,7.4c-.19.43-.65,1-2,1h-7.91l-5.19,12h10.28l-13.1,30.2-29.25,0c-.63-.05-6.07.36-6.25-4.32h27.05a3.34,3.34,0,0,0,3-1.84c3.47-7.34,2.55-18.38-7.92-21.9-8.36-2.5-20.69,0-28.1,7.87-4.53,4.59-9.38,12.81-9.21,20.19h-7.23c-3,0-3.77-2.2-2.74-4.42s20.39-46.2,20.39-46.2h-15l-11.55,25.05c-8.7-6.72-36.8.38-37.24,25.6h-8c-2.86,0-3.48-2.17-2.54-4.45s10.63-23.82,10.63-23.82H457.83l-1.45,3c-12-7.87-37.38,2.56-37.92,25.19H377.08c-6.74-.05-11.18-5.76-8.52-11.26,8.71-18,31.36-26.75,39.36-26.17,3.49.26,2.77,3.33.29,6.49a1,1,0,0,0,.7,1.61h14.84c6.1-8.95,5.46-24.21-13.51-22.55-31.78,2.79-58.45,28.24-58.2,47.95.11,9.16,9.55,18.42,21.08,18.6h47.72l1.89-4.39c9,8.91,20.19,4.13,23.75-1.25,1.58,3.36,6.52,5.64,8.86,5.64h18L476,353c7.72,10.2,19.82,7.31,24.48.48,2.27,3.77,6.3,5.6,8.22,5.6h19.74l2.34-5.44c4.07,5.14,9.15,5.47,10,5.44h35.7l2-4.63c1,1.83,5.14,4.63,9.84,4.63h27.33l6.23-14.62H596.4C593.67,344.47,593.13,342.49,594.06,340Zm-50-8.74c3.27-5.41,13.88-8.09,16.43-2.06a5.79,5.79,0,0,1,.26,2.13c0,.16,0,.51-.48.51h-16S543.69,331.89,544.09,331.28Zm-91.58-.72c-1.49,3.45-5.12,11.65-6.36,14.38-3.51,2.22-11.52,1.07-10.94-6,.37-4.45,7-15.42,17.09-10.23C453,329.07,452.75,330,452.51,330.56Zm53.64,0c-1.5,3.45-5.13,11.65-6.36,14.38-3.52,2.22-11.53,1.07-10.94-6,.37-4.45,7-15.42,17.09-10.23C506.58,329.07,506.39,330,506.15,330.56Z" transform="translate(-171.43 -292.42)"/></svg>