<?xml version="1.0" encoding="utf-8"?>
<!-- Generator: Adobe Illustrator 24.0.1, SVG Export Plug-In . SVG Version: 6.00 Build 0)  -->
<svg version="1.1" id="Layer_2_1_" xmlns="http://www.w3.org/2000/svg" xmlns:xlink="http://www.w3.org/1999/xlink" x="0px" y="0px"
	 viewBox="0 0 466.3 67.7" style="enable-background:new 0 0 466.3 67.7;" xml:space="preserve">
<style type="text/css">
	.st0{fill:#D3D3D3;}
</style>
<title>CC_Script_Grey</title>
<path class="st0" d="M148,24.6l10.3-23.2h-14.5L121.1,52h-9.4c-1.7,0-2.4-1.8-1.5-3.6l11.3-24.9H106c0,0-12.5,27.9-12.7,28.4h-5.6
	c-1.8,0-2.8-1.5-2-3.6c1.1-2.5,11.2-24.8,11.2-24.8H81.4L69.5,50.3c-0.3,0.5-0.5,1.1-0.6,1.7H25c-6.7,0-11.2-5.8-8.5-11.3
	c8.7-18,31.4-26.8,39.4-26.2c3.5,0.3,2.8,3.3,0.3,6.5c-0.3,0.4-0.3,1.1,0.2,1.4c0.2,0.1,0.3,0.2,0.5,0.2h14.8
	c6.1-9,5.5-24.2-13.5-22.5C26.4,2.9-0.2,28.3,0,48c0.1,9.2,9.8,18.6,21.3,18.6h47.5l2.1-4.9c1.9,3,5.1,4.8,8.6,4.9h13.4
	c0,0,1.7-3.7,2.4-5.1c1.2,1.7,4,5.1,8.7,5.1h25.5l1.4-2.9c8.9,7.2,26.8,5.3,34.9-14.6C171.2,35.9,163.4,21.2,148,24.6z M153.8,42.6
	c-0.4,4.4-7,15.4-17.1,10.2c-0.6-0.4-0.5-1.3-0.2-1.8c0.6-1.4,5.5-12.7,6.2-14.3c0.2-0.1,0.5-0.3,0.7-0.4
	C147.2,34.6,154.3,35.9,153.8,42.6L153.8,42.6z"/>
<path class="st0" d="M463.1,59.2c0-1.3-0.8-2-2.4-2H458v6.9h1.1v-3h1.2l1.9,3h1.2l-2-3.1c1,0,1.8-0.7,1.8-1.7
	C463.1,59.3,463.1,59.3,463.1,59.2z M460.2,60.3h-1.1v-2.2h1.4c0.7,0,1.5,0.1,1.5,1.1C462,60.3,461.2,60.3,460.2,60.3L460.2,60.3z"
	/>
<path class="st0" d="M460.3,54.8c-3.3,0-5.9,2.7-5.9,6s2.7,5.9,6,5.9s5.9-2.7,5.9-6C466.3,57.4,463.6,54.8,460.3,54.8
	C460.4,54.8,460.3,54.8,460.3,54.8z M460.3,65.8c-2.8,0.1-5.1-2.1-5.2-4.9s2.1-5.1,4.9-5.2c2.8-0.1,5.1,2.1,5.2,4.9
	c0,0.1,0,0.1,0,0.2c0.1,2.7-2,5-4.7,5.1C460.4,65.7,460.4,65.7,460.3,65.8L460.3,65.8z"/>
<path class="st0" d="M422.6,47.6c0.9-2.5,11.5-25.8,11.5-25.8H457c0.7,0,1.3-0.4,1.6-1c0.1-0.2,5.1-10.9,5.1-10.9h-25l3.4-8.5H427
	c0,0-3.2,7.2-3.3,7.4c-0.2,0.4-0.7,1-2,1h-7.9l-5.2,12h10.3L405.8,52h-29.2c-0.6,0-6.1,0.4-6.2-4.3h27c1.3,0,2.4-0.7,3-1.8
	c3.5-7.3,2.5-18.4-7.9-21.9c-8.4-2.5-20.7,0-28.1,7.9c-4.5,4.6-9.4,12.8-9.2,20.2H348c-3,0-3.8-2.2-2.7-4.4s20.4-46.2,20.4-46.2h-15
	l-11.5,25c-8.7-6.7-36.8,0.4-37.2,25.6h-8c-2.9,0-3.5-2.2-2.5-4.5s10.6-23.8,10.6-23.8h-15.4l-1.5,3c-12-7.9-37.4,2.6-37.9,25.2
	h-41.4c-6.7,0-11.2-5.8-8.5-11.3c8.7-18,31.4-26.8,39.4-26.2c3.5,0.3,2.8,3.3,0.3,6.5c-0.3,0.4-0.3,1.1,0.2,1.4
	c0.2,0.1,0.3,0.2,0.5,0.2h14.8c6.1-9,5.5-24.2-13.5-22.5c-31.8,2.8-58.5,28.2-58.2,48c0.1,9.2,9.5,18.4,21.1,18.6h47.7l1.9-4.4
	c9,8.9,20.2,4.1,23.8-1.2c1.6,3.4,6.5,5.6,8.9,5.6h18l2.7-6c7.7,10.2,19.8,7.3,24.5,0.5c2.3,3.8,6.3,5.6,8.2,5.6H357l2.3-5.4
	c4.1,5.1,9.2,5.5,10,5.4H405l2-4.6c1,1.8,5.1,4.6,9.8,4.6h27.3l6.2-14.6H425C422.2,52,421.7,50.1,422.6,47.6z M372.6,38.8
	c3.3-5.4,13.9-8.1,16.4-2.1c0.2,0.7,0.3,1.4,0.3,2.1c0,0.2,0,0.5-0.5,0.5h-16C372.8,39.4,372.3,39.5,372.6,38.8L372.6,38.8z
	 M281,38.1c-1.5,3.5-5.1,11.6-6.4,14.4c-3.5,2.2-11.5,1.1-10.9-6c0.4-4.5,7-15.4,17.1-10.2C281.6,36.6,281.3,37.6,281,38.1L281,38.1
	z M334.7,38.1c-1.5,3.5-5.1,11.6-6.4,14.4c-3.5,2.2-11.5,1.1-10.9-6c0.4-4.5,7-15.4,17.1-10.2C335.1,36.6,335,37.6,334.7,38.1
	L334.7,38.1z"/>
</svg>
