<?xml version="1.0" encoding="utf-8"?>
<!-- Generator: Adobe Illustrator 24.0.1, SVG Export Plug-In . SVG Version: 6.00 Build 0)  -->
<svg version="1.1" id="Layer_1" xmlns="http://www.w3.org/2000/svg" xmlns:xlink="http://www.w3.org/1999/xlink" x="0px" y="0px"
	 viewBox="0 0 291.6 101.3" style="enable-background:new 0 0 291.6 101.3;" xml:space="preserve">
<style type="text/css">
	.st0{fill:#D3D3D3;}
</style>
<title>Remington_Grey</title>
<path class="st0" d="M116.4,43.3H131c0,0,3.4-23.9,3.5-24.5c0.8-4.6,3.5-4.8,5.9-4.8h13.9l2-13.9h-21.7c-6.1,0-12.4,2.6-13.5,10.5
	S116.4,43.3,116.4,43.3z"/>
<path class="st0" d="M160,0h10.3c0,0-3.2,22.1-3.4,24s-0.9,4.8-4,4.8h-5.2L169,43.3h-14.8L137.1,21h16.6c2.2,0,3.3-0.8,3.5-2.1
	L160,0z"/>
<path class="st0" d="M57.6,101.3h-25l4-28.9h25l-0.9,6.7H45.9l-0.6,4.5h14.8l-0.4,2.8c-0.5,2-2.3,3.4-4.3,3.3h-11l-0.7,4.9h14.8
	L57.6,101.3z"/>
<path class="st0" d="M101.4,101.3h-9.6l2.4-17.5h-0.5l-8.2,15.8c-0.7,1.2-1.1,1.6-2.4,1.6h-3.4c-1.2,0-1.7-0.4-1.9-1.6L74,83.8h-0.5
	L71,101.3h-9.3L66,72.4h12.7c1.5,0,1.9,0.4,2.2,1.7l2.8,13.1H84l6.2-13.1c0.4-1.1,1.5-1.9,2.7-1.7h12.6L101.4,101.3z"/>
<path class="st0" d="M105.5,101.3l4.1-28.9h6.3c2.1,0,3.6,1.5,3.4,3.4l-3.6,25.5H105.5z"/>
<path class="st0" d="M151.7,101.3h-7c-2.2,0-3.1-0.5-4.1-2.1l-8.2-14.4h-0.2l-2.3,16.5h-9.6l4-28.9h8.7c2.2,0,3.2,0.5,4.1,2.1
	l6.8,12.7h0.2l2.1-14.8h9.6L151.7,101.3z"/>
<path class="st0" d="M180.6,72.4c3.6,0,5.5,0.4,6.6,1.5c1.5,1.4,2.2,3.5,1.6,8.4H179c0.3-2.3-0.3-2.6-0.6-2.9s-0.6-0.3-2-0.3h-4.3
	c-1.5,0-1.9,0.1-2.2,0.3c-0.5,0.4-1.3,1.7-2.1,7.5s-0.4,7.2,0,7.5s0.7,0.3,2.1,0.3h4.5c1.3,0,1.9-0.1,2.2-0.3
	c0.9-0.8,1.4-1.9,1.4-3.1V91h-3.3c-2.1,0-3.6-1.5-3.4-3.3l0.4-2.6h16.9l-0.5,3.5c-1,7-2.8,9.4-4.9,11c-1.5,1.2-3.8,1.7-6.9,1.7h-11
	c-3.5,0-5.2-0.5-6.3-1.6c-1.7-1.7-2.9-4.8-1.8-12.8s3.2-11.1,5.4-12.8c1.4-1.1,3.3-1.7,6.8-1.7L180.6,72.4z"/>
<path class="st0" d="M209.8,79.2L207.2,98c-0.4,2-2.3,3.4-4.3,3.3h-6.3l3.1-22.1H191l1-6.8h27.6l-0.9,6.8
	C218.7,79.2,209.8,79.2,209.8,79.2z"/>
<path class="st0" d="M240.8,72.4c3.4,0,5.2,0.5,6.3,1.7c1.7,1.7,2.9,4.8,1.8,12.8s-3.2,11.2-5.4,12.8c-1.4,1.1-3.3,1.6-6.8,1.6h-10
	c-3.5,0-5.2-0.5-6.3-1.6c-1.7-1.7-2.9-4.8-1.8-12.8s3.2-11.1,5.4-12.8c1.4-1.1,3.3-1.7,6.8-1.7H240.8z M228.9,94.2
	c0.2,0.2,0.7,0.3,2.1,0.3h3.2c1.4,0,1.9-0.1,2.2-0.3s1.1-1.1,1.9-7.4s0.4-7.1,0.1-7.4s-0.7-0.3-2.1-0.3h-3.2c-1.4,0-1.9,0.1-2.2,0.3
	s-1,1.1-1.9,7.4S228.6,93.9,228.9,94.2"/>
<path class="st0" d="M281.1,101.3H274c-2.2,0-3.1-0.5-4.1-2.1l-8.2-14.4h-0.2l-2.3,16.5h-9.6l4.1-28.9h8.7c2.2,0,3.2,0.5,4.1,2.1
	l6.9,12.7h0.2l2.1-14.8h9.6L281.1,101.3z"/>
<path class="st0" d="M30.2,73.7c-0.9-0.9-2.6-1.3-5.2-1.3H4l-4,28.9h6.9c1.7,0,3.1-1.3,3.4-2.9l0.9-6h5.5l1.9,9h9.9l-2-9.6
	c0.5-0.2,0.9-0.4,1.4-0.8c1.6-1.2,3.1-3.1,3.9-8.7S31.4,74.9,30.2,73.7 M13,79h7c1.6,0,2,0.1,2.3,0.3s0.5,0.9,0.2,3
	s-0.6,2.7-1.1,3.1c-0.3,0.2-0.7,0.3-2.4,0.3h-7L13,79z"/>
<path class="st0" d="M289.1,72.3c1.4,0,2.6,1.2,2.5,2.6c0,1.4-1.2,2.6-2.6,2.5c-1.4,0-2.6-1.2-2.5-2.6
	C286.5,73.5,287.6,72.3,289.1,72.3C289,72.3,289.1,72.3,289.1,72.3z M289.1,77.1c1.2,0.1,2.2-0.9,2.3-2.1c0.1-1.2-0.9-2.2-2.1-2.3
	c-1.2-0.1-2.2,0.9-2.3,2.1v0.1C286.9,76.1,287.9,77.1,289.1,77.1C289,77.1,289.1,77.1,289.1,77.1z M288.1,73.4h1.2
	c0.7,0,1,0.3,1,0.8c0,0.4-0.3,0.8-0.7,0.8c0,0,0,0-0.1,0l0.9,1.3h-0.5l-0.8-1.3h-0.5v1.3H288L288.1,73.4z M288.5,74.8h0.5
	c0.4,0,0.8,0,0.8-0.5s-0.3-0.5-0.7-0.5h-0.6L288.5,74.8z"/>
</svg>
