<?xml version="1.0" encoding="utf-8"?>
<!-- Generator: Adobe Illustrator 24.0.1, SVG Export Plug-In . SVG Version: 6.00 Build 0)  -->
<svg version="1.1" id="Layer_1" xmlns="http://www.w3.org/2000/svg" xmlns:xlink="http://www.w3.org/1999/xlink" x="0px" y="0px"
	 viewBox="0 0 444.4 109.2" style="enable-background:new 0 0 444.4 109.2;" xml:space="preserve">
<style type="text/css">
	.st0{clip-path:url(#SVGID_2_);}
	.st1{fill:#D3D3D3;}
</style>
<title>Robo_Mow_Grey</title>
<g>
	<g>
		<defs>
			<rect id="SVGID_1_" x="-11.3" y="-3.7" width="460.1" height="128.4"/>
		</defs>
		<clipPath id="SVGID_2_">
			<use xlink:href="#SVGID_1_"  style="overflow:visible;"/>
		</clipPath>
		<g class="st0">
			<path class="st1" d="M46.8,0C21,0,0,21,0,46.9s21,46.8,46.9,46.8c25.8,0,46.8-21,46.8-46.8C93.7,21,72.7,0,46.8,0
				C46.9,0,46.8,0,46.8,0 M68,71.9H32.7c-1.2,0-2.2-0.9-2.2-2.1c0-0.1,0-0.1,0-0.2v-46c-0.1-1.2,0.8-2.3,2-2.4c0.1,0,0.2,0,0.3,0
				h16.1c10,0,17,4.8,17,15.6c0,6.1-3.1,11.9-9,13.8c-0.6,0.3-0.9,1-0.7,1.6c0,0.1,0.1,0.1,0.1,0.2l12.6,17.3
				c0.5,0.5,0.4,1.3-0.1,1.8C68.6,71.8,68.3,71.9,68,71.9 M52.7,37.2c0,3.2-2.6,5.9-5.9,5.9S41,40.4,41,37.2s2.6-5.9,5.9-5.9l0,0
				C50.1,31.3,52.7,34,52.7,37.2L52.7,37.2"/>
			<path class="st1" d="M119.6,88.8c-0.6-0.1-1.4-0.1-1.8-0.1c-1.8,0-2,0.2-2.8,3h2.2c0.1,0.3,0.2,0.7,0.1,1.1
				c-0.1,1-0.7,1.8-2.2,1.8c-0.2,0-0.5,0-0.8-0.1l-1.7,7.5c-1.2,5-3.4,7.2-6.8,7.2c-1.5,0-2.1-0.6-2-1.7c0-0.3,0.2-0.7,0.4-0.9
				c3.1,0,3.1-0.1,4.1-4.2l1.9-7.9h-1.4c-0.2-0.3-0.2-0.7-0.2-1.1c0.2-1.1,0.8-1.6,2.3-1.6c1.4-4.9,3.1-6,6.7-6
				c1.8,0,2.6,0.6,2.5,1.6C120.2,87.9,120,88.4,119.6,88.8"/>
			<path class="st1" d="M128.4,95c-0.6-0.1-0.9-0.1-1.3-0.1c-1.4,0-2.4,0.6-3.9,2.8l-1.5,5.8c-0.7,0.2-1.4,0.3-2.1,0.2
				c-1.2,0-1.8-0.5-1.7-1.6c0.1-0.6,0.3-1.1,0.4-1.7l1.7-6.1h-1.3c-0.2-0.3-0.2-0.7-0.1-1.1c0.2-1.3,1.4-1.8,4-1.8
				c1.7,0,2.1,0.4,1.8,1.3l-0.6,1.9c1.7-2.7,2.4-3.3,3.9-3.3c1.3,0,1.7,0.7,1.6,1.8C129.3,93.9,128.9,94.5,128.4,95"/>
			<path class="st1" d="M131.7,103.8c-1.4,0-2.2-0.6-2-1.8c0.1-0.6,0.3-1.3,0.4-1.9l1.8-5.7h-1.3c-0.2-0.3-0.2-0.7-0.1-1.1
				c0.2-1.3,1.4-1.8,4-1.8c1.9,0,2.2,0.6,1.9,1.8l-1.3,4.5c-0.4,1.3-0.7,2.3-0.8,2.6c0,0.2,0,0.4,0.4,0.4s0.7,0,1.1-0.1
				c0.3,0.2,0.4,0.6,0.3,1C135.9,103.2,134.6,103.8,131.7,103.8 M135.8,90c-1.1,0-2-0.4-1.8-1.8c0.2-1.3,1.4-2.3,2.8-2.2
				c1.4,0,1.9,0.8,1.7,1.9C138.4,89.1,137.2,90.1,135.8,90"/>
			<path class="st1" d="M143.2,98.7c-0.5,0-1.1,0-1.6-0.1c-0.2,1.8,0.9,2.3,2.2,2.3c1.2,0,2.4-0.3,3.4-0.8c0.5,0.3,0.8,0.9,0.6,1.4
				c-0.2,1.3-2,2.3-5.5,2.3c-3.2,0-5.5-1.2-5-5c0.6-4.5,3.5-7.3,7.9-7.3c2.8,0,4.2,1.4,3.9,3.4C148.8,97.4,147,98.7,143.2,98.7
				 M144.7,94.2c-1.3,0.1-2.4,1.1-2.6,2.4c0.4,0.1,0.9,0.1,1.3,0.1c1.5,0,2.2-0.6,2.3-1.4C145.8,94.8,145.6,94.2,144.7,94.2"/>
			<path class="st1" d="M151.8,103.8c-1.2,0-1.8-0.5-1.7-1.6c0.1-0.6,0.3-1.1,0.4-1.7l1.7-6.1h-1.3c-0.2-0.3-0.2-0.7-0.1-1.1
				c0.2-1.3,1.4-1.8,4-1.8c1.7,0,2.1,0.4,1.8,1.3l-0.3,1c1-1.6,2.8-2.6,4.8-2.4c2.4,0,3.2,1,2.9,2.8c-0.3,1.6-0.8,3.2-1.4,4.8
				c-0.2,0.5-0.3,1-0.4,1.6c0,0.2,0.1,0.3,0.4,0.3c0.3,0,0.7,0,1-0.1c0.3,0.2,0.4,0.6,0.3,1c-0.2,1.4-1.6,1.9-4.4,1.9
				c-1.3,0-2.1-0.6-1.9-1.8c0.1-0.7,0.3-1.3,0.5-2c0.2-0.6,1.5-4.3,1.5-4.8s0-0.9-1.1-0.9c-1,0-2,0.5-2.6,1.3l-2.1,7.9
				C153.2,103.7,152.5,103.8,151.8,103.8"/>
			<path class="st1" d="M174.8,103.8c-1.1,0-1.8-0.5-1.6-1.7c0-0.2,0.1-0.3,0.1-0.5c-0.8,1.4-2.4,2.2-4,2.1c-2.7,0-4.1-1.2-3.6-4.5
				c0.7-5,3.8-7.7,7.1-7.7c0.9-0.1,1.7,0.1,2.4,0.6l1.1-4.1c0.5-1.8,1.2-2.3,2.6-2.3c0.7,0,1.4,0.2,2,0.6l-3.4,12.2
				c-0.2,0.6-0.3,1.3-0.4,1.9c0,0.3,0,0.5,0.4,0.5s0.7,0,1.1-0.1c0.3,0.3,0.4,0.6,0.3,1C178.8,103.2,177.2,103.9,174.8,103.8
				 M173.4,94.3c-1.8,0-3.1,1.5-3.6,4.4c-0.3,1.8,0.3,2.3,1.4,2.3c0.6,0,1.3-0.2,1.7-0.7l1.6-5.8C174.2,94.4,173.8,94.3,173.4,94.3"
				/>
			<path class="st1" d="M182.4,103.8c-1.3,0-2-0.5-1.9-1.8c0.1-0.7,0.3-1.3,0.4-2l3.2-11.9c0.5-1.8,1.2-2.3,2.6-2.3
				c0.7,0,1.4,0.2,2,0.6l-3.4,12.7c-0.3,1-0.4,1.3-0.5,1.6s0.1,0.3,0.5,0.3s0.7,0,1.1-0.1c0.3,0.3,0.4,0.6,0.3,1
				C186.6,103.2,185.2,103.9,182.4,103.8"/>
			<path class="st1" d="M195.7,104c-3.2,3.2-5.8,5-8.5,5c-1.1,0.1-2.1-0.6-2.2-1.7c0-0.1,0-0.2,0-0.3c0-0.3,0.2-0.7,0.4-0.9
				c2,0,4.2-1.1,5-2.4v-9.8h-0.9c-0.2-0.4-0.2-0.8-0.1-1.3c0.2-1.3,0.8-1.5,3.2-1.5c1.4,0,1.8,0.4,1.8,1.7v7.8
				c0.2-0.2,0.5-0.5,0.7-0.8c1.3-1.7,2.2-3.7,2.6-5.8c0.2-0.8,0.3-1.6,0.3-2.5c0.1-0.1,0.2-0.1,0.3-0.2c0.5-0.2,0.9-0.3,1.4-0.3
				c1.7,0,2.5,0.7,2.2,2.3C201.5,96.1,199.6,100.2,195.7,104"/>
			<path class="st1" d="M213.1,93.5c1-1.4,2.7-2.1,4.4-2c2.4,0,3.2,1,2.9,2.8c-0.3,1.6-0.8,3.2-1.4,4.8c-0.2,0.5-0.3,1-0.4,1.6
				c0,0.2,0.1,0.3,0.4,0.3c0.3,0,0.7,0,1-0.1c0.3,0.2,0.4,0.6,0.3,1c-0.2,1.4-1.6,1.9-4.4,1.9c-1.2,0-2.1-0.6-1.9-1.8
				c0.1-0.7,0.3-1.3,0.5-2c0.2-0.6,1.5-4.3,1.6-4.8s0-0.9-1.1-0.9c-1,0-2,0.5-2.6,1.3l-2.1,7.9c-0.7,0.2-1.4,0.3-2.1,0.2
				c-1.3,0-1.8-0.5-1.6-1.6c0.1-0.6,0.2-1.1,0.4-1.7l3.4-12.4c0.5-1.8,1.2-2.3,2.6-2.3c0.7,0,1.4,0.2,2,0.6L213.1,93.5z"/>
			<path class="st1" d="M226.5,103.9c-3.3,0-5.3-1.5-4.8-5.2c0.4-4.2,3.9-7.4,8.1-7.2c4.2,0,5.4,2.1,5,5.2
				C234.2,101.1,231.2,103.9,226.5,103.9 M229.2,94.3c-1.8,0-3,1.8-3.4,4.2c-0.2,1.7,0.1,2.5,1.6,2.5c1.6,0,3-1.5,3.4-4.2
				C231.1,95.2,230.8,94.3,229.2,94.3"/>
			<path class="st1" d="M244.9,95.5c0.2-0.7,0-1.2-0.9-1.2c-1,0-2,0.5-2.6,1.3l-2.1,7.9c-0.7,0.2-1.4,0.3-2.1,0.2
				c-1.2,0-1.8-0.5-1.7-1.6c0.1-0.6,0.3-1.1,0.4-1.7l1.7-6.1h-1.4c-0.2-0.3-0.2-0.7-0.1-1.1c0.2-1.3,1.4-1.8,4-1.8
				c1.7,0,2.1,0.4,1.8,1.3l-0.3,1c1-1.6,2.9-2.6,4.8-2.4c2.1,0,3,0.8,2.9,2.3c1-1.5,2.7-2.4,4.5-2.3c2.2,0,3.1,0.9,2.8,2.8
				c-0.4,1.6-0.8,3.2-1.4,4.8c-0.2,0.5-0.3,1-0.4,1.6c0,0.2,0.1,0.3,0.4,0.3c0.3,0,0.7,0,1-0.1c0.3,0.3,0.4,0.6,0.3,1
				c-0.2,1.4-1.6,1.9-4.5,1.9c-1.4,0-2-0.6-1.9-1.9c0.1-0.6,0.3-1.3,0.5-1.9c0.1-0.5,1.5-4.4,1.6-4.9s-0.3-0.8-1-0.8
				c-1,0.1-1.9,0.6-2.5,1.3l-2.1,7.8c-0.7,0.2-1.4,0.3-2.1,0.3c-1.2,0-1.8-0.5-1.7-1.6c0.1-0.6,0.2-1.1,0.4-1.7L244.9,95.5z"/>
			<path class="st1" d="M263.9,98.7c-0.5,0-1.1,0-1.6-0.1c-0.2,1.8,0.9,2.3,2.2,2.3c1.2,0,2.4-0.3,3.5-0.8c0.5,0.3,0.8,0.9,0.6,1.4
				c-0.2,1.3-2,2.3-5.5,2.3c-3.2,0-5.5-1.2-5-5c0.6-4.5,3.5-7.3,7.9-7.3c2.8,0,4.2,1.4,3.9,3.4C269.6,97.4,267.8,98.7,263.9,98.7
				 M265.4,94.2c-1.3,0.1-2.4,1.1-2.6,2.4c0.4,0.1,0.9,0.1,1.3,0.1c1.5,0,2.2-0.6,2.3-1.4C266.5,94.8,266.3,94.2,265.4,94.2"/>
			<path class="st1" d="M150.7,72.1H135l-11.9-19.7h-0.4v19.7h-12.4V20.9h18.9c9.6,0,16.9,4.8,16.9,15.8c0,7.1-3.8,13.2-10.7,14.5
				L150.7,72.1z M126.7,30.9h-4.1v12.7h4.1c3.5,0,6.4-2.8,6.4-6.4S130.3,30.9,126.7,30.9"/>
			<path class="st1" d="M286.7,41.6h0.1c2.3-3.5,6.2-5.6,10.5-5.5c4.8,0,8.9,2,11.3,6.7c2.2-4.2,6.5-6.7,11.2-6.7
				c8.4,0,11.3,5.8,11.3,13.8v22.2h-11.8V55.5c0-3.6,0.1-9.5-4.9-9.5c-5.4,0-5.6,5.4-5.6,9.5v16.6H297V55.5c0-3.9,0-9.8-5.2-9.8
				s-5.2,5.9-5.2,9.8v16.6h-11.8V37.2h11.8v4.4H286.7z"/>
			<polygon class="st1" points="390,54.3 396.5,37.2 404,37.2 411.1,54.4 418,37.2 429.4,37.2 416.1,72.1 407.5,72.1 400.3,54.9 
				393.2,72.1 384.6,72.1 371.3,37.2 383.2,37.2 			"/>
			<path class="st1" d="M353.8,36.4c-10.2,0-18.4,8.3-18.4,18.4s8.3,18.4,18.4,18.4s18.4-8.3,18.4-18.4S364,36.4,353.8,36.4
				L353.8,36.4 M353.8,61.7c-3.8,0-6.9-3.1-6.9-6.9c0-3.8,3.1-6.9,6.9-6.9s6.9,3.1,6.9,6.9C360.7,58.6,357.6,61.7,353.8,61.7
				L353.8,61.7"/>
			<path class="st1" d="M252.7,36.4c-10.2,0-18.4,8.3-18.4,18.4s8.3,18.4,18.4,18.4s18.4-8.3,18.4-18.4S262.8,36.4,252.7,36.4
				 M252.7,61.7c-3.8,0-6.9-3.1-6.9-6.9s3.1-6.9,6.9-6.9c3.8,0,6.9,3.1,6.9,6.9l0,0C259.5,58.6,256.5,61.7,252.7,61.7L252.7,61.7"/>
			<path class="st1" d="M167.8,36.4c-10.2,0-18.4,8.3-18.4,18.4s8.3,18.4,18.4,18.4s18.4-8.3,18.4-18.4S178,36.4,167.8,36.4
				 M167.8,61.7c-3.8,0-6.9-3.1-6.9-6.9c0-3.8,3.1-6.9,6.9-6.9c3.8,0,6.9,3.1,6.9,6.9l0,0C174.6,58.7,171.6,61.7,167.8,61.7"/>
			<path class="st1" d="M214,36.4c-4.1-0.1-8,1.6-10.8,4.5v-20h-12.3v51.5h12.3v-3.9h0.1c2.2,3.5,6.4,5,10.5,5
				c10.4,0,16.3-10.4,16.3-18.6C230.1,46.5,224.3,36.4,214,36.4 M210.8,61.7c-3.8,0-6.9-3.1-6.9-6.9c0-3.8,3.1-6.9,6.9-6.9
				c3.8,0,6.9,3.1,6.9,6.9l0,0C217.7,58.6,214.6,61.7,210.8,61.7"/>
			<path class="st1" d="M438.2,36.7c-3.5,0-6.3,2.8-6.3,6.3s2.8,6.3,6.3,6.3s6.3-2.8,6.3-6.3l0,0C444.4,39.6,441.6,36.7,438.2,36.7
				 M439.5,46.2l-1.7-2.6h-0.2v2.6h-1.2v-6.4h1.8c0.6,0,1.2,0.1,1.6,0.5s0.6,0.9,0.6,1.4c0.1,0.9-0.6,1.7-1.5,1.8l2,2.7H439.5z
				 M439.2,41.8c0,0.6-0.4,1-1.2,1h-0.4v-1.9h0.4C438.7,40.9,439.2,41.2,439.2,41.8"/>
		</g>
	</g>
</g>
</svg>
