<?xml version="1.0" encoding="utf-8"?>
<!-- Generator: Adobe Illustrator 24.0.1, SVG Export Plug-In . SVG Version: 6.00 Build 0)  -->
<svg version="1.1" id="Ebene_1" xmlns="http://www.w3.org/2000/svg" xmlns:xlink="http://www.w3.org/1999/xlink" x="0px" y="0px"
	 viewBox="0 0 371.5 142.8" style="enable-background:new 0 0 371.5 142.8;" xml:space="preserve">
<style type="text/css">
	.st0{fill:#FFFFFF;}
	.st1{fill:#D3D3D3;}
</style>
<title>Wolf Garten</title>
<rect class="st0" width="371.5" height="142.8"/>
<path class="st1" d="M52.6,94.7h-5.9l-4.5-18.2h-0.1l-4.5,18.2h-6l-7.1-26.8h5.9l4.2,18.2h0.1l4.7-18.2H45l4.6,18.5h0.1l4.4-18.5
	h5.8L52.6,94.7z"/>
<path class="st1" d="M74.9,67.3c8.3,0,13.2,6.2,13.2,14.2c0,7.7-4.9,13.9-13.2,13.9s-13.2-6.2-13.2-13.9
	C61.8,73.4,66.6,67.3,74.9,67.3z M74.9,90.4c5.3,0,7.3-4.5,7.3-9c0-4.7-2-9.2-7.3-9.2s-7.3,4.5-7.3,9.2
	C67.7,85.9,69.6,90.4,74.9,90.4z"/>
<path class="st1" d="M92.5,67.9h5.9v21.9h13.1v4.9h-19L92.5,67.9z"/>
<path class="st1" d="M115.2,67.9H134v4.9h-13V79h11.8v4.6h-11.8v11.1h-5.9V67.9z"/>
<path class="st1" d="M252.6,91.7c-1.7,2.3-4.3,3.7-7.2,3.7c-8.1,0-12.8-6.2-12.8-13.8c0-7.9,4.8-14,12.8-14c5.3,0,10.4,3.3,11,9.4
	H251c-0.5-2.7-2.8-4.6-5.5-4.5c-5.1,0-7.1,4.5-7.1,9.1c0,4.4,1.9,8.9,7.1,8.9c3.7,0,5.9-2.1,6.2-5.7h-5.8v-4.4h11v14.4h-3.6
	L252.6,91.7z"/>
<path class="st1" d="M259.8,81.4c0.3-5,4.6-6.4,8.9-6.4c3.8,0,8.3,0.9,8.3,5.5v10c-0.1,1.5,0.1,2.9,0.6,4.3h-5.3
	c-0.2-0.6-0.3-1.2-0.4-1.9c-1.7,1.6-4,2.5-6.4,2.4c-3.6,0-6.4-1.8-6.4-5.8c0-4.4,3.2-5.4,6.4-5.8s6.2-0.3,6.2-2.5s-1.5-2.6-3.4-2.6
	c-2,0-3.2,0.8-3.4,2.9H259.8z M271.8,85.3c-0.9,0.8-2.7,0.8-4.3,1.1s-3.1,0.9-3.1,2.8s1.5,2.5,3.2,2.5c4,0,4.2-3.3,4.2-4.4V85.3z"/>
<path class="st1" d="M300.1,75.4h3.8V79H300v9.5c0,1.8,0.4,2.2,2.2,2.2c0.5,0,1.1,0,1.6-0.1v4.1c-1,0.1-2,0.2-3,0.2
	c-3.2,0-6-0.7-6-4.6V79h-3.1v-3.5h3.1v-5.8h5.2L300.1,75.4z"/>
<path class="st1" d="M309.7,86.4c0.1,3.3,1.8,4.9,4.6,4.9c2.1,0,3.8-1.3,4.1-2.5h4.6c-1.5,4.6-4.6,6.5-8.9,6.5
	c-6,0-9.6-4.2-9.6-10.1c0-5.8,3.9-10.2,9.6-10.2c6.4,0,9.5,5.5,9.2,11.4L309.7,86.4z M318.2,83c-0.5-2.7-1.6-4.1-4.1-4.1
	c-2.3-0.1-4.2,1.7-4.3,3.9c0,0.1,0,0.1,0,0.2H318.2z"/>
<path class="st1" d="M325.6,75.4h4.9v2.7h0.1c1.2-2,3.4-3.2,5.8-3.2c5.5,0,6.9,3.2,6.9,7.9v11.9h-5.2V83.8c0-3.2-0.9-4.7-3.3-4.7
	c-2.8,0-4,1.6-4,5.5v10.1h-5.2L325.6,75.4z"/>
<path class="st1" d="M290.2,75c-2.2,0.4-4.1,1.9-5,4h-0.1v-3.6h-4.9v19.3h5.2V86c0-3.3,1.2-6,4.8-6.2L290.2,75z"/>
<path class="st1" d="M184.3,104c1.5,0,2.2,1,3.3,0.9c1.8-0.1,2.9-1.7,4.3-5.4c1-2.7,1.8-5.5,2.4-8.3c0-0.3,0-0.5-0.1-0.8l0,0
	c0.2,0.2,0.3,0.5,0.5,0.7l3.2,3.9l1-4.8c0-0.2,0-0.5-0.1-0.7l0,0c0.1,0.2,0.3,0.4,0.5,0.6l0,0l4.5,2.6l-0.8-5.2
	c-0.1-0.2-0.2-0.5-0.4-0.7l0,0c0.2,0.2,0.4,0.3,0.7,0.4l5.1,1.6l-2.7-4.9v-0.1c-0.1-0.2-0.3-0.4-0.6-0.6l0,0
	c0.3,0.2,0.5,0.3,0.9,0.3l5.7,0.4l-4.6-4.6c-0.1-0.1-0.3-0.2-0.4-0.2l0,0c0.2,0.1,0.4,0.1,0.6,0.1l5.6-1l-5-3.1
	c-0.2-0.1-0.3-0.2-0.5-0.2l0,0c0.3,0,0.5,0,0.8,0l5-2.1l-5.2-2.1c-0.2-0.1-0.3-0.1-0.5-0.1l0,0c0.3,0,0.5-0.1,0.8-0.2l0,0l3.4-2.9
	l-4.8-0.8c-0.2,0-0.4,0-0.6,0l0,0c0.2,0,0.4-0.2,0.5-0.4c6.1-18.2-2.8-24.7-2.8-24.7c-9.4,6.2-12.6,13.6-12.6,13.6
	c-4.3-1.6-9.1-1.6-13.4,0c0,0-3.3-7.5-12.6-13.6c0,0-8.9,6.5-2.8,24.7c0.1,0.2,0.3,0.4,0.5,0.4l0,0c-0.2,0-0.4,0-0.6,0l-4.8,0.8
	l3.4,2.9l0,0c0.3,0.1,0.5,0.2,0.8,0.2l0,0c-0.2,0-0.4,0-0.5,0.1l-5.2,2.1l5,2.1c0.3,0,0.5,0,0.8,0l0,0c-0.2,0-0.4,0.1-0.5,0.2
	l-5.1,3.1l5.6,1c0.2,0,0.4,0,0.6-0.1l0,0c-0.1,0.1-0.3,0.1-0.4,0.2l-4.6,4.5l5.7-0.4c0.3-0.1,0.6-0.2,0.9-0.3l0,0
	c-0.2,0.2-0.4,0.4-0.6,0.6v0.1l-2.8,4.9l5.1-1.6c0.2-0.1,0.5-0.2,0.7-0.4l0,0c-0.2,0.2-0.3,0.4-0.4,0.7l-0.8,5.2l4.5-2.6l0,0
	c0.2-0.2,0.4-0.4,0.5-0.6l0,0c-0.1,0.2-0.1,0.5-0.1,0.7l1,4.8c0,0,3.1-3.9,3.1-3.9c0.2-0.2,0.3-0.4,0.5-0.7l0,0
	c-0.1,0.3-0.1,0.5-0.1,0.8c0.6,2.8,1.4,5.6,2.4,8.3c1.3,3.7,2.4,5.3,4.3,5.4C182.1,105,182.8,104,184.3,104z M177.4,76
	c-1.1-0.3-2.5,0.4-3.7-0.8c-1.4-1.4-0.6-3.3-2.9-4.1c0,0,3.5-1.5,6.2,0.5c3,2.2,3.1,7.7,3.1,7.7S179.1,76.4,177.4,76z M187.6,97.5
	c-0.8,1.9-1.2,3.1-1.6,4.1c-0.2,0.4-0.9,0.5-1.7,0.5s-1.5-0.1-1.7-0.5c-0.4-1-0.9-2.2-1.6-4.1c-0.3-0.8-0.2-1,0.5-1.3
	c1.8-0.9,3.9-0.9,5.7,0C187.8,96.5,188,96.6,187.6,97.5z M194.9,75.2c-1.1,1.2-2.6,0.5-3.7,0.8c-1.7,0.4-2.7,3.4-2.7,3.4
	s0.1-5.5,3.1-7.7c2.7-2,6.2-0.5,6.2-0.5C195.5,71.9,196.3,73.8,194.9,75.2z"/>
<path class="st1" d="M184.3,30.9c22.2,0,40.3,18,40.3,40.3s-18,40.3-40.3,40.3s-40.3-18-40.3-40.3c0,0,0,0,0,0
	C144.1,49,162.1,31,184.3,30.9 M184.3,26c-25,0-45.3,20.3-45.3,45.3s20.3,45.3,45.3,45.3s45.3-20.3,45.3-45.3c0,0,0,0,0,0
	C229.6,46.2,209.3,26,184.3,26C184.3,26,184.3,26,184.3,26z"/>
<path class="st1" d="M349.2,64.6c2.8,0.1,5,2.4,5,5.2s-2.4,5-5.2,5c-2.8-0.1-5-2.3-5-5.1c0-2.8,2.2-5,4.9-5.1
	C349,64.6,349.1,64.6,349.2,64.6z M349.2,73.7c2.2,0.1,4.1-1.6,4.2-3.8c0.1-2.2-1.6-4.1-3.8-4.2s-4.1,1.6-4.2,3.8c0,0.1,0,0.1,0,0.2
	c-0.1,2.1,1.6,3.9,3.7,4C349.2,73.6,349.2,73.6,349.2,73.7L349.2,73.7z M347.2,66.8h2.1c1.4,0,2.2,0.5,2.2,1.7
	c0.1,0.8-0.5,1.5-1.3,1.5c-0.1,0-0.1,0-0.2,0l1.5,2.5h-1.2l-1.4-2.4h-0.7v2.4h-1.1L347.2,66.8z M348.3,69.2h1c0.6,0,1.1-0.1,1.1-0.8
	s-0.6-0.8-1.2-0.8h-1L348.3,69.2z"/>
</svg>
