<?xml version="1.0" encoding="utf-8"?>
<!-- Generator: Adobe Illustrator 24.0.1, SVG Export Plug-In . SVG Version: 6.00 Build 0)  -->
<svg version="1.1" id="Layer_1" xmlns="http://www.w3.org/2000/svg" xmlns:xlink="http://www.w3.org/1999/xlink" x="0px" y="0px"
	 viewBox="0 0 481.4 91.4" style="enable-background:new 0 0 481.4 91.4;" xml:space="preserve">
<style type="text/css">
	.st0{fill:#D3D3D3;}
	.st1{fill:#FFFFFF;}
	.st2{fill:none;stroke:#FFFFFF;stroke-width:1.5;stroke-miterlimit:10;}
	.st3{fill:none;stroke:#FFFFFF;stroke-miterlimit:10;}
</style>
<title>YardMachines_Logo_Grey</title>
<polygon class="st0" points="289,23.2 288.2,22.5 280.7,22.5 279.9,23.2 279.9,65.5 280.7,66.2 288.2,66.2 289,65.5 "/>
<path class="st0" d="M243.4,53.9l-0.8-0.8h-7.5l-0.8,0.8v1.9l-1.2,1.5h-7.8l-1.3-1.5V32.9l0.1-0.1c1.7-1.8,1.8-1.8,1.9-1.8h6.4
	l1.9,1.9v1.7l0.8,0.7h7.5l0.8-0.7v-6.5c-0.5-0.5-3.7-3.7-5.9-5.9h-16.6L215,28v32.4l5.8,5.8h16.7l5.9-5.3V53.9z"/>
<polygon class="st0" points="323.8,23 323,22.2 315.5,22.2 314.7,23 314.7,49.6 305.5,23 304.6,22.2 295.1,22.2 294.4,23 
	294.4,65.4 295.1,66.2 302.7,66.2 303.5,65.4 303.5,42.9 311.9,65.4 312.9,66.2 323,66.2 323.8,65.4 "/>
<polygon class="st0" points="275,23 274.2,22.3 266.6,22.3 265.9,23 265.9,39.8 255.6,39.8 255.6,23 254.9,22.3 247.3,22.3 
	246.6,23 246.6,65.5 247.3,66.2 254.9,66.2 255.6,65.5 255.6,48.7 265.9,48.7 265.9,65.5 266.6,66.2 274.2,66.2 275,65.5 "/>
<path class="st0" d="M386.4,45.6l-5.9-5.8h-12.2l-1.3-1.5V33l0.1-0.1c1.7-1.8,1.8-1.8,1.9-1.8h8.3v3.3l0.8,0.8h7.5l0.8-0.8v-6.3
	l-5.9-5.8h-16.7l-5.9,5.8V43l5.9,5.8h11.7l1.8,1.9v5l-0.1,0.1c-1.6,1.8-1.7,1.8-1.8,1.8H367v-3l-0.8-0.7h-7.5l-0.8,0.8v6l5.9,5.9
	h16.6l5.9-5.8L386.4,45.6z"/>
<polygon class="st0" points="354.3,58.1 353.5,57.4 338.3,57.4 338.3,48.7 350,48.7 350.8,47.9 350.8,40.6 350,39.8 338.3,39.8 
	338.3,31.1 353.5,31.1 354.3,30.4 354.3,23 353.5,22.3 330,22.3 329.3,23 329.3,65.5 330,66.2 353.5,66.2 354.3,65.5 "/>
<polygon class="st0" points="24.9,46.1 38.8,15.7 38.2,14.2 28.5,14.2 27.2,15.2 19.5,34.4 11.7,15.2 10.4,14.2 0.7,14.2 0,15.7 
	14,46.2 14,65.3 14.9,66.2 23.9,66.2 24.9,65.3 "/>
<polygon class="st0" points="86.9,49.6 90.9,45.7 91.6,44.2 91.6,28.2 85.7,22.3 65.2,22.3 64.4,23 64.4,65.5 65.2,66.2 72.7,66.2 
	73.5,65.5 73.5,41 73.5,41 73.5,31.1 80.6,31.1 82.5,33 82.5,39.2 80.7,41 73.5,41 83.3,65.4 84.3,66.2 92.9,66.2 93.6,65.5 "/>
<path class="st0" d="M49.7,23.1l-0.8-0.8h-7.5l-0.8,0.8L27.8,65.5l0.8,0.7h7.2l1-0.8L45.2,38l4.2,14.2h-8.1v0.1l0.9,8h9.7l1.6,5.2
	l0.5,0.4l0.5,0.4h7.2l0.8-0.7L49.7,23.1z"/>
<path class="st0" d="M123.2,28.1l-5.9-5.8H96.8L96.1,23v42.5l0.8,0.8h20.5l5.9-5.8V28.1H123.2z M114.2,55.9l-1.2,1.5h-7.8V31.1h7.1
	l1.9,1.9V55.9z"/>
<path class="st0" d="M201.2,23.1l-0.8-0.8h-7.5l-0.8,0.8l-12.8,42.4l0.8,0.7h7.2l1-0.8l8.4-27.5l4.2,14.2h-8.1v0.1l0.9,8h9.7
	l1.6,5.2l0.5,0.4l0.5,0.4h7.2l0.8-0.7L201.2,23.1z"/>
<path class="st0" d="M177.4,15l-0.7-0.9h-10.1l-1,0.9L156,44.3h-1.8L145.8,15l-1-0.9h-10.1L134,15l-0.3,50.3l0.9,0.9h8.6l0.9-0.9
	V41.8l6.7,23.7l1.3,1h6.4l1.3-1l7.3-23.5v23.4l1,0.9h8.4l0.9-0.9L177.4,15z"/>
<polygon class="st0" points="439.3,91.4 402.9,73.5 397.8,66.1 397.8,5.9 403.7,0 475.5,0 481.4,5.9 481.4,66.1 476.3,73.5 "/>
<path class="st1" d="M462,19.3l-17.3,26.2V64l-0.7,0.7h-9l-0.7-0.7V45l-16.9-25.7l-3.9-3.6l0.4-1.1h13l0.6,0.4l10.7,18h2.7l10.9-18
	l0.6-0.3h12.7l0.4,1.1L462,19.3z"/>
<path class="st1" d="M415.8,25.4l-1.1,0.3v33.8l-1.4,4.4l0.6,0.9h10.3l0.7-0.7V39.5l-0.1-0.4L415.8,25.4z M464.1,59.5V25.7l-1.1-0.3
	l-9,13.8l-0.1,0.4V64l0.7,0.7h10.3l0.6-0.9L464.1,59.5z"/>
<path class="st2" d="M407,68.8l32.3,15.9l32.9-15.9l3.1-4.6V8.4L473,6h-66.8l-2.4,2.4v55.9L407,68.8z"/>
<path class="st3" d="M439.3,92.7"/>
<path class="st3" d="M439.3,84.7"/>
</svg>
