<svg xmlns="http://www.w3.org/2000/svg" xmlns:xlink="http://www.w3.org/1999/xlink" viewBox="0 0 481.81 92.29"><defs><style>.cls-1{isolation:isolate;}.cls-2{fill:url(#linear-gradient);}.cls-3{fill:url(#linear-gradient-2);}.cls-4{stroke-miterlimit:10;stroke-width:0.85px;fill:url(#linear-gradient-3);stroke:url(#linear-gradient-4);}.cls-5{fill:url(#linear-gradient-5);}.cls-10,.cls-11,.cls-6,.cls-8{mix-blend-mode:multiply;}.cls-6{fill:url(#linear-gradient-6);}.cls-7{fill:url(#New_Gradient_Swatch_12);}.cls-10,.cls-8{opacity:0.58;}.cls-8{fill:url(#linear-gradient-7);}.cls-9{fill:url(#linear-gradient-8);}.cls-10{fill:url(#linear-gradient-9);}.cls-12{fill:url(#New_Gradient_Swatch_11);}.cls-13{fill:url(#New_Gradient_Swatch_11-2);}.cls-14,.cls-15,.cls-16,.cls-17{opacity:0.31;}.cls-14{fill:url(#White_Black);}.cls-15{fill:url(#White_Black-2);}.cls-16{fill:url(#White_Black-3);}.cls-17{fill:url(#White_Black-4);}.cls-18{fill:#231f20;}</style><linearGradient id="linear-gradient" x1="398.1" y1="50.21" x2="483.24" y2="35.2" gradientUnits="userSpaceOnUse"><stop offset="0.01" stop-color="#500000"/><stop offset="0.17" stop-color="#af1b20"/><stop offset="0.17" stop-color="#b01b20"/><stop offset="0.21" stop-color="#ca1b22"/><stop offset="0.24" stop-color="#dd1c23"/><stop offset="0.28" stop-color="#e81c24"/><stop offset="0.33" stop-color="#ec1c24"/><stop offset="0.52" stop-color="#ec1c24"/><stop offset="0.67" stop-color="#ec1c24"/><stop offset="0.78" stop-color="#ec1c24"/><stop offset="1" stop-color="#790410"/></linearGradient><linearGradient id="linear-gradient-2" x1="403.33" y1="49.34" x2="477.74" y2="36.22" gradientUnits="userSpaceOnUse"><stop offset="0.01" stop-color="#650000"/><stop offset="0.09" stop-color="#981418"/><stop offset="0.14" stop-color="#ab161b"/><stop offset="0.22" stop-color="#c6191f"/><stop offset="0.22" stop-color="#ca1920"/><stop offset="0.26" stop-color="#dd1b22"/><stop offset="0.29" stop-color="#e81c24"/><stop offset="0.33" stop-color="#ec1c24"/><stop offset="0.52" stop-color="#ec1c24"/><stop offset="0.67" stop-color="#c2151c"/><stop offset="0.76" stop-color="#b81319"/><stop offset="0.94" stop-color="#850b17"/></linearGradient><linearGradient id="linear-gradient-3" x1="403.06" y1="74.1" x2="476.12" y2="1.04" gradientUnits="userSpaceOnUse"><stop offset="0" stop-color="#fff"/><stop offset="0.06" stop-color="#bdbfc1"/><stop offset="0.18" stop-color="#e2e3e4"/><stop offset="0.32" stop-color="#adafb1"/><stop offset="0.42" stop-color="#e3e4e5"/><stop offset="0.51" stop-color="#cfd0d2"/><stop offset="0.58" stop-color="#d0d2d3"/><stop offset="0.8" stop-color="#a0a2a4"/><stop offset="0.85" stop-color="#b7b9bb"/><stop offset="0.9" stop-color="#b9bbbd"/></linearGradient><linearGradient id="linear-gradient-4" x1="397.37" y1="46.14" x2="481.81" y2="46.14" gradientUnits="userSpaceOnUse"><stop offset="0" stop-color="#d3d4d6"/><stop offset="0.06" stop-color="#9a9c9f"/><stop offset="0.13" stop-color="#838587"/><stop offset="0.18" stop-color="#c8cacb"/><stop offset="0.32" stop-color="#a2a4a7"/><stop offset="0.51" stop-color="#b7b9bb"/><stop offset="0.68" stop-color="#85878a"/><stop offset="0.8" stop-color="#7e8081"/><stop offset="0.9" stop-color="#9a9c9f"/></linearGradient><linearGradient id="linear-gradient-5" x1="418.47" y1="92.26" x2="418.47" y2="0.42" gradientUnits="userSpaceOnUse"><stop offset="0.01" stop-color="#fff" stop-opacity="0.6"/><stop offset="0.6" stop-color="#231f20" stop-opacity="0"/></linearGradient><linearGradient id="linear-gradient-6" x1="440.09" y1="65.69" x2="440.09" y2="15.7" gradientUnits="userSpaceOnUse"><stop offset="0" stop-color="#231f20" stop-opacity="0.3"/><stop offset="0.26" stop-color="#737477"/><stop offset="0.78" stop-color="#fff"/></linearGradient><linearGradient id="New_Gradient_Swatch_12" x1="419.49" y1="49.71" x2="459.6" y2="9.6" gradientUnits="userSpaceOnUse"><stop offset="0" stop-color="#ededee"/><stop offset="0.13" stop-color="#fff"/><stop offset="0.32" stop-color="#f1f1f2"/><stop offset="0.42" stop-color="#d4d6d7"/><stop offset="0.48" stop-color="#c8cacb"/><stop offset="0.54" stop-color="#cfd0d2"/><stop offset="0.58" stop-color="#d4d6d7"/><stop offset="0.66" stop-color="#d9dbdc"/><stop offset="0.68" stop-color="#d9dbdc"/><stop offset="0.73" stop-color="#e8e8e9"/><stop offset="0.8" stop-color="#cfd0d2"/><stop offset="0.9" stop-color="#ededee"/><stop offset="1" stop-color="#fff"/></linearGradient><linearGradient id="linear-gradient-7" x1="420.56" y1="49.1" x2="458.56" y2="11.1" gradientUnits="userSpaceOnUse"><stop offset="0" stop-color="#d9dbdc"/><stop offset="0.13" stop-color="#fff"/><stop offset="0.32" stop-color="#dfe0e1"/><stop offset="0.42" stop-color="#c0c1c3"/><stop offset="0.48" stop-color="#cfd0d2"/><stop offset="0.54" stop-color="#fff"/><stop offset="0.58" stop-color="#e8e8e9"/><stop offset="0.66" stop-color="#c8cacb"/><stop offset="0.68" stop-color="#dbdcdd"/><stop offset="0.73" stop-color="#dbdcdd"/><stop offset="0.8" stop-color="#fff"/><stop offset="0.9" stop-color="#dddfe0"/><stop offset="1" stop-color="#eaebec"/></linearGradient><linearGradient id="linear-gradient-8" x1="417.13" y1="68.32" x2="461.73" y2="23.72" gradientUnits="userSpaceOnUse"><stop offset="0" stop-color="#ededee"/><stop offset="0.13" stop-color="#fff"/><stop offset="0.32" stop-color="#f1f1f2"/><stop offset="0.42" stop-color="#e2e3e4"/><stop offset="0.48" stop-color="#fff"/><stop offset="0.54" stop-color="#e3e4e5"/><stop offset="0.58" stop-color="#e3e4e5"/><stop offset="0.66" stop-color="#e6e7e8"/><stop offset="0.68" stop-color="#d9dbdc"/><stop offset="0.73" stop-color="#ededee"/><stop offset="0.8" stop-color="#dddfe0"/><stop offset="0.9" stop-color="#ededee"/><stop offset="1" stop-color="#fff"/></linearGradient><linearGradient id="linear-gradient-9" x1="418.37" y1="67.69" x2="460.49" y2="25.57" gradientUnits="userSpaceOnUse"><stop offset="0" stop-color="#c8cacb"/><stop offset="0.13" stop-color="#fff"/><stop offset="0.32" stop-color="#cbcdcf"/><stop offset="0.37" stop-color="#bdbfc1"/><stop offset="0.5" stop-color="#fff"/><stop offset="0.59" stop-color="#bdbfc1"/><stop offset="0.66" stop-color="#c8cacb"/><stop offset="0.68" stop-color="#b2b4b7"/><stop offset="0.85" stop-color="#eaebec"/><stop offset="0.93" stop-color="#a2a4a7"/><stop offset="1" stop-color="#c8cacb"/></linearGradient><linearGradient id="New_Gradient_Swatch_11" x1="419.83" y1="61.68" x2="419.83" y2="25.82" gradientUnits="userSpaceOnUse"><stop offset="0.19" stop-color="#fff"/><stop offset="0.88" stop-color="#555658" stop-opacity="0.6"/><stop offset="0.99" stop-color="#616264" stop-opacity="0.7"/></linearGradient><linearGradient id="New_Gradient_Swatch_11-2" x1="459.03" y1="61.68" x2="459.03" y2="25.82" xlink:href="#New_Gradient_Swatch_11"/><linearGradient id="White_Black" x1="-813.17" y1="8.57" x2="-807.04" y2="2.44" gradientTransform="matrix(-1, 0, 0, 1, -333.81, 0)" gradientUnits="userSpaceOnUse"><stop offset="0" stop-color="#fff"/><stop offset="1" stop-color="#231f20"/></linearGradient><linearGradient id="White_Black-2" x1="399.8" y1="8.58" x2="405.93" y2="2.45" gradientTransform="matrix(1, 0, 0, 1, 0, 0)" xlink:href="#White_Black"/><linearGradient id="White_Black-3" x1="398.76" y1="125.95" x2="405.19" y2="119.52" gradientTransform="matrix(1, 0, 0, -1, 0, 190.9)" xlink:href="#White_Black"/><linearGradient id="White_Black-4" x1="-816.67" y1="125.89" x2="-810.24" y2="119.46" gradientTransform="translate(-336.54 190.9) rotate(180)" xlink:href="#White_Black"/></defs><title>YardMachines_Logo</title><g class="cls-1"><g id="Layer_1" data-name="Layer 1"><polygon class="cls-2" points="474.25 3.45 404.93 3.45 400.81 7.57 400.81 65.61 404.95 71.58 439.59 88.45 474.23 71.58 478.37 65.61 478.37 7.57 474.25 3.45"/><polygon class="cls-3" points="471.05 8.86 407.86 8.86 405.91 10.73 405.91 64.01 408.64 67.63 439.33 82.68 470.65 67.56 473.27 64.23 473.27 10.84 471.05 8.86"/><path class="cls-4" d="M439.31,91.82,402.92,74l-5.13-7.4V6.32L403.68.43H475.5l5.89,5.88V66.56L476.26,74ZM407,69.21,439.3,85.1l32.9-15.89,3.15-4.54V8.82L473,6.47H406.19l-2.36,2.35V64.67Z"/><polygon class="cls-5" points="439.3 84.61 407.28 68.89 404.26 64.55 404.26 8.81 406.19 6.46 439.57 6.46 439.57 0.42 403.68 0.42 397.37 6.31 397.37 66.68 402.63 74.27 439.31 92.26 439.3 84.61"/><path class="cls-6" d="M462.47,20.3,454.3,32.77l-9,13.71V65l-.68.68h-9.1l-.69-.68V46L426.2,33l-.16-.19-8.16-12.44L414,16.79l.43-1.09h13l.6.34,10.7,18h2.77l10.9-18,.61-.34h12.7l.44,1.08Zm-46,6-1.12.34V60.43L414,64.83l.64.86h10.27l.68-.68V40.47l-.11-.4Zm48.33,34.12V26.66l-1.12-.34-9,13.75-.12.4V65l.69.68h10.26l.64-.86Z"/><path class="cls-7" d="M462,19.8,444.76,46V64.5l-.69.69H435l-.68-.69v-19L417.38,19.85l-3.86-3.57.42-1.09h13l.61.35,10.7,18H441l10.9-18,.6-.34H465.2l.43,1.09Z"/><path class="cls-8" d="M435.47,64h8.11V45.62l9.23-14L461.05,19l2.78-2.67h-11l-.06,0L441.66,34.73h-4.11L426.66,16.41l-.06,0H415.36l2.93,2.71,8.19,12.49.2.26,8.79,13.33Z"/><path class="cls-9" d="M415.82,25.82l-1.12.33V59.92l-1.34,4.4.64.87h10.27l.68-.69V40l-.11-.39Zm48.33,34.12V26.15L463,25.82l-9,13.75-.12.39V64.5l.69.69h10.27l.64-.87Z"/><path class="cls-10" d="M455.08,64h9.08L463,60.11v-32l-7.87,12,0,.06Zm-40.39,0h9.08V40.07l-7.88-12v32Z"/><g class="cls-11"><polygon class="cls-12" points="424.95 61.68 424.95 39.96 424.84 39.57 415.82 25.82 414.7 26.15 414.7 61.68 424.95 61.68"/><polygon class="cls-13" points="464.15 61.68 464.15 26.15 463.03 25.82 454.02 39.57 453.9 39.96 453.9 61.68 464.15 61.68"/></g><polygon class="cls-14" points="481.8 6.14 474.93 9 472.83 6.9 475.67 0.01 481.8 6.14"/><polygon class="cls-15" points="397.36 6.14 404.26 8.99 406.36 6.89 403.5 0.01 397.36 6.14"/><polygon class="cls-16" points="397.09 66.62 403.99 64.5 407 68.81 402.35 74.21 397.09 66.62"/><polygon class="cls-17" points="481.81 66.69 474.92 64.53 471.91 68.87 476.55 74.29 481.81 66.69"/><polygon class="cls-18" points="289 23.23 288.24 22.48 280.7 22.48 279.94 23.23 279.94 65.49 280.7 66.24 288.24 66.24 289 65.49 289 23.23"/><path class="cls-18" d="M243.43,53.94l-.77-.75h-7.54l-.76.75v1.89l-1.24,1.5h-7.78L224,55.84V32.94l.07-.07c1.7-1.8,1.82-1.8,1.94-1.8h6.42l1.9,1.86v1.66l.76.74h7.54l.77-.74V28.11c-.46-.49-3.69-3.7-5.91-5.88H220.87L215,28V60.4l5.84,5.77h16.66l5.9-5.26Z"/><polygon class="cls-18" points="323.75 22.97 322.99 22.23 315.45 22.23 314.69 22.97 314.69 49.6 305.5 23.01 304.64 22.23 295.15 22.23 294.38 22.97 294.38 65.43 295.15 66.17 302.69 66.17 303.45 65.43 303.45 42.91 311.85 65.38 312.89 66.17 322.99 66.17 323.75 65.43 323.75 22.97"/><polygon class="cls-18" points="274.95 23.03 274.19 22.29 266.65 22.29 265.89 23.04 265.89 39.84 255.63 39.84 255.63 23.03 254.86 22.29 247.32 22.29 246.56 23.04 246.56 65.49 247.32 66.24 254.86 66.24 255.63 65.49 255.63 48.69 265.89 48.69 265.89 65.49 266.65 66.24 274.19 66.24 274.95 65.49 274.95 23.03"/><path class="cls-18" d="M386.4,45.61l-5.91-5.77H368.31L367,38.35V33l.07-.07c1.7-1.79,1.82-1.79,1.94-1.79h8.32v3.32l.76.75h7.48l.83-.75V28.12l-5.91-5.83H363.84l-5.9,5.77V42.92l5.9,5.77h11.72l1.77,1.86v5l-.06.07c-1.57,1.8-1.69,1.8-1.82,1.8H367v-3l-.76-.74h-7.48l-.82.75v6l5.9,5.9h16.65l5.91-5.77Z"/><polygon class="cls-18" points="354.27 58.13 353.5 57.39 338.32 57.39 338.32 48.69 349.99 48.69 350.75 47.94 350.75 40.59 349.99 39.84 338.32 39.84 338.32 31.14 353.5 31.14 354.27 30.39 354.27 23.04 353.5 22.29 330.02 22.29 329.26 23.04 329.26 65.49 330.02 66.24 353.5 66.24 354.27 65.49 354.27 58.13"/><polygon class="cls-18" points="24.87 46.09 38.83 15.69 38.16 14.2 28.51 14.2 27.16 15.17 19.45 34.39 11.66 15.16 10.39 14.2 0.66 14.2 0 15.69 13.98 46.2 13.98 65.32 14.91 66.24 23.91 66.24 24.85 65.32 24.87 46.09"/><polygon class="cls-18" points="86.95 49.58 90.94 45.74 91.55 44.18 91.55 28.18 85.65 22.29 65.16 22.29 64.4 23.03 64.4 65.49 65.16 66.24 72.7 66.24 73.46 65.49 73.46 41 73.46 41.02 73.46 31.14 80.58 31.14 82.49 33 82.49 39.18 80.65 41.05 73.47 41.05 83.29 65.44 84.34 66.24 92.87 66.24 93.59 65.54 86.95 49.58"/><path class="cls-18" d="M49.72,23.12l-.8-.83H41.4l-.8.83L27.78,65.52l.79.72H35.8l1-.79L45.2,38l4.23,14.15h-8.1v.07l.88,8h9.68l1.59,5.24.49.38.55.42h7.23l.79-.72Z"/><path class="cls-18" d="M123.23,28.06l-5.9-5.77H96.83l-.76.74V65.49l.76.75h20.5l5.9-5.77Zm-9.07,27.83-1.24,1.5h-7.78V31.14h7.12l1.9,1.86Z"/><path class="cls-18" d="M201.22,23.12l-.8-.83h-7.53l-.8.83-12.82,42.4.79.72h7.24l1-.79L196.69,38l4.24,14.15h-8.11v.07l.88,8h9.67L205,65.44l.5.39.54.41h7.24l.79-.72Z"/><path class="cls-18" d="M177.4,15l-.72-.9H166.54l-1,.88L156,44.29h-1.84L145.8,15l-1-.88H134.68L134,15l-.26,50.3.93.92h8.59l.93-.92,0-23.55,6.72,23.66,1.33,1h6.44l1.26-1,7.26-23.53V65.32l1,.92h8.41l.93-.92Z"/></g></g></svg>