<svg xmlns="http://www.w3.org/2000/svg" viewBox="0 0 43 43" xml:space="preserve">
  <path d="M21.541 43.041c-2.9 0-5.7-.6-8.3-1.7-5.2-2.2-9.4-6.3-11.5-11.5-1.1-2.6-1.7-5.5-1.7-8.3 0-2.9.6-5.7 1.7-8.4 1-2.6 2.6-4.9 4.6-6.9 2-2 4.3-3.5 6.9-4.6 2.6-1.1 5.5-1.7 8.3-1.7 2.9 0 5.7.6 8.4 1.7 5.1 2.2 9.2 6.3 11.4 11.4 1.1 2.6 1.7 5.5 1.7 8.4 0 2.9-.6 5.7-1.7 8.3-1.1 2.6-2.6 4.9-4.6 6.9-2 2-4.3 3.5-6.8 4.6-2.7 1.2-5.6 1.8-8.4 1.8" fill="#ed2124"/>
  <path d="M21.441 39.741c4.9.1 9.6-1.8 13-5.3 3.5-3.4 5.4-8.1 5.3-12.9.1-4.9-1.8-9.6-5.3-13-3.4-3.5-8.1-5.4-13-5.3-4.9-.1-9.5 1.8-12.9 5.3-3.5 3.4-5.4 8.1-5.3 13-.1 4.9 1.9 9.5 5.3 12.9 3.4 3.5 8.1 5.4 12.9 5.3" fill="#f0efef"/>
  <path fill="none" stroke="#ed2124" stroke-width="4" d="m14.441 14.541 14 14M28.041 14.541l-13 14"/>
</svg>
