<?xml version="1.0" encoding="utf-8"?>
<!-- Generator: Adobe Illustrator 24.0.1, SVG Export Plug-In . SVG Version: 6.00 Build 0)  -->
<svg version="1.1" id="Layer_1" xmlns="http://www.w3.org/2000/svg" xmlns:xlink="http://www.w3.org/1999/xlink" x="0px" y="0px"
	 viewBox="0 0 143.6 30.8" style="enable-background:new 0 0 143.6 30.8;" xml:space="preserve">
<style type="text/css">
	.st0{clip-path:url(#SVGID_2_);}
	.st1{fill:#D3D3D3;}
</style>
<title>Columbia_Logo_Grey</title>
<g>
	<g>
		<defs>
			<rect id="SVGID_1_" width="143.6" height="30.8"/>
		</defs>
		<clipPath id="SVGID_2_">
			<use xlink:href="#SVGID_1_"  style="overflow:visible;"/>
		</clipPath>
		<g class="st0">
			<path class="st1" d="M8.1,13.1V6.3c0-0.4,0-0.8-0.1-1.2c0-0.3-0.1-0.5-0.3-0.7C7.6,4.2,7.4,4.1,7.2,4c-0.3-0.1-0.6-0.1-1-0.1
				c-0.3,0-0.7,0-1,0.1C5,4.1,4.8,4.2,4.7,4.4C4.5,4.6,4.4,4.8,4.4,5.1c0,0.4-0.1,0.8-0.1,1.2v18.2c0,0.4,0,0.8,0.1,1.3
				c0,0.3,0.1,0.5,0.3,0.8C4.8,26.8,5,26.9,5.3,27c0.3,0.1,0.7,0.1,1,0.1s0.6,0,0.9-0.1c0.2-0.1,0.4-0.2,0.6-0.4
				C7.9,26.2,8,26,8,25.7c0-0.4,0.1-0.8,0.1-1.3v-7h4.2v7c0,1.1-0.1,2.2-0.3,3.4c-0.1,0.7-0.4,1.4-0.9,1.9s-1.2,0.8-1.9,0.9
				c-1,0.2-2,0.2-3,0.2c-1.1,0-2.1-0.1-3.2-0.2c-0.7-0.1-1.4-0.4-1.9-0.9s-0.8-1.2-0.9-1.9C0.1,26.7,0,25.6,0,24.5V6.3
				C0,5.2,0.1,4.1,0.3,3c0.1-0.7,0.5-1.4,1-1.9s1.2-0.8,1.9-0.9C4.2,0,5.2,0,6.3,0c1,0,2,0.1,3,0.2c0.7,0.1,1.3,0.4,1.9,0.9
				C11.6,1.6,11.9,2.3,12,3c0.2,1.1,0.3,2.2,0.2,3.3v6.8H8.1z"/>
			<path class="st1" d="M31.5,24.5c0,1.1-0.1,2.2-0.2,3.4c-0.1,0.7-0.4,1.4-1,1.9c-0.5,0.5-1.2,0.8-1.9,0.9c-1,0.2-2.1,0.2-3.2,0.2
				s-2.1-0.1-3.2-0.2c-0.7-0.1-1.4-0.4-1.9-0.9s-0.8-1.2-0.9-1.9c-0.2-1.1-0.3-2.2-0.2-3.4V6.3c0-1.1,0.1-2.2,0.3-3.3
				c0.1-0.7,0.4-1.4,0.9-1.9s1.2-0.8,1.9-0.9C23,0.1,24.1,0,25.2,0s2.1,0.1,3.2,0.2c0.7,0.1,1.4,0.4,1.9,0.9s0.8,1.2,1,1.9
				c0.2,1.1,0.3,2.2,0.2,3.3C31.5,6.3,31.5,24.5,31.5,24.5z M27,6.3c0.1-0.7,0-1.4-0.4-2c-0.2-0.3-0.7-0.4-1.5-0.4
				c-0.3,0-0.7,0-1,0.1c-0.2,0.1-0.4,0.2-0.6,0.4c-0.2,0.2-0.2,0.5-0.3,0.7c0,0.4-0.1,0.8-0.1,1.2v18.2c0,0.4,0,0.8,0.1,1.3
				c0,0.3,0.1,0.5,0.3,0.8c0.1,0.2,0.3,0.3,0.6,0.4c0.3,0.1,0.7,0.1,1,0.1s0.7,0,1-0.1c0.2-0.1,0.4-0.2,0.6-0.4
				c0.2-0.2,0.2-0.5,0.3-0.8c0-0.4,0-0.8,0-1.2V6.3z"/>
			<polygon class="st1" points="47.3,30.4 38.4,30.4 38.4,0.4 42.8,0.4 42.8,26.6 47.3,26.6 			"/>
			<path class="st1" d="M59.4,30.8c-1,0-2.1-0.1-3.1-0.2c-0.7-0.1-1.4-0.4-1.9-0.9s-0.8-1.2-1-1.9c-0.2-1.1-0.3-2.2-0.3-3.4v-24h4.4
				v24.1c0,0.4,0,0.8,0.1,1.3c0,0.3,0.1,0.5,0.3,0.7s0.3,0.3,0.6,0.3c0.3,0.1,0.7,0.1,1,0.1s0.6,0,0.9-0.1c0.2,0,0.4-0.2,0.5-0.3
				c0.1-0.2,0.2-0.5,0.3-0.7c0.1-0.4,0.1-0.8,0.1-1.3V0.4h4.3v24.1c0,1.1-0.1,2.2-0.3,3.4c-0.1,0.7-0.5,1.4-1,1.9s-1.2,0.8-1.9,0.9
				C61.4,30.7,60.4,30.8,59.4,30.8"/>
			<polygon class="st1" points="89.6,0.4 89.6,30.4 86.1,30.4 86.1,9.2 85.9,9.2 83.1,30.4 79.2,30.4 76.4,9.1 76.3,9.1 76.3,30.4 
				72.7,30.4 72.7,0.4 78.8,0.4 81.1,20.6 81.2,20.6 83.5,0.4 			"/>
			<path class="st1" d="M106.7,13c0.4,0.1,0.8,0.2,1.1,0.4c0.3,0.2,0.6,0.5,0.9,0.8c0.3,0.4,0.5,0.9,0.6,1.4
				c0.1,0.7,0.2,1.5,0.2,2.2v6.4c0,1.1-0.1,2.2-0.2,3.2c-0.1,0.7-0.5,1.4-1,1.9s-1.2,0.8-1.9,0.9c-1,0.2-2.1,0.2-3.2,0.2H97v-30h6.2
				c1.1,0,2.1,0.1,3.2,0.2c0.7,0.1,1.4,0.4,1.9,0.9s0.9,1.1,1,1.8c0.2,1.1,0.3,2.1,0.2,3.2v2.2c0,0.7-0.1,1.3-0.3,1.9
				c-0.2,0.4-0.4,0.8-0.7,1.2c-0.2,0.3-0.5,0.5-0.9,0.7c-0.3,0.1-0.6,0.2-0.8,0.3L106.7,13z M101.3,11.2h2c0.5,0.1,1-0.1,1.4-0.4
				c0.3-0.5,0.4-1,0.3-1.5V6.5c0-0.4,0-0.8,0-1.1c0-0.3-0.1-0.5-0.2-0.7s-0.3-0.3-0.6-0.4c-0.3-0.1-0.7-0.1-1-0.1h-1.9L101.3,11.2z
				 M101.3,26.6h1.9c0.3,0,0.7,0,1-0.1c0.2,0,0.4-0.2,0.6-0.3c0.1-0.2,0.2-0.5,0.3-0.7c0.1-0.4,0.1-0.8,0.1-1.2V17
				c0-0.6-0.1-1.2-0.3-1.7c-0.2-0.3-0.7-0.5-1.4-0.5h-2L101.3,26.6z"/>
			<rect x="116.4" y="0.4" class="st1" width="4.4" height="30"/>
			<path class="st1" d="M135.9,30.4v-6.7h-3.7v6.7h-4.3V6.3c0-1.1,0.1-2.2,0.2-3.3c0.1-0.7,0.4-1.4,0.9-1.9s1.2-0.8,1.9-0.9
				c1-0.2,2-0.2,3-0.2s2,0.1,3.1,0.2c0.7,0.1,1.4,0.4,1.9,0.9s0.9,1.2,1,1.9c0.2,1.1,0.3,2.2,0.3,3.2v24.1L135.9,30.4L135.9,30.4z
				 M134,3.9c-0.3,0-0.6,0-0.9,0.1c-0.2,0.1-0.4,0.2-0.6,0.3c-0.2,0.2-0.3,0.5-0.3,0.7c0,0.4,0,0.8,0,1.2V20h3.7V6.3
				c0-0.4,0-0.8-0.1-1.2c0-0.3-0.1-0.5-0.3-0.7C135.4,4.2,135.2,4,135,4C134.7,3.9,134.4,3.9,134,3.9"/>
			<path class="st1" d="M141.1,1.9c0-0.1,0-0.2,0.1-0.3c0-0.1,0.1-0.2,0.1-0.3c0-0.1,0.1-0.2,0.2-0.2c0.1-0.1,0.1-0.1,0.2-0.2
				c0.1-0.1,0.2-0.1,0.3-0.1c0.2-0.1,0.4-0.1,0.6,0c0.1,0,0.2,0.1,0.3,0.1c0.1,0.1,0.2,0.1,0.2,0.2c0.1,0.1,0.1,0.2,0.2,0.2
				c0.1,0.1,0.1,0.2,0.1,0.3c0,0.1,0,0.2,0,0.3c0,0.1,0,0.2,0,0.3s-0.1,0.2-0.1,0.3c-0.1,0.1-0.1,0.2-0.2,0.2L143,3
				c-0.1,0.1-0.2,0.1-0.3,0.1c-0.2,0.1-0.4,0.1-0.6,0c-0.1,0-0.2-0.1-0.3-0.1c-0.1-0.1-0.2-0.1-0.2-0.2c-0.1-0.1-0.1-0.2-0.2-0.2
				c-0.1-0.1-0.1-0.2-0.1-0.3C141.2,2.2,141.2,2.1,141.1,1.9 M141.4,2c0,0.1,0,0.3,0.1,0.4c0.1,0.1,0.1,0.2,0.2,0.3
				c0.1,0.1,0.2,0.2,0.3,0.2c0.1,0.1,0.3,0.1,0.4,0.1c0.1,0,0.3,0,0.4-0.1c0.1-0.1,0.2-0.1,0.3-0.2c0.1-0.1,0.2-0.2,0.2-0.3
				c0.1-0.1,0.1-0.3,0.1-0.4c0-0.1,0-0.3-0.1-0.4s-0.1-0.2-0.2-0.3C143,1.1,142.9,1,142.8,1c-0.1-0.1-0.3-0.1-0.4-0.1
				c-0.1,0-0.3,0-0.4,0.1c-0.1,0.1-0.2,0.1-0.3,0.2s-0.2,0.2-0.2,0.3C141.4,1.7,141.4,1.8,141.4,2 M142.2,2.1v0.6h-0.3V1.2h0.5
				c0.2,0,0.3,0,0.4,0.1c0.1,0.1,0.1,0.2,0.1,0.3s0,0.2-0.1,0.3S142.6,2,142.5,2h0.1v0.1l0.4,0.5h-0.3h-0.1L142.2,2.1L142.2,2.1
				L142.2,2.1L142.2,2.1z M142.2,1.9h0.2h0.1h0.1V1.8V1.7V1.6V1.5h-0.1h-0.1h-0.2V1.9z"/>
		</g>
	</g>
</g>
</svg>
