<svg xmlns="http://www.w3.org/2000/svg" xmlns:xlink="http://www.w3.org/1999/xlink" viewBox="0 0 102.46 102.46"><defs><style>.cls-1,.cls-10,.cls-11,.cls-12,.cls-13,.cls-14,.cls-15,.cls-16,.cls-17,.cls-18,.cls-19,.cls-20,.cls-21,.cls-22,.cls-23,.cls-24,.cls-25,.cls-26,.cls-27,.cls-28,.cls-8,.cls-9{fill:#fff;}.cls-2{fill:none;}.cls-3{isolation:isolate;}.cls-4{fill:url(#radial-gradient);}.cls-5{fill:url(#linear-gradient);}.cls-6{clip-path:url(#clip-path);}.cls-7{opacity:0.4;}.cls-40,.cls-8{opacity:0;}.cls-41,.cls-9{opacity:0.05;}.cls-10,.cls-42{opacity:0.1;}.cls-11,.cls-43{opacity:0.14;}.cls-12,.cls-44{opacity:0.19;}.cls-13,.cls-45{opacity:0.24;}.cls-14,.cls-46{opacity:0.29;}.cls-15,.cls-47{opacity:0.33;}.cls-16,.cls-48{opacity:0.38;}.cls-17,.cls-49{opacity:0.43;}.cls-18,.cls-50{opacity:0.48;}.cls-19,.cls-51{opacity:0.52;}.cls-20,.cls-52{opacity:0.57;}.cls-21,.cls-53{opacity:0.62;}.cls-22,.cls-54{opacity:0.67;}.cls-23,.cls-55{opacity:0.71;}.cls-24,.cls-56{opacity:0.76;}.cls-25,.cls-57{opacity:0.81;}.cls-26,.cls-58{opacity:0.86;}.cls-27,.cls-59{opacity:0.9;}.cls-28,.cls-60{opacity:0.95;}.cls-29{fill:url(#linear-gradient-2);}.cls-30{fill:#231f20;}.cls-31{clip-path:url(#clip-path-2);}.cls-32{fill:url(#linear-gradient-3);}.cls-33{fill:url(#linear-gradient-4);}.cls-34{opacity:0.65;fill:url(#linear-gradient-5);}.cls-35{mix-blend-mode:multiply;fill:url(#linear-gradient-6);}.cls-36{fill:url(#linear-gradient-7);}.cls-37{fill:url(#linear-gradient-8);}.cls-38{fill:url(#linear-gradient-9);}.cls-39{clip-path:url(#clip-path-3);}.cls-40,.cls-41,.cls-42,.cls-43,.cls-44,.cls-45,.cls-46,.cls-47,.cls-48,.cls-49,.cls-50,.cls-51,.cls-52,.cls-53,.cls-54,.cls-55,.cls-56,.cls-57,.cls-58,.cls-59,.cls-60,.cls-61{fill:#f0f0f0;}.cls-62{fill:url(#linear-gradient-10);}.cls-63{fill:url(#radial-gradient-2);}.cls-64{fill:url(#linear-gradient-11);}.cls-65{fill:url(#New_Gradient_Swatch_1);}.cls-66{fill:url(#linear-gradient-12);}.cls-67{fill:url(#linear-gradient-13);}.cls-68{fill:url(#radial-gradient-3);}.cls-69{fill:#e6e7e8;}.cls-70{fill:url(#linear-gradient-14);}.cls-71{fill:url(#linear-gradient-15);}.cls-72{fill:#666;}.cls-73{fill:url(#radial-gradient-4);}.cls-74{fill:#dbdcdd;}.cls-75{fill:url(#linear-gradient-16);}.cls-76{fill:url(#linear-gradient-17);}.cls-77{fill:url(#radial-gradient-5);}.cls-78{fill:url(#radial-gradient-6);}.cls-79{fill:url(#radial-gradient-7);}.cls-80{fill:url(#linear-gradient-18);}.cls-81{fill:#808184;}.cls-82{fill:url(#linear-gradient-19);}.cls-83{fill:url(#linear-gradient-20);}.cls-84{fill:url(#linear-gradient-21);}.cls-85{fill:url(#radial-gradient-8);}.cls-86{fill:url(#linear-gradient-22);}.cls-87{fill:url(#linear-gradient-23);}.cls-88{fill:url(#linear-gradient-24);}.cls-89{fill:url(#linear-gradient-25);}.cls-90{fill:url(#radial-gradient-9);}</style><radialGradient id="radial-gradient" cx="51.23" cy="51.23" r="52.07" gradientUnits="userSpaceOnUse"><stop offset="0.93"/><stop offset="0.94" stop-color="#050505"/><stop offset="0.95" stop-color="#141414"/><stop offset="0.96" stop-color="#2d2d2d"/><stop offset="0.97" stop-color="#505050"/><stop offset="0.98" stop-color="#7c7c7c"/><stop offset="0.99" stop-color="#b2b2b2"/><stop offset="0.99" stop-color="#ccc"/></radialGradient><linearGradient id="linear-gradient" x1="10.83" y1="24" x2="89.5" y2="77.03" gradientUnits="userSpaceOnUse"><stop offset="0.01" stop-color="#fff"/><stop offset="0.11" stop-color="#efefef"/><stop offset="0.32" stop-color="#c6c6c6"/><stop offset="0.6" stop-color="#848484"/><stop offset="0.94" stop-color="#2a2a2a"/><stop offset="1" stop-color="#1a1a1a"/><stop offset="1" stop-color="#222"/><stop offset="1" stop-color="#383838"/><stop offset="1" stop-color="#5c5c5c"/><stop offset="1" stop-color="#8f8f8f"/><stop offset="1" stop-color="#cecece"/><stop offset="1" stop-color="#fff"/></linearGradient><clipPath id="clip-path" transform="translate(0 0)"><path class="cls-1" d="M79.43,51.39A27.64,27.64,0,1,1,51.92,23.62,27.64,27.64,0,0,1,79.43,51.39Z"/></clipPath><linearGradient id="linear-gradient-2" x1="28.49" y1="34.19" x2="75.08" y2="68.39" gradientUnits="userSpaceOnUse"><stop offset="0"/><stop offset="0.4" stop-color="#020202"/><stop offset="0.55" stop-color="#090909"/><stop offset="0.65" stop-color="#141414"/><stop offset="0.74" stop-color="#252525"/><stop offset="0.81" stop-color="#3b3b3b"/><stop offset="0.87" stop-color="#575757"/><stop offset="0.93" stop-color="#777"/><stop offset="0.98" stop-color="#9b9b9b"/><stop offset="1" stop-color="#aeaeae"/></linearGradient><clipPath id="clip-path-2" transform="translate(0 0)"><polygon class="cls-2" points="33.69 51.01 33.69 40.59 42.71 35.39 51.73 40.6 51.72 51.02 42.7 56.22 33.69 51.01"/></clipPath><linearGradient id="linear-gradient-3" x1="37.82" y1="41.11" x2="37.66" y2="34.84" gradientUnits="userSpaceOnUse"><stop offset="0" stop-color="#aeaeae"/><stop offset="0.31" stop-color="#aeaeae"/><stop offset="0.45" stop-color="#aeaeae"/><stop offset="0.47" stop-color="#aeaeae"/><stop offset="1" stop-color="#aeaeae"/></linearGradient><linearGradient id="linear-gradient-4" x1="51.44" y1="51.64" x2="51.16" y2="40.4" xlink:href="#linear-gradient-3"/><linearGradient id="linear-gradient-5" x1="38.15" y1="56.71" x2="37.99" y2="50.29" xlink:href="#linear-gradient-3"/><linearGradient id="linear-gradient-6" x1="38.03" y1="56.84" x2="37.87" y2="50.29" xlink:href="#linear-gradient-3"/><linearGradient id="linear-gradient-7" x1="77.5" y1="74" x2="24.86" y2="27.52" gradientUnits="userSpaceOnUse"><stop offset="0" stop-color="#b3b3b3"/><stop offset="0.11" stop-color="#ababab"/><stop offset="0.28" stop-color="#949494"/><stop offset="0.49" stop-color="#6f6f6f"/><stop offset="0.73" stop-color="#3c3c3c"/><stop offset="0.98"/></linearGradient><linearGradient id="linear-gradient-8" x1="30.31" y1="36.25" x2="55.82" y2="55.91" gradientUnits="userSpaceOnUse"><stop offset="0.03" stop-color="#aeaeae"/><stop offset="0.18" stop-color="#d2d2d2"/><stop offset="0.39" stop-color="#fff"/><stop offset="0.56" stop-color="#ddd"/><stop offset="0.73" stop-color="#c3c3c3"/><stop offset="0.88" stop-color="#b3b3b3"/><stop offset="1" stop-color="#aeaeae"/></linearGradient><linearGradient id="linear-gradient-9" x1="32.2" y1="49.26" x2="76.76" y2="52.86" gradientUnits="userSpaceOnUse"><stop offset="0" stop-color="#404040"/><stop offset="0.2" stop-color="#3e3e3e"/><stop offset="0.27" stop-color="#373737"/><stop offset="0.3" stop-color="#333"/><stop offset="1" stop-color="#8c8c8c"/></linearGradient><clipPath id="clip-path-3" transform="translate(0 0)"><path class="cls-2" d="M77.65,63.7c-1.47-1.11-7.47-5.83-8.25-6.48-1-.85-1.24-2.29-.93-6.16.34-4.22.42-7.26-3.46-13.68s-12.07-8.52-15.36-8.52a32.81,32.81,0,0,0-11.14,1.85c-.68.17-1.61,1.36-.59,1.86s13,7.52,15.24,9,2.73,4.8-1,10-7.93,5.57-9.12,4.89-12.18-7-13.5-7.76c-1.62-.9-2.27-.86-2.44-.19s-.43,1.71.41,5.25A24.26,24.26,0,0,0,37,67.35C42.9,71.57,52.52,69.88,55.22,69s4.39-1.68,6.58-.67a104.84,104.84,0,0,1,9.78,6.41C75.2,72.16,82.06,72,77.65,63.7Z"/></clipPath><linearGradient id="linear-gradient-10" x1="42.48" y1="42.93" x2="42.44" y2="39.51" gradientUnits="userSpaceOnUse"><stop offset="0" stop-color="#fff"/><stop offset="0.16" stop-color="#fff" stop-opacity="0.79"/><stop offset="0.39" stop-color="#fff" stop-opacity="0.51"/><stop offset="0.6" stop-color="#fff" stop-opacity="0.29"/><stop offset="0.78" stop-color="#fff" stop-opacity="0.13"/><stop offset="0.92" stop-color="#fff" stop-opacity="0.04"/><stop offset="1" stop-color="#fff" stop-opacity="0"/></linearGradient><radialGradient id="radial-gradient-2" cx="2.44" cy="70.82" r="10.89" gradientTransform="matrix(0.88, -0.47, 0.26, 0.49, 15.52, -6.14)" gradientUnits="userSpaceOnUse"><stop offset="0" stop-color="#fff"/><stop offset="0.09" stop-color="#fff" stop-opacity="0.94"/><stop offset="0.27" stop-color="#fff" stop-opacity="0.79"/><stop offset="0.52" stop-color="#fff" stop-opacity="0.54"/><stop offset="0.82" stop-color="#fff" stop-opacity="0.21"/><stop offset="1" stop-color="#fff" stop-opacity="0"/></radialGradient><linearGradient id="linear-gradient-11" x1="68.79" y1="42.95" x2="88.15" y2="63" gradientUnits="userSpaceOnUse"><stop offset="0.39" stop-color="#aeaeae" stop-opacity="0"/><stop offset="0.55" stop-color="#aeaeae" stop-opacity="0.35"/><stop offset="0.7" stop-color="#aeaeae" stop-opacity="0.63"/><stop offset="0.83" stop-color="#aeaeae" stop-opacity="0.83"/><stop offset="0.93" stop-color="#aeaeae" stop-opacity="0.96"/><stop offset="1" stop-color="#aeaeae"/></linearGradient><linearGradient id="New_Gradient_Swatch_1" x1="8.62" y1="22.6" x2="106.22" y2="88.18" gradientUnits="userSpaceOnUse"><stop offset="0.04" stop-color="#afafaf"/><stop offset="0.07" stop-color="#cecece"/><stop offset="0.1" stop-color="#e9e9e9"/><stop offset="0.13" stop-color="#f9f9f9"/><stop offset="0.15" stop-color="#fff"/><stop offset="0.27" stop-color="#c7c7c7"/><stop offset="0.4" stop-color="#f0f0f0"/><stop offset="0.52" stop-color="#bfbfbf"/><stop offset="0.64" stop-color="#e6e6e6"/><stop offset="0.72" stop-color="#fff"/><stop offset="0.75" stop-color="#f8f8f8"/><stop offset="0.79" stop-color="#e3e3e3"/><stop offset="0.84" stop-color="#c2c2c2"/><stop offset="0.87" stop-color="#aeaeae"/></linearGradient><linearGradient id="linear-gradient-12" x1="34.64" y1="36.88" x2="47.65" y2="51.08" gradientUnits="userSpaceOnUse"><stop offset="0.35" stop-color="#fff"/><stop offset="0.43" stop-color="#fbfbfb"/><stop offset="0.51" stop-color="#efefef"/><stop offset="0.6" stop-color="#dadada"/><stop offset="0.69" stop-color="#bdbdbd"/><stop offset="0.73" stop-color="#aeaeae"/><stop offset="0.98"/></linearGradient><linearGradient id="linear-gradient-13" x1="37.71" y1="35.59" x2="49.58" y2="59.35" xlink:href="#linear-gradient-8"/><radialGradient id="radial-gradient-3" cx="47.39" cy="145.02" r="10.89" gradientTransform="matrix(0.41, -0.22, 0.15, 0.28, 1.31, 14.75)" xlink:href="#radial-gradient-2"/><linearGradient id="linear-gradient-14" x1="87.08" y1="48.33" x2="92.91" y2="53.76" gradientUnits="userSpaceOnUse"><stop offset="0" stop-color="#e8e8e8"/><stop offset="0.03" stop-color="#dedede"/><stop offset="0.24" stop-color="#909090"/><stop offset="0.43" stop-color="#525252"/><stop offset="0.59" stop-color="#262626"/><stop offset="0.71" stop-color="#0a0a0a"/><stop offset="0.78"/></linearGradient><linearGradient id="linear-gradient-15" x1="87.94" y1="49" x2="95.4" y2="56.43" gradientUnits="userSpaceOnUse"><stop offset="0" stop-color="#fff"/><stop offset="0.36" stop-color="#999"/><stop offset="0.67" stop-color="#4b4b4b"/><stop offset="0.88" stop-color="#1b1b1b"/><stop offset="0.99" stop-color="#080808"/></linearGradient><radialGradient id="radial-gradient-4" cx="84.07" cy="168.31" r="5.23" gradientTransform="matrix(0.52, -0.53, 0.4, 0.39, -22.02, 26.52)" xlink:href="#radial-gradient-2"/><linearGradient id="linear-gradient-16" x1="9.74" y1="48.33" x2="15.56" y2="53.76" gradientUnits="userSpaceOnUse"><stop offset="0" stop-color="#e8e8e8"/><stop offset="0.02" stop-color="#dedede"/><stop offset="0.22" stop-color="#909090"/><stop offset="0.39" stop-color="#525252"/><stop offset="0.53" stop-color="#262626"/><stop offset="0.64" stop-color="#0a0a0a"/><stop offset="0.7"/></linearGradient><linearGradient id="linear-gradient-17" x1="10.6" y1="49" x2="18.05" y2="56.43" xlink:href="#linear-gradient-15"/><radialGradient id="radial-gradient-5" cx="11.59" cy="70.44" r="7.12" gradientTransform="matrix(0.52, -0.53, 0.4, 0.39, -22.02, 26.52)" xlink:href="#radial-gradient-2"/><radialGradient id="radial-gradient-6" cx="51.1" cy="49.86" r="45.77" gradientUnits="userSpaceOnUse"><stop offset="0.73" stop-color="#636363"/><stop offset="0.86" stop-color="#fff"/><stop offset="1"/></radialGradient><radialGradient id="radial-gradient-7" cx="52.42" cy="49.31" r="43.04" gradientTransform="matrix(0, -1, 1.07, 0, -0.24, 101.7)" gradientUnits="userSpaceOnUse"><stop offset="0.44" stop-color="#636363"/><stop offset="0.73" stop-color="#636363"/><stop offset="0.84" stop-color="#fff"/><stop offset="1"/></radialGradient><linearGradient id="linear-gradient-18" x1="27.59" y1="33.29" x2="13.13" y2="33.29" gradientUnits="userSpaceOnUse"><stop offset="0"/><stop offset="0.11" stop-color="#050505"/><stop offset="0.23" stop-color="#121212"/><stop offset="0.37" stop-color="#282828"/><stop offset="0.5" stop-color="#484848"/><stop offset="0.64" stop-color="#707070"/><stop offset="0.78" stop-color="#a2a2a2"/><stop offset="0.92" stop-color="#dbdbdb"/><stop offset="1" stop-color="#fff"/></linearGradient><linearGradient id="linear-gradient-19" x1="13.2" y1="33.37" x2="27.66" y2="33.37" gradientUnits="userSpaceOnUse"><stop offset="0" stop-color="#fff"/><stop offset="0.08" stop-color="#f8f8f9" stop-opacity="0.98"/><stop offset="0.17" stop-color="#e7e7e8" stop-opacity="0.92"/><stop offset="0.35" stop-color="#bababb" stop-opacity="0.75"/><stop offset="0.61" stop-color="#727272" stop-opacity="0.47"/><stop offset="0.92" stop-color="#0f0f0f" stop-opacity="0.09"/><stop offset="0.97" stop-opacity="0.03"/></linearGradient><linearGradient id="linear-gradient-20" x1="14.28" y1="56.87" x2="14.31" y2="56.86" gradientUnits="userSpaceOnUse"><stop offset="0" stop-color="#fff"/><stop offset="0.44" stop-color="#f8f8f9" stop-opacity="0.98"/><stop offset="0.5" stop-color="#e7e7e8" stop-opacity="0.91"/><stop offset="0.6" stop-color="#bababb" stop-opacity="0.74"/><stop offset="0.76" stop-color="#717172" stop-opacity="0.47"/><stop offset="0.94" stop-color="#0f0f0f" stop-opacity="0.09"/><stop offset="0.97" stop-opacity="0.03"/></linearGradient><linearGradient id="linear-gradient-21" x1="15.28" y1="61.52" x2="12.81" y2="57.24" gradientUnits="userSpaceOnUse"><stop offset="0"/><stop offset="0.21" stop-color="#323232"/><stop offset="0.69" stop-color="#adadad"/><stop offset="1" stop-color="#fff"/></linearGradient><radialGradient id="radial-gradient-8" cx="44.66" cy="59.08" r="7.12" gradientTransform="matrix(0.52, -0.53, 0.4, 0.39, -22.02, 26.52)" xlink:href="#radial-gradient-2"/><linearGradient id="linear-gradient-22" x1="3034.09" y1="33.49" x2="3019.62" y2="33.49" gradientTransform="matrix(-1, 0, 0, 1, 3109.95, 0)" xlink:href="#linear-gradient-18"/><linearGradient id="linear-gradient-23" x1="3019.69" y1="33.56" x2="3034.15" y2="33.56" gradientTransform="matrix(-1, 0, 0, 1, 3109.95, 0)" xlink:href="#linear-gradient-19"/><linearGradient id="linear-gradient-24" x1="3020.77" y1="57.06" x2="3020.8" y2="57.05" gradientTransform="matrix(-1, 0, 0, 1, 3109.95, 0)" xlink:href="#radial-gradient-2"/><linearGradient id="linear-gradient-25" x1="3021.78" y1="61.71" x2="3019.31" y2="57.44" gradientTransform="matrix(-1, 0, 0, 1, 3109.95, 0)" xlink:href="#radial-gradient-2"/><radialGradient id="radial-gradient-9" cx="2884.79" cy="3878.51" r="7.12" gradientTransform="matrix(-0.52, -0.53, -0.4, 0.39, 3131.97, 26.52)" xlink:href="#radial-gradient-2"/></defs><title>MTD_GP_logo</title><g class="cls-3"><g id="Layer_1" data-name="Layer 1"><polygon class="cls-4" points="99.25 54.22 102.46 52.11 99.33 50.02 102.34 47.65 99.04 45.84 101.83 43.2 98.39 41.69 100.94 38.82 97.38 37.62 99.67 34.54 96.02 33.65 98.03 30.38 94.31 29.81 96.04 26.38 92.28 26.14 93.7 22.57 89.94 22.65 91.04 18.98 87.3 19.39 88.08 15.63 84.39 16.37 84.84 12.55 81.23 13.61 81.34 9.77 77.83 11.14 77.61 7.3 74.24 8.97 73.68 5.17 70.47 7.13 69.58 3.39 66.55 5.62 65.34 1.97 62.52 4.46 61 0.93 58.4 3.65 56.58 0.27 54.22 3.21 52.11 0 50.02 3.13 47.65 0.12 45.84 3.42 43.2 0.63 41.69 4.07 38.83 1.52 37.62 5.08 34.54 2.79 33.65 6.44 30.38 4.43 29.81 8.14 26.38 6.42 26.14 10.18 22.57 8.76 22.65 12.52 18.98 11.42 19.39 15.16 15.63 14.38 16.36 18.07 12.55 17.62 13.61 21.23 9.77 21.12 11.14 24.63 7.31 24.85 8.97 28.22 5.17 28.78 7.13 31.99 3.39 32.88 5.62 35.91 1.98 37.12 4.46 39.95 0.93 41.46 3.65 44.06 0.27 45.88 3.21 48.24 0 50.35 3.13 52.44 0.12 54.81 3.42 56.62 0.63 59.26 4.07 60.77 1.52 63.64 5.08 64.84 2.79 67.92 6.44 68.81 4.43 72.08 8.14 72.65 6.42 76.08 10.18 76.32 8.76 79.89 12.52 79.81 11.42 83.48 15.16 83.07 14.38 86.83 18.07 86.09 17.62 89.91 21.23 88.85 21.12 92.69 24.63 91.32 24.85 95.16 28.22 93.49 28.78 97.29 31.99 95.33 32.88 99.07 35.91 96.84 37.12 100.48 39.95 98 41.47 101.53 44.06 98.81 45.88 102.19 48.24 99.25 50.35 102.46 52.44 99.33 54.82 102.34 56.62 99.04 59.26 101.83 60.77 98.39 63.64 100.94 64.84 97.38 67.92 99.67 68.81 96.02 72.08 98.03 72.65 94.31 76.08 96.04 76.33 92.28 79.89 93.7 79.81 89.94 83.48 91.04 83.07 87.3 86.83 88.08 86.1 84.39 89.91 84.84 88.85 81.23 92.69 81.34 91.32 77.83 95.16 77.61 93.49 74.24 97.29 73.68 95.33 70.47 99.07 69.58 96.84 66.55 100.49 65.34 98 62.52 101.53 61 98.81 58.4 102.19 56.58 99.25 54.22"/><path class="cls-5" d="M99,51.23A47.78,47.78,0,1,1,51.23,3.45,47.78,47.78,0,0,1,99,51.23Z" transform="translate(0 0)"/><path class="cls-1" d="M79.43,51.39A27.64,27.64,0,1,1,51.92,23.62,27.64,27.64,0,0,1,79.43,51.39Z" transform="translate(0 0)"/><g class="cls-6"><g class="cls-7"><path class="cls-8" d="M54.44,83C47.89,83,45.07,82,44.38,79.2A3.88,3.88,0,0,1,45,76.05c1.26-1.79,3.29-2,7-2.36a39.91,39.91,0,0,0,5.83-.86,20.7,20.7,0,0,0,10.36-6,24.71,24.71,0,0,0,5.69-10c.27-1,1-3.11,1.27-4.39.31-1.45.7-2.94,1-4.05s1.27-4,3-4.14a4.35,4.35,0,0,1,3.29,1.1c2.34,2.56,1.47,8.94,1.35,10.3-.39,4.33-1.58,9.35-6.33,16.12C73,78.25,65.89,81.4,60,82.57a30.28,30.28,0,0,1-5.59.46Z" transform="translate(0 0)"/><path class="cls-9" d="M82.33,45.5a4.25,4.25,0,0,1,.75,1.18c1,2.24.86,5.64.68,7.7-.05.6-.1,1.07-.13,1.35-.4,4.3-1.59,9.27-6.29,16C72.87,78.15,65.76,81.25,60,82.4a30.79,30.79,0,0,1-5.5.46h0c-.57,0-1.11,0-1.63,0-5.27-.17-7.7-1.25-8.31-3.67a3.4,3.4,0,0,1,.09-1.87,3.94,3.94,0,0,1,.6-1.17,4.38,4.38,0,0,1,2.43-1.59,27.66,27.66,0,0,1,4.53-.68c1-.1,2.06-.21,3.09-.35A20.34,20.34,0,0,0,58,73,20.68,20.68,0,0,0,68.26,67c.27-.29.54-.59.8-.89a24.42,24.42,0,0,0,4.86-9c.28-1,1-3.09,1.26-4.36.12-.56.25-1.13.39-1.68.21-.85.43-1.67.61-2.35A12,12,0,0,1,77,46.49c.49-1,1.19-1.83,2.11-1.91a6,6,0,0,1,.74,0A3.64,3.64,0,0,1,82.33,45.5Z" transform="translate(0 0)"/><path class="cls-10" d="M82.22,45.6A4.11,4.11,0,0,1,83,46.77c1,2.2.83,5.54.65,7.64-.06.59-.11,1.06-.14,1.34-.4,4.28-1.61,9.19-6.25,15.89C72.79,78.06,65.63,81.1,60,82.23a29.63,29.63,0,0,1-5.41.45h0c-.57,0-1.1,0-1.61,0-5.17-.16-7.64-1.21-8.22-3.54a3.21,3.21,0,0,1,.16-1.81,3.8,3.8,0,0,1,.62-1.11,4.55,4.55,0,0,1,2.44-1.52,28.23,28.23,0,0,1,4.5-.66c1-.1,2.06-.22,3.07-.37a20.32,20.32,0,0,0,2.67-.53,20.65,20.65,0,0,0,10.2-5.91c.27-.29.54-.59.79-.89a24.28,24.28,0,0,0,4.84-9c.28-1,1-3.08,1.25-4.34.12-.56.25-1.12.38-1.66.21-.84.43-1.65.61-2.33a12.64,12.64,0,0,1,.82-2.24c.48-1,1.15-1.82,2-1.93.23,0,.47,0,.71,0A3.27,3.27,0,0,1,82.22,45.6Z" transform="translate(0 0)"/><path class="cls-11" d="M82.1,45.7a3.44,3.44,0,0,1,.73,1.17c1,2.15.8,5.43.62,7.58,0,.58-.11,1-.14,1.33C82.9,60,81.68,64.89,77.1,71.56,72.71,78,65.49,81,59.93,82.06a29.48,29.48,0,0,1-5.33.45h0l-1.58,0c-5.07-.16-7.57-1.17-8.13-3.41a2.87,2.87,0,0,1,.23-1.75,3.79,3.79,0,0,1,.65-1.06,4.74,4.74,0,0,1,2.45-1.43,29.16,29.16,0,0,1,4.47-.66c1-.1,2-.22,3.05-.37a22.24,22.24,0,0,0,2.64-.54A20.79,20.79,0,0,0,68.5,67.38c.27-.29.54-.59.79-.89a24,24,0,0,0,4.81-8.9c.29-1,1-3.05,1.24-4.3.12-.56.25-1.12.38-1.65.21-.83.42-1.63.61-2.32a13.49,13.49,0,0,1,.79-2.22c.47-1,1.12-1.82,2-2a5.05,5.05,0,0,1,.68-.07A3,3,0,0,1,82.1,45.7Z" transform="translate(0 0)"/><path class="cls-12" d="M82,45.8A3.34,3.34,0,0,1,82.71,47c.91,2.11.77,5.33.58,7.53-.05.56-.1,1-.13,1.31-.42,4.23-1.66,9-6.18,15.67-4.35,6.39-11.62,9.33-17.09,10.42a29.08,29.08,0,0,1-5.24.44h0c-.54,0-1.06,0-1.55,0-5-.14-7.51-1.12-8-3.27a2.56,2.56,0,0,1,.3-1.68,3.52,3.52,0,0,1,.68-1A4.91,4.91,0,0,1,48.49,75a31.41,31.41,0,0,1,4.44-.64c1-.11,2-.23,3-.38a21.76,21.76,0,0,0,2.62-.55,20.83,20.83,0,0,0,10-5.88l.79-.87a24,24,0,0,0,4.78-8.84c.3-1.06,1-3,1.22-4.28.13-.55.26-1.11.39-1.63.2-.82.41-1.62.6-2.31a14.07,14.07,0,0,1,.77-2.21,3.27,3.27,0,0,1,1.91-2c.21,0,.43-.08.65-.11A2.84,2.84,0,0,1,82,45.8Z" transform="translate(0 0)"/><path class="cls-13" d="M81.88,45.9a3.09,3.09,0,0,1,.7,1.15c.89,2.07.75,5.23.55,7.47,0,.56-.1,1-.13,1.31-.44,4.2-1.68,9-6.14,15.55-4.31,6.39-11.63,9.27-17,10.34a28.92,28.92,0,0,1-5.16.44h0c-.53,0-1,0-1.53,0-4.86-.13-7.43-1.08-8-3.15a2.43,2.43,0,0,1,.38-1.61,3.52,3.52,0,0,1,.7-1,5.21,5.21,0,0,1,2.47-1.28,33.1,33.1,0,0,1,4.41-.63c1-.11,2-.23,3-.39a19.92,19.92,0,0,0,2.6-.56,20.84,20.84,0,0,0,10-5.85q.41-.43.78-.87a23.73,23.73,0,0,0,4.76-8.77c.31-1.08.94-3,1.21-4.25.13-.56.26-1.11.39-1.63.2-.8.41-1.59.59-2.28a14.73,14.73,0,0,1,.75-2.2,3.43,3.43,0,0,1,1.84-2l.63-.14A2.58,2.58,0,0,1,81.88,45.9Z" transform="translate(0 0)"/><path class="cls-14" d="M81.77,46a2.77,2.77,0,0,1,.69,1.13c.85,2,.71,5.13.51,7.42,0,.54-.1,1-.13,1.3-.44,4.17-1.7,8.86-6.1,15.43C72.47,77.67,65.1,80.5,59.82,81.55a28.45,28.45,0,0,1-5.07.43h0c-.52,0-1,0-1.5,0-4.76-.13-7.36-1-7.86-3a2.28,2.28,0,0,1,.45-1.55,3.4,3.4,0,0,1,.73-.9A5.31,5.31,0,0,1,49,75.29a35.31,35.31,0,0,1,4.38-.62c1-.1,2-.23,3-.39A21.69,21.69,0,0,0,59,73.71a20.89,20.89,0,0,0,9.88-5.84c.27-.28.53-.56.78-.85a23.63,23.63,0,0,0,4.73-8.71c.32-1.11.93-3,1.2-4.23.13-.55.26-1.09.39-1.61.19-.79.4-1.58.58-2.27A14.13,14.13,0,0,1,77.28,48a3.53,3.53,0,0,1,1.77-2,5.72,5.72,0,0,1,.59-.17A2.34,2.34,0,0,1,81.77,46Z" transform="translate(0 0)"/><path class="cls-15" d="M81.65,46.11a2.57,2.57,0,0,1,.68,1.13c.83,2,.69,5,.48,7.36,0,.53-.1,1-.13,1.28C82.23,60,81,64.67,76.62,71.2,72.39,77.58,65,80.34,59.79,81.38a28.26,28.26,0,0,1-5,.43H53.33c-4.66-.12-7.3-1-7.77-2.89-.13-.51.23-1,.52-1.49a3.7,3.7,0,0,1,.75-.85,5.92,5.92,0,0,1,2.48-1.13,38.71,38.71,0,0,1,4.36-.6c1-.11,2-.24,2.95-.4a21.68,21.68,0,0,0,2.56-.58A20.93,20.93,0,0,0,69,68l.78-.85a23.38,23.38,0,0,0,4.69-8.64c.33-1.13.93-3,1.2-4.2.13-.55.25-1.09.38-1.6l.58-2.26a15.62,15.62,0,0,1,.72-2.17A3.71,3.71,0,0,1,79,46.23l.57-.2A2.13,2.13,0,0,1,81.65,46.11Z" transform="translate(0 0)"/><path class="cls-16" d="M81.54,46.21a2.49,2.49,0,0,1,.67,1.12c.79,2,.65,4.92.44,7.3,0,.52-.1,1-.13,1.28-.45,4.12-1.74,8.7-6,15.2s-11.67,9.08-16.74,10.1a29.1,29.1,0,0,1-4.9.43H53.41c-4.56-.12-7.23-1-7.68-2.76-.12-.49.28-1,.59-1.43a3.43,3.43,0,0,1,.78-.79,6.38,6.38,0,0,1,2.49-1.06A41.67,41.67,0,0,1,53.91,75c1-.11,2-.24,2.94-.41A22.06,22.06,0,0,0,59.38,74a21.14,21.14,0,0,0,9.72-5.8c.26-.28.52-.56.77-.85a22.88,22.88,0,0,0,4.67-8.58c.34-1.14.92-3,1.19-4.17.13-.55.25-1.08.38-1.59.2-.76.39-1.54.57-2.24a16.58,16.58,0,0,1,.7-2.16A4,4,0,0,1,79,46.51c.18-.09.37-.16.55-.23A2,2,0,0,1,81.54,46.21Z" transform="translate(0 0)"/><path class="cls-17" d="M81.43,46.31c.28.16.45.62.65,1.11.77,1.91.63,4.82.41,7.25,0,.51-.09.94-.13,1.26-.46,4.1-1.76,8.63-6,15.1S64.7,80,59.72,81a27.69,27.69,0,0,1-4.81.42h0c-.49,0-1,0-1.43,0-4.45-.1-7.15-.91-7.58-2.62-.12-.47.33-.94.66-1.36a3.45,3.45,0,0,1,.81-.75,7.08,7.08,0,0,1,2.49-1c1.17-.25,2.63-.39,4.3-.57,1-.12,2-.25,2.91-.42a21.55,21.55,0,0,0,2.51-.6,21.15,21.15,0,0,0,9.64-5.78c.26-.27.52-.55.77-.83A23,23,0,0,0,74.63,59c.35-1.16.91-2.93,1.18-4.14.13-.55.25-1.08.38-1.58.19-.75.39-1.52.57-2.22a16.58,16.58,0,0,1,.67-2.16A4.15,4.15,0,0,1,79,46.79l.52-.27C80.19,46.17,80.78,45.92,81.43,46.31Z" transform="translate(0 0)"/><path class="cls-18" d="M81.32,46.41c.27.14.44.6.64,1.1.73,1.87.59,4.72.37,7.2,0,.5-.09.93-.13,1.25-.46,4.07-1.77,8.54-5.94,15s-11.69,9-16.57,9.93a27.43,27.43,0,0,1-4.73.42h-1.4c-4.34-.09-7.09-.87-7.49-2.5-.12-.44.38-.89.73-1.29a3.39,3.39,0,0,1,.83-.69,7.47,7.47,0,0,1,2.51-.9c1.17-.25,2.62-.38,4.26-.57,1-.11,2-.25,2.89-.42a20.93,20.93,0,0,0,2.48-.61,21.22,21.22,0,0,0,9.57-5.76c.26-.27.52-.55.76-.83a22.68,22.68,0,0,0,4.62-8.45c.36-1.18.89-2.92,1.17-4.12.13-.54.25-1.07.38-1.56.19-.74.38-1.51.56-2.21a18.4,18.4,0,0,1,.65-2.14A4.51,4.51,0,0,1,79,47.06l.49-.29C80.12,46.36,80.66,46.06,81.32,46.41Z" transform="translate(0 0)"/><path class="cls-19" d="M81.2,46.51c.27.13.44.59.63,1.09.71,1.83.57,4.62.34,7.14,0,.49-.09.92-.13,1.25-.47,4-1.79,8.46-5.91,14.86s-11.7,8.89-16.48,9.85a27.09,27.09,0,0,1-4.63.41h0c-.48,0-.93,0-1.38,0-4.24-.09-7-.83-7.41-2.37-.1-.43.44-.85.81-1.23a3.25,3.25,0,0,1,.86-.63,8.21,8.21,0,0,1,2.51-.83c1.18-.24,2.62-.37,4.24-.55,1-.12,2-.26,2.86-.44A21.06,21.06,0,0,0,60,74.45a21.51,21.51,0,0,0,9.49-5.74c.26-.27.51-.54.76-.82a22.79,22.79,0,0,0,4.59-8.39c.37-1.2.88-2.9,1.16-4.09.12-.55.25-1.07.37-1.55l.56-2.2c.15-.6.36-1.38.63-2.13A4.89,4.89,0,0,1,79,47.34c.15-.12.32-.22.46-.33C80.05,46.55,80.54,46.19,81.2,46.51Z" transform="translate(0 0)"/><path class="cls-20" d="M81.09,46.61c.26.11.42.58.62,1.09.68,1.78.54,4.51.31,7.08,0,.48-.1.9-.14,1.23-.47,4-1.81,8.38-5.87,14.75S64.3,79.59,59.62,80.53a27.89,27.89,0,0,1-4.55.41H53.72c-4.14-.08-6.95-.79-7.32-2.24-.1-.41.49-.81.88-1.17a3.73,3.73,0,0,1,.88-.58,9.92,9.92,0,0,1,2.52-.75c1.19-.23,2.63-.35,4.21-.54,1-.12,2-.26,2.85-.44a23.87,23.87,0,0,0,2.43-.62,21.46,21.46,0,0,0,9.41-5.73c.26-.26.51-.53.76-.81a22.3,22.3,0,0,0,4.56-8.33c.37-1.21.87-2.87,1.15-4.06.12-.54.25-1.06.37-1.54.19-.72.38-1.47.55-2.17a20.62,20.62,0,0,1,.62-2.12,5.3,5.3,0,0,1,1.35-2.23l.44-.36C80,46.74,80.42,46.32,81.09,46.61Z" transform="translate(0 0)"/><path class="cls-21" d="M81,46.71c.26.09.41.56.6,1.08.65,1.74.51,4.41.28,7,0,.46-.09.88-.13,1.22-.49,4-1.84,8.3-5.84,14.63s-11.72,8.77-16.3,9.69a26.53,26.53,0,0,1-4.47.4H53.8c-4-.07-6.89-.74-7.23-2.1-.1-.39.54-.77,1-1.11a3.89,3.89,0,0,1,.91-.52A11.08,11.08,0,0,1,51,76.35c1.18-.21,2.62-.34,4.18-.53,1-.11,2-.26,2.82-.44a24,24,0,0,0,2.41-.64A21.56,21.56,0,0,0,69.7,69c.25-.26.51-.53.75-.81A22.19,22.19,0,0,0,75,60c.38-1.23.86-2.86,1.14-4,.12-.54.25-1.06.37-1.53.18-.71.37-1.45.54-2.16s.35-1.38.6-2.11a5.7,5.7,0,0,1,1.28-2.25c.14-.14.29-.26.41-.39C79.9,46.92,80.29,46.46,81,46.71Z" transform="translate(0 0)"/><path class="cls-22" d="M80.87,46.81c.25.08.4.55.59,1.07.62,1.7.48,4.31.24,7,0,.46-.09.87-.13,1.21-.49,4-1.86,8.22-5.8,14.52S64,79.29,59.55,80.19a26.23,26.23,0,0,1-4.38.4h-1.3c-3.93-.06-6.81-.7-7.13-2-.09-.36.59-.72,1-1a3.59,3.59,0,0,1,.94-.48,14.53,14.53,0,0,1,2.53-.6c1.19-.2,2.62-.33,4.15-.51,1-.12,1.95-.27,2.8-.46a23.23,23.23,0,0,0,11.64-6.32l.75-.8a22.07,22.07,0,0,0,4.51-8.2c.39-1.26.85-2.84,1.13-4,.12-.54.25-1.06.37-1.52.18-.7.36-1.43.53-2.15s.34-1.37.58-2.09a6.46,6.46,0,0,1,1.22-2.29l.38-.42C79.83,47.11,80.17,46.59,80.87,46.81Z" transform="translate(0 0)"/><path class="cls-23" d="M80.75,46.91c.25.06.39.54.58,1.06.6,1.66.45,4.21.21,6.92,0,.44-.09.85-.13,1.2-.5,3.94-1.88,8.14-5.76,14.4S63.91,79.14,59.52,80a24.91,24.91,0,0,1-4.3.39H54c-3.83,0-6.75-.66-7-1.85-.09-.35.64-.68,1.09-1a3.9,3.9,0,0,1,1-.42,17.94,17.94,0,0,1,2.55-.53c1.19-.19,2.62-.31,4.12-.5,1-.12,1.93-.27,2.77-.46s1.63-.4,2.37-.65a21.69,21.69,0,0,0,9.17-5.67c.25-.25.5-.52.75-.79a22,22,0,0,0,4.48-8.13c.4-1.28.84-2.82,1.12-4,.12-.54.25-1,.37-1.5.17-.69.35-1.42.52-2.13s.34-1.37.56-2.09a7.42,7.42,0,0,1,1.15-2.31c.12-.16.25-.3.36-.45C79.75,47.29,80.05,46.73,80.75,46.91Z" transform="translate(0 0)"/><path class="cls-24" d="M80.64,47c.24.05.38.52.57,1.05.57,1.62.42,4.11.17,6.87,0,.43-.09.83-.13,1.19-.49,3.92-1.9,8.06-5.72,14.29S63.77,79,59.48,79.85a25.49,25.49,0,0,1-4.2.39H54c-3.73,0-6.68-.62-7-1.72-.09-.33.69-.64,1.16-.91a4.48,4.48,0,0,1,1-.37,25.25,25.25,0,0,1,2.55-.45c1.19-.18,2.62-.3,4.09-.48,1-.13,1.93-.28,2.75-.47s1.61-.41,2.35-.66a22,22,0,0,0,9.09-5.65c.25-.25.5-.52.74-.78a21.69,21.69,0,0,0,4.46-8.07c.41-1.3.83-2.8,1.1-3.95.13-.54.25-1,.37-1.5.18-.67.36-1.39.53-2.11s.32-1.37.53-2.08a8.25,8.25,0,0,1,1.08-2.34q.18-.24.33-.48C79.67,47.48,79.92,46.87,80.64,47Z" transform="translate(0 0)"/><path class="cls-25" d="M80.53,47.11c.23,0,.37.51.55,1,.55,1.57.39,4,.14,6.8,0,.43-.08.82-.13,1.18-.5,3.9-1.92,8-5.68,14.18s-11.77,8.52-16,9.36a26.44,26.44,0,0,1-4.12.39h0c-.41,0-.82,0-1.22,0-3.63,0-6.61-.57-6.86-1.58-.08-.31.74-.61,1.23-.85a4.32,4.32,0,0,1,1-.31c.72-.15,1.58-.24,2.57-.38,1.19-.16,2.62-.29,4.06-.47A24.85,24.85,0,0,0,58.85,76a23.18,23.18,0,0,0,2.32-.67,21.78,21.78,0,0,0,9-5.63c.25-.25.49-.5.74-.77a21.37,21.37,0,0,0,4.42-8c.42-1.31.83-2.78,1.1-3.92.13-.53.25-1,.37-1.48.18-.66.35-1.38.52-2.1s.32-1.36.51-2.06a9.62,9.62,0,0,1,1-2.37c.1-.18.21-.34.3-.51C79.59,47.66,79.8,47,80.53,47.11Z" transform="translate(0 0)"/><path class="cls-26" d="M80.42,47.21c.23,0,.36.5.54,1,.51,1.53.36,3.9.1,6.75,0,.41-.08.8-.13,1.17-.5,3.87-1.93,7.9-5.64,14.06s-11.78,8.46-15.87,9.28a25,25,0,0,1-4,.38H54.19c-3.53,0-6.55-.53-6.78-1.45-.07-.29.8-.57,1.31-.79a4.77,4.77,0,0,1,1-.26c.72-.11,1.59-.16,2.57-.29,1.2-.16,2.62-.28,4-.47a23.27,23.27,0,0,0,2.71-.48c.79-.2,1.56-.42,2.3-.68a22.17,22.17,0,0,0,8.93-5.61c.25-.25.49-.5.73-.77a21,21,0,0,0,4.4-7.94c.43-1.33.82-2.76,1.09-3.89.13-.54.25-1,.37-1.47.17-.65.34-1.36.51-2.09s.31-1.35.5-2.05a10.92,10.92,0,0,1,.94-2.39c.1-.19.19-.37.27-.55C79.51,47.85,79.68,47.16,80.42,47.21Z" transform="translate(0 0)"/><path class="cls-27" d="M80.3,47.31c.23,0,.35.48.53,1,.49,1.49.33,3.8.07,6.7,0,.4-.08.78-.13,1.15-.51,3.85-2,7.82-5.6,14-3.74,6.3-11.79,8.4-15.79,9.2a25.71,25.71,0,0,1-4,.38H54.26c-3.42,0-6.47-.49-6.68-1.33-.07-.26.85-.52,1.38-.71A4.22,4.22,0,0,1,50,77.48c.72-.08,1.6-.1,2.57-.22,1.2-.15,2.62-.27,4-.45a22.25,22.25,0,0,0,2.68-.49c.78-.21,1.55-.43,2.28-.69A22.33,22.33,0,0,0,70.42,70c.24-.25.49-.5.73-.76a20.89,20.89,0,0,0,4.37-7.88c.44-1.35.81-2.74,1.08-3.87.13-.53.25-1,.37-1.46.17-.63.34-1.34.5-2.06s.31-1.35.48-2a13.53,13.53,0,0,1,.87-2.43c.09-.19.17-.39.25-.57C79.43,48,79.56,47.25,80.3,47.31Z" transform="translate(0 0)"/><path class="cls-28" d="M80.19,47.41c.22,0,.34.47.52,1,.46,1.45.3,3.7,0,6.64,0,.39-.08.78-.13,1.15-.51,3.82-2,7.74-5.56,13.83-3.7,6.29-11.81,8.34-15.7,9.12a24.32,24.32,0,0,1-3.86.37h0l-1.15,0c-3.32,0-6.4-.45-6.59-1.2-.06-.25.89-.49,1.45-.65a5.25,5.25,0,0,1,1.09-.16c.73,0,1.62,0,2.59-.14,1.2-.13,2.62-.26,4-.44a21.19,21.19,0,0,0,2.66-.49c.77-.21,1.53-.44,2.26-.7a22.57,22.57,0,0,0,8.77-5.58c.24-.24.49-.49.73-.75a20.71,20.71,0,0,0,4.34-7.81c.45-1.37.8-2.72,1.07-3.84.13-.53.25-1,.37-1.45.16-.62.33-1.32.49-2.05s.3-1.35.46-2a17.21,17.21,0,0,1,.8-2.45c.08-.21.16-.41.22-.61C79.35,48.22,79.44,47.45,80.19,47.41Z" transform="translate(0 0)"/><path class="cls-1" d="M79,49.45c-.25.93-.66,1.89-.93,3.13-.3,1.42-.62,2.89-.93,4.05-.8,3-1.81,8.82-5.74,13a23.45,23.45,0,0,1-11.64,7,44.14,44.14,0,0,1-6.59.93c-1.53.15-2.88,0-3.71.17-.58.14-1.58.36-1.52.59.16.65,3.28,1.06,6.5,1.06A26.53,26.53,0,0,0,59.31,79c3.8-.76,12-2.75,15.62-9,3.88-6.66,5.27-10.67,5.65-14.85.28-3,.44-5.18,0-6.58-.17-.56-.29-1-.5-1C79.32,47.6,79.27,48.41,79,49.45Z" transform="translate(0 0)"/></g></g><path class="cls-29" d="M80.47,51.39A28.72,28.72,0,1,1,51.88,22.55,28.72,28.72,0,0,1,80.47,51.39Z" transform="translate(0 0)"/><path class="cls-30" d="M51.76,81.3h-.14a30,30,0,0,1,.13-60.07h.14a30,30,0,0,1-.13,60.07Zm0-57.43a27.4,27.4,0,0,0-.12,54.79h.13a27.4,27.4,0,0,0,.12-54.79Z" transform="translate(0 0)"/><path d="M77.87,62l-2.41-2.15-4.89-4c-.42-.35-.51-1.78-.28-4.62.38-4.74.32-8.09-3.72-14.76C62.27,29.33,53.31,27,49.65,27a33,33,0,0,0-10.86,1.69c-.3.1-.57.19-.73.23a3.36,3.36,0,0,0-2.4,2.71A2.49,2.49,0,0,0,37.1,34.2c1,.51,13,7.48,15,8.91a2,2,0,0,1,.9,1.4c.15.84,0,2.74-2.33,6.08-3,4.18-5.82,4.39-6.36,4.39a1.64,1.64,0,0,1-.4,0l-3.45-2c-3.85-2.22-9.12-5.26-10-5.77a5.68,5.68,0,0,0-2.71-.91,2.42,2.42,0,0,0-2.39,1.89c-.27,1.08-.46,2.44.41,6.1A25.91,25.91,0,0,0,35.93,68.83c2.86,2,6.69,3.08,11.38,3.08a30.91,30.91,0,0,0,8.45-1.14l1.12-.36a10.1,10.1,0,0,1,2.89-.69A3,3,0,0,1,61,70a21.73,21.73,0,0,1,4.41,3.22L67.23,75A26.76,26.76,0,0,0,77.87,62Z" transform="translate(0 0)"/><polygon class="cls-1" points="33.69 51.01 33.69 40.59 42.71 35.39 51.73 40.6 51.72 51.02 42.7 56.22 33.69 51.01"/><g class="cls-31"><polygon class="cls-32" points="42.69 34.72 42.73 36.37 34.71 41.14 32.77 40.04 42.69 34.72"/><polygon class="cls-33" points="50.77 41.13 52.13 40.4 51.94 51.54 50.45 50.91 50.77 41.13"/><polygon class="cls-34" points="33.1 51.27 34.84 50.38 42.9 54.94 43.06 56.54 33.1 51.27"/><polygon class="cls-35" points="32.98 51.23 34.84 50.38 42.9 54.94 42.73 56.67 32.98 51.23"/><polygon points="42.57 54.67 42.79 56.8 52.35 51.29 50.48 50.4 42.57 54.67"/></g><path class="cls-36" d="M51.89,19.93a31.34,31.34,0,1,0,31.2,31.48A31.34,31.34,0,0,0,51.89,19.93ZM51.75,80A28.72,28.72,0,1,1,80.47,51.26,28.72,28.72,0,0,1,51.75,80Z" transform="translate(0 0)"/><polygon class="cls-37" points="34.23 50.69 34.23 40.91 42.71 36.02 51.19 40.92 51.18 50.7 42.7 55.59 34.23 50.69"/><path class="cls-38" d="M77.65,63.7c-1.47-1.11-7.47-5.83-8.25-6.48-1-.85-1.24-2.29-.93-6.16.34-4.22.42-7.26-3.46-13.68s-12.07-8.52-15.36-8.52a32.81,32.81,0,0,0-11.14,1.85c-.68.17-1.61,1.36-.59,1.86s13,7.52,15.24,9,2.73,4.8-1,10-7.93,5.57-9.12,4.89-12.18-7-13.5-7.76c-1.62-.9-2.27-.86-2.44-.19s-.43,1.71.41,5.25A24.26,24.26,0,0,0,37,67.35C42.9,71.57,52.52,69.88,55.22,69s4.39-1.68,6.58-.67c1.62.75,6.52,4.74,7.53,5.61C79.11,75.88,80.82,69.84,77.65,63.7Z" transform="translate(0 0)"/><g class="cls-39"><path class="cls-40" d="M64.84,51.65c-.31,0-1-1.56-1.33-1.64-1.71-.43-2.26-1.48-3.45-3.78a68.89,68.89,0,0,0-4.42-7.61c-2.68-3.83-4.09-4.12-4.15-4.13a42.5,42.5,0,0,0-11.16-.1l-.1-.69-.12.94L27.37,32.93l8.2-9.8L37,23c1.3-.14,10.19-2.57,17.52,2.17C66.28,32.74,65.55,35.32,66,37c1.54,5.38,1.52,10,.85,12-.31.92-1.48,1.18-2.43,1.18Z" transform="translate(0 0)"/><path class="cls-41" d="M35.87,23.58l1.28-.17c.34,0,1.05-.27,2.33-.45a27.81,27.81,0,0,1,3.1-.44,21,21,0,0,1,12.06,2.9C66,32.77,65.42,35.34,65.93,37a30.07,30.07,0,0,1,1.3,7.85,12.69,12.69,0,0,1-.4,3.91c-.29.92-1.41,1.19-2.31,1.21,0,0,.37,1.48.36,1.48-.3,0-1-1.51-1.3-1.6-1.63-.49-2.18-1.48-3.35-3.73a67.12,67.12,0,0,0-4.32-7.44c-2.58-3.69-3.95-4-4-4.06a45.72,45.72,0,0,0-10.83-.31s-.1-.66-.11-.66-.13.89-.14.88l-2.56-.35c-.09,0-9.81-1.32-9.89-1.32s7.48-9.31,7.48-9.31" transform="translate(0 0)"/><path class="cls-42" d="M36.17,24l1.11-.17a18.91,18.91,0,0,1,2-.45,26.31,26.31,0,0,1,3.1-.6c3.1-.12,8.16.19,12.35,2.9,11,7.1,10.57,9.67,11.11,11.38a28.6,28.6,0,0,1,1.33,7.69,13.12,13.12,0,0,1-.37,3.84c-.28.91-1.34,1.2-2.2,1.24,0,0,.34,1.45.32,1.44-.29,0-1-1.46-1.26-1.57-1.55-.53-2.12-1.48-3.25-3.66a67.72,67.72,0,0,0-4.22-7.28c-2.48-3.55-3.81-3.89-3.93-4-4.83-1-10.3-.42-10.49-.51,0,0-.1-.63-.11-.64s-.15.84-.16.83S39,34.11,39,34.11s-9.51-1.28-9.68-1.28C29,32.83,36.09,24,36.09,24" transform="translate(0 0)"/><path class="cls-43" d="M36.47,24.47l.93-.18a9.66,9.66,0,0,1,1.69-.46,27.09,27.09,0,0,1,3.1-.76c2.93-.11,8.33.12,12.64,2.91,10.59,6.85,10.34,9.41,10.92,11.16a27.12,27.12,0,0,1,1.35,7.53,13.27,13.27,0,0,1-.33,3.77,2.19,2.19,0,0,1-2.09,1.27c0,.07.3,1.41.28,1.41-.28,0-.91-1.42-1.23-1.54-1.47-.57-2-1.48-3.15-3.61a66.93,66.93,0,0,0-4.12-7.11c-2.38-3.41-3.67-3.78-3.81-3.91-4.64-1-9.9-.59-10.15-.72,0,0-.12-.61-.13-.62s-.16.78-.18.77S39.82,34,39.75,34c-.26,0-9.2-1.22-9.45-1.23-.54,0,6.06-8.35,6.06-8.35" transform="translate(0 0)"/><path class="cls-44" d="M36.76,24.92l.77-.19c.29,0,.29-.31,1.37-.46A24.82,24.82,0,0,1,42,23.35c2.77-.1,8.5,0,12.93,2.9,10.21,6.61,10.12,9.16,10.73,11A25.08,25.08,0,0,1,67,44.57a12.68,12.68,0,0,1-.3,3.7,2.1,2.1,0,0,1-2,1.3c0,.1.28,1.38.24,1.37-.26,0-.86-1.36-1.19-1.51-1.39-.6-2-1.48-3-3.54a67.73,67.73,0,0,0-4-7c-2.28-3.27-3.53-3.67-3.7-3.84-4.46-1.08-9.5-.74-9.82-.92,0,0-.12-.59-.14-.6s-.16.73-.19.71-2.3-.35-2.38-.37c-.35-.06-8.9-1.18-9.23-1.19-.72,0,5.34-7.86,5.34-7.86" transform="translate(0 0)"/><path class="cls-45" d="M37.06,25.36l.59-.19c.28,0,0-.33,1.06-.47.68-.1,2.2-1,3.09-1.07,2.6-.1,8.67,0,13.22,2.9,9.83,6.36,9.88,8.91,10.54,10.73A24.44,24.44,0,0,1,67,44.47a13.14,13.14,0,0,1-.27,3.63,2.06,2.06,0,0,1-1.87,1.33c0,.12.25,1.34.2,1.33-.25,0-.82-1.31-1.15-1.47-1.32-.63-1.91-1.49-3-3.49A64.14,64.14,0,0,0,57,39a11.9,11.9,0,0,0-3.58-3.77c-4.27-1.12-9.1-.9-9.49-1.12,0,0-.12-.56-.15-.58s-.17.68-.21.66-2.21-.36-2.32-.38c-.43-.08-8.59-1.14-9-1.15-.9,0,4.62-7.38,4.62-7.38" transform="translate(0 0)"/><path class="cls-46" d="M37.36,25.81l.42-.2c.26,0-.21-.34.74-.48.63-.08,2.25-1.2,3.08-1.23,2.45-.09,8.84-.11,13.51,2.91,9.45,6.11,9.66,8.65,10.36,10.51a23.19,23.19,0,0,1,1.43,7,13.3,13.3,0,0,1-.24,3.56,2,2,0,0,1-1.75,1.36c0,.15.22,1.31.16,1.3-.24,0-.78-1.27-1.12-1.44-1.24-.66-1.83-1.49-2.84-3.43a62.86,62.86,0,0,0-3.82-6.61,12.66,12.66,0,0,0-3.47-3.71c-4.09-1.16-8.7-1-9.15-1.33,0,0-.14-.53-.17-.55s-.18.62-.22.6-2.13-.36-2.26-.38c-.52-.09-8.29-1.1-8.78-1.11-1.09,0,3.9-6.9,3.9-6.9" transform="translate(0 0)"/><path class="cls-47" d="M37.66,26.25l.25-.2c.24,0-.47-.35.42-.48.59-.08,2.3-1.36,3.08-1.39,2.28-.09,9-.19,13.79,2.91,9.07,5.86,9.44,8.4,10.18,10.29a21.93,21.93,0,0,1,1.45,6.89,13.53,13.53,0,0,1-.2,3.49A2,2,0,0,1,65,49.15c0,.17.18,1.28.12,1.26-.23,0-.74-1.21-1.09-1.41-1.16-.67-1.76-1.49-2.74-3.37a62.11,62.11,0,0,0-3.72-6.44,13.63,13.63,0,0,0-3.35-3.64c-3.9-1.2-8.3-1.21-8.82-1.53,0,0-.14-.51-.18-.53S45,34.06,45,34s-2-.36-2.19-.38c-.61-.11-8-1.06-8.57-1.07-1.26,0,3.2-6.41,3.2-6.41" transform="translate(0 0)"/><path class="cls-48" d="M38,26.7l.07-.21c.23,0-.72-.37.11-.49.55-.07,2.35-1.52,3.07-1.54,2.12-.08,9.18-.27,14.09,2.9,8.69,5.62,9.2,8.15,10,10.08a21.25,21.25,0,0,1,1.48,6.73,14.37,14.37,0,0,1-.17,3.43A2,2,0,0,1,65.07,49c0,.2.15,1.24.08,1.22-.22,0-.7-1.16-1.05-1.37-1.09-.68-1.69-1.49-2.64-3.31a62,62,0,0,0-3.62-6.28A14.9,14.9,0,0,0,54.6,35.7c-3.72-1.24-7.9-1.36-8.49-1.73,0,0-.14-.48-.19-.51s-.19.52-.25.49-2-.37-2.14-.4c-.69-.12-7.68-1-8.34-1-1.44,0,2.48-5.93,2.48-5.93" transform="translate(0 0)"/><path class="cls-49" d="M38.26,27.14l-.1-.21c.21,0-1-.38-.21-.49.5-.07,2.4-1.68,3.07-1.71,1.95-.07,9.35-.34,14.37,2.91,8.31,5.38,9,7.9,9.8,9.86a20.16,20.16,0,0,1,1.51,6.57,14.07,14.07,0,0,1-.14,3.36,1.93,1.93,0,0,1-1.41,1.44c0,.23.12,1.21,0,1.19s-.66-1.11-1-1.35a7.64,7.64,0,0,1-2.54-3.24,60.2,60.2,0,0,0-3.52-6.12A16.14,16.14,0,0,0,55,35.85c-3.52-1.28-7.49-1.52-8.14-1.93-.05,0-.16-.46-.2-.49s-.21.46-.28.43-1.88-.36-2.07-.4c-.78-.13-7.38-1-8.12-1-1.62,0,1.76-5.45,1.76-5.45" transform="translate(0 0)"/><path class="cls-50" d="M38.56,27.59l-.27-.23c.18,0-1.23-.39-.53-.49.46-.06,2.45-1.84,3.06-1.86,1.79-.07,9.52-.42,14.67,2.91,7.93,5.13,8.74,7.64,9.61,9.64A19,19,0,0,1,66.63,44a14.44,14.44,0,0,1-.1,3.29,2,2,0,0,1-1.3,1.47c0,.25.09,1.17,0,1.15s-.62-1.05-1-1.31a8,8,0,0,1-2.44-3.19,61.86,61.86,0,0,0-3.43-6,17.34,17.34,0,0,0-3-3.43c-3.34-1.33-7.09-1.67-7.81-2.13-.06,0-.16-.43-.21-.47s-.22.41-.29.37-1.8-.36-2-.4c-.87-.15-7.07-.92-7.89-.94-1.81,0,1-5,1-5" transform="translate(0 0)"/><path class="cls-51" d="M38.85,28l-.44-.23c.17,0-1.48-.4-.84-.49.42-.06,2.5-2,3.06-2,1.63-.06,9.69-.5,14.95,2.9,7.55,4.89,8.52,7.4,9.43,9.43a18.43,18.43,0,0,1,1.55,6.25,14.86,14.86,0,0,1-.06,3.22,2,2,0,0,1-1.2,1.5c0,.28.06,1.14,0,1.11s-.58-1-.94-1.27A8.73,8.73,0,0,1,62,45.3a59.51,59.51,0,0,0-3.32-5.79,19.89,19.89,0,0,0-2.9-3.36c-3.15-1.37-6.7-1.83-7.48-2.33-.06,0-.16-.41-.22-.45s-.23.36-.31.32a16.92,16.92,0,0,0-2-.41c-1-.17-6.77-.88-7.67-.9-2,0,.33-4.48.33-4.48" transform="translate(0 0)"/><path class="cls-52" d="M39.15,28.48l-.61-.24c.15,0-1.74-.41-1.16-.5.38,0,2.55-2.16,3-2.18,1.47,0,9.86-.57,15.25,2.91,7.16,4.64,8.28,7.15,9.24,9.21a17.66,17.66,0,0,1,1.58,6.09,15.12,15.12,0,0,1,0,3.15,2,2,0,0,1-1.08,1.53c0,.3,0,1.1-.08,1.07s-.54-.93-.91-1.24a9.12,9.12,0,0,1-2.23-3.07,60.15,60.15,0,0,0-3.23-5.61,21.34,21.34,0,0,0-2.78-3.3c-3-1.41-6.3-2-7.15-2.54-.06,0-.17-.38-.23-.42s-.23.3-.32.26a14.54,14.54,0,0,0-1.89-.41c-1.05-.18-6.46-.84-7.46-.86-2.16,0-.38-4-.38-4" transform="translate(0 0)"/><path class="cls-53" d="M39.45,28.92l-.79-.24c.14,0-2-.43-1.47-.5.33-.05,2.6-2.32,3.05-2.34,1.3-.05,10-.65,15.53,2.91,6.79,4.39,8,6.89,9.06,9a17,17,0,0,1,1.6,5.93,16.46,16.46,0,0,1,0,3.08,2.11,2.11,0,0,1-1,1.56c0,.33,0,1.07-.12,1s-.51-.88-.87-1.21a10,10,0,0,1-2.14-3,57.79,57.79,0,0,0-3.12-5.45,24.36,24.36,0,0,0-2.67-3.23c-2.78-1.45-5.9-2.14-6.81-2.74-.07-.05-.18-.35-.25-.4s-.24.25-.34.2a11.77,11.77,0,0,0-1.83-.41c-1.13-.2-6.15-.8-7.23-.82-2.34,0-1.1-3.51-1.1-3.51" transform="translate(0 0)"/><path class="cls-54" d="M39.75,29.37l-1-.25c.12,0-2.24-.44-1.79-.51.29,0,2.65-2.48,3-2.49,1.14-.05,10.2-.73,15.83,2.91,6.4,4.14,7.81,6.64,8.86,8.77a17,17,0,0,1,1.66,8.78,2.24,2.24,0,0,1-.85,1.59c-.06.35,0,1-.16,1s-.47-.82-.84-1.18a10.8,10.8,0,0,1-2-3,60,60,0,0,0-3-5.28,27.43,27.43,0,0,0-2.55-3.16c-2.6-1.49-5.5-2.29-6.48-2.94-.07,0-.18-.33-.26-.38s-.25.2-.35.15A12.66,12.66,0,0,0,48.07,33c-1.22-.21-5.85-.75-7-.77-2.52,0-1.82-3-1.82-3" transform="translate(0 0)"/><path class="cls-55" d="M40.05,29.81l-1.13-.25c.1,0-2.5-.46-2.12-.51s2.71-2.64,3.05-2.66c1,0,10.37-.8,16.11,2.91,6,3.9,7.58,6.4,8.68,8.56a15.77,15.77,0,0,1,1.66,5.61,17.68,17.68,0,0,1,.06,2.94A2.42,2.42,0,0,1,65.62,48c-.07.38-.06,1-.21,1s-.43-.75-.8-1.14A12.52,12.52,0,0,1,62.68,45c-.74-1.41-1.75-3.34-2.92-5.12a30.15,30.15,0,0,0-2.45-3.09c-2.4-1.53-5.09-2.45-6.14-3.14-.08-.06-.18-.31-.27-.35s-.26.14-.37.08a10.86,10.86,0,0,0-1.7-.43c-1.31-.23-5.55-.71-6.79-.73a2.37,2.37,0,0,1-2.53-2.55" transform="translate(0 0)"/><path class="cls-56" d="M40.35,30.26,39,30a24.1,24.1,0,0,1-2.43-.52c.21,0,2.76-2.8,3-2.81.82,0,10.54-.88,16.4,2.91,5.65,3.65,7.34,6.15,8.5,8.34a15,15,0,0,1,1.68,5.45,18.74,18.74,0,0,1,.1,2.88,2.72,2.72,0,0,1-.63,1.64c-.07.4-.1,1-.25.93s-.4-.7-.76-1.12a13.59,13.59,0,0,1-1.83-2.83c-.73-1.38-1.7-3.23-2.83-4.95a17.32,17.32,0,0,0-2.33-3C55.76,35,53,34.3,51.9,33.56c-.09-.06-.2-.28-.28-.33s-.27.08-.39,0a9.12,9.12,0,0,0-1.65-.43c-1.39-.24-5.24-.67-6.56-.69-2.89-.05-3.25-2.06-3.25-2.06" transform="translate(0 0)"/><path class="cls-57" d="M40.65,30.71l-1.48-.27c.07,0-3-.49-2.75-.52s2.81-3,3-3c.65,0,10.71-1,16.69,2.91,5.26,3.4,7.1,5.9,8.31,8.12a14.49,14.49,0,0,1,1.7,5.29,17.08,17.08,0,0,1,.13,2.81,3.16,3.16,0,0,1-.51,1.67c-.08.43-.13.93-.29.89s-.37-.63-.73-1.08A17.37,17.37,0,0,1,63,44.79c-.71-1.35-1.65-3.12-2.72-4.79a19.34,19.34,0,0,0-2.22-2.94c-1.8-1.88-4.29-2.77-5.47-3.56-.09-.06-.2-.25-.29-.3s-.28,0-.41,0a7.18,7.18,0,0,0-1.58-.44A61.4,61.4,0,0,0,44,32.08c-3.07,0-4-1.58-4-1.58" transform="translate(0 0)"/><path class="cls-58" d="M40.94,31.15l-1.65-.27c.06,0-3.25-.5-3.06-.53s2.86-3.12,3-3.12c.49,0,10.88-1,17,2.91,4.89,3.16,6.86,5.65,8.13,7.9a14.18,14.18,0,0,1,1.73,5.13,19.18,19.18,0,0,1,.16,2.74,3.73,3.73,0,0,1-.41,1.7c-.07.45-.15.9-.32.85s-.34-.56-.7-1a21.77,21.77,0,0,1-1.62-2.72c-.7-1.32-1.6-3-2.63-4.61a22,22,0,0,0-2.1-2.88,23.42,23.42,0,0,0-5.14-3.76c-.09-.06-.2-.22-.3-.28s-.29,0-.42-.09a6.78,6.78,0,0,0-1.53-.44A52.18,52.18,0,0,0,45,32a8.62,8.62,0,0,1-4.68-1.1" transform="translate(0 0)"/><path class="cls-59" d="M41.24,31.6l-1.82-.28s-3.51-.51-3.38-.53,2.91-3.28,3-3.29c.32,0,11-1.11,17.27,2.91,4.5,2.92,6.61,5.42,7.93,7.69a13.5,13.5,0,0,1,1.76,5,20.38,20.38,0,0,1,.2,2.67,4.56,4.56,0,0,1-.3,1.73c-.08.48-.18.86-.36.82a6.77,6.77,0,0,1-.66-1c-.42-.63-.92-1.5-1.53-2.65s-1.54-2.9-2.52-4.45a25.46,25.46,0,0,0-2-2.81,22,22,0,0,0-4.8-4c-.11-.07-.22-.2-.32-.26a3.81,3.81,0,0,0-.44-.15,6.28,6.28,0,0,0-1.46-.45A48.74,48.74,0,0,0,46,32a23.47,23.47,0,0,1-5.39-.61" transform="translate(0 0)"/><path class="cls-60" d="M41.54,32l-2-.28s-3.76-.53-3.7-.54,3-3.44,3-3.44,11.22-1.19,17.56,2.91a23.27,23.27,0,0,1,7.75,7.47A12.81,12.81,0,0,1,66,43a19.81,19.81,0,0,1,.23,2.6A5.88,5.88,0,0,1,66,47.33c-.08.51-.22.83-.41.78a5.81,5.81,0,0,1-.62-1c-.37-.63-.85-1.5-1.42-2.59-.67-1.27-1.49-2.79-2.43-4.29a33.13,33.13,0,0,0-1.87-2.74,20.38,20.38,0,0,0-4.47-4.16,3.43,3.43,0,0,0-.33-.24c-.15-.09-.3-.13-.45-.21a6,6,0,0,0-1.4-.45,41.79,41.79,0,0,0-5.68-.52c-3.61-.06-6.11-.13-6.11-.13" transform="translate(0 0)"/><path class="cls-61" d="M41.84,32.49l-6.18-.83,3-3.6S50.07,26.79,56.53,31s8.86,8.61,9.37,11.9.25,5.19-.26,5.06S59.19,33.37,53.36,32.36a46.52,46.52,0,0,0-12.28-.13" transform="translate(0 0)"/><path class="cls-62" d="M26.52,46.79l2.66,4.06,13.55,9.49,9.37-3.16S56,52.24,57,48.82s1.4-11.4,1.4-11.4l-7.35-.75-4.3,16.71-11-3.29-8-3.82Z" transform="translate(0 0)"/><path class="cls-63" d="M46.9,22.18c1.66,3.1-1.5,8-7,11s-11.39,2.85-13-.26,1.5-8,7.05-11S45.24,19.07,46.9,22.18Z" transform="translate(0 0)"/><polygon class="cls-64" points="85.41 63.52 84.08 56.41 76.53 49 76.53 44.07 70.33 44.57 70.45 51.41 72.98 54.19 85.41 63.52"/></g><path class="cls-65" d="M51.44,5.24a46,46,0,1,0,45.78,46.2A46,46,0,0,0,51.44,5.24ZM78.88,67c-3.61-2.73-11.63-8.8-12.18-9.24-.85-.67-.63-3.47-.34-8.27.51-8.44-5.06-14-9.79-16.88-7.46-4.49-16.88-.34-16.88-.34S50.88,38.07,53.53,40c3.71,2.7,5.15,4.8.83,11.9-4.73,7.76-10.45,6.84-12,6.16S28.55,50,28.55,50s.5,5.23,2.36,8.1c3.74,5.78,8.1,8.44,12.66,9.79s12.66-1,14.69-1.69,4.55.68,5.91,1.52c.66.42,6.18,4.51,8.91,6.54A31.27,31.27,0,1,1,78.88,67Z" transform="translate(0 0)"/><path d="M42.8,38.23a7.56,7.56,0,1,0,7.56,7.56A7.57,7.57,0,0,0,42.8,38.23Z" transform="translate(0 0)"/><path class="cls-66" d="M49.77,45.79a7,7,0,1,1-7-7A7,7,0,0,1,49.77,45.79Z" transform="translate(0 0)"/><path class="cls-67" d="M48.81,45.79a6,6,0,1,1-6-6A6,6,0,0,1,48.81,45.79Z" transform="translate(0 0)"/><path class="cls-68" d="M47,42.05c.93,1.75-.39,4.27-3,5.64S38.6,48.76,37.67,47s.4-4.27,3-5.64S46,40.31,47,42.05Z" transform="translate(0 0)"/><path class="cls-69" d="M94.34,52.14a3.87,3.87,0,1,1-3.87-3.87A3.87,3.87,0,0,1,94.34,52.14Z" transform="translate(0 0)"/><path class="cls-70" d="M94,51a4,4,0,1,1-4-4A4,4,0,0,1,94,51Z" transform="translate(0 0)"/><path class="cls-71" d="M93.32,51A3.36,3.36,0,1,1,90,47.66,3.36,3.36,0,0,1,93.32,51Z" transform="translate(0 0)"/><path class="cls-72" d="M92.74,51A2.78,2.78,0,1,1,90,48.23,2.77,2.77,0,0,1,92.74,51Z" transform="translate(0 0)"/><path class="cls-73" d="M91.62,45.67c1.2,1.19.9,3.45-.67,5s-3.82,1.91-5,.72-.9-3.44.67-5S90.41,44.48,91.62,45.67Z" transform="translate(0 0)"/><path class="cls-74" d="M16.74,52.55a3.87,3.87,0,1,1-3.87-3.87A3.87,3.87,0,0,1,16.74,52.55Z" transform="translate(0 0)"/><path class="cls-75" d="M16.6,51a4,4,0,1,1-4-4A4,4,0,0,1,16.6,51Z" transform="translate(0 0)"/><path class="cls-76" d="M16,51a3.36,3.36,0,1,1-3.35-3.35A3.35,3.35,0,0,1,16,51Z" transform="translate(0 0)"/><path class="cls-72" d="M15.39,51a2.78,2.78,0,1,1-2.77-2.78A2.77,2.77,0,0,1,15.39,51Z" transform="translate(0 0)"/><path class="cls-77" d="M16.12,44.14c1.64,1.62,1.23,4.69-.91,6.85s-5.2,2.6-6.83,1-1.23-4.69.91-6.85S14.49,42.52,16.12,44.14Z" transform="translate(0 0)"/><path class="cls-1" d="M55.77,9.7" transform="translate(0 0)"/><path class="cls-30" d="M71.32,24.11a.58.58,0,1,1,.22.79A.58.58,0,0,1,71.32,24.11Zm.27.7a.48.48,0,1,0-.17-.64A.46.46,0,0,0,71.59,24.81Zm0-.18-.09-.05L71.8,24l.22.13c.13.08.17.16.11.28a.17.17,0,0,1-.24.07v.35l-.09-.06v-.34l-.1-.05Zm.29-.27c.07.05.14.08.19,0s0-.12-.08-.16l-.12-.06-.1.17Z" transform="translate(0 0)"/><path class="cls-78" d="M17.84,70.85l.31-.18,0,0,.19-.16c1.36-1.09,1.6-2.89.67-4.94s-2.94-3.59-5.3-2.51a3.36,3.36,0,0,0-1.86,2.18,4.85,4.85,0,0,0,.37,3.3,4.43,4.43,0,0,0,1.18,1.58l-.23.14,1,2.27,3.63-1.66Zm-3.28-3.27a1.2,1.2,0,0,1,0-.9,1.15,1.15,0,0,1,.57-.51,1.8,1.8,0,0,1,.74-.21.65.65,0,0,1,.27.05,1.22,1.22,0,0,1,.62.7.67.67,0,0,1,0,.79l0,0-.35-.76Zm42.6,23,.11,2.55-7.81.34-.24-5.56-.91,5.53-3.13-.52-1.36-2.65-.39,2.36-3.29-.55,1-6-1.86,5.58L36,90.55l1.83-5.46-1.44,2.74a2.63,2.63,0,0,1-2.07,1.52l-.35,0a6,6,0,0,1-2.68-.81c-2.46-1.29-3.24-2.85-2.32-4.62l1.21-2.3-3.53,4.15-2.41-2,.19-3L22.84,82.6,20.3,80.44l3.61-4.25-.78.59-.24-.31-1.6,1.23.31.4-2,1.55-4.74-6.21,5.66-4.32,4.67,6.11h0l2.26,1.91L27.18,80l1.49-1.74,2.41,2L34,81.79l-1.78,3.4a1.64,1.64,0,0,0-.25.66c0,.06,0,.25.46.49s.72.13,1-.49l1.78-3.4L38.16,84l.06-.18,3.29,1.11,0,.17,3.09.51,1.25,2.53.37-2.26,3,.5h0L56.83,86l.11,2.55h-.38l.08,2ZM89.86,63.7a2,2,0,0,0-2.2.42l.41-.9L87.59,63c-1.45-.58-2.86.33-3.85,2.5a4.43,4.43,0,0,0-.4,3.19l-.58-.42L78,74.78l.5.37a3.82,3.82,0,0,0-2.18,1.06l-3.89,3.51,4.44,4.93-6-4.09L68.23,82.1,68.45,85a2.37,2.37,0,0,0-1.31-1.23,3.74,3.74,0,0,0-2.76.1L60,85.4l2.41,6.7,3.27-1.17L65,89.18l.93-.34a4.1,4.1,0,0,0,2.49-1.91,2.19,2.19,0,0,0,.12-.33L68.82,90,72,88.17l-.13-.94,1.66-1,.73.59L77.41,85l-.09-.06,2.49-2.25-1.43-1.58.62-.57c.4-.35.51-.28,1,.14a4,4,0,0,0,.89.64l.3.14L84,78.9,83,78.71a3,3,0,0,1-.68-.54L82.19,78a2.38,2.38,0,0,0-1.48-.63A2,2,0,0,0,80.34,76l1.1-1.52,3.69,2.68,2-2.81-3.69-2.68,1.15-1.58a1.83,1.83,0,0,0,1.89-.46L85.89,71l.45.2a2.36,2.36,0,0,0,.94.21c1.4,0,2.56-1.39,3.19-2.78C91.57,66.22,91.34,64.37,89.86,63.7ZM64.21,86.88l-.09-.25.58-.21c.38-.14.61-.19.71-.08s-.18.18-.75.38ZM88.55,67.15a1.59,1.59,0,0,1-.12.31c-.21.49-.4.62-.47.62l-.12,0C88.1,67.71,88.36,67.36,88.55,67.15Zm-11.87,12,.51-.45c.47-.43.63-.43.65-.4s0,.15-.39.49l-.61.54Z" transform="translate(0 0)"/><path class="cls-30" d="M14.31,70.1a3.29,3.29,0,0,1-1.66-1.77c-1-2.18-.34-4.11,1.25-4.84,2.13-1,3.88.61,4.64,2.27.86,1.88.63,3.42-.53,4.36l-1-2.18a1.15,1.15,0,0,0,.21-1.4,1.52,1.52,0,0,0-2.32-.76,1.58,1.58,0,0,0-.67,2.32c.24.53.69,1,1.15.9l-.46-1,1.2-.55,1.38,3-3.07,1.41-.66-1.43Z" transform="translate(0 0)"/><path class="cls-30" d="M20.42,69.87l4.07,5.34-1.25,1-2.56-3.36-.61.47,2.33,3-1.16.89-2.33-3-.61.46,2.64,3.45-1.25,1L15.54,73.6Z" transform="translate(0 0)"/><path class="cls-30" d="M25,75.78l2,1.66-.31,4h0L28.77,79l1.8,1.52-4,4.69-1.85-1.57L25,79.45h0L22.83,82,21,80.47Z" transform="translate(0 0)"/><path class="cls-30" d="M36,87.67c-.79,1.5-2.25,1.67-4.44.52s-2.91-2.43-2.12-3.94l1.74-3.34,2.22,1.16-1.55,3c-.29.56-.65,1.25.42,1.81s1.41-.15,1.7-.7l1.55-3,2.22,1.15Z" transform="translate(0 0)"/><path class="cls-30" d="M38.58,84.48l2.37.79L39,91.1l-2.37-.79Z" transform="translate(0 0)"/><path class="cls-30" d="M41.77,85.67l2.52.41,1.81,3.63h0l.53-3.24,2.33.38-1,6.06-2.4-.39-1.91-3.71h0l-.54,3.31-2.33-.38Z" transform="translate(0 0)"/><path class="cls-30" d="M49.78,86.86l6.71-.31.07,1.57-4.21.2,0,.76,3.82-.18.07,1.46-3.82.18,0,.77,4.34-.21.07,1.58L50.07,93Z" transform="translate(0 0)"/><path class="cls-30" d="M60.75,85.7l3.93-1.43c2.07-.75,3.22.14,3.51,1,.51,1.4-.49,2.51-2.24,3.14l-1.39.51.63,1.74-2.35.86Zm3.31,1.8.91-.33c.61-.22,1.24-.48,1-1.07s-.74-.36-1.32-.15l-1,.38Z" transform="translate(0 0)"/><path class="cls-30" d="M68.86,82.35,71,81.11l5.67,3.8-2.24,1.31-.74-.58-2.22,1.3.13.94L69.4,89.15Zm3.69,2.4L71,83.49h0l.28,2Z" transform="translate(0 0)"/><path class="cls-30" d="M73.3,79.69l3.52-3.21c1.05-1,2.35-1.34,3.13-.48a1.58,1.58,0,0,1,.14,2,1.68,1.68,0,0,1,1.91.33c.23.2.73.73,1.09.79l-1.85,1.68a3.75,3.75,0,0,1-.79-.56c-.44-.39-.9-.8-1.63-.13l-1,.89,1.44,1.59-1.85,1.68ZM77,80l1-.88c.34-.31.77-.78.4-1.19s-.62-.26-1.33.38l-.86.79Z" transform="translate(0 0)"/><path class="cls-30" d="M81.45,73.65,80.13,75.5l-1.28-.92L83,68.86l1.27.92-1.33,1.84,3.71,2.67-1.46,2Z" transform="translate(0 0)"/><path class="cls-30" d="M87.67,68.34a1,1,0,0,0,.41.08c.41,0,.7-.48.89-.91s.34-1-.08-1.17-.51.16-1.36,1.31-1.63,2.28-2.76,1.78c-1.29-.59-1.19-2.3-.5-3.82s1.82-2.82,3.22-2.27l-1,2.16a.43.43,0,0,0-.57.07,1.65,1.65,0,0,0-.45.61c-.14.31-.3.85,0,1s1-.88,1.67-1.83,1.53-1.82,2.56-1.36c1.45.66,1.13,2.64.38,4.29-.37.84-1.68,3.13-3.48,2.35Z" transform="translate(0 0)"/><path class="cls-79" d="M51.76,11.26l.49,6.87-4.65.33-.48-6.87-3.33.23-.24-3.34,11.31-.8L55.09,11Zm11.31,8.37a10.72,10.72,0,0,1-2.75-.4l-5.61-1.47,2.59-9.9,6.31,1.65a6.15,6.15,0,0,1,4,2.68,4.9,4.9,0,0,1,.4,3.75A4.67,4.67,0,0,1,63.07,19.63Zm-3-3.93.92.24c1.38.37,2.21,0,2.52-1.22.16-.62.14-1.74-1.89-2.27L61,12.28ZM35.39,11.4l.6,4.52-3.07-3.38-5.51,2.57,4.32,9.29,4-1.88-1.54-3.3L36.92,22,40,20.53l-.38-3.84L41.19,20l4-1.88L40.9,8.83Zm43.76,4.47c-.14-.43-1.54-1-2.11-1.07a3.43,3.43,0,0,0-2,.42,7.32,7.32,0,0,0-1.7,1.28l-.09.08L72,17.74a6.56,6.56,0,0,0,.44-3.52c0-.06-.17-1.49-.64-1.69l-.27-.11-.22.16c-.26.2-.23.5-.19.8a7.57,7.57,0,0,1-1,3.64,12.56,12.56,0,0,1-1.91,2.34l-1.81,1.8,4.23,2.9.46-.46a25.53,25.53,0,0,1,2.67-2.39,8.41,8.41,0,0,1,2.33-1.13c.46-.1.81-.2,1.11-.29l.61-.16c.31-.07.78-.17.74-.64s-.48-.52-1.38-.56a6.16,6.16,0,0,0-2.87.3,5.16,5.16,0,0,0-.63.24,22.16,22.16,0,0,1,2.4-2.1,2.7,2.7,0,0,1,2.29-.4.57.57,0,0,0,.62-.08l.22-.23Z" transform="translate(0 0)"/><path class="cls-30" d="M28.1,15.39l4.74-2.21,3.84,4.22h0L36,11.73,40.7,9.52l3.91,8.4-3.15,1.47L39,14h0l.63,6.27-2.49,1.15-4.38-4.51h0l2.51,5.39L32,23.79Z" transform="translate(0 0)"/><path class="cls-30" d="M47.61,11.11l-3.33.23L44.11,9l10.33-.73.17,2.37-3.34.24.49,6.87L48.09,18Z" transform="translate(0 0)"/><path class="cls-30" d="M57.69,8.5,63.52,10c3.85,1,4.63,3.57,4,5.83-.72,2.74-3,4-7.07,2.94l-5.14-1.34Zm1.81,7.59,1.39.37c2.21.58,2.9-.73,3.12-1.57.15-.57.33-2.19-2.24-2.87l-1.13-.29Z" transform="translate(0 0)"/><path class="cls-30" d="M71.54,17.72A6.18,6.18,0,0,0,72,14.31c-.06-.53-.47-2-.35-.92a8,8,0,0,1-1,3.93,13,13,0,0,1-2,2.43l-1.38,1.38.9.62L70,19.87A9,9,0,0,0,71.54,17.72Z" transform="translate(0 0)"/><path class="cls-30" d="M75.86,16.52a3.17,3.17,0,0,1,2.76-.47c.49.19-.78-.63-1.6-.72a2.87,2.87,0,0,0-1.77.37A7.52,7.52,0,0,0,73.58,17c-.3.28-2.07,2-2.07,2l-3,3,.91.63,4-3.91A21.3,21.3,0,0,1,75.86,16.52Z" transform="translate(0 0)"/><path class="cls-30" d="M73.58,20.84a8.41,8.41,0,0,1,2.49-1.19c.82-.19,1.28-.36,1.72-.46s.66-.17-.56-.23a5.66,5.66,0,0,0-2.69.28,7.37,7.37,0,0,0-2.25,1.25c-.46.35-1.61,1.43-1.61,1.43l-.94.92.91.63c.08-.08.14-.13.18-.18A27.57,27.57,0,0,1,73.58,20.84Z" transform="translate(0 0)"/><path class="cls-80" d="M26.67,21.55A39.32,39.32,0,0,0,13.13,44.86l1.46.17a37.87,37.87,0,0,1,13-22.33Z" transform="translate(0 0)"/><path class="cls-81" d="M12.56,44.61l1.47.17A37.85,37.85,0,0,1,27.24,22.26l-.92-1.14A39.33,39.33,0,0,0,12.56,44.61Z" transform="translate(0 0)"/><path class="cls-82" d="M26.72,21.64A39.27,39.27,0,0,0,13.2,44.92l1.46.18a37.87,37.87,0,0,1,13-22.33Z" transform="translate(0 0)"/><path class="cls-81" d="M13.64,57.13l-1.46.14a39.65,39.65,0,0,0,1.11,5l1.39-.5A37.51,37.51,0,0,1,13.64,57.13Z" transform="translate(0 0)"/><path class="cls-83" d="M14.31,56.91s0-.06,0-.09h0Z" transform="translate(0 0)"/><path class="cls-84" d="M14.34,57.06l-1.46.15a40.62,40.62,0,0,0,1,4.79l1.39-.5A36.33,36.33,0,0,1,14.34,57.06Z" transform="translate(0 0)"/><path class="cls-85" d="M28.8,22.31c1.63,1.62,1.22,4.68-.92,6.84s-5.2,2.6-6.83,1-1.23-4.68.91-6.85S27.16,20.69,28.8,22.31Z" transform="translate(0 0)"/><path class="cls-86" d="M76.79,21.75a39.27,39.27,0,0,1,13.54,23.3l-1.46.18a37.85,37.85,0,0,0-13-22.34Z" transform="translate(0 0)"/><path class="cls-81" d="M90.9,44.8,89.44,45A37.88,37.88,0,0,0,76.22,22.46l.93-1.15A39.34,39.34,0,0,1,90.9,44.8Z" transform="translate(0 0)"/><path class="cls-87" d="M76.74,21.83A39.27,39.27,0,0,1,90.26,45.12l-1.46.17A37.89,37.89,0,0,0,75.81,23Z" transform="translate(0 0)"/><path class="cls-81" d="M89.82,57.32l1.47.15a39.94,39.94,0,0,1-1.12,5l-1.39-.5A37.51,37.51,0,0,0,89.82,57.32Z" transform="translate(0 0)"/><path class="cls-88" d="M89.15,57.1s0-.06,0-.09h0Z" transform="translate(0 0)"/><path class="cls-89" d="M89.12,57.25l1.47.15a38.51,38.51,0,0,1-1.06,4.8l-1.39-.51A36.33,36.33,0,0,0,89.12,57.25Z" transform="translate(0 0)"/><path class="cls-90" d="M86.54,34.56c-1.64,1.62-1.23,4.69.91,6.85s5.2,2.6,6.84,1,1.23-4.69-.91-6.85S88.18,32.94,86.54,34.56Z" transform="translate(0 0)"/></g></g></svg>