<?xml version="1.0" encoding="utf-8"?>
<!-- Generator: Adobe Illustrator 24.0.1, SVG Export Plug-In . SVG Version: 6.00 Build 0)  -->
<svg version="1.1" id="Layer_1" xmlns="http://www.w3.org/2000/svg" xmlns:xlink="http://www.w3.org/1999/xlink" x="0px" y="0px"
	 viewBox="0 0 102.2 102.2" style="enable-background:new 0 0 102.2 102.2;" xml:space="preserve">
<style type="text/css">
	.st0{fill:#D3D3D3;}
	.st1{fill:#FFFFFF;}
	.st2{fill:#383839;}
</style>
<title>MTD_GP_logo_Grey</title>
<path class="st0" d="M71.9,31.1c-5.3-5.4-12.5-8.4-20.1-8.4h-0.1C36,23,23.5,35.9,23.7,51.6c0.2,15.3,12.6,27.7,27.9,28h0.1
	c15.7,0,28.4-12.7,28.4-28.5C80.1,43.6,77.1,36.4,71.9,31.1z M51.5,78.7C36.3,78.6,24,66.2,24.1,51s12.5-27.5,27.7-27.4
	C67,23.6,79.3,36,79.2,51.2C79.2,66.5,66.8,78.8,51.5,78.7L51.5,78.7z"/>
<path class="st0" d="M99,54.1l3.2-2.1l-3.1-2.1l3-2.4l-3.3-1.8l2.8-2.6l-3.4-1.5l2.6-2.9l-3.6-1.2l2.3-3.1l-3.7-0.9l2-3.3l-3.7-0.6
	l1.7-3.4L92.1,26l1.4-3.5l-3.8,0.1l1.1-3.7l-3.7,0.4l0.8-3.7l-3.7,0.7l0.4-3.8l-3.6,1l0.1-3.8l-3.5,1.4l-0.2-3.8L74,9l-0.6-3.8
	l-3.2,1.9l-0.9-3.7l-3,2.2L65.2,2l-2.8,2.4l-1.5-3.5l-2.6,2.7l-1.8-3.4l-2.3,2.9L52,0l-2,3.1l-2.4-3l-1.8,3.3l-2.6-2.8L41.6,4
	l-2.9-2.5L37.5,5l-3.1-2.2l-0.9,3.6l-3.2-2l-0.6,3.7l-3.4-1.7l-0.2,3.8l-3.5-1.4l0.1,3.8L19,11.5l0.4,3.7l-3.8-0.8l0.7,3.7l-3.8-0.5
	l1.1,3.6L9.8,21l1.4,3.5l-3.8,0.2L9,28.1l-3.8,0.5l1.9,3.2l-3.7,0.9l2.2,3L1.9,37l2.5,2.8l-3.5,1.5L3.7,44l-3.4,1.8l2.9,2.3L0,50.2
	l3.1,2.1l-3,2.4l3.3,1.8l-2.8,2.6L4,60.6l-2.5,2.9L5,64.7l-2.3,3.1l3.6,0.9l-2,3.3L8,72.6L6.3,76l3.7,0.2l-1.4,3.6l3.8-0.1l-1.1,3.7
	L15,83l-0.8,3.8l3.7-0.7l-0.5,3.8l3.6-1.1l-0.1,3.8l3.5-1.4l0.2,3.8l3.4-1.7l0.6,3.8l3.2-2l0.9,3.7l3-2.2l1.2,3.6l2.8-2.5l1.5,3.5
	l2.6-2.7l1.8,3.4L48,99l2.1,3.2l2.1-3.1l2.4,3l1.8-3.3l2.6,2.8l1.5-3.4l2.9,2.6l1.2-3.6l3.1,2.3l0.9-3.6l3.3,2l0.6-3.7l3.5,1.7
	l0.2-3.8l3.6,1.4l-0.1-3.8l3.7,1.1L82.9,87l3.8,0.8L86,84.1l3.8,0.4l-1-3.6l3.8,0.1l-1.4-3.5l3.7-0.2L93.2,74l3.8-0.6l-2-3.2
	l3.7-0.9l-2.2-3l3.6-1.2l-2.5-2.8l3.5-1.5l-2.7-2.6l3.4-1.8L99,54.1z M50.9,97C25.6,96.9,5.1,76.3,5.2,51s20.7-45.8,46-45.7
	C76.5,5.4,97,26,96.9,51.3v0.1C96.8,76.6,76.2,97,50.9,97z"/>
<path class="st1" d="M55.6,9.7"/>
<path class="st0" d="M51.7,82.1L51.7,82.1C34.4,81.3,21.2,66.8,22,49.7c0.7-16,13.6-28.9,29.7-29.5h0.1C68.9,21,82.1,35.5,81.3,52.6
	C80.6,68.6,67.7,81.4,51.7,82.1z M51.5,81.2L51.5,81.2c16.7,0,30.2-13.4,30.3-30S68.4,21.1,51.8,21l0,0h-0.1
	C35,21,21.5,34.4,21.5,51S34.9,81.2,51.5,81.2L51.5,81.2z"/>
<path class="st0" d="M14.2,70c-0.8-0.4-1.3-1-1.7-1.8c-1-2.2-0.3-4.1,1.3-4.8c2.1-1,3.9,0.6,4.6,2.3c0.9,1.9,0.6,3.4-0.5,4.3l-1-2.2
	c0.4-0.4,0.5-0.9,0.2-1.4c-0.3-0.8-1.1-1.2-1.9-1c-0.1,0-0.3,0.1-0.4,0.2c-0.8,0.3-1.2,1.3-0.8,2.1c0,0.1,0.1,0.2,0.1,0.2
	c0.2,0.5,0.7,1,1.2,0.9l-0.5-1l1.2-0.6l1.4,3l-3.1,1.4l-0.6-1.4L14.2,70z M20.4,69.7l4.1,5.3l-1.2,1l-2.5-3.3L20,73.1l2.3,3L21.2,77
	l-2.3-3l-0.6,0.5l2.6,3.4l-1.2,0.9l-4.1-5.4L20.4,69.7z M24.9,75.6l2,1.7l-0.3,4l0,0l2.1-2.5l1.8,1.5l-4,4.7l-1.9-1.6l0.3-4.1l0,0
	l-2.2,2.6l-1.8-1.5L24.9,75.6z M35.9,87.5c-0.8,1.5-2.2,1.7-4.4,0.5s-2.9-2.4-2.1-3.9l1.7-3.3l2.2,1.2l-1.5,3
	c-0.3,0.6-0.6,1.2,0.4,1.8c1.1,0.6,1.4-0.1,1.7-0.7l1.5-3l2.2,1.2L35.9,87.5z M38.5,84.3l2.4,0.8l-2,5.8l-2.4-0.8L38.5,84.3z
	 M41.7,85.5l2.5,0.4l1.8,3.6l0,0l0.5-3.2l2.3,0.4l-1,6l-2.4-0.4l-1.9-3.7l0,0L43,91.9l-2.3-0.4L41.7,85.5z M49.7,86.7l6.7-0.3
	l0.1,1.6l-4.2,0.2V89l3.8-0.2l0.1,1.5l-3.8,0.2v0.8l4.3-0.2l0.1,1.6L50,93L49.7,86.7z M60.6,85.5l3.9-1.4c2.1-0.8,3.2,0.1,3.5,1
	c0.5,1.4-0.5,2.5-2.2,3.1l-1.4,0.5l0.6,1.8l-2.3,0.8L60.6,85.5z M63.9,87.3l0.9-0.3c0.6-0.2,1.2-0.5,1-1.1s-0.7-0.4-1.3-0.2l-1,0.4
	L63.9,87.3z M68.7,82.2l2.1-1.2l5.7,3.8L74.2,86l-0.7-0.6l-2.2,1.3l0.1,0.9L69.2,89L68.7,82.2z M72.4,84.6l-1.6-1.3l0,0l0.3,2
	L72.4,84.6z M73.2,79.5l3.5-3.2c1-1,2.3-1.3,3.1-0.5c0.5,0.6,0.6,1.4,0.1,2c0.6-0.3,1.4-0.2,1.9,0.3c0.2,0.2,0.7,0.7,1.1,0.8
	l-1.8,1.7c-0.3-0.1-0.6-0.3-0.8-0.6c-0.4-0.4-0.9-0.8-1.6-0.1l-1,0.9l1.4,1.6L77.2,84L73.2,79.5z M76.8,79.8l1-0.9
	c0.3-0.3,0.8-0.8,0.4-1.2s-0.6-0.3-1.3,0.4L76,78.9L76.8,79.8z M81.3,73.5l-1.4,1.8l-1.3-0.9l4.1-5.7l1.3,0.9l-1.3,1.8l3.7,2.7
	l-1.5,2L81.3,73.5z M87.5,68.2c0.1,0.1,0.3,0.1,0.4,0.1c0.4,0,0.7-0.5,0.9-0.9s0.3-1-0.1-1.2s-0.5,0.2-1.4,1.3s-1.6,2.3-2.8,1.8
	c-1.3-0.6-1.2-2.3-0.5-3.8s1.8-2.8,3.2-2.3l-1,2.1c-0.2-0.1-0.4-0.1-0.6,0.1s-0.3,0.4-0.4,0.6c-0.1,0.3-0.3,0.8,0,1s1-0.9,1.7-1.8
	s1.5-1.8,2.6-1.3c1.5,0.6,1.1,2.6,0.4,4.3c-0.4,0.8-1.7,3.1-3.5,2.3L87.5,68.2z M71.2,24c0.2-0.3,0.5-0.4,0.8-0.2
	c0.3,0.2,0.4,0.5,0.2,0.8c-0.2,0.3-0.5,0.4-0.8,0.2l0,0C71.1,24.6,71,24.3,71.2,24C71.1,24,71.1,24,71.2,24z M71.4,24.7
	c0.2,0.1,0.5,0.1,0.6-0.2l0,0c0.1-0.2,0.1-0.5-0.2-0.6l0,0c-0.2-0.1-0.5,0-0.6,0.3C71.2,24.3,71.2,24.6,71.4,24.7z M71.4,24.5
	L71.4,24.5l0.2-0.6l0.2,0.1c0.1,0.1,0.2,0.2,0.1,0.3c0,0.1-0.1,0.1-0.2,0.1l0,0v0.3h-0.1v-0.3l-0.1-0.1L71.4,24.5z M71.7,24.3
	c0.1,0,0.1,0.1,0.2,0s0-0.1-0.1-0.2L71.7,24V24.3L71.7,24.3z M28,15.3l4.7-2.2l3.8,4.2l0,0l-0.8-5.6l4.7-2.2l3.9,8.4l-3.1,1.5
	L38.8,14l0,0l0.6,6.2l-2.5,1.1l-4.4-4.5l0,0l2.5,5.4l-3.1,1.5L28,15.3z M47.5,11l-3.3,0.2L44,8.9l10.3-0.7l0.2,2.4l-3.3,0.2l0.5,6.9
	L48,18L47.5,11z M57.6,8.4l5.8,1.6c3.8,1,4.6,3.6,4,5.8c-0.7,2.7-3,4-7.1,2.9l-5.1-1.4L57.6,8.4z M59.3,16l1.4,0.4
	c2.2,0.6,2.9-0.7,3.1-1.6c0.1-0.6,0.3-2.2-2.2-2.9l-1.1-0.3L59.3,16z M71.3,17.6c0.5-1.1,0.6-2.2,0.5-3.4c-0.1-0.5-0.5-2-0.3-0.9
	c0,1.4-0.3,2.7-1,3.9c-0.6,0.9-1.2,1.7-2,2.4L67.1,21l0.9,0.6l1.8-1.9C70.4,19.2,71,18.5,71.3,17.6L71.3,17.6z M75.7,16.4
	c0.8-0.6,1.8-0.7,2.8-0.4c0.5,0.2-0.8-0.6-1.6-0.7c-0.6-0.1-1.2,0.1-1.8,0.4c-0.6,0.3-1.2,0.8-1.7,1.3l-2.1,2l-3,3l0.9,0.6l4-3.9
	C74,17.9,74.8,17.1,75.7,16.4L75.7,16.4z M73.4,20.8c0.8-0.5,1.6-0.9,2.6-1.2c0.8-0.2,1.3-0.4,1.7-0.5s0.7-0.2-0.6-0.2
	c-0.9-0.1-1.8,0-2.7,0.3c-0.8,0.3-1.6,0.7-2.2,1.3c-0.5,0.3-1.6,1.4-1.6,1.4l-0.9,0.9l0.9,0.6l0.2-0.2
	C71.5,22.4,72.4,21.6,73.4,20.8L73.4,20.8z"/>
<path class="st0" d="M16.6,50.9c0,2.2-1.8,4-4,4s-4-1.8-4-4s1.8-4,4-4S16.6,48.7,16.6,50.9z M89.7,46.9c-2.2,0-4,1.8-4,4s1.8,4,4,4
	s4-1.8,4-4S91.9,46.9,89.7,46.9L89.7,46.9z M25.8,21.1C18.6,27,13.7,35.3,12.1,44.5l2.1,0.2c1.5-8.7,6.1-16.5,12.9-22L25.8,21.1z
	 M75.6,22.7c6.8,5.5,11.4,13.3,12.9,22l2.1-0.2C89,35.3,84.1,27,76.9,21.1L75.6,22.7z M90.7,57.4l-2.2-0.2c-0.2,1.5-0.6,3-1,4.5
	l2,0.7C90,60.7,90.4,59,90.7,57.4z M13.2,62.4l2-0.7c-0.4-1.5-0.8-2.9-1-4.5L12,57.4C12.3,59.1,12.7,60.7,13.2,62.4L13.2,62.4z"/>
<path class="st0" d="M51.8,23.6C36.6,23.5,24.2,35.8,24.1,51s12.2,27.6,27.4,27.7c6.1,0,12-1.9,16.8-5.6c-2.1-1.8-4.3-3.4-6.7-4.9
	c-2.2-1-3.9-0.2-6.6,0.7s-12.3,2.5-18.2-1.7c-4.6-3.2-8-8-9.4-13.5c-0.9-3.5-0.6-4.6-0.4-5.2s0.8-0.7,2.4,0.2
	c1.3,0.7,12.3,7.1,13.5,7.7s5.4,0.3,9.1-4.9s3.2-8.5,1-10s-14.2-8.5-15.2-9s-0.1-1.7,0.6-1.9c3.6-1.3,7.3-1.9,11.1-1.9
	c3.3,0,11.5,2.1,15.3,8.5s3.8,9.4,3.4,13.6c-0.3,3.9-0.1,5.3,0.9,6.2c0.7,0.5,5.2,4.1,7.4,5.8C83,49,77.1,32.6,63.4,26.1
	C59.8,24.5,55.8,23.6,51.8,23.6z M42.6,36.3l8.1,4.7v9.4L42.6,55l-8.1-4.7V41L42.6,36.3z"/>
<path class="st0" d="M42.7,38.1c-4.2,0-7.6,3.4-7.6,7.5s3.4,7.6,7.5,7.6s7.6-3.4,7.6-7.5l0,0C50.2,41.5,46.9,38.1,42.7,38.1z
	 M42.7,52.3c-3.7,0-6.7-3-6.7-6.7s3-6.7,6.7-6.7s6.7,3,6.7,6.7l0,0C49.4,49.3,46.4,52.3,42.7,52.3z"/>
<path class="st2" d="M87.2,61L87.2,61l-1.1-0.2L86,61.2h-0.1l0.2-0.8h0.1l-0.1,0.3L87.2,61z"/>
<path class="st2" d="M86.1,60.4v-0.2l1.1-0.1l-0.9-0.6v-0.2l1.2,0.2v0.1l-1-0.2l1,0.6v0.1l-1.2,0.2l1.1,0.2v0.1L86.1,60.4z"/>
</svg>
