<svg id="Layer_1" data-name="Layer 1" xmlns="http://www.w3.org/2000/svg" viewBox="0 0 291.64 101.26"><defs><style>.cls-1{fill:#f47b20;}</style></defs><title>Remington</title><path class="cls-1" d="M116.44,43.27H131s3.4-23.91,3.51-24.51c.8-4.62,3.49-4.84,5.93-4.84h13.89l2-13.92h-21.7c-6.14,0-12.36,2.63-13.5,10.49S116.44,43.27,116.44,43.27Z"/><path class="cls-1" d="M160,0H170.3s-3.17,22.1-3.45,24-.94,4.78-4,4.78h-5.2L169,43.27H154.2L137.1,21h16.6c2.24,0,3.34-.78,3.54-2.08Z"/><path class="cls-1" d="M57.61,101.26h-25l4-28.86h25l-.94,6.68H45.87l-.62,4.46H60.1l-.4,2.83a4.31,4.31,0,0,1-4.32,3.35h-11l-.68,4.87H58.54Z"/><path class="cls-1" d="M101.41,101.26H91.8l2.45-17.47h-.48L85.59,99.62c-.65,1.23-1.13,1.64-2.36,1.64H79.82c-1.24,0-1.65-.45-1.9-1.64L74.17,83.79H73.7l-2.46,17.47H61.91L66,72.4H78.65c1.47,0,1.94.42,2.18,1.7l2.76,13.11H84L90.16,74.1a2.44,2.44,0,0,1,2.66-1.7h12.64Z"/><path class="cls-1" d="M105.46,101.26l4.05-28.86h6.33c2.13,0,3.64,1.5,3.38,3.36l-3.58,25.5Z"/><path class="cls-1" d="M151.67,101.26h-7c-2.18,0-3.15-.53-4.06-2.1l-8.21-14.39h-.24l-2.31,16.49h-9.62l4-28.86h8.67c2.18,0,3.19.54,4.06,2.11l6.84,12.65H144l2.07-14.76h9.62Z"/><path class="cls-1" d="M180.65,72.4c3.55,0,5.48.42,6.61,1.49,1.46,1.4,2.16,3.5,1.61,8.41h-9.75c.27-2.31-.3-2.64-.58-2.93s-.62-.33-2-.33h-4.27c-1.46,0-1.9.09-2.22.33-.48.37-1.27,1.65-2.09,7.47s-.39,7.17,0,7.54.67.33,2.14.33h4.5c1.32,0,1.86-.09,2.17-.33a4.49,4.49,0,0,0,1.44-3.13l0-.21h-3.26c-2.12,0-3.64-1.5-3.38-3.35l.37-2.63h16.86l-.49,3.51c-1,7-2.79,9.39-4.86,11-1.54,1.2-3.79,1.69-6.87,1.69h-11c-3.46,0-5.19-.53-6.31-1.64-1.71-1.66-2.92-4.83-1.8-12.78s3.21-11.14,5.39-12.79c1.43-1.11,3.31-1.65,6.76-1.65Z"/><path class="cls-1" d="M209.84,79.16l-2.63,18.75a4.29,4.29,0,0,1-4.32,3.35h-6.33l3.1-22.1H191l1-6.76h27.58l-.95,6.76Z"/><path class="cls-1" d="M240.76,72.4c3.45,0,5.18.54,6.3,1.65,1.71,1.65,2.92,4.83,1.81,12.79S245.65,98,243.48,99.62c-1.44,1.11-3.31,1.64-6.77,1.64h-10c-3.46,0-5.19-.53-6.31-1.64-1.71-1.66-2.92-4.83-1.81-12.78S221.81,75.7,224,74.05c1.44-1.11,3.32-1.65,6.77-1.65ZM228.93,94.21c.24.25.71.33,2.13.33h3.18c1.42,0,1.91-.08,2.23-.33s1.05-1.07,1.93-7.37.43-7.1.14-7.39-.71-.32-2.13-.32h-3.19c-1.42,0-1.91.08-2.23.32s-1,1.08-1.93,7.39-.42,7.09-.13,7.37"/><path class="cls-1" d="M281.12,101.26h-7.06c-2.18,0-3.14-.53-4.06-2.1l-8.21-14.39h-.24l-2.31,16.49h-9.61l4.05-28.86h8.66c2.18,0,3.19.54,4.06,2.11l6.85,12.65h.23l2.08-14.76h9.61Z"/><path class="cls-1" d="M30.21,73.68c-.9-.9-2.58-1.28-5.18-1.28h-21L0,101.26H6.93a3.41,3.41,0,0,0,3.38-2.94l.85-6h5.47l1.89,9h9.91l-2-9.55A4.94,4.94,0,0,0,27.78,91c1.57-1.24,3.08-3.13,3.85-8.66s-.19-7.42-1.42-8.66M13,79h7c1.61,0,2,.08,2.26.33s.53.91.24,3-.59,2.68-1.1,3.09c-.28.25-.74.33-2.35.33h-7Z"/><path class="cls-1" d="M289.07,72.35a2.57,2.57,0,1,1-2.59,2.55A2.55,2.55,0,0,1,289.07,72.35Zm0,4.76A2.19,2.19,0,1,0,287,74.9,2.12,2.12,0,0,0,289.07,77.11Zm-1-3.69h1.16c.71,0,1,.28,1,.85a.77.77,0,0,1-.79.82l.86,1.32h-.5L289,75.12h-.5v1.29h-.46Zm.46,1.33H289c.41,0,.79,0,.79-.5s-.34-.46-.66-.46h-.62Z"/></svg>