<svg id="Layer_1" data-name="Layer 1" xmlns="http://www.w3.org/2000/svg" xmlns:xlink="http://www.w3.org/1999/xlink" viewBox="0 0 444.44 109.25"><defs><style>.cls-1{fill:none;}.cls-2{clip-path:url(#clip-path);}.cls-3{fill:#4e4e4f;}</style><clipPath id="clip-path" transform="translate(-30.28 -120.8)"><rect class="cls-1" x="18.95" y="117.15" width="460.06" height="128.39"/></clipPath></defs><title>Robo_Mow_grey</title><g class="cls-2"><path class="cls-3" d="M77.11,120.8A46.84,46.84,0,1,0,124,167.64,46.84,46.84,0,0,0,77.11,120.8m21.14,71.92H63a2.17,2.17,0,0,1-2.24-2.26v-46a2.23,2.23,0,0,1,2.33-2.42h16.1c10,0,17,4.78,17,15.59,0,6.15-3.09,11.87-9,13.82a1.23,1.23,0,0,0-.58,1.81l12.6,17.34a1.27,1.27,0,0,1-.91,2.11M83,158a5.87,5.87,0,1,1-5.86-5.87A5.86,5.86,0,0,1,83,158" transform="translate(-30.28 -120.8)"/><path class="cls-3" d="M149.87,209.62c-.55-.06-1.44-.09-1.76-.09-1.75,0-2,.18-2.75,3h2.21a2.53,2.53,0,0,1,.11,1.07c-.14,1-.68,1.75-2.2,1.75-.17,0-.46,0-.77-.06L143,222.8c-1.16,5-3.35,7.25-6.81,7.25-1.49,0-2.12-.64-2-1.74a2.12,2.12,0,0,1,.36-.93c3.06,0,3.15-.09,4.14-4.2l1.9-7.92h-1.37a1.72,1.72,0,0,1-.16-1.13c.16-1.13.83-1.57,2.32-1.63,1.42-4.92,3.06-6,6.73-6,1.83,0,2.62.61,2.48,1.6a2.76,2.76,0,0,1-.71,1.54" transform="translate(-30.28 -120.8)"/><path class="cls-3" d="M158.68,215.82c-.61-.06-.93-.09-1.28-.09-1.42,0-2.44.6-3.85,2.8L152,224.37a7,7,0,0,1-2.1.24c-1.25,0-1.82-.53-1.66-1.63a16.56,16.56,0,0,1,.43-1.66l1.71-6.11-1.34,0a1.55,1.55,0,0,1-.15-1.05c.18-1.28,1.38-1.75,4-1.75,1.69,0,2.13.38,1.82,1.34l-.58,1.86c1.69-2.7,2.35-3.26,3.92-3.26,1.34,0,1.73.73,1.59,1.75a2.92,2.92,0,0,1-.9,1.69" transform="translate(-30.28 -120.8)"/><path class="cls-3" d="M162,224.61c-1.42,0-2.19-.55-2-1.81a18.85,18.85,0,0,1,.44-1.92l1.79-5.67-1.34,0a1.55,1.55,0,0,1-.15-1.05c.18-1.28,1.38-1.75,4-1.75,1.92,0,2.25.55,1.91,1.75l-1.31,4.54c-.39,1.34-.73,2.27-.78,2.65,0,.2,0,.4.38.4a5,5,0,0,0,1.1-.11,1,1,0,0,1,.32,1c-.18,1.37-1.49,2-4.32,2m4.08-13.88c-1.08,0-2-.38-1.78-1.81a2.63,2.63,0,0,1,2.78-2.21c1.37,0,1.87.79,1.72,1.86a2.53,2.53,0,0,1-2.72,2.16" transform="translate(-30.28 -120.8)"/><path class="cls-3" d="M173.49,219.54a6.66,6.66,0,0,1-1.61-.14c-.2,1.83.93,2.33,2.21,2.33a8.52,8.52,0,0,0,3.45-.79,1.25,1.25,0,0,1,.65,1.43c-.19,1.3-2,2.3-5.54,2.3-3.25,0-5.53-1.22-5-5,.63-4.51,3.51-7.33,7.9-7.33,2.77,0,4.2,1.39,3.92,3.4-.35,2.47-2.16,3.78-6,3.78m1.48-4.48a3,3,0,0,0-2.61,2.42,8.91,8.91,0,0,0,1.32.08c1.46,0,2.18-.61,2.3-1.45.08-.52-.08-1.05-1-1.05" transform="translate(-30.28 -120.8)"/><path class="cls-3" d="M182.05,224.61c-1.25,0-1.82-.53-1.66-1.63a14.81,14.81,0,0,1,.44-1.66l1.7-6.11-1.34,0a1.5,1.5,0,0,1-.15-1.05c.18-1.28,1.38-1.75,4-1.75,1.69,0,2.13.38,1.82,1.34l-.31,1a5.25,5.25,0,0,1,4.76-2.45c2.36,0,3.22,1,2.95,2.83a31,31,0,0,1-1.4,4.77,11.61,11.61,0,0,0-.39,1.57c0,.21.07.32.42.32a5.17,5.17,0,0,0,1-.11,1,1,0,0,1,.33,1c-.19,1.36-1.61,1.95-4.43,1.95-1.26,0-2.08-.56-1.9-1.81a11.21,11.21,0,0,1,.48-2c.2-.58,1.47-4.31,1.54-4.8s0-.9-1.06-.9a3.36,3.36,0,0,0-2.58,1.34l-2.12,7.85a7.06,7.06,0,0,1-2.1.24" transform="translate(-30.28 -120.8)"/><path class="cls-3" d="M205.12,224.64c-1.11,0-1.8-.47-1.63-1.69a4,4,0,0,1,.12-.46,4.41,4.41,0,0,1-4,2.12c-2.71,0-4.11-1.19-3.64-4.54.7-5,3.78-7.66,7.13-7.66a3.76,3.76,0,0,1,2.45.56l1.12-4.05c.49-1.83,1.17-2.27,2.62-2.27a3.22,3.22,0,0,1,2,.59l-3.39,12.16a14.21,14.21,0,0,0-.44,1.89c0,.29,0,.5.45.5a5.29,5.29,0,0,0,1.06-.12,1,1,0,0,1,.3,1c-.18,1.34-1.76,2-4.17,2m-1.43-9.52c-1.78,0-3.15,1.51-3.56,4.39-.26,1.81.34,2.3,1.45,2.3a2.48,2.48,0,0,0,1.72-.67l1.58-5.82a2.64,2.64,0,0,0-1.19-.2" transform="translate(-30.28 -120.8)"/><path class="cls-3" d="M212.67,224.61c-1.31,0-2-.53-1.87-1.78a15,15,0,0,1,.45-2l3.25-11.9c.52-1.83,1.19-2.27,2.65-2.27a3.25,3.25,0,0,1,2,.58l-3.44,12.66c-.28,1-.42,1.34-.46,1.57s.08.33.46.33a5.8,5.8,0,0,0,1.06-.12,1.11,1.11,0,0,1,.3,1c-.19,1.36-1.58,2-4.41,2" transform="translate(-30.28 -120.8)"/><path class="cls-3" d="M226,224.78c-3.24,3.18-5.78,5-8.49,5a2,2,0,0,1-2.24-2,1.87,1.87,0,0,1,.36-.93c2,0,4.23-1.08,5-2.36v-9.78h-.89a2.13,2.13,0,0,1-.14-1.26c.19-1.34.77-1.53,3.16-1.53,1.45,0,1.77.38,1.79,1.71v7.78c.24-.25.46-.51.68-.79a15.89,15.89,0,0,0,2.65-5.8,10.86,10.86,0,0,0,.32-2.47,1.2,1.2,0,0,1,.27-.16,3.15,3.15,0,0,1,1.45-.3c1.71,0,2.47.71,2.25,2.28-.39,2.76-2.26,6.8-6.15,10.63" transform="translate(-30.28 -120.8)"/><path class="cls-3" d="M243.36,214.33a4.93,4.93,0,0,1,4.38-2c2.36,0,3.21,1,2.95,2.83a31,31,0,0,1-1.4,4.77,11.61,11.61,0,0,0-.39,1.57c0,.21.07.32.42.32a5.17,5.17,0,0,0,1-.11,1,1,0,0,1,.33,1c-.19,1.36-1.61,1.95-4.44,1.95-1.25,0-2.07-.56-1.9-1.81a13.29,13.29,0,0,1,.48-2c.21-.58,1.48-4.31,1.55-4.8s0-.9-1.07-.9a3.37,3.37,0,0,0-2.57,1.34l-2.12,7.85a7.06,7.06,0,0,1-2.1.24c-1.28,0-1.79-.53-1.63-1.63a12.94,12.94,0,0,1,.41-1.66l3.37-12.4c.49-1.83,1.16-2.27,2.61-2.27a3.35,3.35,0,0,1,2,.58Z" transform="translate(-30.28 -120.8)"/><path class="cls-3" d="M256.75,224.67c-3.32,0-5.3-1.46-4.78-5.16a7.85,7.85,0,0,1,8.14-7.18c4.22,0,5.41,2.09,5,5.2-.61,4.4-3.68,7.14-8.33,7.14m2.73-9.52c-1.77,0-3,1.8-3.35,4.22-.25,1.74.13,2.53,1.56,2.53,1.6,0,3-1.54,3.41-4.19.25-1.72-.1-2.56-1.62-2.56" transform="translate(-30.28 -120.8)"/><path class="cls-3" d="M275.17,216.34c.19-.67,0-1.16-.85-1.16a3.36,3.36,0,0,0-2.57,1.34l-2.13,7.85a7,7,0,0,1-2.1.24c-1.25,0-1.81-.53-1.66-1.63a14.26,14.26,0,0,1,.44-1.66l1.7-6.11-1.35,0a1.55,1.55,0,0,1-.13-1.05c.17-1.28,1.37-1.75,4-1.75,1.69,0,2.13.38,1.82,1.34l-.32,1a5.27,5.27,0,0,1,4.77-2.44c2.13,0,2.95.81,2.91,2.29a5.1,5.1,0,0,1,4.54-2.29c2.25,0,3.1.95,2.84,2.82a34.72,34.72,0,0,1-1.4,4.77,9.58,9.58,0,0,0-.4,1.58c0,.19.07.31.43.31a4.59,4.59,0,0,0,1-.12,1.08,1.08,0,0,1,.33,1c-.2,1.39-1.64,1.95-4.47,1.95-1.42,0-2-.65-1.86-1.9a11.11,11.11,0,0,1,.47-1.89c.15-.46,1.49-4.36,1.56-4.86s-.26-.84-1-.84a3.32,3.32,0,0,0-2.46,1.34l-2.15,7.82a7,7,0,0,1-2.1.27c-1.25,0-1.82-.53-1.66-1.63a13.8,13.8,0,0,1,.4-1.66Z" transform="translate(-30.28 -120.8)"/><path class="cls-3" d="M294.22,219.54a6.66,6.66,0,0,1-1.61-.14c-.2,1.83.93,2.33,2.21,2.33a8.52,8.52,0,0,0,3.45-.79,1.25,1.25,0,0,1,.65,1.43c-.19,1.3-2,2.3-5.54,2.3-3.25,0-5.53-1.22-5-5,.63-4.51,3.5-7.33,7.9-7.33,2.76,0,4.2,1.39,3.92,3.4-.35,2.47-2.16,3.78-6,3.78m1.47-4.48a3,3,0,0,0-2.61,2.42,9.14,9.14,0,0,0,1.33.08c1.46,0,2.18-.61,2.3-1.45.07-.52-.08-1.05-1-1.05" transform="translate(-30.28 -120.8)"/><path class="cls-3" d="M181,192.92H165.28l-11.95-19.71h-.4v19.71H140.54V141.67h18.93c9.62,0,16.92,4.82,16.92,15.77,0,7.07-3.75,13.18-10.66,14.48Zm-24-41.21h-4.11v12.72h4.13a6.36,6.36,0,1,0,0-12.72" transform="translate(-30.28 -120.8)"/><path class="cls-3" d="M317,162.4h.13a12.05,12.05,0,0,1,10.46-5.51c4.79,0,8.92,2,11.31,6.66a12.54,12.54,0,0,1,11.24-6.66c8.4,0,11.31,5.78,11.31,13.81v22.22H349.66V176.27c0-3.6.13-9.52-4.85-9.52-5.42,0-5.62,5.37-5.62,9.52v16.65H327.43V176.27c0-3.88,0-9.79-5.23-9.79s-5.23,5.91-5.23,9.79v16.65H305.21V158.05H317Z" transform="translate(-30.28 -120.8)"/><polygon class="cls-3" points="389.99 54.29 396.49 37.25 403.96 37.25 411.11 54.38 418 37.25 429.38 37.25 416.09 72.12 407.53 72.12 400.34 54.87 393.16 72.12 384.59 72.12 371.31 37.25 383.19 37.25 389.99 54.29"/><path class="cls-3" d="M384.08,157.22a18.44,18.44,0,1,0,18.44,18.44,18.44,18.44,0,0,0-18.44-18.44m0,25.31a6.87,6.87,0,1,1,6.88-6.87,6.86,6.86,0,0,1-6.88,6.87" transform="translate(-30.28 -120.8)"/><path class="cls-3" d="M282.94,157.22a18.44,18.44,0,1,0,18.44,18.44,18.45,18.45,0,0,0-18.44-18.44m0,25.31a6.87,6.87,0,1,1,6.87-6.87,6.86,6.86,0,0,1-6.87,6.87" transform="translate(-30.28 -120.8)"/><path class="cls-3" d="M198.06,157.22a18.44,18.44,0,1,0,18.44,18.44,18.45,18.45,0,0,0-18.44-18.44m0,25.31a6.87,6.87,0,1,1,6.87-6.87,6.87,6.87,0,0,1-6.87,6.87" transform="translate(-30.28 -120.8)"/><path class="cls-3" d="M244.25,157.23a14.3,14.3,0,0,0-10.78,4.54v-20.1H221.13v51.5h12.34V189.3h.14c2.23,3.46,6.44,5,10.51,5,10.37,0,16.26-10.35,16.26-18.58,0-8.46-5.82-18.51-16.13-18.51m-3.18,25.3a6.87,6.87,0,1,1,6.87-6.87,6.87,6.87,0,0,1-6.87,6.87" transform="translate(-30.28 -120.8)"/><path class="cls-3" d="M468.44,157.54a6.28,6.28,0,1,0,6.28,6.28,6.28,6.28,0,0,0-6.28-6.28m1.29,9.43L468,164.41h-.16V167h-1.24V160.6h1.84a2.63,2.63,0,0,1,1.63.46,1.85,1.85,0,0,1,.62,1.43,1.68,1.68,0,0,1-1.45,1.8l2,2.68Zm-.29-4.4c0,.63-.43,1-1.23,1h-.35v-1.92h.37c.8,0,1.21.33,1.21,1" transform="translate(-30.28 -120.8)"/></g></svg>