<?xml version="1.0" encoding="utf-8"?>
<!-- Generator: Adobe Illustrator 23.1.1, SVG Export Plug-In . SVG Version: 6.00 Build 0)  -->
<svg version="1.1" id="Layer_1" xmlns="http://www.w3.org/2000/svg" xmlns:xlink="http://www.w3.org/1999/xlink" x="0px" y="0px"
	 viewBox="0 0 533.4 190.7" style="enable-background:new 0 0 533.4 190.7;" xml:space="preserve">
<style type="text/css">
	.st0{fill:#ED1B2E;}
	.st1{fill:#FFFFFF;}
</style>
<title>Rover Logo RED TM</title>
<g>
	<polygon class="st0" points="0.2,41.8 0.2,150.6 249.4,190.6 501.7,149.8 501.7,40.2 249.4,0.2 	"/>
	<path class="st0" d="M249.4,190.7L249.4,190.7L0,150.7V41.6l0.1,0L249.3,0l0,0l252.5,40v109.9l-0.1,0L249.4,190.7z M0.3,150.4
		l249.1,40l252.2-40.8V40.3l-252.2-40L0.3,41.9V150.4z"/>
</g>
<g>
	<path class="st1" d="M133.4,116.3v17.7h-20.6c-11,0.2-11.4-8.2-11.4-10.4v-9.2c0-5.7-0.6-10.6-7.3-10.6h-6.5v13.7h7V134H55.3v-16.6
		h7.4V73.1h-7.4v-16h46.3c17.1,0,27.4,6.2,27.4,21.1c0,6.4-3.9,16.8-12.1,19.3v0.2c7,3,7.9,5.1,8.1,10
		C125.2,109.9,123.9,116.3,133.4,116.3z M87.8,89.7h6.3c4.9,0,8.2-4.8,8.2-9.2c0-5.1-3.2-7.4-8.2-7.4h-6.3V89.7z"/>
</g>
<g>
	<path class="st1" d="M162.2,95.1c0,11.6,0.9,22,10,22s10.1-10.4,10.1-22s-0.9-22-10.1-22S162.2,83.6,162.2,95.1z M133.7,95.1
		c0.1-23.6,17.2-39.8,38.7-39.8s38.8,16.2,38.8,39.8s-17.2,39.8-38.8,39.8S133.8,118.6,133.7,95.1L133.7,95.1z"/>
</g>
<g>
	<path class="st1" d="M300.7,134.2v-16.8h7V73.4h-7V57.1h57.8v29.7h-11.6l-3.5-13.5h-10.7V86h10.6v16h-10.6v15.4h10.6l5.5-17.2h10.7
		v34L300.7,134.2z"/>
</g>
<g>
	<path class="st1" d="M443,116.3v17.7h-20.6c-11,0.2-11.4-8.2-11.4-10.4v-9.2c0-5.7-0.6-10.6-7.3-10.6h-6.5v13.7h7V134h-39.2v-16.6
		h7.4V73.1h-7.4v-16h46.3c17.1,0,27.4,6.2,27.4,21.1c0,6.4-3.9,16.8-12.1,19.3v0.2c7,3,7.9,5.1,8.1,10
		C434.8,109.9,433.5,116.3,443,116.3z M397.4,89.7h6.3c4.9,0,8.2-4.8,8.2-9.2c0-5.1-3.2-7.4-8.2-7.4h-6.3V89.7z"/>
</g>
<g>
	<polygon class="st1" points="191.2,27.7 250.5,170.6 310.6,27.7 250.6,95.8 	"/>
</g>
<g>
	<path class="st1" d="M249.4,182.6l-0.5-0.1L7,144.1v-97L249.4,7.1l0.5,0.1l244.2,38.4v97.7L249.4,182.6z M13.6,138.5l235.8,37.5
		l238.1-38.2V51.2L249.4,13.8l-235.9,39V138.5z"/>
</g>
<g>
	<path class="st0" d="M517.8,40.2V42h-4.1v11.7h-2V42h-4.1v-1.7H517.8z M530.8,53.7l-0.5-8.1c-0.1-1,0-2.3,0-3.7h-0.1
		c-0.3,1.2-0.7,2.7-1.2,3.8l-2.8,7.8h-1.6l-2.7-8c-0.3-1.1-0.7-2.4-1-3.7h-0.1c0,1.3,0,2.4-0.1,3.7l-0.5,8.1h-2l1-13.5h2.7l2.6,7.3
		c0.3,1,0.6,2.1,1,3.4h0.1c0.3-1.3,0.6-2.4,1-3.4l2.6-7.3h2.6l1,13.5L530.8,53.7z"/>
	<path class="st0" d="M530.3,54.2l-0.6-8.6c0-0.1,0-0.3,0-0.4c-0.1,0.3-0.2,0.5-0.3,0.8l-2.9,8.1h-2.3l-2.9-8.3
		c-0.1-0.2-0.1-0.4-0.2-0.5c0,0.1,0,0.3,0,0.4l-0.5,8.6h-3l1.1-14.5h3.5l2.7,7.6c0.2,0.5,0.4,1.1,0.5,1.7c0.2-0.6,0.4-1.2,0.6-1.7
		l2.8-7.6h3.5l1.1,14.5L530.3,54.2z M529.7,41.5h0.9l0.1,0.5c0,0.4,0,0.9,0,1.3c0,0.8,0,1.6,0,2.3l0.5,7.6l1,0l-0.9-12.5h-1.8
		l-2.5,7c-0.4,1-0.7,2.2-1,3.4l-0.1,0.4h-0.8L525,51l-0.2-0.7c-0.2-1-0.5-1.9-0.8-2.6l-2.5-7h-1.9l-0.9,12.5h1l0.5-7.7
		c0.1-1.2,0.1-2.3,0.1-3.6v-0.5h0.9l0.2,0.4l0.2,0.8c0.3,1,0.5,2,0.8,2.8L525,53h0.9l2.7-7.4c0.4-1,0.8-2.4,1.1-3.8L529.7,41.5z
		 M514.1,54.2h-3V42.5H507v-2.7h11.2v2.7h-4.1V54.2z M512.1,53.2h1V41.5h4.1v-0.7H508v0.7h4.1V53.2z"/>
</g>
</svg>
