<?xml version="1.0" encoding="utf-8"?>
<!-- Generator: Adobe Illustrator 24.0.1, SVG Export Plug-In . SVG Version: 6.00 Build 0)  -->
<svg version="1.1" id="Layer_1" xmlns="http://www.w3.org/2000/svg" xmlns:xlink="http://www.w3.org/1999/xlink" x="0px" y="0px"
	 viewBox="0 0 389.2 56.1" style="enable-background:new 0 0 389.2 56.1;" xml:space="preserve">
<style type="text/css">
	.st0{fill-rule:evenodd;clip-rule:evenodd;fill:#D3D3D3;}
</style>
<title>TBLogo_Grey</title>
<path class="st0" d="M23,48.2c0,0-3,0.6-4.9-2.9L9,31.5L7.4,34c0,0-2-2.3,0.1-5.7l7.7-15.2h-2.9c0,0,0.9-2.9,4.9-2.9h17l-1.4-2.6
	c0,0,3-0.6,4.9,2.9l9.6,14.6l1.8-2.6c0,0,2,2.3-0.1,5.7L40.1,44h11.1C60,31.1,56.8,13.6,44,4.8S13.6-0.8,4.8,12S-0.8,42.4,12,51.2
	c12.1,8.4,28.7,6,37.9-5.5H21.6L23,48.2"/>
<polyline class="st0" points="125.5,49.5 142,49.5 139.7,45.6 123,45.6 125.5,49.5 "/>
<polyline class="st0" points="94.1,49.9 111.2,49.9 112.2,45.6 95.1,45.6 94.1,49.9 "/>
<path class="st0" d="M239.8,49.9h34.3c3.7,0.1,7.2-1.4,9.5-4.3h-42.9L239.8,49.9"/>
<polyline class="st0" points="313.6,8 296.1,8 287.8,43.9 305.3,43.9 313.6,8 "/>
<polyline class="st0" points="286.4,49.9 303.9,49.9 304.9,45.6 287.4,45.6 286.4,49.9 "/>
<polyline class="st0" points="341.2,37.8 327.3,37.8 334.2,8 316.8,8 308.5,43.9 339.8,43.9 341.2,37.8 "/>
<polyline class="st0" points="307.1,49.9 338.4,49.9 339.4,45.6 308.1,45.6 307.1,49.9 "/>
<polyline class="st0" points="90.6,18 99.6,18 101.9,8 64.8,8 62.5,18 72.8,18 66.8,43.9 84.6,43.9 90.6,18 "/>
<polyline class="st0" points="65.4,49.9 83.2,49.9 84.2,45.6 66.4,45.6 65.4,49.9 "/>
<polyline class="st0" points="374.7,19.5 377.3,8 341.1,8 338.6,19.5 348,19.5 342.2,43.9 360.1,43.9 365.8,19.5 374.7,19.5 "/>
<polyline class="st0" points="340.8,49.9 358.7,49.9 359.7,45.6 341.8,45.6 340.8,49.9 "/>
<polyline class="st0" points="184.4,49.9 203.1,49.9 206.9,45.6 188.2,45.6 184.4,49.9 "/>
<polyline class="st0" points="240.8,7.8 221,7.8 206.9,23.5 204.5,7.8 190.2,7.8 194.4,38.6 189.6,43.9 208.4,43.9 240.8,7.8 "/>
<path class="st0" d="M152.7,49.9h21.2c0,0,4.6,0.7,8.6-4.3H144C145.5,47.9,148,49.9,152.7,49.9"/>
<polyline class="st0" points="223,34.5 240.4,34.5 242.4,26 230.4,26 223,34.5 "/>
<path class="st0" d="M264.7,19.3l-1.2,5.2h6.8c0,0,3.4,0.1,3.4-2.6c0,0,0.4-2.6-3.1-2.6H264.7z M270.7,35.6c0,0,0.4-2.6-3.1-2.6
	h-5.9l-1.2,5.2h6.8C267.3,38.2,270.7,38.3,270.7,35.6L270.7,35.6z M286,41.2c-0.3,1-0.7,1.9-1.2,2.8h-43.6l8.3-36h32.7
	c0,0,10.5-0.4,9.7,11.3c0,0-1,9.9-11.3,9.9C280.7,29.2,288.4,30.6,286,41.2"/>
<path class="st0" d="M118.6,17.9l-1.5,6.5h8.2c0,0,3.6,0,3.9-3.2c0,0,0.9-3.3-3.6-3.3H118.6z M115,33.4l-2.4,10.5h-17L103.9,8h31.6
	c0,0,9.3-1.1,9.5,7.7c0,0-0.4,11.5-4.4,14.3c0,0-2.2,2.4-8.9,2.2l7,11.7h-16.8L115,33.4"/>
<path class="st0" d="M382.6,12.4h1.1c0.8,0,1.5-0.1,1.5-1c0-0.8-0.7-0.9-1.4-0.9h-1.3L382.6,12.4L382.6,12.4z M382.6,13.2h1.1
	l1.6,2.7h1l-1.8-2.7c0.9,0,1.6-0.7,1.6-1.6v-0.1c0-1.2-0.7-1.8-2.2-1.8h-2.4v6.2h1L382.6,13.2L382.6,13.2z M379.4,12.8
	c0.1,2.4,2.1,4.3,4.5,4.2s4.3-2.1,4.2-4.5c-0.1-2.4-2-4.2-4.4-4.2s-4.4,1.9-4.4,4.3C379.4,12.7,379.4,12.7,379.4,12.8z M383.8,18.2
	c-3,0-5.4-2.5-5.4-5.4c0-3,2.5-5.4,5.4-5.4c3,0,5.4,2.4,5.4,5.4C389.3,15.8,386.8,18.2,383.8,18.2L383.8,18.2"/>
<path class="st0" d="M169.9,19.7h-3.6c-1.4,0.1-2.6,1-3,2.4L160,35.8c-0.3,0.9,0.2,2,1.1,2.3c0.2,0.1,0.4,0.1,0.7,0.1h3.6
	c1.4-0.1,2.6-1,3-2.4l3.4-13.7c0.3-0.9-0.2-2-1.1-2.3C170.4,19.8,170.2,19.7,169.9,19.7L169.9,19.7z M184.4,42.6
	c-0.2,0.5-0.5,1-0.8,1.4h-40.5c-0.6-1.5-1-3.1-1-4.8c1-8.1,3-16,6-23.6c1.8-4.5,6.1-7.5,10.9-7.7h18.9c11.1,0.4,12,8.4,12,8.4
	C191.6,28.7,184.4,42.6,184.4,42.6"/>
</svg>
