<svg id="Layer_1" data-name="Layer 1" xmlns="http://www.w3.org/2000/svg" viewBox="0 0 389.24 56.13"><defs><style>.cls-1{fill:#e31837;fill-rule:evenodd;}</style></defs><title>TBLogo_Red</title><path class="cls-1" d="M134,403.2s-3,.57-4.89-2.93L120,386.5,118.45,389s-2-2.31.08-5.69l7.7-15.18h-2.91s.93-2.91,4.9-2.91h17l-1.37-2.57s3-.56,4.87,2.94l9.57,14.61,1.8-2.61s2,2.32-.11,5.69l-8.89,15.68h11.1a28.17,28.17,0,1,0-1.26,1.69H132.57L134,403.2" transform="translate(-111 -355)"/><polyline class="cls-1" points="125.5 49.49 141.97 49.49 139.66 45.63 122.99 45.63 125.5 49.49"/><polyline class="cls-1" points="94.14 49.89 111.21 49.89 112.2 45.63 95.13 45.63 94.14 49.89"/><path class="cls-1" d="M350.8,404.89h34.33a11.73,11.73,0,0,0,9.5-4.26H351.78l-1,4.26" transform="translate(-111 -355)"/><polyline class="cls-1" points="313.62 8.02 296.15 8.02 287.81 43.94 305.27 43.94 313.62 8.02"/><polyline class="cls-1" points="286.43 49.89 303.89 49.89 304.88 45.63 287.42 45.63 286.43 49.89"/><polyline class="cls-1" points="341.23 37.79 327.34 37.79 334.25 8.02 316.79 8.02 308.45 43.94 339.81 43.94 341.23 37.79"/><polyline class="cls-1" points="307.06 49.89 338.42 49.89 339.41 45.63 308.06 45.63 307.06 49.89"/><polyline class="cls-1" points="90.64 17.96 99.57 17.96 101.88 8.02 64.77 8.02 62.47 17.96 72.78 17.96 66.75 43.94 84.61 43.94 90.64 17.96"/><polyline class="cls-1" points="65.37 49.89 83.23 49.89 84.22 45.63 66.36 45.63 65.37 49.89"/><polyline class="cls-1" points="374.74 19.55 377.31 8.02 341.13 8.02 338.56 19.55 347.95 19.55 342.2 43.94 360.06 43.94 365.81 19.55 374.74 19.55"/><polyline class="cls-1" points="340.8 49.89 358.66 49.89 359.66 45.63 341.81 45.63 340.8 49.89"/><polyline class="cls-1" points="184.43 49.89 203.09 49.89 206.9 45.63 188.17 45.63 184.43 49.89"/><polyline class="cls-1" points="240.79 7.82 221.01 7.82 206.85 23.5 204.46 7.82 190.19 7.82 194.35 38.58 189.65 43.94 208.42 43.94 240.79 7.82"/><path class="cls-1" d="M263.68,404.89h21.23s4.63.72,8.58-4.26H255c1.46,2.27,4,4.26,8.66,4.26" transform="translate(-111 -355)"/><polyline class="cls-1" points="223.03 34.51 240.39 34.53 242.37 25.98 230.37 25.98 223.03 34.51"/><path class="cls-1" d="M375.7,374.33l-1.19,5.16h6.75s3.37.1,3.37-2.58c0,0,.4-2.58-3.08-2.58Zm5.95,16.27s.4-2.58-3.07-2.58h-5.86l-1.19,5.16h6.75s3.37.1,3.37-2.58ZM397,396.16a11.81,11.81,0,0,1-1.21,2.78H352.18L360.52,363h32.74s10.52-.4,9.73,11.31c0,0-1,9.92-11.32,9.92,0,0,7.75,1.39,5.36,11.91" transform="translate(-111 -355)"/><path class="cls-1" d="M229.63,372.93l-1.51,6.51h8.18s3.57-.05,3.87-3.22c0,0,.89-3.29-3.58-3.29ZM226,388.39l-2.45,10.55H206.52L214.87,363h31.55s9.32-1.09,9.52,7.74c0,0-.39,11.51-4.36,14.29,0,0-2.18,2.38-8.93,2.18l7,11.71H232.89L226,388.39" transform="translate(-111 -355)"/><path class="cls-1" d="M493.65,367.44h1.12c.8,0,1.51-.06,1.51-1,0-.78-.7-.92-1.35-.92h-1.28v1.94Zm0,.79h1.08l1.64,2.7h1.05l-1.77-2.74a1.62,1.62,0,0,0,1.61-1.71c0-1.23-.72-1.77-2.19-1.77H492.7v6.22h.95v-2.7Zm-3.25-.43a4.38,4.38,0,1,0,4.39-4.51,4.36,4.36,0,0,0-4.39,4.51Zm4.39,5.41a5.41,5.41,0,1,1,5.45-5.41,5.39,5.39,0,0,1-5.45,5.41" transform="translate(-111 -355)"/><path class="cls-1" d="M280.85,374.73h-3.57a3.25,3.25,0,0,0-3,2.38L271,390.8a1.81,1.81,0,0,0,1.8,2.38h3.58a3.25,3.25,0,0,0,3-2.38l3.35-13.69a1.81,1.81,0,0,0-1.8-2.38Zm14.58,22.82c-.25.49-.5,1-.76,1.39H254.14a13.16,13.16,0,0,1-1-4.77,98.6,98.6,0,0,1,6-23.61A12.54,12.54,0,0,1,270,362.82h18.85c11.12.4,12,8.44,12,8.44,1.78,12.4-5.46,26.29-5.46,26.29" transform="translate(-111 -355)"/></svg>