<?xml version="1.0" encoding="utf-8"?>
<!-- Generator: Adobe Illustrator 23.1.1, SVG Export Plug-In . SVG Version: 6.00 Build 0)  -->
<svg version="1.1" id="Ebene_1" xmlns="http://www.w3.org/2000/svg" xmlns:xlink="http://www.w3.org/1999/xlink" x="0px" y="0px"
	 viewBox="0 0 371.39 143.15" style="enable-background:new 0 0 371.39 143.15;" xml:space="preserve">
<style type="text/css">
	.st0{fill:#E3000F;}
	.st1{fill:#FFED00;}
</style>
<rect x="0.16" y="0.36" class="st0" width="371.5" height="142.75"/>
<g>
	<g>
		<path class="st1" d="M52.79,95.07h-5.86l-4.54-18.25h-0.08l-4.47,18.25h-5.97l-7.1-26.82h5.9l4.24,18.25h0.08l4.66-18.25h5.52
			l4.58,18.48h0.08l4.39-18.48H60L52.79,95.07z"/>
		<path class="st1" d="M75.1,67.62c8.3,0,13.18,6.2,13.18,14.16c0,7.74-4.88,13.93-13.18,13.93c-8.3,0-13.18-6.2-13.18-13.93
			C61.92,73.81,66.8,67.62,75.1,67.62z M75.1,90.75c5.3,0,7.29-4.51,7.29-8.98c0-4.69-1.99-9.2-7.29-9.2c-5.3,0-7.29,4.51-7.29,9.2
			C67.82,86.25,69.81,90.75,75.1,90.75z"/>
		<path class="st1" d="M92.68,68.26h5.9v21.86h13.07v4.96H92.68V68.26z"/>
		<path class="st1" d="M115.33,68.26h18.85v4.96h-12.96v6.2h11.73v4.58h-11.73v11.08h-5.9V68.26z"/>
	</g>
	<g>
		<g>
			<path class="st1" d="M252.76,92.06c-2.01,2.65-4.64,3.65-7.16,3.65c-8.07,0-12.82-6.15-12.82-13.83c0-7.9,4.75-14.05,12.82-14.05
				c5.33,0,10.38,3.35,11,9.39h-5.48c-0.66-2.94-2.81-4.47-5.52-4.47c-5.15,0-7.09,4.47-7.09,9.13c0,4.44,1.94,8.91,7.09,8.91
				c3.73,0,5.88-2.05,6.21-5.74h-5.77v-4.36H257v14.39h-3.65L252.76,92.06z"/>
			<path class="st1" d="M260,81.73c0.29-4.96,4.64-6.45,8.88-6.45c3.76,0,8.29,0.86,8.29,5.48v10.03c0,1.75,0.18,3.5,0.66,4.29
				h-5.26c-0.18-0.6-0.33-1.23-0.37-1.86c-1.64,1.75-4.05,2.39-6.36,2.39c-3.58,0-6.43-1.83-6.43-5.78c0-4.36,3.22-5.41,6.43-5.85
				c3.18-0.48,6.14-0.37,6.14-2.54c0-2.27-1.53-2.61-3.36-2.61c-1.97,0-3.25,0.82-3.43,2.91H260z M271.98,85.65
				c-0.88,0.78-2.7,0.82-4.31,1.12c-1.61,0.34-3.07,0.89-3.07,2.83c0,1.98,1.5,2.46,3.18,2.46c4.05,0,4.2-3.28,4.2-4.44V85.65z"/>
			<path class="st1" d="M300.22,75.81h3.8v3.54h-3.8v9.54c0,1.79,0.44,2.24,2.19,2.24c0.55,0,1.06-0.04,1.61-0.15v4.14
				c-0.88,0.15-2.01,0.19-3.03,0.19c-3.18,0-5.95-0.75-5.95-4.59V79.35h-3.14v-3.54h3.14v-5.78h5.19V75.81z"/>
			<path class="st1" d="M309.9,86.73c0.15,3.36,1.75,4.88,4.64,4.88c2.08,0,3.76-1.3,4.09-2.5h4.57c-1.46,4.55-4.57,6.49-8.84,6.49
				c-5.95,0-9.64-4.17-9.64-10.14c0-5.78,3.91-10.18,9.64-10.18c6.43,0,9.54,5.52,9.17,11.44H309.9z M318.34,83.37
				c-0.47-2.68-1.61-4.1-4.13-4.1c-3.29,0-4.24,2.61-4.31,4.1H318.34z"/>
			<path class="st1" d="M325.72,75.81h4.93v2.68h0.11c1.31-2.16,3.58-3.21,5.77-3.21c5.52,0,6.9,3.17,6.9,7.94v11.85h-5.19V84.19
				c0-3.17-0.91-4.73-3.32-4.73c-2.81,0-4.02,1.6-4.02,5.52v10.1h-5.19V75.81z"/>
		</g>
		<path class="st1" d="M290.32,75.37c-2.16,0.38-4.19,1.91-5.01,4.01h-0.07v-3.58h-4.93v19.27h5.19v-8.69c0-3.3,1.25-6.03,4.83-6.17
			V75.37z"/>
	</g>
	<g>
		<path class="st1" d="M184.48,104.39c1.54,0,2.25,0.95,3.33,0.88c1.81-0.12,2.94-1.71,4.26-5.45c0.97-2.75,1.6-4.36,2.39-8.31
			c0.04-0.25-0.12-0.79-0.12-0.79l0.04-0.03c0,0,0.22,0.34,0.49,0.66c0.01,0.01,3.13,3.9,3.13,3.9l0.97-4.83
			c0.01-0.39-0.13-0.69-0.13-0.69l0.03-0.04c0,0,0.23,0.43,0.49,0.58c0,0,0.01,0,0.01,0l4.47,2.6l-0.8-5.2
			c-0.09-0.3-0.41-0.67-0.41-0.67l0.02-0.04c0,0,0.39,0.3,0.66,0.41l5.06,1.63l-2.71-4.86c-0.01-0.02-0.03-0.04-0.04-0.06
			c-0.16-0.31-0.55-0.6-0.55-0.6l0.02-0.05c0,0,0.49,0.29,0.85,0.32l5.66,0.36l-4.58-4.51c-0.14-0.13-0.41-0.25-0.41-0.25l0.01-0.05
			c0,0,0.36,0.13,0.64,0.12l5.64-1.03l-5.04-3.12c-0.18-0.12-0.53-0.2-0.53-0.2l0-0.05c0,0,0.52,0.02,0.8-0.04l4.97-2.06l-5.25-2.1
			c-0.21-0.08-0.51-0.09-0.51-0.09l-0.01-0.05c0,0,0.5-0.08,0.77-0.2c0,0,0.01,0,0.01-0.01l3.43-2.93l-4.78-0.76
			c-0.23-0.05-0.58,0.04-0.58,0.04l-0.02-0.04c0,0,0.32-0.01,0.5-0.41c6.07-18.24-2.82-24.69-2.82-24.69
			c-9.38,6.14-12.65,13.63-12.65,13.63s-3.51-1.22-6.7-1.22c-3.19,0-6.7,1.22-6.7,1.22s-3.28-7.48-12.65-13.63
			c0,0-8.89,6.45-2.82,24.69c0.18,0.4,0.5,0.41,0.5,0.41l-0.02,0.04c0,0-0.34-0.08-0.58-0.04l-4.78,0.76l3.43,2.93
			c0,0,0.01,0,0.01,0.01c0.27,0.13,0.77,0.2,0.77,0.2l-0.01,0.05c0,0-0.3,0.01-0.51,0.09l-5.25,2.1l4.97,2.06
			c0.28,0.06,0.8,0.04,0.8,0.04l0,0.05c0,0-0.35,0.09-0.53,0.2l-5.04,3.12l5.64,1.03c0.28,0,0.64-0.12,0.64-0.12l0.01,0.05
			c0,0-0.27,0.13-0.41,0.25l-4.58,4.51l5.66-0.36c0.36-0.02,0.85-0.32,0.85-0.32l0.02,0.05c0,0-0.39,0.3-0.55,0.6
			c-0.01,0.02-0.03,0.04-0.04,0.06l-2.71,4.86l5.06-1.63c0.27-0.11,0.66-0.41,0.66-0.41l0.02,0.04c0,0-0.32,0.37-0.41,0.67l-0.8,5.2
			l4.47-2.6c0,0,0,0,0,0c0.26-0.15,0.49-0.58,0.49-0.58l0.03,0.04c0,0-0.15,0.31-0.13,0.69l0.97,4.83c0,0,3.12-3.89,3.13-3.9
			c0.27-0.32,0.5-0.66,0.5-0.66l0.04,0.03c0,0-0.16,0.54-0.12,0.79c0.78,3.96,1.41,5.56,2.39,8.31c1.32,3.74,2.45,5.33,4.26,5.45
			C182.24,105.34,182.94,104.39,184.48,104.39z M177.56,76.32c-1.1-0.26-2.54,0.44-3.7-0.77c-1.37-1.43-0.56-3.27-2.9-4.1
			c0,0,3.53-1.47,6.19,0.52c3.01,2.24,3.14,7.72,3.14,7.72S179.26,76.72,177.56,76.32z M187.8,97.82c-0.78,1.89-1.22,3.06-1.65,4.09
			c-0.17,0.41-0.89,0.52-1.67,0.52c-0.78,0-1.5-0.11-1.67-0.52c-0.44-1.03-0.88-2.2-1.65-4.09c-0.32-0.77-0.21-0.97,0.47-1.28
			c0.83-0.37,1.72-0.64,2.85-0.64c1.13,0,2.02,0.27,2.85,0.64C188.01,96.85,188.12,97.04,187.8,97.82z M195.1,75.55
			c-1.16,1.2-2.6,0.51-3.7,0.77c-1.7,0.4-2.74,3.36-2.74,3.36s0.14-5.47,3.14-7.72c2.66-1.99,6.19-0.52,6.19-0.52
			C195.67,72.28,196.47,74.12,195.1,75.55z"/>
		<path class="st1" d="M184.48,31.31c22.2,0,40.26,18.06,40.26,40.26s-18.06,40.26-40.26,40.26c-22.2,0-40.26-18.06-40.26-40.26
			S162.28,31.31,184.48,31.31 M184.48,26.31c-25,0-45.26,20.27-45.26,45.26s20.27,45.26,45.26,45.26c25,0,45.26-20.27,45.26-45.26
			S209.48,26.31,184.48,26.31L184.48,26.31z"/>
	</g>
	<g>
		<path class="st1" d="M349.4,64.94c2.77,0,5.22,1.99,5.22,5.06c0,3.1-2.45,5.11-5.22,5.11c-2.75,0-5.22-2.01-5.22-5.11
			C344.18,66.93,346.65,64.94,349.4,64.94z M349.4,74.02c2.12,0,3.84-1.69,3.84-4.02c0-2.31-1.71-3.97-3.84-3.97
			c-2.12,0-3.83,1.66-3.83,3.97C345.57,72.34,347.28,74.02,349.4,74.02z M347.39,67.14h2.15c1.41,0,2.23,0.46,2.23,1.69
			c0,1.06-0.65,1.47-1.49,1.52l1.52,2.5h-1.2l-1.39-2.45h-0.71v2.45h-1.11V67.14z M348.5,69.54h1.01c0.65,0,1.11-0.11,1.11-0.79
			c0-0.63-0.65-0.71-1.17-0.71h-0.95V69.54z"/>
	</g>
</g>
</svg>
