<svg xmlns="http://www.w3.org/2000/svg" xmlns:xlink="http://www.w3.org/1999/xlink" width="198" height="55" viewBox="0 0 198 55">
    <defs>
        <path id="a" d="M0 0h197.987v71H0z"/>
    </defs>
    <g fill="none" fill-rule="evenodd">
        <g>
            <mask id="b" fill="#fff">
                <use xlink:href="#a"/>
            </mask>
            <path fill="#C00" d="M0 54.518h197.987V0H0z" mask="url(#b)"/>
        </g>
        <path fill="#FFFFFE" d="M88.76 14.558c-6.758 0-12.236 5.48-12.236 12.242 0 6.76 5.478 12.243 12.236 12.243 3.856 0 7.294-1.788 9.537-4.579H85.93l.604 1.118s-1.309.249-2.132-1.275L80.436 28.3l-.663 1.081s-.87-1.008.034-2.483l3.357-6.62h-1.268s.404-1.27 2.134-1.27h7.419l-.599-1.122s1.31-.243 2.126 1.283l4.171 6.372.783-1.138s.867 1.012-.044 2.484l-3.878 6.838h4.84a12.182 12.182 0 0 0 2.148-6.925c0-6.761-5.48-12.242-12.236-12.242M130.149 34.465l1.092 1.684h7.182l-1.006-1.684h-7.268M117.57 36.323h7.441l.432-1.859h-7.44l-.432 1.859M120.945 18.057h-16.18l-1.006 4.335h4.5l-2.63 11.333h7.786l2.63-11.333h3.894l1.006-4.335M105.026 36.323h7.786l.432-1.859h-7.788l-.43 1.859M156.938 36.323h8.133l1.663-1.859h-8.167l-1.629 1.859M172.888 17.97l-6.173 6.838-1.045-6.838h-6.223l1.817 13.417-2.049 2.338h8.182l14.114-15.755h-8.623M143.095 36.323h9.258s2.017.312 3.738-1.859H139.32c.634.988 1.762 1.859 3.776 1.859M132.842 23.814c-.13 1.384-1.687 1.403-1.687 1.403h-3.566l.66-2.838h3.035c1.947 0 1.558 1.435 1.558 1.435zm1.082 4.804c2.942.086 3.893-.953 3.893-.953 1.73-1.212 1.904-6.233 1.904-6.233-.087-3.851-4.154-3.375-4.154-3.375h-13.756l-3.637 15.668h7.44l1.068-4.601 2.987 4.601h7.305l-3.05-5.107z"/>
        <path fill="#FFFFFE" d="M151.363 24.203l-1.459 5.974c-.14.57-.722 1.038-1.292 1.038h-1.558c-.571 0-.924-.469-.784-1.038l1.46-5.974c.139-.572.72-1.039 1.291-1.039h1.558c.571 0 .924.467.784 1.04zm7.954-2.554s-.389-3.506-5.234-3.679h-8.22s-3.287 0-4.758 3.376c0 0-1.99 4.848-2.596 10.3 0 0-.018 1.003.426 2.079h17.669c.114-.188.226-.39.334-.607 0 0 3.158-6.058 2.38-11.469zM62.648 25.6l1.463-7.53h-6.773l-3.653 15.648h7.112l.59-1.623 2.432-2.662.674 4.285h7.44L69.8 24.75l5.899-6.68h-6.534l-6.517 7.53M53.076 36.326h6.774l.68-1.871h-7.017l-.437 1.871M64.61 34.455l.293 1.871h7.651l-.445-1.871h-7.5M51.898 25.648c-1.304-.749-2.864-1.066-4.372-1.372l-.769-.162c-.804-.181-1.516-.394-1.398-1.003.174-.898 1.333-.995 1.822-.995 1.157 0 2.068.323 2.202 1.464h5.536c.073-2.761-1.62-4.3-1.62-4.3-1.179-1.06-2.93-1.645-5.092-1.645-1.513 0-3.716.246-5.625 1.417-1.692 1.056-2.967 2.864-3.328 4.721-.912 4.693 3.56 5.594 6.519 6.19l.115.023c.961.19 1.811.425 1.659 1.212-.16.819-1.42.94-2.158.94-1.554 0-2.624-.55-2.632-2.072h-5.844c-.078 1.43.225 2.47.225 2.47.118.423.276.817.473 1.182h14.633a6.7 6.7 0 0 0 1.568-3.182c.413-2.128-.284-3.908-1.914-4.888M44.264 36.86c2.59 0 5.34-.764 7.247-2.405H38.09c1.22 1.556 3.334 2.405 6.175 2.405M26.19 28.737l2.52-5.297.46 5.297h-2.98zm8.555-10.672h-8.919l-7.898 15.653h6.057l.5-.99h4.867l.094.99h7.162l-1.863-15.653zM16.615 36.32h6.055l.942-1.865h-6.056l-.941 1.866M29.515 34.455l.176 1.866h7.226l-.222-1.866h-7.18"/>
    </g>
</svg>
