<svg xmlns="http://www.w3.org/2000/svg" xml:space="preserve" viewBox="0 0 46 46"> <path fill="%23056808" d="M4.1 46C2.4 46 1 44.6 1 42.9V8.4c0-1.7 1.4-3.1 3.1-3.1l13.1-.5c0-1.9.9-2.9 2.8-2.9 1.8 0 4.8 1.1 4.9 3l13.4.1c1.7 0 3.1 1.4 3.1 3.1v34.5c0 1.7-1.4 3.1-3.1 3.1L4.1 46z"/> <path d="M18.3 46H3.5c-.9 0-1.8-.4-2.5-1.1-.6-.6-1-1.5-1-2.4V8.2c0-.9.3-1.8.9-2.5.6-.6 1.1-1 1.6-1h11.9c.7-3.2 3.8-5.2 7-4.6.9.2 1.8.6 2.5 1.2 1.1.8 1.8 2 2 3.4h11.9c.9 0 1.8.4 2.5 1.1.7.6 1.1 1.5 1.1 2.5v11.9h-3.5v-12h-6.2v7.6H9.8V8.2H3.5v34.2h14.8V46zm11.1-1.5L20 35.1l2.5-2.5 6.9 6.9 14.1-14.1 2.5 2.5-16.6 16.6zM20.3 7.1c1.3 0 2.3-1 2.4-2.3v-.1c0-1.3-1.1-2.4-2.4-2.4s-2.4 1.1-2.4 2.4 1 2.4 2.4 2.4c-.1 0-.1 0 0 0z"/></svg>
