<svg xmlns="http://www.w3.org/2000/svg" xmlns:xlink="http://www.w3.org/1999/xlink" width="38" height="38" viewBox="0 0 38 38">
    <defs>
        <path id="a" d="M.007.005h20.576v14.288H.007z"/>
    </defs>
    <g fill="none" fill-rule="evenodd">
        <g transform="translate(8.708 11.875)">
            <mask id="b" fill="#fff">
                <use xlink:href="#a"/>
            </mask>
            <path fill="#FFF" d="M20.153 2.232a2.567 2.567 0 0 0-1.82-1.805C16.728 0 10.292 0 10.292 0S3.855 0 2.25.427A2.568 2.568 0 0 0 .43 2.232C0 3.824 0 7.147 0 7.147s0 3.322.43 4.914c.237.879.934 1.57 1.82 1.805 1.605.427 8.042.427 8.042.427s6.436 0 8.041-.427a2.568 2.568 0 0 0 1.82-1.805c.43-1.592.43-4.914.43-4.914s0-3.323-.43-4.915" mask="url(#b)"/>
        </g>
        <path fill="#1E1E1E" d="M16.895 22.038l5.38-3.016-5.38-3.017v6.033"/>
    </g>
</svg>
