<svg xmlns="http://www.w3.org/2000/svg" width="60" height="60" viewBox="0 0 60 60">
    <g fill="none" fill-rule="evenodd" transform="translate(4 11)">
        <path fill="#1E1E1E" fill-rule="nonzero" d="M14 19h11v2H14zM27 23.495V22H12v3h6.8z"/>
        <path fill="#C00" fill-rule="nonzero" d="M34 28.09V23l-14.577 3.598a.62.62 0 0 1-.145.045H5.974c-.8-.017-2.55.435-2.974 1.196 3.315.452 7.09 3.55 7.363 6.161H26.95c0-4.082 1.572-6.277 5.257-6.277.613 0 1.22.125 1.793.368zm-8.742 3.611a.994.994 0 0 1-.217.634.672.672 0 0 1-.52.264H13.355c-.407 0-.737-.403-.737-.898v-3.205c0-.495.33-.897.737-.897H24.52c.407 0 .738.402.738.897v3.205z"/>
        <circle cx="32.5" cy="32.5" r="5.5" fill="#1E1E1E"/>
        <circle cx="5.5" cy="32.5" r="5.5" fill="#1E1E1E"/>
        <path fill="#1E1E1E" fill-rule="nonzero" d="M48.485 15.073L43.84 19.05a.81.81 0 0 1-.298.159L35 21.613v5.991A4.78 4.78 0 0 1 36.296 29L49 23.564v-8.268a.292.292 0 0 0-.189-.267.304.304 0 0 0-.326.044zM51.576.098a.855.855 0 0 0-.8.002l-4.742 2.611h-.002a.74.74 0 0 0-.39.62l-.173 5.962-13.727 7.65c-1.076.603-1.74 1.701-1.742 2.888V22h1.563v-2.169c0-.662.371-1.275.972-1.612l14.089-7.851.018-.01 4.94-2.734a.774.774 0 0 0 .418-.64V.743a.77.77 0 0 0-.424-.644zm-1.14 6.464l-3.348 1.847.148-4.625 3.2-1.756v4.534z"/>
        <circle cx="32.5" cy="32.5" r="3.5" stroke="#FFF"/>
        <circle cx="5.5" cy="32.5" r="3.5" stroke="#FFF"/>
    </g>
</svg>
