<svg xmlns="http://www.w3.org/2000/svg" width="60" height="60" viewBox="0 0 60 60">
    <g fill="none" fill-rule="nonzero">
        <path fill="#FFF" d="M29.084 46.716c.128.18.333.284.548.284.216 0 .42-.105.549-.284.452-.622 11.082-15.315 11.082-21.715C41.265 18.384 36.045 13 29.633 13 23.218 13 18 18.384 18 25.003c0 6.4 10.63 21.092 11.084 21.713zm.548-32.3c5.657 0 10.259 4.748 10.259 10.585 0 5.146-8.057 16.962-10.259 20.093C27.432 41.963 19.374 30.15 19.374 25c0-5.835 4.602-10.585 10.258-10.585z"/>
        <path fill="#C00" d="M29.632 30.895a6.27 6.27 0 0 0 6.263-6.264 6.27 6.27 0 0 0-6.263-6.263 6.27 6.27 0 0 0-6.264 6.264 6.27 6.27 0 0 0 6.264 6.263z"/>
    </g>
</svg>
