<svg xmlns="http://www.w3.org/2000/svg" width="71" height="56" viewBox="0 0 71 56">
    <g fill="none" fill-rule="evenodd" stroke-linecap="round" stroke-linejoin="round" stroke-width="2">
        <path stroke="#C00" d="M22.984 5.167c4.79 0 8.742 3.95 8.742 8.742M14.242 13.909c0-4.792 3.951-8.742 8.742-8.742"/>
        <g stroke="#A7A9AC">
            <path d="M1.5 35.35l8.6 8.6a.86.86 0 0 0 1.24 0l8.513-8.515"/>
            <path d="M60.48 13.433v28.669C60.48 49 54.88 54.5 48.084 54.5c-6.902.004-12.505-5.496-12.505-12.397h.002V13.702l-.002.014c0-6.898-5.602-12.398-12.398-12.398-6.902-.004-12.503 5.496-12.503 12.398v28.399"/>
            <path d="M69.657 20.71l-8.6-8.6a.857.857 0 0 0-1.24 0l-8.513 8.515"/>
        </g>
        <path stroke="#C00" d="M48.239 50.583c-4.791 0-8.742-3.951-8.742-8.742M56.98 41.84c0 4.793-3.95 8.743-8.741 8.743"/>
    </g>
</svg>
