<svg
   xmlns="http://www.w3.org/2000/svg"
   viewBox="0 0 27 24"
   height="24"
   width="27">
  <g
     style="fill:none;fill-rule:evenodd"
     id="g8">
    <path
       style="fill:#ffffff;stroke:#000000"
       id="path2"
       d="M 15.26,1.395 A 1.5,1.5 0 0 0 12.64,1.357 L 1.164,21.25 a 1.5,1.5 0 0 0 1.299,2.25 h 22.189 a 1.5,1.5 0 0 0 1.32,-2.211 z" />
    <g
       id="text6"
       style="fill:#C00"
       transform="translate(-1,-2)"
       aria-label="!">
      <path
         id="path823"
         d="m 16.176,10.436 v 5.166 l -0.108,3.636 h -2.196 l -0.108,-3.636 v -5.166 z m 0.306,11.232 q 0,0.63 -0.45,1.08 -0.432,0.432 -1.062,0.432 -0.63,0 -1.08,-0.432 -0.45,-0.45 -0.45,-1.08 0,-0.63 0.45,-1.08 0.45,-0.45 1.08,-0.45 0.63,0 1.062,0.45 0.45,0.45 0.45,1.08 z" />
    </g>
  </g>
</svg>
