<svg xmlns="http://www.w3.org/2000/svg" width="40" height="40" viewBox="0 0 40 40">
    <g fill="#1E1E1E" fill-rule="nonzero">
        <path d="M6.617 6A.617.617 0 0 0 6 6.617v20.052c0 .583.735.841 1.1.386l3.515-4.396h1.555v7.116c0 .34.276.617.617.617H30.4l3.5 4.375c.365.456 1.1.198 1.1-.385V14.35a.617.617 0 0 0-.617-.617H28.83V6.617A.617.617 0 0 0 28.213 6H6.617zm.617 1.234h20.362v14.19H10.319a.618.618 0 0 0-.482.232L7.234 24.91V7.234zm21.596 7.733h4.936v17.655l-2.587-3.233a.618.618 0 0 0-.483-.231H13.404v-6.5h14.809a.617.617 0 0 0 .617-.616v-7.075z"/>
        <path d="M9.593 14c-.328 0-.593.224-.593.5s.265.5.593.5h14.814c.328 0 .593-.224.593-.5s-.265-.5-.593-.5H9.593zM9.593 10c-.328 0-.593.224-.593.5s.265.5.593.5h14.814c.328 0 .593-.224.593-.5s-.265-.5-.593-.5H9.593zM9.595 17c-.329 0-.595.224-.595.5s.266.5.595.5h9.81c.329 0 .595-.224.595-.5s-.266-.5-.595-.5h-9.81z"/>
    </g>
</svg>
