<svg
   xmlns:dc="http://purl.org/dc/elements/1.1/"
   xmlns:cc="http://creativecommons.org/ns#"
   xmlns:rdf="http://www.w3.org/1999/02/22-rdf-syntax-ns#"
   xmlns:svg="http://www.w3.org/2000/svg"
   xmlns="http://www.w3.org/2000/svg"
   width="20"
   height="20"
   viewBox="0 0 20 20"
   version="1.1"
   id="svg10">
  <g
     id="g8"
     style="fill:none;fill-rule:evenodd">
    <circle
       cx="10"
       cy="10"
       r="10"
       id="circle2"
       style="fill:#cc0000" />
    <g
       aria-label="?"
       style="fill:#ffffff"
       id="text6">
      <path
         d="M 8.8099998,12.844 V 15 H 11.008 v -2.156 z m -2.254,-4.62 h 2.058 q 0,-0.378 0.084,-0.7 0.084,-0.336 0.252,-0.574 0.182,-0.252 0.448,-0.392 0.28,-0.154 0.6580002,-0.154 0.56,0 0.868,0.308 0.322,0.308 0.322,0.952 0.014,0.378 -0.14,0.63 -0.14,0.252 -0.378,0.462 -0.238,0.21 -0.518,0.42 -0.2800002,0.21 -0.5320002,0.504 -0.252,0.28 -0.448,0.686 -0.182,0.406 -0.224,1.008 v 0.63 H 10.896 v -0.532 q 0.056,-0.42 0.266,-0.7 0.224,-0.28 0.504,-0.49 0.28,-0.224 0.588,-0.434 Q 12.576,9.624 12.828,9.316 13.094,9.008 13.262,8.574 13.444,8.14 13.444,7.468 13.444,7.062 13.262,6.6 13.094,6.124 12.688,5.718 12.282,5.312 11.61,5.046 10.952,4.766 9.9579998,4.766 q -0.77,0 -1.4,0.266 -0.616,0.252 -1.064,0.714 -0.434,0.462 -0.686,1.092 -0.238,0.63 -0.252,1.386 z"
         id="path823"/>
    </g>
  </g>
</svg>
