<svg xmlns="http://www.w3.org/2000/svg" xmlns:xlink="http://www.w3.org/1999/xlink" width="38" height="38" viewBox="0 0 38 38">
    <defs>
        <path id="a" d="M0 0h20v20H0z"/>
    </defs>
    <g fill="none" fill-rule="evenodd" transform="translate(9 9)">
        <mask id="b" fill="#fff">
            <use xlink:href="#a"/>
        </mask>
        <path fill="#FFF" d="M10 0C4.477 0 0 4.477 0 10c0 4.237 2.636 7.858 6.356 9.315-.088-.791-.167-2.008.034-2.872.182-.78 1.173-4.97 1.173-4.97s-.3-.6-.3-1.485c0-1.39.807-2.428 1.81-2.428.853 0 1.266.64 1.266 1.408 0 .858-.547 2.14-.829 3.33-.235.995.5 1.807 1.481 1.807 1.778 0 3.144-1.874 3.144-4.58 0-2.394-1.72-4.068-4.177-4.068-2.845 0-4.516 2.134-4.516 4.34 0 .86.331 1.78.745 2.282a.299.299 0 0 1 .069.287c-.076.316-.245.995-.278 1.134-.044.183-.145.222-.334.134-1.25-.582-2.03-2.408-2.03-3.874 0-3.155 2.292-6.052 6.607-6.052 3.47 0 6.165 2.472 6.165 5.776 0 3.446-2.173 6.22-5.189 6.22-1.013 0-1.966-.527-2.292-1.149l-.623 2.378c-.226.868-.835 1.957-1.243 2.621.936.29 1.93.446 2.96.446C15.524 20 20 15.523 20 10S15.523 0 10 0" mask="url(#b)"/>
    </g>
</svg>
