<svg xmlns="http://www.w3.org/2000/svg" width="40" height="40" viewBox="0 0 40 40">
    <path fill="#1E1E1E" fill-rule="nonzero" d="M27.336 30.927c0 .278-.29.557-.578.557-.29 0-.578-.279-.578-.557 0-.279.289-.557.578-.557.289-.14.578.14.578.557zm-.578 1.113c-.29 0-.578.279-.578.557s.289.557.578.557.578-.279.578-.557-.29-.557-.578-.557zm0-3.48c-.29 0-.578.279-.578.557 0 .279.289.557.578.557s.578-.278.578-.557c0-.278-.29-.557-.578-.557zm0-3.48c-.29 0-.578.279-.578.557 0 .279.289.557.578.557s.578-.278.578-.557c0-.278-.29-.556-.578-.556zm0 1.67c-.29 0-.578.28-.578.558s.289.556.578.556.578-.278.578-.556c0-.279-.29-.557-.578-.557zm0-3.479c-.29 0-.578.278-.578.557 0 .278.289.557.578.557s.578-.279.578-.557c0-.279-.29-.557-.578-.557zm0-1.81c-.29 0-.578.279-.578.557 0 .279.289.557.578.557s.578-.278.578-.557c0-.278-.29-.556-.578-.556zm-2.312 6.125c-.289 0-.578.278-.578.557 0 .278.29.557.578.557.29 0 .578-.279.578-.557 0-.279-.289-.557-.578-.557zm0 5.29c-.289 0-.578.278-.578.556 0 .279.29.557.578.557.29 0 .578-.278.578-.557 0-.417-.289-.557-.578-.557zm0-1.81c-.289 0-.578.278-.578.557 0 .278.29.556.578.556.29 0 .578-.278.578-.556 0-.279-.289-.557-.578-.557zm0-1.81c-.289 0-.578.279-.578.557 0 .279.29.557.578.557.29 0 .578-.278.578-.557 0-.278-.289-.557-.578-.557zm0-3.48c-.289 0-.578.279-.578.557 0 .279.29.557.578.557.29 0 .578-.278.578-.557 0-.278-.289-.556-.578-.556zm0-3.48c-.289 0-.578.28-.578.557 0 .279.29.557.578.557.29 0 .578-.278.578-.557 0-.278-.289-.556-.578-.556zm0 1.671c-.289 0-.578.278-.578.557 0 .278.29.557.578.557.29 0 .578-.279.578-.557 0-.279-.289-.557-.578-.557zm-2.311 5.985c-.289 0-.578.279-.578.557 0 .279.289.557.578.557s.578-.278.578-.557c0-.417-.29-.557-.578-.557zm0 1.67c-.289 0-.578.28-.578.557 0 .279.289.557.578.557s.578-.278.578-.557c0-.278-.29-.556-.578-.556zm0 1.81c-.289 0-.578.279-.578.557s.289.557.578.557.578-.279.578-.557-.29-.557-.578-.557zm0-5.29c-.289 0-.578.28-.578.558s.289.556.578.556.578-.278.578-.556c0-.279-.29-.557-.578-.557zm0-3.479c-.289 0-.578.278-.578.557 0 .278.289.557.578.557s.578-.279.578-.557c0-.279-.29-.557-.578-.557zm0-1.81c-.289 0-.578.279-.578.557 0 .279.289.557.578.557s.578-.278.578-.557c0-.278-.29-.557-.578-.557zm0 3.48c-.289 0-.578.279-.578.557s.289.557.578.557.578-.279.578-.557-.29-.557-.578-.557zm-2.312 3.898c-.288 0-.577.278-.577.557 0 .278.289.556.577.556.29 0 .578-.278.578-.556 0-.279-.289-.557-.578-.557zm0 3.48c-.288 0-.577.278-.577.556 0 .279.289.557.577.557.29 0 .578-.278.578-.557 0-.278-.289-.556-.578-.556zm0-5.29c-.288 0-.577.279-.577.557s.289.557.577.557c.29 0 .578-.279.578-.557s-.289-.557-.578-.557zm0 3.48c-.288 0-.577.278-.577.557 0 .278.289.557.577.557.29 0 .578-.279.578-.557 0-.279-.289-.557-.578-.557zm0-6.96c-.288 0-.577.279-.577.557 0 .279.289.557.577.557.29 0 .578-.278.578-.557 0-.278-.289-.557-.578-.557zm0 1.81c-.288 0-.577.278-.577.557 0 .278.289.556.577.556.29 0 .578-.278.578-.556 0-.418-.289-.557-.578-.557zm0-3.62c-.288 0-.577.28-.577.558s.289.556.577.556c.29 0 .578-.278.578-.556 0-.279-.289-.557-.578-.557zm-2.31 8.492c-.29 0-.579.278-.579.556 0 .279.29.557.578.557.289 0 .578-.278.578-.557 0-.278-.289-.556-.578-.556zm0-1.67c-.29 0-.579.278-.579.556 0 .279.29.557.578.557.289 0 .578-.278.578-.557 0-.417-.289-.557-.578-.557zm0 3.48c-.29 0-.579.278-.579.556s.29.557.578.557c.289 0 .578-.279.578-.557s-.289-.557-.578-.557zm0-7.1c-.29 0-.579.279-.579.557s.29.557.578.557c.289 0 .578-.279.578-.557s-.289-.557-.578-.557zm0-3.48c-.29 0-.579.279-.579.557 0 .279.29.557.578.557.289 0 .578-.278.578-.557 0-.278-.289-.557-.578-.557zm0 5.29c-.29 0-.579.278-.579.557 0 .278.29.556.578.556.289 0 .578-.278.578-.556 0-.279-.289-.557-.578-.557zm0-3.48c-.29 0-.579.278-.579.557 0 .278.29.557.578.557.289 0 .578-.279.578-.557 0-.279-.289-.557-.578-.557zM15.2 31.066c-.29 0-.578.278-.578.557 0 .278.289.556.578.556s.578-.278.578-.556c0-.279-.29-.557-.578-.557zm0-1.81c-.29 0-.578.279-.578.557 0 .279.289.557.578.557s.578-.278.578-.557c0-.278-.29-.557-.578-.557zm0 3.62c-.29 0-.578.278-.578.556 0 .279.289.557.578.557s.578-.278.578-.557c0-.417-.29-.557-.578-.557zm0-8.909c-.29 0-.578.278-.578.557 0 .278.289.557.578.557s.578-.279.578-.557c0-.279-.29-.557-.578-.557zm0 3.62c-.29 0-.578.277-.578.556 0 .278.289.557.578.557s.578-.279.578-.557c0-.279-.29-.557-.578-.557zm0-5.29c-.29 0-.578.278-.578.556 0 .279.289.557.578.557s.578-.278.578-.557c0-.278-.29-.556-.578-.556zm0 3.48c-.29 0-.578.278-.578.556 0 .279.289.557.578.557s.578-.278.578-.557c0-.278-.29-.556-.578-.556zm-2.312 4.454c-.289 0-.578.278-.578.557 0 .278.29.556.578.556.29 0 .578-.278.578-.556 0-.279-.289-.557-.578-.557zm0-1.67c-.289 0-.578.278-.578.556 0 .279.29.557.578.557.29 0 .578-.278.578-.557 0-.278-.289-.557-.578-.557zm0 3.48c-.289 0-.578.278-.578.556s.29.557.578.557c.29 0 .578-.279.578-.557s-.289-.557-.578-.557zm0-6.96c-.289 0-.578.278-.578.556 0 .279.29.557.578.557.29 0 .578-.278.578-.557 0-.278-.289-.556-.578-.556zm0-3.62c-.289 0-.578.279-.578.557 0 .279.29.557.578.557.29 0 .578-.278.578-.557 0-.278-.289-.556-.578-.556zm0 5.29c-.289 0-.578.278-.578.557 0 .278.29.556.578.556.29 0 .578-.278.578-.556 0-.279-.289-.557-.578-.557zm0-3.48c-.289 0-.578.278-.578.557 0 .278.29.557.578.557.29 0 .578-.279.578-.557 0-.279-.289-.557-.578-.557zM29.358 6.43v27.42c0 2.924-4.19 5.151-9.679 5.151C14.189 39 10 36.773 10 33.85V6.429 6.15C10 3.227 14.19 1 19.679 1c5.49 0 9.679 2.227 9.679 5.15.144 0 0 .14 0 .279zM11.156 6.01c0 2.366 4.045 4.315 8.667 4.315 4.623 0 8.668-1.949 8.668-4.315 0-2.366-3.9-4.176-8.668-4.176-4.767 0-8.667 1.949-8.667 4.176zm17.335 7.238c-1.589 1.81-4.767 2.923-8.668 2.923-3.9 0-7.223-1.253-8.667-2.923v20.6c0 2.367 4.045 4.316 8.667 4.316 4.623 0 8.668-1.949 8.668-4.315v-20.6zm0-5.01c-1.589 1.809-4.767 2.922-8.668 2.922-3.9 0-7.223-1.253-8.667-2.923v2.784c0 2.366 4.045 4.315 8.667 4.315 4.623 0 8.668-1.949 8.668-4.315V8.238zm-14.013-.836c.723 0 1.445-.418 1.445-.974 0-.557-.578-.975-1.445-.975-.722 0-1.444.418-1.444.975 0 .556.722.974 1.444.974zm10.69 0c.723 0 1.445-.418 1.445-.974 0-.557-.578-.975-1.444-.975-.723 0-1.445.418-1.445.975 0 .556.578.974 1.445.974z"/>
</svg>
