<svg xmlns="http://www.w3.org/2000/svg" width="38" height="38" viewBox="0 0 38 38">
    <path fill="#FFF" fill-rule="evenodd" d="M27.989 15.847c0-.185-.004-.369-.012-.552a8.643 8.643 0 0 0 2.106-2.21 8.36 8.36 0 0 1-2.425.672 4.274 4.274 0 0 0 1.857-2.361 8.409 8.409 0 0 1-2.681 1.036 4.198 4.198 0 0 0-3.083-1.349c-2.332 0-4.223 1.912-4.223 4.268 0 .335.037.661.109.974-3.51-.179-6.622-1.877-8.704-4.46a4.288 4.288 0 0 0-.572 2.145c0 1.481.745 2.788 1.879 3.553a4.158 4.158 0 0 1-1.913-.534v.055c0 2.067 1.455 3.793 3.387 4.184a4.193 4.193 0 0 1-1.907.073c.538 1.696 2.097 2.93 3.945 2.965A8.417 8.417 0 0 1 9.5 26.074a11.864 11.864 0 0 0 6.473 1.917c7.768 0 12.016-6.504 12.016-12.144z"/>
</svg>
