<svg
   xmlns="http://www.w3.org/2000/svg"
   id="svg10"
   version="1.1"
   viewBox="0 0 35 20"
   height="20"
   width="35">
  <g
     style="fill:#000000;fill-rule:evenodd"
     id="g8">
    <path
       style="stroke:#000000;stroke-width:0.875"
       id="path2"
       d="M 35,12.224 C 35,10.645 33.081,9.116 29.719,8 v 0.71 c 2.82,0.943 4.37,2.188 4.37,3.514 0,2.517 -5.712,4.64 -13.582,5.05 L 19.787,17.311 21.346,16 20.703,15.459 18,17.729 20.704,20 21.348,19.46 19.694,18.071 20.3,18.041 C 28.68,17.615 35,15.114 35,12.224 Z M 0.91,12.43 c 0,-1.207 1.381,-2.343 3.907,-3.23 L 4.724,11.181 5.557,11.207 5.7,8.147 2.585,7 2.24,7.614 4.747,8.538 C 1.717,9.594 0,10.99 0,12.428 0,15.12 5.998,17.499 14,18 V 17.27 C 6.28,16.814 0.91,14.835 0.91,12.43 Z" />
    <g
       id="text6"
       style=""
       aria-label="360">
      <path
         id="path4512"
         d="m 14.012,9.42 q 0,1.176 -0.78,1.932 -0.78,0.744 -1.968,0.744 -2.124,0 -2.784,-1.956 l 1.536,-0.648 q 0.12,0.432 0.432,0.708 0.324,0.264 0.768,0.264 0.468,0 0.792,-0.288 0.324,-0.288 0.324,-0.756 0,-0.66 -0.504,-0.912 -0.36,-0.192 -1.104,-0.18 V 6.996 q 1.404,0.012 1.404,-0.96 0,-0.372 -0.312,-0.612 -0.3,-0.24 -0.684,-0.24 -0.768,0 -1.068,0.864 l -1.5,-0.672 q 0.72,-1.836 2.628,-1.836 1.092,0 1.848,0.708 0.768,0.708 0.768,1.788 0,0.936 -0.732,1.572 0.408,0.276 0.672,0.792 0.264,0.504 0.264,1.02 z" />
      <path
         id="path4514"
         d="m 20.381375,9.24 q 0,1.284 -0.732,2.076 -0.732,0.78 -2.016,0.78 -1.284,0 -2.064,-0.96 -0.72,-0.9 -0.72,-2.208 0,-3.36 2.496,-5.304 h 2.04 q -1.02,0.84 -1.512,1.38 -0.744,0.828 -1.056,1.728 0.372,-0.276 0.972,-0.276 1.176,0 1.884,0.804 0.708,0.792 0.708,1.98 z m -1.692,-0.036 q 0,-0.504 -0.312,-0.84 -0.3,-0.336 -0.792,-0.336 -0.468,0 -0.756,0.36 -0.276,0.348 -0.276,0.84 0,0.468 0.3,0.804 0.3,0.336 0.756,0.336 0.468,0 0.768,-0.348 0.312,-0.348 0.312,-0.816 z" />
      <path
         id="path4516"
         d="m 27.185281,7.788 q 0,1.704 -0.672,2.88 -0.828,1.428 -2.412,1.428 -1.596,0 -2.424,-1.416 -0.684,-1.164 -0.684,-2.868 0,-1.704 0.684,-2.88 0.828,-1.428 2.424,-1.428 1.584,0 2.412,1.416 0.672,1.164 0.672,2.868 z m -1.728,0.024 q 0,-0.984 -0.228,-1.656 -0.348,-0.996 -1.128,-0.996 -0.804,0 -1.152,0.984 -0.24,0.672 -0.24,1.668 0,0.984 0.24,1.656 0.348,0.984 1.152,0.984 1.356,0 1.356,-2.64 z" />
    </g>
  </g>
</svg>
