<svg xmlns="http://www.w3.org/2000/svg" xmlns:xlink="http://www.w3.org/1999/xlink" width="38" height="38" viewBox="0 0 38 38">
    <defs>
        <path id="a" d="M0 .006h19.785V19.79H0z"/>
    </defs>
    <g fill="none" fill-rule="evenodd">
        <g transform="translate(9.5 9.5)">
            <mask id="b" fill="#fff">
                <use xlink:href="#a"/>
            </mask>
            <path fill="#FFF" d="M9.893.006c-2.687 0-3.024.012-4.079.06-1.053.048-1.772.215-2.401.46a4.849 4.849 0 0 0-1.753 1.14A4.849 4.849 0 0 0 .52 3.42C.274 4.049.107 4.767.06 5.82.01 6.875 0 7.212 0 9.9s.011 3.024.06 4.079c.048 1.053.215 1.772.46 2.401.252.65.59 1.202 1.14 1.752a4.85 4.85 0 0 0 1.753 1.141c.629.245 1.348.412 2.401.46 1.055.048 1.392.06 4.079.06 2.686 0 3.023-.012 4.078-.06 1.053-.048 1.773-.215 2.402-.46a4.85 4.85 0 0 0 1.752-1.14 4.85 4.85 0 0 0 1.141-1.753c.245-.63.412-1.348.46-2.401.048-1.055.06-1.392.06-4.079s-.012-3.024-.06-4.079c-.048-1.053-.215-1.772-.46-2.401a4.85 4.85 0 0 0-1.141-1.752A4.849 4.849 0 0 0 16.373.526c-.63-.245-1.349-.412-2.402-.46-1.055-.048-1.392-.06-4.078-.06zm0 1.783c2.641 0 2.954.01 3.997.057.965.044 1.489.206 1.837.341.462.18.791.394 1.138.74.346.346.56.676.74 1.138.135.348.296.872.34 1.836.048 1.044.058 1.356.058 3.998 0 2.641-.01 2.954-.058 3.997-.044.965-.205 1.489-.34 1.837-.18.462-.394.792-.74 1.138-.347.346-.676.56-1.138.74-.348.135-.872.297-1.837.34-1.043.048-1.356.058-3.997.058-2.642 0-2.955-.01-3.998-.057-.964-.044-1.488-.206-1.837-.341a3.065 3.065 0 0 1-1.137-.74 3.065 3.065 0 0 1-.74-1.138c-.136-.348-.297-.872-.34-1.837-.048-1.043-.059-1.356-.059-3.997 0-2.642.01-2.954.058-3.998.044-.964.205-1.488.34-1.836.18-.462.395-.792.74-1.138.347-.346.677-.56 1.138-.74.349-.135.873-.297 1.837-.34 1.043-.048 1.356-.058 3.998-.058z" mask="url(#b)"/>
        </g>
        <path fill="#FFF" d="M19.393 22.697a3.298 3.298 0 1 1 0-6.596 3.298 3.298 0 0 1 0 6.596zm0-8.378a5.08 5.08 0 1 0 0 10.16 5.08 5.08 0 0 0 0-10.16zM25.86 14.118a1.187 1.187 0 1 1-2.374 0 1.187 1.187 0 0 1 2.375 0"/>
    </g>
</svg>
