<svg xmlns="http://www.w3.org/2000/svg" width="14" height="16" viewBox="0 0 14 16">
    <path fill="none" fill-rule="nonzero" stroke="#1E1E1E" stroke-width="1.25" d="M3.946 4.22C3.946 2.448 5.318 1 7 1c1.682 0 3.053 1.447 3.053 3.22 0 1.773-1.371 3.197-3.053 3.197S3.946 5.971 3.946 4.221zM13 13.753c-.053-2.338-2.575-4.26-5.708-4.38-1.646-.06-3.239.377-4.434 1.229C1.664 11.453 1 12.603 1 13.85 1 14.483 1.717 15 2.566 15h8.867c.425 0 .823-.12 1.115-.337.292-.218.45-.515.45-.813l.002-.098z"/>
</svg>
