<svg xmlns="http://www.w3.org/2000/svg" width="29" height="29" viewBox="0 0 29 29">
    <g fill="none" fill-rule="evenodd">
        <path stroke="#000" stroke-linecap="round" stroke-linejoin="round" d="M20.203 2.102a13.443 13.443 0 0 0-6.08-1.444c-7.456 0-13.5 6.044-13.5 13.5s6.044 13.5 13.5 13.5 13.5-6.044 13.5-13.5a13.46 13.46 0 0 0-1-5.11"/>
        <path fill="#C00" d="M29.038 1.46c-3.207.262-11.02 6.523-14.879 13.643-1.529-2.313-4.583-3.273-8.346-2.866 2.395 1.068 5.227 3.857 7.1 6.814l4.81-.394c1.44-6.547 5.647-11.963 11.315-17.198z"/>
    </g>
</svg>
