<svg xmlns="http://www.w3.org/2000/svg" width="35" height="35" viewBox="0 0 35 35">
    <g fill="none" fill-rule="evenodd">
        <path fill="#C00" d="M12 12h12v12H12z"/>
        <path fill="#FFF" fill-rule="nonzero" d="M18 9a9.002 9.002 0 0 0-6.364 15.364 9.002 9.002 0 0 0 12.728 0A9.002 9.002 0 0 0 27 18a9.016 9.016 0 0 0-9-9zm3.371 9.564l-4.487 2.525a.684.684 0 0 1-.668 0 .647.647 0 0 1-.334-.564v-5.05c0-.233.127-.448.334-.564a.684.684 0 0 1 .668 0l4.487 2.525a.646.646 0 0 1 .335.564.646.646 0 0 1-.335.564z"/>
    </g>
</svg>
