<svg xmlns="http://www.w3.org/2000/svg" width="16" height="16" viewBox="0 0 16 16">
    <path fill="#1E1E1E" fill-rule="nonzero" d="M6.048 0c-.347.003-.613.351-.62.608v1.469a6.17 6.17 0 0 0-1.555.874l-1.297-.735a.65.65 0 0 0-.846.228L.078 5.256a.625.625 0 0 0 .226.83l1.304.74c-.045.287-.103.57-.103.874 0 .302.058.582.103.868l-1.304.74a.625.625 0 0 0-.226.836l1.652 2.812a.65.65 0 0 0 .846.221l1.297-.734c.47.364.991.655 1.555.874v1.475c0 .318.296.608.62.608h3.304c.324 0 .62-.29.62-.608v-1.475a6.17 6.17 0 0 0 1.555-.874l1.297.734a.65.65 0 0 0 .845-.221l1.652-2.812a.624.624 0 0 0-.225-.836l-1.304-.74c.044-.286.103-.566.103-.868 0-.304-.058-.587-.103-.874l1.304-.74a.625.625 0 0 0 .225-.83L13.67 2.444a.65.65 0 0 0-.845-.228l-1.297.735a6.17 6.17 0 0 0-1.555-.874V.607C9.972.29 9.676 0 9.352 0H6.048zm.62 1.216h2.064v1.26a.627.627 0 0 0 .44.576 4.972 4.972 0 0 1 1.897 1.07c.192.175.501.21.729.083l1.11-.627 1.032 1.754-1.116.633a.62.62 0 0 0-.297.665c.08.35.13.707.13 1.07 0 .362-.05.72-.13 1.07a.62.62 0 0 0 .297.659l1.116.633-1.032 1.754-1.11-.627a.647.647 0 0 0-.73.082 4.972 4.972 0 0 1-1.897 1.07.625.625 0 0 0-.439.583v1.26H6.667v-1.26a.627.627 0 0 0-.438-.583 4.972 4.972 0 0 1-1.898-1.07.647.647 0 0 0-.73-.082l-1.11.627-1.032-1.754 1.117-.633a.62.62 0 0 0 .297-.659c-.081-.35-.13-.708-.13-1.07 0-.363.049-.72.13-1.07a.62.62 0 0 0-.297-.665l-1.117-.633 1.033-1.754 1.11.627a.647.647 0 0 0 .73-.083 4.972 4.972 0 0 1 1.897-1.07.627.627 0 0 0 .438-.576v-1.26zM7.7 4.053c-2.046 0-3.717 1.64-3.717 3.647 0 2.007 1.671 3.647 3.717 3.647 2.046 0 3.717-1.64 3.717-3.647 0-2.007-1.671-3.647-3.717-3.647zm0 1.215c1.376 0 2.478 1.082 2.478 2.432 0 1.35-1.102 2.432-2.478 2.432-1.376 0-2.478-1.082-2.478-2.432 0-1.35 1.102-2.432 2.478-2.432z"/>
</svg>
