<svg xmlns="http://www.w3.org/2000/svg" width="21" height="21" viewBox="0 0 21 21">
    <path fill="#FFF" fill-rule="nonzero" d="M20.743 19.404l-6.525-6.526a7.94 7.94 0 0 0 1.704-4.92 7.938 7.938 0 0 0-2.331-5.626A7.932 7.932 0 0 0 7.966 0a7.946 7.946 0 0 0-5.635 2.332A7.94 7.94 0 0 0 0 7.962a7.94 7.94 0 0 0 2.331 5.63 7.93 7.93 0 0 0 5.627 2.331 7.938 7.938 0 0 0 4.863-1.662l.056-.043 6.524 6.526a.87.87 0 0 0 .62.256c.224 0 .45-.086.62-.257l.102-.102a.872.872 0 0 0 0-1.238zm-8.199-6.858a6.454 6.454 0 0 1-4.582 1.898 6.463 6.463 0 0 1-4.583-1.898A6.46 6.46 0 0 1 1.48 7.962c0-1.658.633-3.319 1.898-4.584A6.46 6.46 0 0 1 7.962 1.48c1.658 0 3.318.634 4.582 1.898a6.458 6.458 0 0 1 1.898 4.584 6.456 6.456 0 0 1-1.898 4.584z"/>
</svg>
