<svg xmlns="http://www.w3.org/2000/svg" width="20" height="20" viewBox="0 0 20 20">
    <g fill="none" fill-rule="evenodd">
        <path fill="#000" d="M5.663 13.345h8.674c.133 0 .241-.111.241-.247a.243.243 0 0 0-.24-.246H5.662a.243.243 0 0 0-.241.246c0 .136.108.247.24.247zM5.663 14.905h8.674c.133 0 .241-.111.241-.247a.243.243 0 0 0-.24-.246H5.662a.243.243 0 0 0-.241.246c0 .136.108.247.24.247zM5.663 16.465h8.674c.133 0 .241-.111.241-.247a.244.244 0 0 0-.24-.246H5.662c-.133 0-.241.111-.241.246 0 .136.108.247.24.247zM5.663 18.025h8.674c.133 0 .241-.111.241-.247a.244.244 0 0 0-.24-.246H5.662c-.133 0-.241.111-.241.246 0 .136.108.247.24.247z"/>
        <path fill="#A7A9AC" fill-rule="nonzero" d="M18.02 5.505h-2.1V0H4.08v5.505h-2.1C.89 5.505 0 6.415 0 7.531v6.25c0 1.119.89 2.026 1.98 2.026h2.1v3.77h11.84v-3.77h2.1c1.09 0 1.98-.907 1.98-2.026v-6.25c0-1.116-.89-2.026-1.98-2.026zm-.446 4.966a.638.638 0 0 1-.632-.645c0-.358.282-.646.632-.646a.64.64 0 0 1 .63.646.64.64 0 0 1-.63.645zm0-1.683a.638.638 0 0 1-.632-.646.64.64 0 0 1 .632-.645c.346 0 .63.29.63.646a.64.64 0 0 1-.63.645zM4.56.493h10.877v5.012H4.561V.493zM15.44 19.084H4.56V11.79h10.877v7.294z"/>
    </g>
</svg>
