<svg xmlns="http://www.w3.org/2000/svg" width="18" height="17" viewBox="0 0 18 17">
    <g fill="#1E1E1E" fill-rule="nonzero">
        <path d="M17.594 3.417a1.835 1.835 0 0 0-1.42-.687H4.64l-.36-1.374A1.814 1.814 0 0 0 2.52 0H.587A.585.585 0 0 0 0 .576c0 .316.265.576.587.576H2.52c.284 0 .53.186.606.465l2.31 9.027A1.814 1.814 0 0 0 7.197 12h7.556c.833 0 1.572-.557 1.762-1.356l1.42-5.721c.133-.521.02-1.078-.34-1.506zm-.814 1.245l-1.42 5.72a.623.623 0 0 1-.606.465H7.197a.623.623 0 0 1-.606-.464L4.943 3.9h11.232c.189 0 .378.093.492.241.114.148.17.334.114.52zM7.995 13a2.01 2.01 0 0 0-1.999 2c0 1.096.904 2 1.999 2a2.01 2.01 0 0 0 1.999-2c0-1.096-.904-2-1.999-2zm0 2.79a.78.78 0 0 1-.788-.79.78.78 0 0 1 .788-.789.78.78 0 0 1 .788.79.805.805 0 0 1-.788.788zM13.991 13a2.01 2.01 0 0 0-1.998 2c0 1.096.903 2 1.998 2a2.01 2.01 0 0 0 1.999-2c-.019-1.095-.903-2-1.999-2zm0 2.789a.78.78 0 0 1-.788-.789.78.78 0 0 1 .788-.789.78.78 0 0 1 .789.79.805.805 0 0 1-.789.788z"/>
    </g>
</svg>
