<svg xmlns="http://www.w3.org/2000/svg" width="40" height="40" viewBox="0 0 40 40">
    <path fill="#FFF" fill-rule="nonzero" d="M30.72 3.565v-.142C30.572 2.569 29.243 2 26.88 2c-2.067 0-4.725.285-7.383.854-4.873 1.138-9.746 3.13-9.894 4.98-.295 2.134-2.806 21.486-.886 24.759 1.92 3.273 4.135 5.122 4.282 5.265l.148.142h14.472l.147-.142c.148-.143 2.215-1.992 4.283-5.265 1.772-3.273-1.034-26.467-1.33-29.028zm-11.076.143c2.51-.57 4.874-.854 6.793-.854h.296c2.215 0 2.805.427 2.953.711 0 .285-.295.854-2.215 1.85-1.772.996-4.282 1.708-6.793 2.277-2.658.569-5.168.853-7.088.853-2.215 0-2.806-.426-2.953-.711-.296-.711 2.658-2.704 9.007-4.126zm-9.303 5.264c.591.285 1.625.57 3.101.57h.296c2.067 0 4.43-.285 7.088-.854 2.658-.57 5.168-1.423 7.088-2.42.886-.426 1.477-.853 1.92-1.28.59 4.411 1.329 11.668 1.624 17.644H9.012c.296-4.838.886-10.245 1.33-13.66zm20.674 23.194c-1.624 2.704-3.396 4.411-3.84 4.838H13.443c-.443-.427-2.215-2.134-3.839-4.838-.59-1.138-.738-4.553-.443-8.538h22.446c0 4.127 0 7.542-.591 8.538zm-19.492-6.972c0 .284-.296.569-.591.569s-.59-.285-.59-.57c0-.284.295-.568.59-.568s.59.284.59.569zm2.215 0c0 .284-.296.569-.591.569s-.59-.285-.59-.57c0-.284.295-.568.59-.568s.59.284.59.569zm2.362 0c0 .284-.295.569-.59.569-.296 0-.591-.285-.591-.57 0-.284.295-.568.59-.568.296 0 .591.284.591.569zm2.215 0c0 .284-.295.569-.59.569-.296 0-.59-.285-.59-.57 0-.284.294-.568.59-.568.295 0 .59.284.59.569zm2.363 0c0 .284-.295.569-.59.569-.296 0-.591-.285-.591-.57 0-.284.295-.568.59-.568.296 0 .591.284.591.569zm2.215 0c0 .284-.295.569-.59.569-.296 0-.591-.285-.591-.57 0-.284.295-.568.59-.568.296 0 .591.284.591.569zm2.363 0c0 .284-.295.569-.59.569-.296 0-.591-.285-.591-.57 0-.284.295-.568.59-.568.296 0 .59.284.59.569zm2.215 0c0 .284-.295.569-.59.569-.296 0-.591-.285-.591-.57 0-.284.295-.568.59-.568.296 0 .59.284.59.569zm2.215 0c0 .284-.295.569-.59.569-.296 0-.591-.285-.591-.57 0-.284.295-.568.59-.568.296 0 .591.284.591.569zm-18.163 2.134c0 .285-.296.57-.591.57s-.59-.285-.59-.57.295-.57.59-.57.59.285.59.57zm2.215 0c0 .285-.296.57-.591.57s-.59-.285-.59-.57.295-.57.59-.57.59.285.59.57zm2.362 0c0 .285-.295.57-.59.57-.296 0-.591-.285-.591-.57s.295-.57.59-.57c.296 0 .591.285.591.57zm2.215 0c0 .285-.295.57-.59.57-.296 0-.59-.285-.59-.57s.294-.57.59-.57c.295 0 .59.285.59.57zm2.363 0c0 .285-.295.57-.59.57-.296 0-.591-.285-.591-.57s.295-.57.59-.57c.296 0 .591.285.591.57zm2.215 0c0 .285-.295.57-.59.57-.296 0-.591-.285-.591-.57s.295-.57.59-.57c.296 0 .591.285.591.57zm2.363 0c0 .285-.295.57-.59.57-.296 0-.591-.285-.591-.57s.295-.57.59-.57c.296 0 .59.285.59.57zm2.215 0c0 .285-.295.57-.59.57-.296 0-.591-.285-.591-.57s.295-.57.59-.57c.296 0 .59.285.59.57zm2.215 0c0 .285-.295.57-.59.57-.296 0-.591-.285-.591-.57s.295-.57.59-.57c.296 0 .591.285.591.57zm-18.163 2.134c0 .285-.296.57-.591.57s-.59-.285-.59-.57c0-.284.295-.569.59-.569s.59.285.59.57zm2.215 0c0 .285-.296.57-.591.57s-.59-.285-.59-.57c0-.284.295-.569.59-.569s.59.285.59.57zm2.362 0c0 .285-.295.57-.59.57-.296 0-.591-.285-.591-.57 0-.284.295-.569.59-.569.296 0 .591.285.591.57zm2.215 0c0 .285-.295.57-.59.57-.296 0-.59-.285-.59-.57 0-.284.294-.569.59-.569.295 0 .59.285.59.57zm2.363 0c0 .285-.295.57-.59.57-.296 0-.591-.285-.591-.57 0-.284.295-.569.59-.569.296 0 .591.285.591.57zm2.215 0c0 .285-.295.57-.59.57-.296 0-.591-.285-.591-.57 0-.284.295-.569.59-.569.296 0 .591.285.591.57zm2.363 0c0 .285-.295.57-.59.57-.296 0-.591-.285-.591-.57 0-.284.295-.569.59-.569.296 0 .59.285.59.57zm2.215 0c0 .285-.295.57-.59.57-.296 0-.591-.285-.591-.57 0-.284.295-.569.59-.569.296 0 .59.285.59.57zm2.215 0c0 .285-.295.57-.59.57-.296 0-.591-.285-.591-.57 0-.284.295-.569.59-.569.296 0 .591.285.591.57zm-15.948 2.135c0 .284-.296.569-.591.569s-.59-.285-.59-.57c0-.284.295-.568.59-.568s.59.284.59.569zm2.362 0c0 .284-.295.569-.59.569-.296 0-.591-.285-.591-.57 0-.284.295-.568.59-.568.296 0 .591.284.591.569zm2.215 0c0 .284-.295.569-.59.569-.296 0-.59-.285-.59-.57 0-.284.294-.568.59-.568.295 0 .59.284.59.569zm2.363 0c0 .284-.295.569-.59.569-.296 0-.591-.285-.591-.57 0-.284.295-.568.59-.568.296 0 .591.284.591.569zm2.215 0c0 .284-.295.569-.59.569-.296 0-.591-.285-.591-.57 0-.284.295-.568.59-.568.296 0 .591.284.591.569zm2.363 0c0 .284-.295.569-.59.569-.296 0-.591-.285-.591-.57 0-.284.295-.568.59-.568.296 0 .59.284.59.569zm2.215 0c0 .284-.295.569-.59.569-.296 0-.591-.285-.591-.57 0-.284.295-.568.59-.568.296 0 .59.284.59.569zM13.738 33.73c0 .285-.296.57-.591.57s-.59-.285-.59-.57c0-.284.295-.569.59-.569s.59.285.59.57zm2.362 0c0 .285-.295.57-.59.57-.296 0-.591-.285-.591-.57 0-.284.295-.569.59-.569.296 0 .591.285.591.57zm2.215 0c0 .285-.295.57-.59.57-.296 0-.59-.285-.59-.57 0-.284.294-.569.59-.569.295 0 .59.285.59.57zm2.363 0c0 .285-.295.57-.59.57-.296 0-.591-.285-.591-.57 0-.284.295-.569.59-.569.296 0 .591.285.591.57zm2.215 0c0 .285-.295.57-.59.57-.296 0-.591-.285-.591-.57 0-.284.295-.569.59-.569.296 0 .591.285.591.57zm2.363 0c0 .285-.295.57-.59.57-.296 0-.591-.285-.591-.57 0-.284.295-.569.59-.569.296 0 .59.285.59.57zm2.215 0c0 .285-.295.57-.59.57-.296 0-.591-.285-.591-.57 0-.284.295-.569.59-.569.296 0 .59.285.59.57z"/>
</svg>
