<svg xmlns="http://www.w3.org/2000/svg" width="17" height="18" viewBox="0 0 17 18">
    <path fill="#1E1E1E" fill-rule="nonzero" d="M2.012 0C.909 0 0 .939 0 2.077v9.232c0 1.139.909 2.077 2.012 2.077h1.271L2.9 17.238a.696.696 0 0 0 .378.694c.255.126.56.074.76-.132l4.29-4.414h6.65c1.103 0 2.012-.938 2.012-2.077V2.077C16.99.94 16.08 0 14.977 0H2.012zm0 1.385h12.965c.384 0 .671.296.671.692v9.232c0 .396-.287.692-.67.692h-6.93a.657.657 0 0 0-.475.202l-3.151 3.239.265-2.683a.707.707 0 0 0-.17-.53.661.661 0 0 0-.493-.228H2.012c-.383 0-.67-.296-.67-.692V2.077c0-.396.287-.692.67-.692zm2.012 4.154c-.618 0-1.118.517-1.118 1.154 0 .637.5 1.154 1.118 1.154.617 0 1.117-.517 1.117-1.154 0-.637-.5-1.154-1.117-1.154zm4.478 0c-.618 0-1.118.517-1.118 1.154 0 .637.5 1.154 1.118 1.154.617 0 1.117-.517 1.117-1.154 0-.637-.5-1.154-1.117-1.154zm4.464 0c-.618 0-1.118.517-1.118 1.154 0 .637.5 1.154 1.118 1.154.617 0 1.117-.517 1.117-1.154 0-.637-.5-1.154-1.117-1.154z"/>
</svg>
