<svg xmlns="http://www.w3.org/2000/svg" width="82" height="53" viewBox="0 0 82 53">
    <g fill="none" fill-rule="evenodd">
        <g>
            <path fill="#000" d="M0 0h22v2H0zM0 6h22v2H0zM0 12h22v2H0zM6 17h2v21H6zM13 17h2v21h-2z"/>
            <circle cx="10.5" cy="37.5" r="4.5" fill="#C00" stroke="#000" stroke-width="2"/>
        </g>
        <g transform="translate(60)">
            <path fill="#000" d="M0 0h22v2H0zM0 6h22v2H0zM0 12h22v2H0zM6 17h2v21H6zM13 17h2v21h-2z"/>
            <circle cx="10.5" cy="37.5" r="4.5" fill="#C00" stroke="#000" stroke-width="2"/>
        </g>
        <g transform="translate(30 10)">
            <path fill="#000" d="M0 0h22v2H0zM0 6h22v2H0zM0 12h22v2H0zM6 17h2v21H6zM13 17h2v21h-2z"/>
            <circle cx="10.5" cy="37.5" r="4.5" fill="#C00" stroke="#000" stroke-width="2"/>
        </g>
    </g>
</svg>
