<svg xmlns="http://www.w3.org/2000/svg" xmlns:xlink="http://www.w3.org/1999/xlink" width="221" height="32" viewBox="0 0 221 32">
    <defs>
        <path id="a" d="M.031.125h220.647v31.844H.031z"/>
    </defs>
    <g fill="none" fill-rule="evenodd">
        <path fill="#FFF" d="M218.99 6.642c0-.699-.413-1.004-1.244-1.004h-1.342v3.536h.535V7.638h.614l.927 1.536h.6l-1.003-1.559c.517-.065.914-.339.914-.973m-.56-.032c0 .545-.403.577-.856.577h-.636v-1.1h.727c.37 0 .765.083.765.523"/>
        <g>
            <mask id="b" fill="#fff">
                <use xlink:href="#a"/>
            </mask>
            <path fill="#FFF" d="M220.678 7.397c0-1.76-1.427-3.07-3.093-3.07-1.681 0-3.105 1.31-3.105 3.07 0 1.777 1.424 3.072 3.105 3.072 1.666 0 3.093-1.295 3.093-3.072m-.616 0c0 1.476-1.095 2.565-2.477 2.565-1.399 0-2.49-1.089-2.49-2.565 0-1.454 1.091-2.562 2.49-2.562 1.382 0 2.477 1.108 2.477 2.562M13.016 27.495s-1.702.324-2.772-1.66l-5.157-7.821-.862 1.408s-1.133-1.311.044-3.233l4.366-8.617h-1.65S7.51 5.917 9.76 5.917h9.647l-.779-1.459s1.703-.317 2.765 1.67l5.424 8.295 1.018-1.48s1.126 1.316-.058 3.233l-5.041 8.902h6.293a15.876 15.876 0 0 0 2.792-9.017c0-8.8-7.124-15.936-15.91-15.936C7.123.125 0 7.26 0 16.06S7.123 32 15.911 32c5.014 0 9.485-2.327 12.401-5.96H12.231l.785 1.455" mask="url(#b)"/>
        </g>
        <path fill="#FFF" d="M71.15 28.233h9.337l-1.308-2.193h-9.45l1.42 2.193M53.374 28.46h9.675l.56-2.42h-9.675l-.56 2.42M135.951 28.46h19.463c2.711 0 4.386-1.2 5.39-2.42h-24.293l-.56 2.42M177.803 4.68h-9.901l-4.728 20.398h9.9l4.729-20.398M162.39 28.46h9.9l.56-2.42h-9.9l-.56 2.42M193.458 21.586h-7.876l3.92-16.906h-9.9l-4.729 20.398h17.777l.808-3.492M174.089 28.46h17.776l.561-2.42h-17.775l-.562 2.42M51.39 10.324h5.062l1.31-5.644H36.722l-1.309 5.644h5.851l-3.42 14.754H47.97l3.42-14.754M37.061 28.46h10.125l.561-2.42H37.621l-.56 2.42M212.456 11.226l1.458-6.546h-20.51l-1.459 6.546h5.324l-3.26 13.852h10.127l3.26-13.852h5.06M193.216 28.46h10.125l.568-2.42h-10.124l-.57 2.42M104.563 28.46h10.575l2.163-2.42h-10.62l-2.118 2.42M136.514 4.567h-11.212l-8.026 8.903-1.36-8.903h-8.09l2.361 17.467-2.664 3.044h10.64l18.351-20.51M86.562 28.46H98.6s2.624.405 4.862-2.42h-21.81c.824 1.286 2.292 2.42 4.91 2.42M126.444 19.726l9.842.01 1.126-4.858h-6.805l-4.163 4.848M150.069 11.103l-.674 2.93h3.825s1.913.056 1.913-1.465c0 0 .225-1.465-1.744-1.465h-3.32zm3.377 9.24s.224-1.464-1.744-1.464h-3.32l-.674 2.931h3.826s1.912.055 1.912-1.466zm8.719 3.157s-.176.703-.687 1.578h-24.744l4.731-20.398h18.563s5.961-.225 5.511 6.423c0 0-.563 5.635-6.413 5.635 0 0 4.39.79 3.039 6.762zM67.26 10.307l-.86 3.695h4.637s2.025-.024 2.194-1.828c0 0 .505-1.867-2.026-1.867H67.26zm-2.038 8.78l-1.39 5.99h-9.674L58.886 4.68h17.888s5.288-.62 5.4 4.394c0 0-.225 6.537-2.474 8.115 0 0-1.238 1.353-5.063 1.24l3.967 6.649h-9.5l-3.882-5.99z"/>
        <path fill="#FFF" d="M96.294 11.329h-2.025c-.743 0-1.499.608-1.681 1.352l-1.897 7.777c-.182.742.277 1.352 1.02 1.352h2.025c.742 0 1.499-.61 1.68-1.352l1.898-7.777c.181-.744-.278-1.352-1.02-1.352m8.269 12.959a11.1 11.1 0 0 1-.435.79H81.154c-.578-1.401-.554-2.706-.554-2.706.787-7.1 3.374-13.41 3.374-13.41 1.913-4.395 6.188-4.395 6.188-4.395h10.688c6.3.225 6.806 4.79 6.806 4.79 1.013 7.044-3.093 14.931-3.093 14.931"/>
    </g>
</svg>
