<svg xmlns="http://www.w3.org/2000/svg" width="84" height="44" viewBox="0 0 84 44">
    <g fill="none" fill-rule="nonzero">
        <path fill="#FFC629" d="M0 0h83.519v24.13H0z"/>
        <path fill="#FFF" d="M0 24.13h83.519v19.078H0z"/>
        <path fill="#0068B1" d="M0 25.256h83.519v2.174H0z"/>
        <path fill="#1C1B1A" d="M3.929 34.945H2.45v-4.198h1.479v4.198zm4.952 0h-1.12L6.081 33v1.945H4.63v-4.198h1.12l1.68 1.901v-1.9H8.88v4.197zm4.979-2.121c.006.274-.011.548-.052.818a1.424 1.424 0 0 1-.823 1.074 3.586 3.586 0 0 1-1.312.185H9.58v-4.154h2.092c.445-.02.89.042 1.312.185.437.19.748.592.823 1.065.04.274.058.55.052.827zm-1.461 0a1.38 1.38 0 0 0-.175-.88 1.193 1.193 0 0 0-.735-.15h-.447v2.007h.447c.248.032.5-.017.717-.141.132-.114.193-.387.193-.81v-.026zm5.95 2.12h-3.903v-4.197h3.903v1.1h-2.441v.361h2.135v1.1h-2.135v.493h2.44v1.144zm4.856-2.868c0 .88-.621 1.329-1.864 1.329h-.875v1.54h-1.47v-4.198h2.345c.442-.026.883.056 1.287.238.386.22.611.645.577 1.091zm-1.452 0c0-.194-.14-.29-.412-.29h-.875v.58h.875c.28.01.412-.061.412-.281v-.009zm5.888 2.869H23.74v-4.198h3.902v1.1H25.2v.361h2.135v1.1H25.2v.493h2.441v1.144zm4.857 0h-1.13l-1.67-1.901v1.9h-1.462v-4.197h1.12l1.68 1.901v-1.9h1.462v4.197zm4.97-2.121c.006.274-.012.548-.053.818a1.424 1.424 0 0 1-.822 1.074 3.586 3.586 0 0 1-1.313.185h-2.091v-4.154h2.091c.445-.02.89.042 1.313.185.437.19.747.592.822 1.065.04.274.058.55.053.827zm-1.462 0a1.317 1.317 0 0 0-.175-.88 1.193 1.193 0 0 0-.735-.15h-.446v2.007h.446c.248.032.5-.017.718-.141.131-.114.192-.387.192-.81v-.026zm5.95 2.12h-3.902v-4.197h3.902v1.1h-2.441v.361h2.135v1.1h-2.135v.493h2.441v1.144zm4.856 0h-1.128l-1.671-1.9v1.9H42.55v-4.197h1.12l1.68 1.901v-1.9h1.462v4.197zm4.796-3.097H50.18v3.098h-1.435v-3.098h-1.452v-1.1h4.314v1.1zm6.098.977c.006.274-.011.548-.052.818a1.424 1.424 0 0 1-.823 1.074 3.586 3.586 0 0 1-1.312.185h-2.091v-4.154h2.09c.446-.02.89.042 1.313.185.438.19.748.592.823 1.065.04.274.058.55.052.827zm-1.461 0a1.317 1.317 0 0 0-.175-.88 1.193 1.193 0 0 0-.735-.15h-.464v2.007h.447c.248.032.5-.017.717-.141.149-.114.21-.387.21-.81v-.026zm5.95 2.12h-3.902v-4.197h3.902v1.1h-2.441v.361h2.117v1.1h-2.117v.493h2.441v1.144zm5.399 0h-1.549l-.289-.72h-1.505l-.297.72h-1.54l1.933-4.153h1.296l1.95 4.154zm-2.223-1.706l-.376-.933-.367.941.743-.008zm6.169 1.707h-3.631v-4.198h1.452v3.054h2.179v1.144zm4.436 0h-3.902v-4.198h3.902v1.1h-2.45v.361h2.135v1.1h-2.135v.493h2.45v1.144zm5.25 0h-1.75l-.813-1.223a.638.638 0 0 0-.57-.335v1.558h-1.417v-4.198h2.284a2.56 2.56 0 0 1 1.295.255c.367.227.574.643.534 1.074 0 .466-.289.827-.875 1.082.332.388.752.968 1.312 1.787zm-1.916-2.816c0-.194-.14-.29-.429-.29h-.778v.58h.778c.289-.044.429-.114.429-.334v.044zM9.45 39.82H7.455v-3.027H9.45v.44H7.91v.818h1.348v.414H7.91v.88h1.54v.475zm2.896 0h-.542l-.744-1.162-.744 1.162h-.542l1.015-1.558-.954-1.47h.543l.682 1.083.691-1.082h.543l-.963 1.47 1.015 1.557zm2.625-2.147a.882.882 0 0 1-.288.695c-.215.15-.474.225-.735.211h-.71v1.241h-.463v-3.027h1.146c.262-.018.523.05.744.193.21.164.324.421.306.687zm-.455 0a.38.38 0 0 0-.175-.361.87.87 0 0 0-.42-.08h-.682v.88h.682c.394.036.595-.122.595-.44zm2.853 2.147h-2.004v-3.027h2.004v.44H15.82v.818h1.348v.414H15.82v.88h1.549v.475zm2.774 0h-.534l-.613-1.074a.341.341 0 0 0-.297-.21h-.359v1.284h-.455v-3.027h1.111c.26-.016.52.055.735.202a.803.803 0 0 1 .298.678.883.883 0 0 1-.166.528.813.813 0 0 1-.473.281l.753 1.338zm-.613-2.147c0-.29-.184-.44-.551-.44h-.621v.88h.638c.35 0 .534-.141.534-.44zm3.01-.44h-.919v2.587h-.437v-2.587h-.875v-.44h2.257l-.026.44zm3.903 1.698a.82.82 0 0 1-.342.687 1.177 1.177 0 0 1-.761.246 1.107 1.107 0 0 1-.818-.241 1.12 1.12 0 0 1-.407-.753l.455-.08c.02.186.107.359.245.484.156.102.34.151.525.141a.74.74 0 0 0 .429-.114.405.405 0 0 0 .219-.37c0-.202-.15-.343-.455-.44l-.875-.237a.748.748 0 0 1-.132-1.294c.205-.136.447-.203.692-.194.24-.008.48.05.69.168.2.141.354.337.447.563l-.411.193a1.196 1.196 0 0 0-.28-.378.87.87 0 0 0-.447-.097c-.367 0-.55.123-.55.361s.148.282.454.36c.298.067.59.155.875.265.282.13.458.419.447.73zm2.52.889h-2.004v-3.027h2.004v.44h-1.55v.818h1.357v.414h-1.356v.88h1.549v.475zm2.773 0h-.49l-.595-1.074a.341.341 0 0 0-.297-.21h-.359v1.284h-.499v-3.027h1.077c.257-.015.512.056.726.202.205.163.32.415.306.678 0 .19-.061.375-.175.528a.76.76 0 0 1-.464.281l.77 1.338zm-.603-2.147c0-.29-.184-.44-.552-.44h-.621v.88h.621c.368 0 .552-.141.552-.44zm3.158-.88l-.997 3.027H32.9l-.997-3.027h.48l.718 2.253.709-2.253h.481zm.928 3.027h-.473v-3.027h.473v3.027zm2.8-2.49l-.35.29a1.553 1.553 0 0 0-.298-.3.628.628 0 0 0-.385-.122c-.516 0-.778.37-.778 1.108 0 .74.262 1.1.778 1.1a.628.628 0 0 0 .385-.123c.11-.084.21-.182.298-.29l.35.29c-.128.16-.278.3-.446.414a1.08 1.08 0 0 1-.587.158c-.386.014-.75-.18-.953-.51a2.211 2.211 0 0 1 0-2.156c.212-.317.574-.497.953-.475.207-.005.41.05.587.158.17.129.32.283.446.458zm2.52 2.49h-1.995v-3.027h1.995v.44H38.99v.818h1.356v.414H38.99v.88h1.549v.475zm1.085-.264c0 .08-.031.156-.088.211a.288.288 0 0 1-.21.088.3.3 0 0 1-.201-.51.28.28 0 0 1 .201-.08.28.28 0 0 1 .298.291zm3.727.264h-1.855v-3.027h.455v2.552h1.374l.026.475zm2.617-1.514c.009.367-.089.727-.28 1.039a1.092 1.092 0 0 1-.963.475 1.1 1.1 0 0 1-.971-.475 2.282 2.282 0 0 1 0-2.156 1.1 1.1 0 0 1 .971-.475c.381-.022.746.158.962.475.207.334.304.725.28 1.117zm-.464 0c0-.739-.263-1.108-.779-1.108s-.788.37-.788 1.108c0 .74.263 1.1.788 1.1s.779-.37.779-1.1zm3.115-.976l-.35.29a1.852 1.852 0 0 0-.298-.3.645.645 0 0 0-.385-.122c-.516 0-.778.37-.778 1.108 0 .74.262 1.1.778 1.1a.645.645 0 0 0 .385-.123c.109-.087.208-.184.298-.29l.35.29c-.128.16-.278.3-.447.414a1.08 1.08 0 0 1-.586.158c-.386.014-.75-.18-.953-.51a2.211 2.211 0 0 1 0-2.156c.227-.315.604-.483.988-.44.207-.005.41.05.587.158.156.121.294.263.41.423zm3.062 2.49h-.498l-.333-.88h-1.164l-.341.88h-.49l1.199-3.027h.428l1.2 3.027zm-1.006-1.294l-.429-1.038-.402 1.038h.831zm3.194 1.294H54.04v-3.027h.455v2.552h1.374v.475zm2.126 0h-1.82v-3.027h.446v2.552h1.365l.009.475zm2.275-3.027l-1.024 2.015v1.012h-.437V38.8l-.998-2.007h.508l.717 1.452.727-1.452h.507zm4.078 1.513c.011.366-.083.726-.272 1.039a1.223 1.223 0 0 1-1.934 0 2.211 2.211 0 0 1 0-2.156 1.223 1.223 0 0 1 1.934 0c.203.335.298.726.271 1.117zm-.456 0c0-.739-.262-1.108-.787-1.108s-.788.37-.788 1.108c0 .73.263 1.1.788 1.1s.788-.37.788-1.1zm3.955-1.513l-.726 3.027h-.402l-.516-2.015-.508 2.015h-.402l-.797-3.027h.473l.49 1.997.507-1.997h.385l.508 1.997.49-1.997h.498zm2.538 3.027h-.411l-1.287-2.094v2.094h-.454v-3.027h.42l1.286 2.094v-2.094h.446v3.027zm2.651 0h-2.004v-3.027h2.004v.44h-1.54v.818h1.357v.414h-1.357v.88h1.549l-.009.475zm2.774-1.514c.017.22.017.44 0 .66a.88.88 0 0 1-.42.696 1.741 1.741 0 0 1-.875.158h-.945v-3.027h.954c.3-.022.6.03.875.15a.88.88 0 0 1 .42.703c.014.22.011.441-.009.66zm-.455 0a4.425 4.425 0 0 0 0-.624.467.467 0 0 0-.21-.344 1.21 1.21 0 0 0-.595-.105h-.516v2.112h.49c.203.017.407-.016.595-.097a.467.467 0 0 0 .21-.343c.022-.199.03-.399.026-.599zm1.566 1.25c.001.08-.03.156-.087.211a.305.305 0 0 1-.21.088.3.3 0 0 1-.21-.51.314.314 0 0 1 .21-.08.297.297 0 0 1 .21.08.291.291 0 0 1 .087.211zm-.995-23.707a.245.245 0 0 1-.073.192.317.317 0 0 1-.207.09l.34.457h-.23l-.31-.449h-.2v.449h-.18v-1.03h.45c.28 0 .41.097.41.29zm-.49.167c.16 0 .31-.018.31-.176s-.13-.158-.26-.158h-.24v.334h.19zm-.029-9.627c.484 0 .876.394.876.88s-.392.88-.876.88a.878.878 0 0 1-.874-.88c0-.486.391-.88.874-.88zm0 1.637a.733.733 0 0 0 .726-.757.757.757 0 0 0-.47-.702.75.75 0 0 0-.823.177.76.76 0 0 0-.146.833c.125.282.407.46.713.449zM29.155 10.692c2.275-.502 3.43 1.69 2.607 3.67-1.19 2.974-3.832 3.247-5.162 2.173l-.201.431h-3.78a1.6 1.6 0 0 1-1.287-.756c-.105.21-.358.756-.358.756h-1.986a1.573 1.573 0 0 1-1.278-.721l-.315.721h-7a3.147 3.147 0 0 1-3.159-2.772c-.035-2.93 3.912-6.723 8.619-7.136 2.809-.247 2.879 2.024 2.004 3.352h-2.214a.15.15 0 0 1-.105-.246c.368-.475.473-.968-.044-.968a7.559 7.559 0 0 0-5.81 3.898c-.402.801.263 1.681 1.26 1.681h6.51c.019-.087.045-.173.079-.255l1.75-3.969h2.336s-1.557 3.37-1.688 3.687c-.132.317.017.537.288.537h.823a864.48 864.48 0 0 1 1.881-4.224h2.301l-1.671 3.696c-.122.264-.026.528.227.528h1.392l3.351-7.533h2.152l-1.522 3.45zm.875 2.64l-.018.044c.08-.994-.98-1.206-1.478-.986l-.105.053c-.114.247-.858 2.06-.928 2.139-.07.079-.096.22 0 .272 1.496.775 2.476-.862 2.529-1.522zm39.795.792c-.131.36-.079.66.35.686h3.719l-.875 2.174h-4.052a1.842 1.842 0 0 1-1.46-.686l-.298.686h-5.25a1.957 1.957 0 0 1-1.488-.81l-.35.81h-2.94a1.75 1.75 0 0 1-1.216-.836 2.192 2.192 0 0 1-1.83.925 2.193 2.193 0 0 1-1.792-.995l-.386.88H49.28a1.75 1.75 0 0 1-1.313-.836 2.286 2.286 0 0 1-3.5.185l-.28.65h-7.06a3.13 3.13 0 0 1-3.125-2.771c-.035-2.93 3.912-6.724 8.62-7.137 2.79-.264 2.887 2.024 1.907 3.397h-2.197a.15.15 0 0 1-.105-.246c.412-.467.517-.969 0-.969A7.559 7.559 0 0 0 36.4 13.13c-.402.8.263 1.68 1.26 1.68h6.125c.079-3.37 3.868-4.928 5.618-3.748l.218-.458h2.301s-1.434 3.186-1.575 3.52c-.14.334-.043.66.377.66h1.19c.07-3.758 4.226-4.814 5.521-3.81l1.706-3.732h2.223s-2.879 6.556-3.028 6.882c-.148.326-.035.651.412.651h1.093a4.614 4.614 0 0 1 1.365-3 4.358 4.358 0 0 1 4.165-1.18c.62.24 1.105.74 1.325 1.37a2.29 2.29 0 0 1-.178 1.904.516.516 0 0 1-.447.273h-3.998c0 .695.787.642.874.642h4.376l1.942-4.497h-1.522l.77-1.76h1.172c.201 0 .297-.088.297-.158l.482-1.1h2.24l-.499 1.276h3.666l-.673 1.584a.254.254 0 0 1-.237.15h-3.386s-1.61 3.475-1.75 3.845zm-7.394-1.302c-.061.123.018.079.018.079h2.345c.07 0 .07-.07.07-.07a.885.885 0 0 0 0-.317c-.385-.898-1.952-.502-2.433.308zm-13.562-.115c.035-.079.061-.22-.035-.255-1.497-.774-2.477.862-2.529 1.522-.131 1.039 1.094 1.206 1.619.88.184-.387.717-1.628.945-2.147zm7.936 0c.044-.079.07-.22-.026-.255-1.497-.774-2.477.862-2.529 1.522-.131 1.039 1.094 1.206 1.619.88.184-.387.717-1.628.936-2.147z"/>
    </g>
</svg>
