<svg xmlns="http://www.w3.org/2000/svg" xmlns:xlink="http://www.w3.org/1999/xlink" width="47" height="30" viewBox="0 0 47 30">
    <defs>
        <path id="a" d="M.011 3.172v.002c0 1.74 1.386 3.153 3.094 3.153 1.71 0 3.095-1.412 3.095-3.153v-.002C6.2 1.432 4.815.02 3.105.02 1.397.02.01 1.432.01 3.172"/>
        <linearGradient id="c" x1="14.665%" x2="88.704%" y1="81.673%" y2="11.808%">
            <stop offset="0%" stop-color="#D13921"/>
            <stop offset="100%" stop-color="#F59213"/>
        </linearGradient>
    </defs>
    <g fill="none" fill-rule="evenodd">
        <rect width="46" height="29" x=".5" y=".5" fill="#FFF" stroke="#D9D9D9" rx="2"/>
        <g fill="#201D1C">
            <path fill-rule="nonzero" d="M8.158 16.708c-.357.328-.82.471-1.553.471H6.3v-3.92h.305c.733 0 1.178.134 1.553.48.392.356.628.908.628 1.476 0 .569-.236 1.137-.628 1.493zm-1.326-4.453H5.167v5.928h1.656c.882 0 1.518-.212 2.076-.684a2.997 2.997 0 0 0 1.056-2.276c0-1.75-1.283-2.968-3.123-2.968z"/>
            <path d="M10.477 18.183h1.135v-5.928h-1.135zM14.386 14.53c-.68-.257-.88-.426-.88-.747 0-.373.356-.657.845-.657.34 0 .62.143.915.48l.594-.792a2.518 2.518 0 0 0-1.71-.657c-1.03 0-1.814.728-1.814 1.699 0 .816.365 1.234 1.431 1.625.444.16.67.266.784.338.227.15.34.364.34.613 0 .48-.374.836-.88.836-.542 0-.977-.275-1.239-.79l-.733.719c.523.782 1.15 1.128 2.014 1.128 1.18 0 2.007-.798 2.007-1.946 0-.942-.383-1.368-1.674-1.85M16.418 15.223c0 1.742 1.342 3.094 3.07 3.094.488 0 .907-.098 1.423-.346V16.61c-.454.463-.856.65-1.37.65-1.143 0-1.954-.845-1.954-2.045 0-1.139.837-2.036 1.901-2.036.541 0 .95.196 1.423.667v-1.36c-.498-.258-.908-.365-1.396-.365a3.088 3.088 0 0 0-3.097 3.102M29.907 16.237l-1.55-3.982h-1.24l2.468 6.08h.61l2.514-6.08h-1.23l-1.572 3.982M33.222 18.183h3.218v-1.004h-2.084v-1.6h2.007v-1.004h-2.007V13.26h2.084v-1.004h-3.218v5.928"/>
            <path fill-rule="nonzero" d="M38.656 14.984h-.331V13.19h.35c.706 0 1.09.301 1.09.878 0 .596-.384.917-1.109.917zm2.277-.979c0-1.11-.75-1.75-2.06-1.75h-1.682v5.928h1.134v-2.381h.148l1.57 2.38h1.396l-1.832-2.496c.855-.177 1.326-.773 1.326-1.68z"/>
        </g>
        <g transform="matrix(1 0 0 -1 21.27 18.413)">
            <mask id="b" fill="#fff">
                <use xlink:href="#a"/>
            </mask>
            <g mask="url(#b)">
                <circle cx="4.794" cy="4.457" r="4" fill="url(#c)" transform="translate(-2.065 -2.045)"/>
            </g>
        </g>
    </g>
</svg>
