<svg xmlns="http://www.w3.org/2000/svg" width="20" height="20" viewBox="0 0 20 20">
    <g fill="none" fill-rule="evenodd">
        <path fill="#FFC20F" fill-rule="nonzero" d="M8.498 3c-.315.003-.557.32-.563.553v1.335a5.61 5.61 0 0 0-1.414.795l-1.18-.668a.592.592 0 0 0-.768.207L3.071 7.778c-.147.25-.049.61.206.754l1.185.674c-.041.26-.094.518-.094.794 0 .275.053.529.094.789l-1.185.673a.568.568 0 0 0-.206.76l1.502 2.556c.148.25.513.346.769.201l1.179-.667a5.61 5.61 0 0 0 1.414.794v1.341c0 .29.268.553.563.553h3.004c.295 0 .563-.263.563-.553v-1.34a5.61 5.61 0 0 0 1.414-.795l1.18.667a.591.591 0 0 0 .768-.201l1.502-2.556a.568.568 0 0 0-.206-.76l-1.185-.673c.04-.26.094-.514.094-.789 0-.276-.053-.533-.094-.794l1.185-.674a.568.568 0 0 0 .206-.754l-1.502-2.556a.592.592 0 0 0-.769-.207l-1.18.668a5.61 5.61 0 0 0-1.413-.795V3.553c0-.29-.268-.553-.563-.553H8.498zm.563 1.105h1.878v1.146a.57.57 0 0 0 .399.524 4.52 4.52 0 0 1 1.724.973c.175.159.457.19.663.074l1.01-.57.938 1.595-1.015.576a.564.564 0 0 0-.27.604c.074.319.118.643.118.973 0 .33-.044.654-.118.973a.563.563 0 0 0 .27.599l1.015.575-.939 1.595-1.009-.57a.588.588 0 0 0-.663.075 4.52 4.52 0 0 1-1.724.973.569.569 0 0 0-.4.53v1.145H9.062v-1.146a.57.57 0 0 0-.399-.53 4.52 4.52 0 0 1-1.725-.972.588.588 0 0 0-.663-.075l-1.009.57-.938-1.595 1.015-.575a.563.563 0 0 0 .27-.6A4.333 4.333 0 0 1 5.494 10c0-.33.044-.654.118-.973a.564.564 0 0 0-.27-.604l-1.015-.576.938-1.595 1.01.57a.588.588 0 0 0 .662-.074 4.52 4.52 0 0 1 1.725-.973.57.57 0 0 0 .4-.524V4.105zM10 6.685c-1.86 0-3.38 1.49-3.38 3.315s1.52 3.316 3.38 3.316c1.86 0 3.38-1.491 3.38-3.316 0-1.825-1.52-3.316-3.38-3.316zm0 1.104c1.251 0 2.253.983 2.253 2.211 0 1.228-1.002 2.21-2.253 2.21-1.251 0-2.253-.982-2.253-2.21S8.75 7.79 10 7.79z"/>
    </g>
</svg>
