<svg xmlns="http://www.w3.org/2000/svg" xmlns:xlink="http://www.w3.org/1999/xlink" width="29" height="30" viewBox="0 0 29 30">
    <defs>
        <path id="a" d="M0 0h19v19H0z"/>
    </defs>
    <g fill="none" fill-rule="evenodd">
        <rect width="29" height="30" fill="#979797" rx="3"/>
        <g transform="translate(5 5)">
            <mask id="b" fill="#fff">
                <use xlink:href="#a"/>
            </mask>
            <path fill="#FFF" d="M9.5 0C6.92 0 6.596.01 5.583.057 4.572.103 3.881.264 3.277.5a4.657 4.657 0 0 0-1.683 1.095A4.657 4.657 0 0 0 .5 3.277C.264 3.881.103 4.572.057 5.583.011 6.596 0 6.92 0 9.5s.01 2.904.057 3.917c.046 1.011.207 1.702.442 2.306a4.657 4.657 0 0 0 1.095 1.683A4.657 4.657 0 0 0 3.277 18.5c.604.235 1.295.396 2.306.442C6.596 18.989 6.92 19 9.5 19s2.904-.01 3.917-.057c1.011-.046 1.702-.207 2.306-.442a4.657 4.657 0 0 0 1.683-1.095 4.657 4.657 0 0 0 1.095-1.683c.235-.604.396-1.295.442-2.306.046-1.013.057-1.337.057-3.917s-.01-2.904-.057-3.917c-.046-1.011-.207-1.702-.442-2.306a4.657 4.657 0 0 0-1.095-1.683A4.657 4.657 0 0 0 15.723.5c-.604-.235-1.295-.396-2.306-.442C12.404.011 12.08 0 9.5 0zm0 1.712c2.537 0 2.837.01 3.839.055.926.042 1.43.197 1.764.327.443.173.76.378 1.092.71.333.333.538.65.71 1.093.13.335.286.838.328 1.764.046 1.002.055 1.302.055 3.839s-.01 2.837-.055 3.839c-.042.926-.197 1.43-.327 1.764-.173.443-.378.76-.71 1.092a2.943 2.943 0 0 1-1.093.71c-.335.13-.838.286-1.764.328-1.002.046-1.302.055-3.839.055s-2.837-.01-3.839-.055c-.926-.042-1.43-.197-1.764-.327a2.943 2.943 0 0 1-1.092-.71 2.943 2.943 0 0 1-.71-1.093c-.13-.335-.286-.838-.328-1.764-.046-1.002-.055-1.302-.055-3.839s.01-2.837.055-3.839c.042-.926.197-1.43.327-1.764.173-.443.378-.76.71-1.092a2.943 2.943 0 0 1 1.093-.71c.335-.13.838-.286 1.764-.328 1.002-.046 1.302-.055 3.839-.055z" mask="url(#b)"/>
        </g>
        <path fill="#FFF" d="M14.5 17a2.5 2.5 0 1 1 0-5 2.5 2.5 0 0 1 0 5zm0-7a4.5 4.5 0 1 0 0 9 4.5 4.5 0 0 0 0-9zM21 9.5a1.5 1.5 0 1 1-3 0 1.5 1.5 0 0 1 3 0"/>
    </g>
</svg>
