<svg xmlns="http://www.w3.org/2000/svg" width="30" height="30" viewBox="5 5 30 30">
    <g fill="none" fill-rule="evenodd">
        <path stroke="#000" stroke-linecap="round" stroke-linejoin="round" d="M25.649 7.553a13.443 13.443 0 0 0-6.08-1.444c-7.456 0-13.5 6.045-13.5 13.5 0 7.456 6.044 13.5 13.5 13.5s13.5-6.044 13.5-13.5a13.46 13.46 0 0 0-1-5.11"/>
        <path fill="#FFC20F" d="M36.615 5.096c-3.665.3-12.595 7.456-17.005 15.593-1.747-2.643-5.238-3.74-9.538-3.275 2.738 1.22 5.974 4.408 8.115 7.788l5.497-.452c1.646-7.481 6.453-13.671 12.93-19.654z"/>
    </g>
</svg>
