<svg xmlns="http://www.w3.org/2000/svg" width="56" height="71" viewBox="0 0 56 71">
    <g fill="none" fill-rule="evenodd" stroke-linecap="round" stroke-linejoin="round" stroke-width="2">
        <path stroke="#FFC20F" d="M50.333 22.484c0 4.79-3.95 8.742-8.742 8.742M41.591 13.742c4.792 0 8.742 3.951 8.742 8.742"/>
        <path stroke="#010202" d="M20.15 1l-8.6 8.6a.86.86 0 0 0 0 1.24l8.515 8.513"/>
        <path stroke="#FFC20F" d="M4.917 47.739c0-4.791 3.951-8.742 8.742-8.742M13.66 56.48c-4.793 0-8.742-3.95-8.742-8.741"/>
        <path stroke="#010202" d="M42.067 59.98H13.398C6.5 59.98 1 54.38 1 47.584.997 40.68 6.497 35.078 13.398 35.078v.002h28.399l-.014-.002c6.898 0 12.398-5.602 12.398-12.398.004-6.902-5.496-12.503-12.398-12.503H13.384"/>
        <path stroke="#010202" d="M34.79 69.157l8.6-8.6a.857.857 0 0 0 0-1.24l-8.515-8.513"/>
    </g>
</svg>
