<svg id="Layer_1" data-name="Layer 1" xmlns="http://www.w3.org/2000/svg" viewBox="0 0 158.33 116.93">
    <defs><style>.cls-1{fill:#000;}</style></defs>
    <path class="cls-1" d="M146.24,0H12.1a1.63,1.63,0,0,0-1.35.76L.37,28.74C-.52,30.05.29,32,1.72,32H156.6c1.44,0,2.24-1.91,1.35-3.22L147.59.76A1.66,1.66,0,0,0,146.24,0Z" transform="translate(0)"/>
    <path class="cls-1" d="M4.08,116.93H154.25a4.08,4.08,0,0,0,4.08-4.08V39.67a4.08,4.08,0,0,0-4.08-4.08H4.08A4.08,4.08,0,0,0,0,39.67v73.18A4.08,4.08,0,0,0,4.08,116.93Zm111.47-4.59H82.33V65.13h33.22ZM42.79,65.13H76v47.21H42.79Z" transform="translate(0)"/>
</svg>
