<svg id="Layer_1" data-name="Layer 1" xmlns="http://www.w3.org/2000/svg" viewBox="0 0 251.58 240.06">
    <defs><style>.cls-1{fill:#000;}</style></defs>
    <polygon class="cls-1" points="0.2 202.35 10.94 210.63 10.78 8.87 0 0.62 0.2 202.35"/><polygon class="cls-1" points="12.46 211.81 23.2 220.1 23.1 18.28 12.31 10.03 12.46 211.81"/><polygon class="cls-1" points="24.73 221.27 35.48 229.57 35.42 27.71 24.62 19.45 24.73 221.27"/><polygon class="cls-1" points="47.76 37.15 36.95 28.88 37 230.75 47.76 239.06 47.76 37.15"/><polygon class="cls-1" points="250.42 35.41 240.07 27.62 39.52 27.55 50.13 35.32 250.42 35.41"/><polygon class="cls-1" points="238.28 26.26 227.89 18.44 27.01 18.4 37.67 26.2 238.28 26.26"/><polygon class="cls-1" points="226.09 17.09 215.67 9.24 14.47 9.22 25.16 17.05 226.09 17.09"/><polygon class="cls-1" points="213.87 7.88 203.4 0 1.87 0 12.61 7.86 213.87 7.88"/><polygon class="cls-1" points="54.05 204.64 54.05 163.32 98.33 163.32 98.33 118.07 54.05 118.07 54.05 76.76 98.33 76.76 98.33 36.9 49.53 36.9 49.53 240.06 98.33 240.06 98.33 204.64 54.05 204.64"/><rect class="cls-1" x="100.61" y="36.9" width="48.8" height="39.86"/><rect class="cls-1" x="151.7" y="36.9" width="48.8" height="39.86"/><circle class="cls-1" cx="64.6" cy="87.55" r="2.42"/><circle class="cls-1" cx="64.6" cy="107.27" r="2.42"/><circle class="cls-1" cx="238.74" cy="87.55" r="2.42"/><circle class="cls-1" cx="238.74" cy="107.27" r="2.42"/><polygon class="cls-1" points="202.78 36.9 202.78 76.76 248.77 76.76 248.77 118.07 202.78 118.07 202.78 163.32 248.77 163.32 248.77 204.64 202.78 204.64 202.78 240.06 251.58 240.06 251.58 36.9 202.78 36.9"/><rect class="cls-1" x="151.7" y="118.07" width="48.8" height="45.25"/><rect class="cls-1" x="151.7" y="204.64" width="48.8" height="35.42"/><rect class="cls-1" x="100.61" y="118.07" width="48.8" height="45.25"/><rect class="cls-1" x="100.61" y="204.64" width="48.8" height="35.42"/><circle class="cls-1" cx="64.6" cy="174.12" r="2.42"/><circle class="cls-1" cx="64.6" cy="193.84" r="2.42"/><circle class="cls-1" cx="238.74" cy="174.12" r="2.42"/><circle class="cls-1" cx="238.74" cy="193.84" r="2.42"/>
</svg>
