<svg xmlns="http://www.w3.org/2000/svg" width="22" height="20" viewBox="0 0 22 20">
    <path fill="#000" fill-rule="nonzero" d="M.537 3.243h13.2a2.681 2.681 0 0 0 5.258 0h2.468a.54.54 0 0 0 0-1.08h-2.468a2.681 2.681 0 0 0-5.259 0H.536a.54.54 0 0 0 0 1.08zm15.829-2.162c.885 0 1.61.73 1.61 1.622a1.62 1.62 0 0 1-1.61 1.621 1.62 1.62 0 0 1-1.61-1.621 1.62 1.62 0 0 1 1.61-1.622zm5.097 8.378h-13.2a2.681 2.681 0 0 0-5.258 0H.537a.54.54 0 0 0 0 1.082h2.468a2.681 2.681 0 0 0 5.259 0h13.2a.54.54 0 0 0 0-1.082zM5.634 11.622A1.62 1.62 0 0 1 4.024 10a1.62 1.62 0 0 1 1.61-1.622c.886 0 1.61.73 1.61 1.622a1.62 1.62 0 0 1-1.61 1.622zm15.83 5.135H13.63a2.681 2.681 0 0 0-5.26 0H.538a.54.54 0 0 0 0 1.08H8.37a2.681 2.681 0 0 0 5.259 0h7.833a.54.54 0 0 0 0-1.08zM11 18.919a1.62 1.62 0 0 1-1.61-1.622A1.62 1.62 0 0 1 11 15.676c.886 0 1.61.73 1.61 1.621A1.62 1.62 0 0 1 11 18.92z"/>
</svg>
