<svg xmlns="http://www.w3.org/2000/svg" width="84" height="58" viewBox="0 0 84 58">
    <g fill="none" fill-rule="evenodd" transform="translate(12 4)">
        <g stroke="#000" stroke-linecap="round" stroke-width="2">
            <path d="M11.497 0C3.832 6.675 0 14.873 0 24.596 0 34.318 3.832 42.786 11.497 50"/>
            <path d="M15.887 8.333c-5.036 4.45-7.554 9.916-7.554 16.397 0 6.482 2.518 12.127 7.554 16.937M20.444 16.667c-2.518 2.225-3.777 4.957-3.777 8.198 0 3.241 1.259 6.064 3.777 8.468"/>
        </g>
        <g stroke="#000" stroke-linecap="round" stroke-width="2">
            <path d="M49.337 0C57 6.675 60.833 14.873 60.833 24.596c0 9.722-3.832 18.19-11.496 25.404"/>
            <path d="M44.946 8.333c5.036 4.45 7.554 9.916 7.554 16.397 0 6.482-2.518 12.127-7.554 16.937M40.39 16.667c2.518 2.225 3.777 4.957 3.777 8.198 0 3.241-1.26 6.064-3.777 8.468"/>
        </g>
        <circle cx="30" cy="25" r="6.667" fill="#FFC20F"/>
    </g>
</svg>
