<svg xmlns="http://www.w3.org/2000/svg" width="29" height="30" viewBox="0 0 29 30">
    <g fill="none" fill-rule="evenodd">
        <rect width="29" height="30" fill="#979797" rx="3"/>
        <path fill="#FFF" d="M24.561 10.186c-.241-.86-.953-1.538-1.856-1.768C21.067 8 14.5 8 14.5 8s-6.567 0-8.205.418c-.903.23-1.615.908-1.856 1.768C4 11.746 4 15 4 15s0 3.254.439 4.814c.241.86.953 1.538 1.856 1.768C7.933 22 14.5 22 14.5 22s6.567 0 8.205-.418c.903-.23 1.615-.908 1.856-1.768C25 18.254 25 15 25 15s0-3.254-.439-4.814"/>
        <path fill="#979797" d="M12 19l5.714-4L12 11v8"/>
    </g>
</svg>
