<svg xmlns="http://www.w3.org/2000/svg" width="26" height="26" viewBox="0 0 26 26">
    <g fill="none" fill-rule="evenodd">
        <path fill="#000" fill-rule="nonzero" d="M0 14.787c0 .325.216.542.541.542h2.222a10.627 10.627 0 0 0 1.353 3.25l-1.57 1.571a.56.56 0 0 0 0 .759l2.545 2.546a.525.525 0 0 0 .759 0l1.571-1.571c.975.65 2.059 1.083 3.25 1.354v2.22c0 .326.217.542.542.542h3.575c.325 0 .54-.216.54-.541v-2.221a10.627 10.627 0 0 0 3.25-1.354l1.572 1.57a.56.56 0 0 0 .759 0l2.546-2.545a.56.56 0 0 0 0-.759l-1.571-1.571c.65-.975 1.083-2.059 1.354-3.25h2.22c.326 0 .542-.217.542-.542v-3.575c0-.325-.216-.54-.541-.54h-2.221a10.627 10.627 0 0 0-1.354-3.25l1.57-1.572c.272-.271.163-.65 0-.759L20.91 2.545a.525.525 0 0 0-.759 0l-1.571 1.571c-.975-.65-2.059-1.083-3.25-1.353V.54c0-.325-.217-.541-.542-.541h-3.575c-.325 0-.54.216-.54.541v2.222a10.627 10.627 0 0 0-3.25 1.353L5.85 2.546c-.379-.272-.65-.11-.759 0L2.546 5.09c-.109.109-.325.434 0 .759l1.571 1.571c-.65.975-1.083 2.059-1.353 3.25H.54c-.325 0-.541.217-.541.542v3.575zm1.084-3.033h2.112a.527.527 0 0 0 .541-.434c.217-1.3.76-2.546 1.517-3.629.162-.216.108-.487-.054-.704L3.684 5.471 5.47 3.684 6.987 5.2c.163.162.488.216.704.054 1.084-.759 2.33-1.246 3.63-1.516a.527.527 0 0 0 .433-.542V1.084h2.491v2.112c0 .271.163.488.434.542 1.3.216 2.546.758 3.629 1.516.216.162.487.109.703-.054l1.517-1.516 1.787 1.787L20.8 6.987c-.163.163-.216.488-.054.704.759 1.084 1.246 2.33 1.516 3.63a.527.527 0 0 0 .542.433h2.113v2.491h-2.112a.527.527 0 0 0-.542.434c-.216 1.3-.758 2.546-1.516 3.629-.162.216-.109.487.054.703l1.516 1.517-1.787 1.787-1.517-1.516c-.162-.163-.487-.216-.703-.054-1.084.759-2.33 1.246-3.63 1.516a.527.527 0 0 0-.433.542v2.113h-2.491v-2.112a.527.527 0 0 0-.434-.542c-1.3-.216-2.546-.758-3.629-1.516-.216-.162-.487-.109-.703.054l-1.517 1.516-1.787-1.787L5.2 19.012c.163-.162.216-.487.054-.703-.759-1.084-1.246-2.33-1.516-3.63a.527.527 0 0 0-.542-.433H1.084v-2.492z"/>
        <path stroke="#FFC20F" d="M13 7c3.294 0 6 2.706 6 6s-2.706 6-6 6-6-2.706-6-6 2.706-6 6-6z"/>
    </g>
</svg>
