<svg id="Layer_1" data-name="Layer 1" xmlns="http://www.w3.org/2000/svg" viewBox="0 0 175.91 97.99">
    <defs><style>.cls-1{fill:#FFC110;}</style></defs>
    <circle class="cls-1" cx="129.88" cy="84.32" r="13.67"/>
    <path class="cls-1" d="M64.48,68.62C56.66,60.2,48.91,55.31,37.15,55.31,26.27,55.31,19,59.66,11.27,67H1.39v-64A3,3,0,0,1,4.44,0h107a3,3,0,0,1,3,3.05V57l-8.16,11.63Z"/><path class="cls-1" d="M0,75.63a3.13,3.13,0,0,0,3.13,3.09h0L14.6,78.6a3.13,3.13,0,0,0,2.66-1.54,23,23,0,0,1,40.13.61,3.13,3.13,0,0,0,2.75,1.62h0l48.24-.57a3.11,3.11,0,0,0,2.45-1.23l10.75-14.16a25.26,25.26,0,0,1,6.31-.81,26.12,26.12,0,0,1,24.66,17.74h18.93a4.39,4.39,0,0,0,4.39-4.39V49.77a3.86,3.86,0,0,0-.37-1.64l-2.68-5.67V32a3.14,3.14,0,0,0-.42-1.56l-12.8-22.1a3.15,3.15,0,0,0-2.71-1.56H121.46a3.14,3.14,0,0,0-3.13,3.13V57.47a3.32,3.32,0,0,0-.53.53l-11,14.5L61.9,73a29.28,29.28,0,0,0-49.08-.65l-9.73.1A3.14,3.14,0,0,0,0,75.63ZM124.58,42.45V13h30.54L166.6,32.83v9.63h-42Z"/>
    <circle class="cls-1" cx="37.15" cy="84.32" r="13.67"/>
</svg>
