<svg xmlns="http://www.w3.org/2000/svg" width="20" height="20" viewBox="0 0 20 20">
    <path fill="none" fill-rule="nonzero" stroke="#FFC20F" stroke-width="1.25" d="M6.946 6.22C6.946 4.448 8.318 3 10 3c1.682 0 3.053 1.447 3.053 3.22 0 1.773-1.371 3.197-3.053 3.197S6.946 7.971 6.946 6.221zM16 15.753c-.053-2.338-2.575-4.26-5.708-4.38-1.646-.06-3.239.377-4.434 1.229C4.664 13.453 4 14.603 4 15.85 4 16.483 4.717 17 5.566 17h8.867c.425 0 .823-.12 1.115-.337.292-.218.45-.515.45-.813l.002-.098z"/>
</svg>
