<svg xmlns="http://www.w3.org/2000/svg" width="29" height="30" viewBox="0 0 29 30">
    <g fill="none" fill-rule="evenodd">
        <rect width="29" height="30" fill="#979797" rx="3"/>
        <path fill="#FFF" d="M11.66 23c6.794 0 10.508-5.77 10.508-10.774 0-.164-.003-.327-.01-.49A7.622 7.622 0 0 0 24 9.776a7.23 7.23 0 0 1-2.12.596 3.784 3.784 0 0 0 1.623-2.095 7.29 7.29 0 0 1-2.345.92A3.647 3.647 0 0 0 18.463 8c-2.04 0-3.694 1.696-3.694 3.786 0 .298.032.587.096.864-3.07-.158-5.791-1.665-7.612-3.956-.318.559-.5 1.21-.5 1.903a3.81 3.81 0 0 0 1.643 3.152 3.597 3.597 0 0 1-1.673-.474v.048c0 1.834 1.273 3.365 2.962 3.713a3.617 3.617 0 0 1-1.667.065c.47 1.504 1.833 2.599 3.45 2.63A7.295 7.295 0 0 1 6 21.299 10.268 10.268 0 0 0 11.66 23"/>
    </g>
</svg>
