<svg xmlns="http://www.w3.org/2000/svg" width="34" height="34" viewBox="0 0 34 34">
    <g fill="none" fill-rule="evenodd" transform="translate(3 5)">
        <path fill="#FFF" d="M12.833 11.429h2.333V24h-2.333z"/>
        <ellipse cx="14" cy="9.143" fill="#FFF" rx="3.5" ry="3.429"/>
        <path stroke="#FFF" stroke-linecap="round" stroke-width="2" d="M8.477 3.429c-1.762 1.525-2.644 3.4-2.644 5.621 0 2.223.882 4.158 2.644 5.807M4.23 0C1.41 2.441 0 5.44 0 8.995c0 3.556 1.41 6.653 4.23 9.29M23.333 0c2.82 2.441 4.23 5.44 4.23 8.995 0 3.556-1.41 6.653-4.23 9.29M19.25 3.429c1.763 1.525 2.644 3.4 2.644 5.621 0 2.223-.881 4.158-2.644 5.807"/>
    </g>
</svg>
