<svg xmlns="http://www.w3.org/2000/svg" width="34" height="34" viewBox="0 0 34 34">
    <path fill="#FFF" fill-rule="nonzero" d="M13.21 4c-.585.005-1.035.593-1.045 1.026v2.48c-.952.37-1.832.861-2.626 1.476l-2.19-1.24c-.477-.266-1.156-.083-1.428.385l-2.789 4.746c-.274.465-.091 1.132.382 1.4l2.2 1.252c-.076.485-.174.962-.174 1.475 0 .51.1.982.174 1.465l-2.2 1.25c-.478.27-.662.945-.382 1.412l2.79 4.746c.273.464.953.643 1.427.375l2.19-1.24a10.418 10.418 0 0 0 2.626 1.475v2.49c0 .538.498 1.027 1.046 1.027h5.578c.548 0 1.046-.49 1.046-1.026v-2.491c.952-.37 1.832-.86 2.626-1.476l2.19 1.24c.474.27 1.153.09 1.427-.374l2.79-4.746c.28-.467.098-1.143-.382-1.412l-2.2-1.25c.074-.483.174-.955.174-1.465 0-.513-.099-.99-.175-1.475l2.201-1.251c.473-.269.655-.936.381-1.4l-2.789-4.747c-.27-.468-.95-.651-1.427-.385l-2.19 1.24a10.418 10.418 0 0 0-2.626-1.475v-2.48c0-.538-.498-1.027-1.046-1.027h-5.578zm1.047 2.053h3.486V8.18c.004.433.319.846.741.973a8.394 8.394 0 0 1 3.203 1.807c.324.295.847.354 1.232.139l1.874-1.059 1.743 2.962-1.885 1.069a1.047 1.047 0 0 0-.501 1.122c.136.592.218 1.195.218 1.807 0 .612-.082 1.215-.218 1.807-.096.423.117.896.5 1.112l1.886 1.069-1.743 2.961-1.874-1.058a1.092 1.092 0 0 0-1.232.139 8.394 8.394 0 0 1-3.203 1.806 1.056 1.056 0 0 0-.74.984v2.127h-3.487V25.82c0-.437-.315-.857-.741-.984a8.394 8.394 0 0 1-3.204-1.806 1.092 1.092 0 0 0-1.23-.14L7.206 23.95l-1.743-2.961 1.885-1.07c.384-.215.596-.688.501-1.111A8.048 8.048 0 0 1 7.632 17c0-.612.082-1.215.218-1.807.1-.426-.113-.906-.501-1.122L5.464 13l1.743-2.96 1.874 1.058c.384.215.907.156 1.231-.14a8.394 8.394 0 0 1 3.204-1.806 1.06 1.06 0 0 0 .74-.973V6.053zM16 10.843c-3.454 0-6.276 2.768-6.276 6.157 0 3.389 2.822 6.158 6.276 6.158 3.454 0 6.276-2.769 6.276-6.158 0-3.389-2.822-6.158-6.276-6.158zm0 2.052c2.323 0 4.184 1.825 4.184 4.105 0 2.28-1.86 4.105-4.184 4.105S11.816 19.28 11.816 17c0-2.28 1.86-4.105 4.184-4.105z"/>
</svg>
