<svg xmlns="http://www.w3.org/2000/svg" width="18" height="18" viewBox="0 0 18 18">
    <g fill="none" fill-rule="evenodd">
        <path fill="#FFF" fill-rule="nonzero" stroke="#FFC20F" d="M.5.5h17v17H.5z"/>
        <path fill="#000" d="M13.655 5.992c.23-.226.345-.5.345-.824 0-.322-.115-.6-.345-.83A1.12 1.12 0 0 0 12.832 4c-.323 0-.6.112-.83.338L9 7.346 5.992 4.338A1.12 1.12 0 0 0 5.168 4c-.322 0-.6.112-.83.338-.226.23-.338.508-.338.83 0 .323.112.598.338.824L7.346 9l-3.008 3.001c-.226.23-.338.508-.338.83 0 .323.112.598.338.824.23.23.508.345.83.345.323 0 .598-.115.824-.345L9 10.654l3.001 3.001c.23.23.508.345.83.345.323 0 .598-.115.824-.345.23-.226.345-.5.345-.823 0-.323-.115-.6-.345-.83L10.654 9l3.001-3.008z"/>
    </g>
</svg>
