<?xml version="1.0" encoding="utf-8"?>
<!-- Generator: Adobe Illustrator 23.0.1, SVG Export Plug-In . SVG Version: 6.00 Build 0)  -->
<svg version="1.1" id="Layer_1" xmlns="http://www.w3.org/2000/svg" xmlns:xlink="http://www.w3.org/1999/xlink" x="0px" y="0px"
	 viewBox="0 0 29 30" style="enable-background:new 0 0 29 30;" xml:space="preserve">
<style type="text/css">
	.st0{fill-rule:evenodd;clip-rule:evenodd;fill:#979797;}
	.st1{filter:url(#Adobe_OpacityMaskFilter);}
	.st2{fill-rule:evenodd;clip-rule:evenodd;fill:#FFFFFF;}
	.st3{mask:url(#b_2_);fill-rule:evenodd;clip-rule:evenodd;fill:#FFFFFF;}
</style>
<g>
	<path class="st0" d="M3,0h23c1.7,0,3,1.3,3,3v24c0,1.7-1.3,3-3,3H3c-1.7,0-3-1.3-3-3V3C0,1.3,1.3,0,3,0z"/>
	<g transform="translate(9 9)">
		<defs>
			<filter id="Adobe_OpacityMaskFilter" filterUnits="userSpaceOnUse" x="-4.5" y="-4" width="20" height="20">
				<feColorMatrix  type="matrix" values="1 0 0 0 0  0 1 0 0 0  0 0 1 0 0  0 0 0 1 0"/>
			</filter>
		</defs>
		<mask maskUnits="userSpaceOnUse" x="-4.5" y="-4" width="20" height="20" id="b_2_">
			<g class="st1">
				<path id="a_2_" class="st2" d="M-4.5-4h20v20h-20V-4z"/>
			</g>
		</mask>
		<path class="st3" d="M5.5-4C0-4-4.5,0.5-4.5,6c0,4.2,2.6,7.9,6.4,9.3c-0.1-0.8-0.2-2,0-2.9c0.2-0.8,1.2-5,1.2-5S2.8,6.9,2.8,6
			c0-1.4,0.8-2.4,1.8-2.4c0.9,0,1.3,0.6,1.3,1.4c0,0.9-0.5,2.1-0.8,3.3c-0.2,1,0.5,1.8,1.5,1.8c1.8,0,3.1-1.9,3.1-4.6
			c0-2.4-1.7-4.1-4.2-4.1c-2.8,0-4.5,2.1-4.5,4.3c0,0.9,0.3,1.8,0.7,2.3c0.1,0.1,0.1,0.2,0.1,0.3c-0.1,0.3-0.2,1-0.3,1.1
			c0,0.2-0.1,0.2-0.3,0.1c-1.3-0.6-2-2.4-2-3.9c0-3.2,2.3-6.1,6.6-6.1c3.5,0,6.2,2.5,6.2,5.8c0,3.4-2.2,6.2-5.2,6.2
			c-1,0-2-0.5-2.3-1.1l-0.6,2.4c-0.2,0.9-0.8,2-1.2,2.6c0.9,0.3,1.9,0.4,3,0.4c5.5,0,10-4.5,10-10S11-4,5.5-4"/>
	</g>
</g>
</svg>
