<svg xmlns="http://www.w3.org/2000/svg" width="15" height="15">
    <path fill="#979797" fill-rule="evenodd" d="M14.999 8.048a1.468 1.468 0 0 0-1.162-1.424v-.457C13.837 2.76 11-.002 7.5-.002 4-.002 1.162 2.76 1.162 6.167v.475A1.47 1.47 0 0 0 0 8.048v1.825a1.47 1.47 0 0 0 1.182 1.424c.163 1.584 1.532 2.791 3.168 2.793h.281c.199.548.733.915 1.331.912H8.25c.776 0 1.406-.613 1.406-1.369s-.63-1.369-1.406-1.369H5.962a1.396 1.396 0 0 0-1.368 1.095H4.35c-1.212.004-2.242-.859-2.419-2.026h1.144a.37.37 0 0 0 .375-.365V6.952a.37.37 0 0 0-.375-.365H1.912v-.42C1.912 3.163 4.414.728 7.5.728c3.086 0 5.587 2.435 5.587 5.439v.42h-1.163a.37.37 0 0 0-.374.365v4.016a.37.37 0 0 0 .374.365H13.5c.828 0 1.499-.654 1.499-1.46V8.048zm-9.037 4.946H8.25c.362 0 .656.286.656.639a.648.648 0 0 1-.656.639H5.962a.648.648 0 0 1-.656-.639c0-.353.294-.639.656-.639zM2.7 10.603H1.5a.74.74 0 0 1-.75-.73V8.048a.74.74 0 0 1 .75-.731h1.218L2.7 10.603zm11.549-.73a.74.74 0 0 1-.749.73h-1.2V7.317h1.2a.74.74 0 0 1 .749.731v1.825z"/>
</svg>
