<svg
   xmlns="http://www.w3.org/2000/svg"
   id="svg10"
   version="1.1"
   viewBox="0 0 24 24"
   height="24"
   width="24">
  <defs
     id="defs14" />
  <g
     style="fill:none;fill-rule:evenodd"
     id="g8"
     transform="translate(1,1)">
    <circle
       style="stroke:#ffc20f"
       id="circle2"
       r="11"
       cy="11"
       cx="11" />
    <g
       id="text6"
       style="fill:#ffffff"
       aria-label="$">
      <path
         id="path823"
         d="m 14.704,12.32 q 0,1.168 -0.816,1.984 -0.736,0.768 -1.92,0.992 V 16 H 10.256 V 15.296 Q 7.9839998,14.928 7.2959998,12.624 l 1.808,-0.496 q 0.288,0.96 1.1520002,1.248 v -2.352 q -1.2800002,-0.336 -1.9200002,-0.848 -0.848,-0.688 -0.848,-1.84 0,-1.104 0.864,-1.824 0.736,-0.624 1.9040002,-0.8 v -0.88 h 1.712 V 5.68 q 1.392,0.24 2.352,1.552 l -1.392,1.152 q -0.4,-0.544 -0.96,-0.816 v 1.936 q 2.736,0.8 2.736,2.816 z M 10.256,7.6 q -0.8160002,0.224 -0.8160002,0.736 0,0.448 0.8160002,0.736 z m 2.48,4.768 q 0,-0.544 -0.768,-0.848 v 1.856 q 0.768,-0.256 0.768,-1.008 z" />
    </g>
  </g>
</svg>
