<svg xmlns="http://www.w3.org/2000/svg" width="47" height="30" viewBox="0 0 47 30">
    <g fill="none" fill-rule="evenodd">
        <rect width="46" height="29" x=".5" y=".5" fill="#FFF" stroke="#D9D9D9" rx="2"/>
        <path fill="#FF5F00" d="M19.429 22.143H28V6.905h-8.571z"/>
        <path fill="#EB001B" d="M20.368 15a9.98 9.98 0 0 1 3.822-7.862A9.967 9.967 0 0 0 18.006 5C12.48 5 8 9.477 8 15s4.48 10 10.006 10a9.967 9.967 0 0 0 6.184-2.138A9.98 9.98 0 0 1 20.368 15"/>
        <path fill="#F79E1B" d="M39.429 15c0 5.523-4.48 10-10.007 10a9.967 9.967 0 0 1-6.184-2.138A9.98 9.98 0 0 0 27.06 15a9.98 9.98 0 0 0-3.822-7.862A9.967 9.967 0 0 1 29.422 5C34.948 5 39.43 9.477 39.43 15"/>
    </g>
</svg>
