<?xml version="1.0" encoding="UTF-8"?>
<svg width="48px" height="48px" viewBox="0 0 48 48" version="1.1" xmlns="http://www.w3.org/2000/svg" xmlns:xlink="http://www.w3.org/1999/xlink">
    <!-- Generator: Sketch 52.3 (67297) - http://www.bohemiancoding.com/sketch -->
    <title>Icon/play</title>
    <desc>Created with Sketch.</desc>
    <defs>
        <path d="M24,44.6666667 C35.4138848,44.6666667 44.6666667,35.4138848 44.6666667,24 C44.6666667,12.5861152 35.4138848,3.33333333 24,3.33333333 C12.5861152,3.33333333 3.33333333,12.5861152 3.33333333,24 C3.33333333,35.4138848 12.5861152,44.6666667 24,44.6666667 Z M24,48 C10.745166,48 0,37.254834 0,24 C0,10.745166 10.745166,0 24,0 C37.254834,0 48,10.745166 48,24 C48,37.254834 37.254834,48 24,48 Z" id="path-1"></path>
        <path d="M2.83333333,4.25085874 L2.83333333,23.0824746 L16.8333333,13.6666667 L2.83333333,4.25085874 Z M2.79094216,27.013899 C1.60884157,27.8339965 0,26.9799873 0,25.5324042 L0,1.80092908 C0,0.353346051 1.60884157,-0.50066316 2.79094216,0.319434352 L19.8943904,12.1851719 C20.9240921,12.8995407 20.9240921,14.4337926 19.8943904,15.1481614 L2.79094216,27.013899 Z" id="path-3"></path>
    </defs>
    <g id="Style-Guide" stroke="none" stroke-width="1" fill="none" fill-rule="evenodd">
        <g id="09.-Icons" transform="translate(-924.000000, -958.000000)">
            <g id="Interface-Icons" transform="translate(91.000000, 536.000000)">
                <g id="Row" transform="translate(3.000000, 421.000000)">
                    <g id="Icon" transform="translate(825.000000, 1.000000)">
                        <g id="Icon/play" transform="translate(5.000000, 0.000000)">
                            <g id="Icon">
                                <g id="Circle">
                                    <mask id="mask-2" fill="white">
                                        <use xlink:href="#path-1"></use>
                                    </mask>
                                    <g id="Oval-2" fill-rule="nonzero"></g>
                                    <g id="Mixin/Color/Fill/Black015-Brand" mask="url(#mask-2)" fill="#000000">
                                        <rect id="Mixin/Color/Fill/Black000" x="0" y="0" width="48" height="48"></rect>
                                    </g>
                                </g>
                                <g id="Arrow" transform="translate(16.000000, 10.666667)">
                                    <mask id="mask-4" fill="white">
                                        <use xlink:href="#path-3"></use>
                                    </mask>
                                    <g id="Path" fill-rule="nonzero"></g>
                                    <g id="Mixin/Color/Fill/Black015-Brand" mask="url(#mask-4)" fill="#000000">
                                        <g transform="translate(-16.000000, -10.666667)" id="Mixin/Color/Fill/Black000">
                                            <rect x="0" y="0" width="48" height="48"></rect>
                                        </g>
                                    </g>
                                </g>
                            </g>
                        </g>
                    </g>
                </g>
            </g>
        </g>
    </g>
</svg>