<?xml version="1.0" encoding="UTF-8"?>
<svg width="48px" height="48px" viewBox="0 0 48 48" version="1.1" xmlns="http://www.w3.org/2000/svg" xmlns:xlink="http://www.w3.org/1999/xlink">
    <!-- Generator: Sketch 52.3 (67297) - http://www.bohemiancoding.com/sketch -->
    <title>Icon/social-twitter</title>
    <desc>Created with Sketch.</desc>

    <style>
        /* <![CDATA[ */
        g.icon-hoverable:hover {
            fill: #e21c2b;
        }
        /* ]]> */
    </style>

    <defs>
        <path d="M39.654598,8.35888024 C35.6413562,4.35897317 30.1126947,1.87338831 23.9997212,1.87338831 C17.8873053,1.87338831 12.3586438,4.35897317 8.35878315,8.35888024 C4.35892254,12.3587873 1.8739241,17.8875131 1.8739241,24 C1.8739241,30.113602 4.35892254,35.6412127 8.35878315,39.6545011 C12.3586438,43.6549657 17.8873053,46.1266117 23.9997212,46.1266117 C30.1126947,46.1266117 35.6413562,43.6549657 39.654598,39.6545011 C43.6544587,35.6412127 46.1260759,30.113602 46.1260759,24 C46.1260759,17.8875131 43.6544587,12.3587873 39.654598,8.35888024 Z M23.9997212,-6.03961325e-14 C30.6312158,-6.03961325e-14 36.6243161,2.68407481 40.9698575,7.03022418 C45.3153988,11.375816 48,17.3689859 48,24 C48,30.6315716 45.3153988,36.6247415 40.9698575,40.9703334 C36.6243161,45.3159252 30.6312158,48 23.9997212,48 C17.3687842,48 11.3756839,45.3159252 7.03014252,40.9703334 C2.68460118,36.6247415 -7.10542736e-15,30.6315716 -7.10542736e-15,24 C-7.10542736e-15,17.3689859 2.68460118,11.375816 7.03014252,7.03022418 C11.3756839,2.68407481 17.3687842,-6.03961325e-14 23.9997212,-6.03961325e-14 Z M36.2910698,16.548893 C35.6263256,17.5334512 34.7612093,18.4114047 33.7900465,19.1163349 L33.7900465,19.7554047 C33.7900465,20.7394047 33.684,21.7373581 33.4573953,22.7475907 C32.1937674,28.4015442 27.3385116,33.8428465 19.476,33.8428465 C16.6423256,33.8428465 13.9956279,33.0184744 11.7608372,31.6214512 C12.1727442,31.6610791 12.5584186,31.6878698 12.9708837,31.6878698 C15.3256744,31.6878698 17.4806512,30.9031256 19.2103256,29.5725209 C17.0151628,29.5194977 15.1660465,28.0828465 14.5135814,26.1137302 C14.82,26.1801488 15.139814,26.2203349 15.4590698,26.2203349 C15.924,26.2203349 16.3493023,26.1539163 16.7896744,26.0339163 C15.0996279,25.7012651 13.7026047,24.5314047 13.0903256,22.9741953 C12.8648372,22.4160558 12.7448372,21.8300093 12.7448372,21.1914977 L12.7448372,21.1250791 C13.4229767,21.4973581 14.1948837,21.7239628 15.0192558,21.7373581 C13.6892093,20.8594047 12.7850233,19.3423814 12.7850233,17.6132651 C12.7850233,16.7090791 13.0501395,15.8707535 13.476,15.1256372 C15.9507907,18.1317767 19.6624186,20.100893 23.8529302,20.300707 C23.7731163,19.9412651 23.7061395,19.568986 23.7061395,19.1693581 C23.7061395,16.4428465 25.9682791,14.220893 28.7349767,14.220893 C30.1984186,14.220893 31.5139535,14.8197767 32.419814,15.7903814 C33.564,15.5643349 34.6546047,15.1524279 35.6263256,14.5803349 C35.2529302,15.7507535 34.4547907,16.7090791 33.4043721,17.3336372 C34.4285581,17.2008 35.3991628,16.9351256 36.2910698,16.548893 Z" id="path-1"></path>
    </defs>
    <g id="Style-Guide" stroke="none" stroke-width="1" fill="none" fill-rule="evenodd">
        <g id="09.-Icons" transform="translate(-372.000000, -2038.000000)">
            <g id="Interface-Icons" transform="translate(91.000000, 536.000000)">
                <g id="Row" transform="translate(0.000000, 1502.000000)">
                    <g id="Icon" transform="translate(281.000000, 0.000000)">
                        <g id="Icon/social-twitter">
                            <g id="Icon">
                                <mask id="mask-2" fill="white">
                                    <use xlink:href="#path-1"></use>
                                </mask>
                                <g id="Combined-Shape"></g>
                                <g id="Mixin/Color/Fill/Black015-Brand" mask="url(#mask-2)" fill="#000000" class="icon-hoverable">
                                    <rect id="Mixin/Color/Fill/Black000" x="0" y="0" width="48" height="48"></rect>
                                </g>
                            </g>
                        </g>
                    </g>
                </g>
            </g>
        </g>
    </g>
</svg>