<?xml version="1.0" encoding="UTF-8"?>
<svg width="48px" height="48px" viewBox="0 0 48 48" version="1.1" xmlns="http://www.w3.org/2000/svg" xmlns:xlink="http://www.w3.org/1999/xlink">
    <!-- Generator: Sketch 52.3 (67297) - http://www.bohemiancoding.com/sketch -->
    <title>Icon/social-facebook</title>
    <desc>Created with Sketch.</desc>

    <style>
        /* <![CDATA[ */
        g.icon-hoverable:hover {
            fill: #e21c2b;
        }
        /* ]]> */
    </style>

    <defs>
        <path d="M39.654598,8.35888024 C35.6413562,4.35897317 30.1126947,1.87338831 23.9997212,1.87338831 C17.8873053,1.87338831 12.3586438,4.35897317 8.35878315,8.35888024 C4.35892254,12.3587873 1.8739241,17.8875131 1.8739241,24 C1.8739241,30.113602 4.35892254,35.6412127 8.35878315,39.6545011 C12.3586438,43.6549657 17.8873053,46.1266117 23.9997212,46.1266117 C30.1126947,46.1266117 35.6413562,43.6549657 39.654598,39.6545011 C43.6544587,35.6412127 46.1260759,30.113602 46.1260759,24 C46.1260759,17.8875131 43.6544587,12.3587873 39.654598,8.35888024 Z M23.9997212,-6.03961325e-14 C30.6312158,-6.03961325e-14 36.6243161,2.68407481 40.9698575,7.03022418 C45.3153988,11.375816 48,17.3689859 48,24 C48,30.6315716 45.3153988,36.6247415 40.9698575,40.9703334 C36.6243161,45.3159252 30.6312158,48 23.9997212,48 C17.3687842,48 11.3756839,45.3159252 7.03014252,40.9703334 C2.68460118,36.6247415 -7.10542736e-15,30.6315716 -7.10542736e-15,24 C-7.10542736e-15,17.3689859 2.68460118,11.375816 7.03014252,7.03022418 C11.3756839,2.68407481 17.3687842,-6.03961325e-14 23.9997212,-6.03961325e-14 Z M25.8610605,19.1164465 L29.759107,19.1164465 L29.4666419,22.0963535 L29.3064558,24.0252837 L25.6752,24.0252837 L25.6752,36.2909581 L20.7663628,36.2909581 L20.7663628,24.0252837 L18.2915721,24.0252837 L18.2915721,22.0829581 L18.2915721,19.1164465 L20.7395721,19.1164465 L20.7395721,16.9078884 C20.7395721,14.8857488 21.6845023,11.7730047 25.9012465,11.7730047 L29.6926884,11.7730047 L29.6926884,15.9769116 L26.939386,15.9769116 C26.4861767,15.9769116 25.8610605,16.2029581 25.8610605,17.1478884 L25.8610605,19.1164465 Z" id="path-1"></path>
    </defs>
    <g id="Style-Guide" stroke="none" stroke-width="1" fill="none" fill-rule="evenodd">
        <g id="09.-Icons" transform="translate(-96.000000, -2038.000000)">
            <g id="Interface-Icons" transform="translate(91.000000, 536.000000)">
                <g id="Row" transform="translate(0.000000, 1502.000000)">
                    <g id="Icon">
                        <g id="Icon/social-facebook" transform="translate(5.000000, 0.000000)">
                            <g id="Icon">
                                <mask id="mask-2" fill="white">
                                    <use xlink:href="#path-1"></use>
                                </mask>
                                <g id="Combined-Shape"></g>
                                <g id="Mixin/Color/Fill/Black015-Brand" mask="url(#mask-2)" fill="#000000" class="icon-hoverable">
                                    <rect id="Mixin/Color/Fill/Black000" x="0" y="0" width="48" height="48"></rect>
                                </g>
                            </g>
                        </g>
                    </g>
                </g>
            </g>
        </g>
    </g>
</svg>